<?xml version="1.0" encoding="UTF-8" standalone="no"?>
<!DOCTYPE svg PUBLIC "-//W3C//DTD SVG 1.1//EN"
 "http://www.w3.org/Graphics/SVG/1.1/DTD/svg11.dtd">
<!-- Generated by graphviz version 5.0.0 (20220707.1540)
 -->
<!-- Title: dependencies Pages: 1 -->
<svg width="1136pt" height="247pt"
 viewBox="0.00 0.00 1136.00 246.80" xmlns="http://www.w3.org/2000/svg" xmlns:xlink="http://www.w3.org/1999/xlink">
<g id="graph0" class="graph" transform="scale(1 1) rotate(0) translate(4 242.8)">
<title>dependencies</title>
<polygon fill="white" stroke="transparent" points="-4,4 -4,-242.8 1132,-242.8 1132,4 -4,4"/>
<text text-anchor="middle" x="564" y="-8.2" font-family="sans-serif" font-size="14.00">dependencies</text>
<g id="clust1" class="cluster">
<title>cluster_TelemetryModule</title>
<polygon fill="none" stroke="black" stroke-dasharray="1,5" points="8,-32.8 8,-230.8 1120,-230.8 1120,-32.8 8,-32.8"/>
</g>
<g id="clust2" class="cluster">
<title>cluster_TelemetryModule_declarations</title>
<polygon fill="none" stroke="black" points="28,-40.8 28,-92.8 1103,-92.8 1103,-40.8 28,-40.8"/>
</g>
<g id="clust10" class="cluster">
<title>cluster_TelemetryModule_exports</title>
<polygon fill="none" stroke="black" points="16,-170.8 16,-222.8 1112,-222.8 1112,-170.8 16,-170.8"/>
</g>
<!-- TelemetryEndDirective -->
<g id="node1" class="node">
<title>TelemetryEndDirective</title>
<polygon fill="#ffffb3" stroke="black" points="1095.16,-84.8 946.84,-84.8 946.84,-48.8 1095.16,-48.8 1095.16,-84.8"/>
<text text-anchor="middle" x="1021" y="-62.6" font-family="Times,serif" font-size="14.00">TelemetryEndDirective</text>
</g>
<!-- TelemetryModule -->
<g id="node7" class="node">
<title>TelemetryModule</title>
<polygon fill="#8dd3c7" stroke="black" points="528.58,-149.8 525.58,-153.8 504.58,-153.8 501.58,-149.8 411.42,-149.8 411.42,-113.8 528.58,-113.8 528.58,-149.8"/>
<text text-anchor="middle" x="470" y="-127.6" font-family="Times,serif" font-size="14.00">TelemetryModule</text>
</g>
<!-- TelemetryEndDirective&#45;&gt;TelemetryModule -->
<g id="edge1" class="edge">
<title>TelemetryEndDirective&#45;&gt;TelemetryModule</title>
<path fill="none" stroke="black" d="M1047.44,-85.02C1047.44,-103.63 1047.44,-129.8 1047.44,-129.8 1047.44,-129.8 538.55,-129.8 538.55,-129.8"/>
<polygon fill="black" stroke="black" points="538.55,-126.3 528.55,-129.8 538.55,-133.3 538.55,-126.3"/>
</g>
<!-- TelemetryErrorDirective -->
<g id="node2" class="node">
<title>TelemetryErrorDirective</title>
<polygon fill="#ffffb3" stroke="black" points="928.65,-84.8 773.35,-84.8 773.35,-48.8 928.65,-48.8 928.65,-84.8"/>
<text text-anchor="middle" x="851" y="-62.6" font-family="Times,serif" font-size="14.00">TelemetryErrorDirective</text>
</g>
<!-- TelemetryErrorDirective&#45;&gt;TelemetryModule -->
<g id="edge2" class="edge">
<title>TelemetryErrorDirective&#45;&gt;TelemetryModule</title>
<path fill="none" stroke="black" d="M877.61,-84.83C877.61,-101.86 877.61,-124.8 877.61,-124.8 877.61,-124.8 538.83,-124.8 538.83,-124.8"/>
<polygon fill="black" stroke="black" points="538.83,-121.3 528.83,-124.8 538.83,-128.3 538.83,-121.3"/>
</g>
<!-- TelemetryImpressionDirective -->
<g id="node3" class="node">
<title>TelemetryImpressionDirective</title>
<polygon fill="#ffffb3" stroke="black" points="755.82,-84.8 568.18,-84.8 568.18,-48.8 755.82,-48.8 755.82,-84.8"/>
<text text-anchor="middle" x="662" y="-62.6" font-family="Times,serif" font-size="14.00">TelemetryImpressionDirective</text>
</g>
<!-- TelemetryImpressionDirective&#45;&gt;TelemetryModule -->
<g id="edge3" class="edge">
<title>TelemetryImpressionDirective&#45;&gt;TelemetryModule</title>
<path fill="none" stroke="black" d="M693.3,-85.04C693.3,-100.37 693.3,-119.8 693.3,-119.8 693.3,-119.8 538.67,-119.8 538.67,-119.8"/>
<polygon fill="black" stroke="black" points="538.67,-116.3 528.67,-119.8 538.67,-123.3 538.67,-116.3"/>
</g>
<!-- TelemetryInteractDirective -->
<g id="node4" class="node">
<title>TelemetryInteractDirective</title>
<polygon fill="#ffffb3" stroke="black" points="550.35,-84.8 381.65,-84.8 381.65,-48.8 550.35,-48.8 550.35,-84.8"/>
<text text-anchor="middle" x="466" y="-62.6" font-family="Times,serif" font-size="14.00">TelemetryInteractDirective</text>
</g>
<!-- TelemetryInteractDirective&#45;&gt;TelemetryModule -->
<g id="edge4" class="edge">
<title>TelemetryInteractDirective&#45;&gt;TelemetryModule</title>
<path fill="none" stroke="black" d="M470,-84.91C470,-84.91 470,-103.79 470,-103.79"/>
<polygon fill="black" stroke="black" points="466.5,-103.79 470,-113.79 473.5,-103.79 466.5,-103.79"/>
</g>
<!-- TelemetryShareDirective -->
<g id="node5" class="node">
<title>TelemetryShareDirective</title>
<polygon fill="#ffffb3" stroke="black" points="363.98,-84.8 206.02,-84.8 206.02,-48.8 363.98,-48.8 363.98,-84.8"/>
<text text-anchor="middle" x="285" y="-62.6" font-family="Times,serif" font-size="14.00">TelemetryShareDirective</text>
</g>
<!-- TelemetryShareDirective&#45;&gt;TelemetryModule -->
<g id="edge5" class="edge">
<title>TelemetryShareDirective&#45;&gt;TelemetryModule</title>
<path fill="none" stroke="black" d="M307.75,-84.81C307.75,-100.85 307.75,-121.8 307.75,-121.8 307.75,-121.8 401.42,-121.8 401.42,-121.8"/>
<polygon fill="black" stroke="black" points="401.42,-125.3 411.42,-121.8 401.42,-118.3 401.42,-125.3"/>
</g>
<!-- TelemetryStartDirective -->
<g id="node6" class="node">
<title>TelemetryStartDirective</title>
<polygon fill="#ffffb3" stroke="black" points="188.05,-84.8 35.95,-84.8 35.95,-48.8 188.05,-48.8 188.05,-84.8"/>
<text text-anchor="middle" x="112" y="-62.6" font-family="Times,serif" font-size="14.00">TelemetryStartDirective</text>
</g>
<!-- TelemetryStartDirective&#45;&gt;TelemetryModule -->
<g id="edge6" class="edge">
<title>TelemetryStartDirective&#45;&gt;TelemetryModule</title>
<path fill="none" stroke="black" d="M183.9,-85.07C183.9,-103.36 183.9,-128.8 183.9,-128.8 183.9,-128.8 401.41,-128.8 401.41,-128.8"/>
<polygon fill="black" stroke="black" points="401.41,-132.3 411.41,-128.8 401.41,-125.3 401.41,-132.3"/>
</g>
<!-- TelemetryEndDirective  -->
<g id="node8" class="node">
<title>TelemetryEndDirective </title>
<polygon fill="#fb8072" stroke="black" points="1103.66,-214.8 952.34,-214.8 952.34,-178.8 1103.66,-178.8 1103.66,-214.8"/>
<text text-anchor="middle" x="1028" y="-192.6" font-family="Times,serif" font-size="14.00">TelemetryEndDirective </text>
</g>
<!-- TelemetryModule&#45;&gt;TelemetryEndDirective  -->
<g id="edge7" class="edge">
<title>TelemetryModule&#45;&gt;TelemetryEndDirective </title>
<path fill="none" stroke="black" stroke-dasharray="5,2" d="M528.72,-134.8C666.66,-134.8 999.81,-134.8 999.81,-134.8 999.81,-134.8 999.81,-168.53 999.81,-168.53"/>
<polygon fill="black" stroke="black" points="996.31,-168.53 999.81,-178.53 1003.31,-168.53 996.31,-168.53"/>
</g>
<!-- TelemetryErrorDirective  -->
<g id="node9" class="node">
<title>TelemetryErrorDirective </title>
<polygon fill="#fb8072" stroke="black" points="934.15,-214.8 775.85,-214.8 775.85,-178.8 934.15,-178.8 934.15,-214.8"/>
<text text-anchor="middle" x="855" y="-192.6" font-family="Times,serif" font-size="14.00">TelemetryErrorDirective </text>
</g>
<!-- TelemetryModule&#45;&gt;TelemetryErrorDirective  -->
<g id="edge8" class="edge">
<title>TelemetryModule&#45;&gt;TelemetryErrorDirective </title>
<path fill="none" stroke="black" stroke-dasharray="5,2" d="M528.89,-139.8C630.19,-139.8 826.64,-139.8 826.64,-139.8 826.64,-139.8 826.64,-168.76 826.64,-168.76"/>
<polygon fill="black" stroke="black" points="823.14,-168.76 826.64,-178.76 830.14,-168.76 823.14,-168.76"/>
</g>
<!-- TelemetryImpressionDirective  -->
<g id="node10" class="node">
<title>TelemetryImpressionDirective </title>
<polygon fill="#fb8072" stroke="black" points="757.82,-214.8 566.18,-214.8 566.18,-178.8 757.82,-178.8 757.82,-214.8"/>
<text text-anchor="middle" x="662" y="-192.6" font-family="Times,serif" font-size="14.00">TelemetryImpressionDirective </text>
</g>
<!-- TelemetryModule&#45;&gt;TelemetryImpressionDirective  -->
<g id="edge9" class="edge">
<title>TelemetryModule&#45;&gt;TelemetryImpressionDirective </title>
<path fill="none" stroke="black" stroke-dasharray="5,2" d="M528.92,-144.8C574.79,-144.8 630.7,-144.8 630.7,-144.8 630.7,-144.8 630.7,-168.61 630.7,-168.61"/>
<polygon fill="black" stroke="black" points="627.2,-168.61 630.7,-178.61 634.2,-168.61 627.2,-168.61"/>
</g>
<!-- TelemetryInteractDirective  -->
<g id="node11" class="node">
<title>TelemetryInteractDirective </title>
<polygon fill="#fb8072" stroke="black" points="547.85,-214.8 376.15,-214.8 376.15,-178.8 547.85,-178.8 547.85,-214.8"/>
<text text-anchor="middle" x="462" y="-192.6" font-family="Times,serif" font-size="14.00">TelemetryInteractDirective </text>
</g>
<!-- TelemetryModule&#45;&gt;TelemetryInteractDirective  -->
<g id="edge10" class="edge">
<title>TelemetryModule&#45;&gt;TelemetryInteractDirective </title>
<path fill="none" stroke="black" stroke-dasharray="5,2" d="M470,-149.91C470,-149.91 470,-168.79 470,-168.79"/>
<polygon fill="black" stroke="black" points="466.5,-168.79 470,-178.79 473.5,-168.79 466.5,-168.79"/>
</g>
<!-- TelemetryShareDirective  -->
<g id="node12" class="node">
<title>TelemetryShareDirective </title>
<polygon fill="#fb8072" stroke="black" points="358.48,-214.8 197.52,-214.8 197.52,-178.8 358.48,-178.8 358.48,-214.8"/>
<text text-anchor="middle" x="278" y="-192.6" font-family="Times,serif" font-size="14.00">TelemetryShareDirective </text>
</g>
<!-- TelemetryModule&#45;&gt;TelemetryShareDirective  -->
<g id="edge11" class="edge">
<title>TelemetryModule&#45;&gt;TelemetryShareDirective </title>
<path fill="none" stroke="black" stroke-dasharray="5,2" d="M411.23,-142.8C348.19,-142.8 257,-142.8 257,-142.8 257,-142.8 257,-168.52 257,-168.52"/>
<polygon fill="black" stroke="black" points="253.5,-168.52 257,-178.52 260.5,-168.52 253.5,-168.52"/>
</g>
<!-- TelemetryStartDirective  -->
<g id="node13" class="node">
<title>TelemetryStartDirective </title>
<polygon fill="#fb8072" stroke="black" points="179.55,-214.8 24.45,-214.8 24.45,-178.8 179.55,-178.8 179.55,-214.8"/>
<text text-anchor="middle" x="102" y="-192.6" font-family="Times,serif" font-size="14.00">TelemetryStartDirective </text>
</g>
<!-- TelemetryModule&#45;&gt;TelemetryStartDirective  -->
<g id="edge12" class="edge">
<title>TelemetryModule&#45;&gt;TelemetryStartDirective </title>
<path fill="none" stroke="black" stroke-dasharray="5,2" d="M411.42,-135.8C308.93,-135.8 107.88,-135.8 107.88,-135.8 107.88,-135.8 107.88,-168.5 107.88,-168.5"/>
<polygon fill="black" stroke="black" points="104.38,-168.5 107.88,-178.5 111.38,-168.5 104.38,-168.5"/>
</g>
</g>
</svg>
