<?xml version="1.0" encoding="UTF-8" standalone="no"?>
<!DOCTYPE svg PUBLIC "-//W3C//DTD SVG 1.1//EN"
 "http://www.w3.org/Graphics/SVG/1.1/DTD/svg11.dtd">
<!-- Generated by graphviz version 5.0.0 (20220707.1540)
 -->
<!-- Title: dependencies Pages: 1 -->
<svg width="540pt" height="174pt"
 viewBox="0.00 0.00 540.00 173.80" xmlns="http://www.w3.org/2000/svg" xmlns:xlink="http://www.w3.org/1999/xlink">
<g id="graph0" class="graph" transform="scale(1 1) rotate(0) translate(4 169.8)">
<title>dependencies</title>
<polygon fill="white" stroke="transparent" points="-4,4 -4,-169.8 536,-169.8 536,4 -4,4"/>
<text text-anchor="middle" x="266" y="-8.2" font-family="sans-serif" font-size="14.00">dependencies</text>
<g id="clust1" class="cluster">
<title>cluster_QuestionnaireModule</title>
<polygon fill="none" stroke="black" stroke-dasharray="1,5" points="8,-32.8 8,-157.8 524,-157.8 524,-32.8 8,-32.8"/>
</g>
<g id="clust4" class="cluster">
<title>cluster_QuestionnaireModule_imports</title>
<polygon fill="none" stroke="black" points="200,-40.8 200,-92.8 516,-92.8 516,-40.8 200,-40.8"/>
</g>
<g id="clust2" class="cluster">
<title>cluster_QuestionnaireModule_declarations</title>
<polygon fill="none" stroke="black" points="16,-40.8 16,-92.8 192,-92.8 192,-40.8 16,-40.8"/>
</g>
<!-- QuestionnaireComponent -->
<g id="node1" class="node">
<title>QuestionnaireComponent</title>
<polygon fill="#ffffb3" stroke="black" points="183.86,-84.8 24.14,-84.8 24.14,-48.8 183.86,-48.8 183.86,-84.8"/>
<text text-anchor="middle" x="104" y="-62.6" font-family="Times,serif" font-size="14.00">QuestionnaireComponent</text>
</g>
<!-- QuestionnaireModule -->
<g id="node2" class="node">
<title>QuestionnaireModule</title>
<polygon fill="#8dd3c7" stroke="black" points="326.08,-149.8 323.08,-153.8 302.08,-153.8 299.08,-149.8 187.92,-149.8 187.92,-113.8 326.08,-113.8 326.08,-149.8"/>
<text text-anchor="middle" x="257" y="-127.6" font-family="Times,serif" font-size="14.00">QuestionnaireModule</text>
</g>
<!-- QuestionnaireComponent&#45;&gt;QuestionnaireModule -->
<g id="edge1" class="edge">
<title>QuestionnaireComponent&#45;&gt;QuestionnaireModule</title>
<path fill="none" stroke="black" d="M184.02,-66.8C192.37,-66.8 197.87,-66.8 197.87,-66.8 197.87,-66.8 197.87,-103.69 197.87,-103.69"/>
<polygon fill="black" stroke="black" points="194.37,-103.69 197.87,-113.69 201.37,-103.69 194.37,-103.69"/>
</g>
<!-- QuestionnaireRoutingModule -->
<g id="node3" class="node">
<title>QuestionnaireRoutingModule</title>
<polygon fill="#8dd3c7" stroke="black" points="507.7,-84.8 504.7,-88.8 483.7,-88.8 480.7,-84.8 324.3,-84.8 324.3,-48.8 507.7,-48.8 507.7,-84.8"/>
<text text-anchor="middle" x="416" y="-62.6" font-family="Times,serif" font-size="14.00">QuestionnaireRoutingModule</text>
</g>
<!-- QuestionnaireRoutingModule&#45;&gt;QuestionnaireModule -->
<g id="edge2" class="edge">
<title>QuestionnaireRoutingModule&#45;&gt;QuestionnaireModule</title>
<path fill="none" stroke="black" d="M324.24,-66.8C318.7,-66.8 315.31,-66.8 315.31,-66.8 315.31,-66.8 315.31,-103.69 315.31,-103.69"/>
<polygon fill="black" stroke="black" points="311.81,-103.69 315.31,-113.69 318.81,-103.69 311.81,-103.69"/>
</g>
<!-- SharedModule -->
<g id="node4" class="node">
<title>SharedModule</title>
<polygon fill="#8dd3c7" stroke="black" points="306.43,-84.8 303.43,-88.8 282.43,-88.8 279.43,-84.8 207.57,-84.8 207.57,-48.8 306.43,-48.8 306.43,-84.8"/>
<text text-anchor="middle" x="257" y="-62.6" font-family="Times,serif" font-size="14.00">SharedModule</text>
</g>
<!-- SharedModule&#45;&gt;QuestionnaireModule -->
<g id="edge3" class="edge">
<title>SharedModule&#45;&gt;QuestionnaireModule</title>
<path fill="none" stroke="black" d="M257,-84.91C257,-84.91 257,-103.79 257,-103.79"/>
<polygon fill="black" stroke="black" points="253.5,-103.79 257,-113.79 260.5,-103.79 253.5,-103.79"/>
</g>
</g>
</svg>
