<?xml version="1.0" encoding="UTF-8" standalone="no"?>
<!DOCTYPE svg PUBLIC "-//W3C//DTD SVG 1.1//EN"
 "http://www.w3.org/Graphics/SVG/1.1/DTD/svg11.dtd">
<!-- Generated by graphviz version 5.0.0 (20220707.1540)
 -->
<!-- Title: dependencies Pages: 1 -->
<svg width="540pt" height="174pt"
 viewBox="0.00 0.00 540.00 173.80" xmlns="http://www.w3.org/2000/svg" xmlns:xlink="http://www.w3.org/1999/xlink">
<g id="graph0" class="graph" transform="scale(1 1) rotate(0) translate(4 169.8)">
<title>dependencies</title>
<polygon fill="white" stroke="transparent" points="-4,4 -4,-169.8 536,-169.8 536,4 -4,4"/>
<text text-anchor="middle" x="266" y="-8.2" font-family="sans-serif" font-size="14.00">dependencies</text>
<g id="clust1" class="cluster">
<title>cluster_QuestionnaireModule</title>
<polygon fill="none" stroke="black" stroke-dasharray="1,5" points="8,-32.8 8,-157.8 524,-157.8 524,-32.8 8,-32.8"/>
</g>
<g id="clust2" class="cluster">
<title>cluster_QuestionnaireModule_declarations</title>
<polygon fill="none" stroke="black" points="340,-40.8 340,-92.8 516,-92.8 516,-40.8 340,-40.8"/>
</g>
<g id="clust4" class="cluster">
<title>cluster_QuestionnaireModule_imports</title>
<polygon fill="none" stroke="black" points="16,-40.8 16,-92.8 332,-92.8 332,-40.8 16,-40.8"/>
</g>
<!-- QuestionnaireComponent -->
<g id="node1" class="node">
<title>QuestionnaireComponent</title>
<polygon fill="#ffffb3" stroke="black" points="507.86,-84.8 348.14,-84.8 348.14,-48.8 507.86,-48.8 507.86,-84.8"/>
<text text-anchor="middle" x="428" y="-62.6" font-family="Times,serif" font-size="14.00">QuestionnaireComponent</text>
</g>
<!-- QuestionnaireModule -->
<g id="node2" class="node">
<title>QuestionnaireModule</title>
<polygon fill="#8dd3c7" stroke="black" points="301.08,-149.8 298.08,-153.8 277.08,-153.8 274.08,-149.8 162.92,-149.8 162.92,-113.8 301.08,-113.8 301.08,-149.8"/>
<text text-anchor="middle" x="232" y="-127.6" font-family="Times,serif" font-size="14.00">QuestionnaireModule</text>
</g>
<!-- QuestionnaireComponent&#45;&gt;QuestionnaireModule -->
<g id="edge1" class="edge">
<title>QuestionnaireComponent&#45;&gt;QuestionnaireModule</title>
<path fill="none" stroke="black" d="M428,-84.91C428,-104.14 428,-131.8 428,-131.8 428,-131.8 311.1,-131.8 311.1,-131.8"/>
<polygon fill="black" stroke="black" points="311.1,-128.3 301.1,-131.8 311.1,-135.3 311.1,-128.3"/>
</g>
<!-- QuestionnaireRoutingModule -->
<g id="node3" class="node">
<title>QuestionnaireRoutingModule</title>
<polygon fill="#8dd3c7" stroke="black" points="323.7,-84.8 320.7,-88.8 299.7,-88.8 296.7,-84.8 140.3,-84.8 140.3,-48.8 323.7,-48.8 323.7,-84.8"/>
<text text-anchor="middle" x="232" y="-62.6" font-family="Times,serif" font-size="14.00">QuestionnaireRoutingModule</text>
</g>
<!-- QuestionnaireRoutingModule&#45;&gt;QuestionnaireModule -->
<g id="edge2" class="edge">
<title>QuestionnaireRoutingModule&#45;&gt;QuestionnaireModule</title>
<path fill="none" stroke="black" d="M232,-84.91C232,-84.91 232,-103.79 232,-103.79"/>
<polygon fill="black" stroke="black" points="228.5,-103.79 232,-113.79 235.5,-103.79 228.5,-103.79"/>
</g>
<!-- SharedModule -->
<g id="node4" class="node">
<title>SharedModule</title>
<polygon fill="#8dd3c7" stroke="black" points="122.43,-84.8 119.43,-88.8 98.43,-88.8 95.43,-84.8 23.57,-84.8 23.57,-48.8 122.43,-48.8 122.43,-84.8"/>
<text text-anchor="middle" x="73" y="-62.6" font-family="Times,serif" font-size="14.00">SharedModule</text>
</g>
<!-- SharedModule&#45;&gt;QuestionnaireModule -->
<g id="edge3" class="edge">
<title>SharedModule&#45;&gt;QuestionnaireModule</title>
<path fill="none" stroke="black" d="M73,-84.91C73,-104.14 73,-131.8 73,-131.8 73,-131.8 152.72,-131.8 152.72,-131.8"/>
<polygon fill="black" stroke="black" points="152.72,-135.3 162.72,-131.8 152.72,-128.3 152.72,-135.3"/>
</g>
</g>
</svg>
