<?xml version="1.0" encoding="UTF-8" standalone="no"?>
<!DOCTYPE svg PUBLIC "-//W3C//DTD SVG 1.1//EN"
 "http://www.w3.org/Graphics/SVG/1.1/DTD/svg11.dtd">
<!-- Generated by graphviz version 5.0.0 (20220707.1540)
 -->
<!-- Title: dependencies Pages: 1 -->
<svg width="498pt" height="247pt"
 viewBox="0.00 0.00 498.00 246.80" xmlns="http://www.w3.org/2000/svg" xmlns:xlink="http://www.w3.org/1999/xlink">
<g id="graph0" class="graph" transform="scale(1 1) rotate(0) translate(4 242.8)">
<title>dependencies</title>
<polygon fill="white" stroke="transparent" points="-4,4 -4,-242.8 494,-242.8 494,4 -4,4"/>
<text text-anchor="middle" x="245" y="-8.2" font-family="sans-serif" font-size="14.00">dependencies</text>
<g id="clust1" class="cluster">
<title>cluster_LocationModule</title>
<polygon fill="none" stroke="black" stroke-dasharray="1,5" points="8,-32.8 8,-230.8 482,-230.8 482,-32.8 8,-32.8"/>
</g>
<g id="clust5" class="cluster">
<title>cluster_LocationModule_exports</title>
<polygon fill="none" stroke="black" points="108,-170.8 108,-222.8 310,-222.8 310,-170.8 108,-170.8"/>
</g>
<g id="clust2" class="cluster">
<title>cluster_LocationModule_declarations</title>
<polygon fill="none" stroke="black" points="274,-40.8 274,-92.8 474,-92.8 474,-40.8 274,-40.8"/>
</g>
<g id="clust4" class="cluster">
<title>cluster_LocationModule_imports</title>
<polygon fill="none" stroke="black" points="16,-40.8 16,-92.8 266,-92.8 266,-40.8 16,-40.8"/>
</g>
<!-- LocationSelectionComponent -->
<g id="node1" class="node">
<title>LocationSelectionComponent</title>
<polygon fill="#ffffb3" stroke="black" points="465.69,-84.8 282.31,-84.8 282.31,-48.8 465.69,-48.8 465.69,-84.8"/>
<text text-anchor="middle" x="374" y="-62.6" font-family="Times,serif" font-size="14.00">LocationSelectionComponent</text>
</g>
<!-- LocationModule -->
<g id="node2" class="node">
<title>LocationModule</title>
<polygon fill="#8dd3c7" stroke="black" points="263.81,-149.8 260.81,-153.8 239.81,-153.8 236.81,-149.8 154.19,-149.8 154.19,-113.8 263.81,-113.8 263.81,-149.8"/>
<text text-anchor="middle" x="209" y="-127.6" font-family="Times,serif" font-size="14.00">LocationModule</text>
</g>
<!-- LocationSelectionComponent&#45;&gt;LocationModule -->
<g id="edge1" class="edge">
<title>LocationSelectionComponent&#45;&gt;LocationModule</title>
<path fill="none" stroke="black" d="M292.38,-84.91C292.38,-104.14 292.38,-131.8 292.38,-131.8 292.38,-131.8 273.68,-131.8 273.68,-131.8"/>
<polygon fill="black" stroke="black" points="273.68,-128.3 263.68,-131.8 273.68,-135.3 273.68,-128.3"/>
</g>
<!-- LocationSelectionComponent  -->
<g id="node5" class="node">
<title>LocationSelectionComponent </title>
<polygon fill="#fb8072" stroke="black" points="302.19,-214.8 115.81,-214.8 115.81,-178.8 302.19,-178.8 302.19,-214.8"/>
<text text-anchor="middle" x="209" y="-192.6" font-family="Times,serif" font-size="14.00">LocationSelectionComponent </text>
</g>
<!-- LocationModule&#45;&gt;LocationSelectionComponent  -->
<g id="edge4" class="edge">
<title>LocationModule&#45;&gt;LocationSelectionComponent </title>
<path fill="none" stroke="black" stroke-dasharray="5,2" d="M209,-149.91C209,-149.91 209,-168.79 209,-168.79"/>
<polygon fill="black" stroke="black" points="205.5,-168.79 209,-178.79 212.5,-168.79 205.5,-168.79"/>
</g>
<!-- SharedModule -->
<g id="node3" class="node">
<title>SharedModule</title>
<polygon fill="#8dd3c7" stroke="black" points="258.43,-84.8 255.43,-88.8 234.43,-88.8 231.43,-84.8 159.57,-84.8 159.57,-48.8 258.43,-48.8 258.43,-84.8"/>
<text text-anchor="middle" x="209" y="-62.6" font-family="Times,serif" font-size="14.00">SharedModule</text>
</g>
<!-- SharedModule&#45;&gt;LocationModule -->
<g id="edge2" class="edge">
<title>SharedModule&#45;&gt;LocationModule</title>
<path fill="none" stroke="black" d="M209,-84.91C209,-84.91 209,-103.79 209,-103.79"/>
<polygon fill="black" stroke="black" points="205.5,-103.79 209,-113.79 212.5,-103.79 205.5,-103.79"/>
</g>
<!-- TelemetryModule -->
<g id="node4" class="node">
<title>TelemetryModule</title>
<polygon fill="#8dd3c7" stroke="black" points="141.58,-84.8 138.58,-88.8 117.58,-88.8 114.58,-84.8 24.42,-84.8 24.42,-48.8 141.58,-48.8 141.58,-84.8"/>
<text text-anchor="middle" x="83" y="-62.6" font-family="Times,serif" font-size="14.00">TelemetryModule</text>
</g>
<!-- TelemetryModule&#45;&gt;LocationModule -->
<g id="edge3" class="edge">
<title>TelemetryModule&#45;&gt;LocationModule</title>
<path fill="none" stroke="black" d="M128.6,-84.91C128.6,-104.14 128.6,-131.8 128.6,-131.8 128.6,-131.8 144.04,-131.8 144.04,-131.8"/>
<polygon fill="black" stroke="black" points="144.04,-135.3 154.04,-131.8 144.04,-128.3 144.04,-135.3"/>
</g>
</g>
</svg>
