<?xml version="1.0" encoding="UTF-8" standalone="no"?>
<!DOCTYPE svg PUBLIC "-//W3C//DTD SVG 1.1//EN"
 "http://www.w3.org/Graphics/SVG/1.1/DTD/svg11.dtd">
<!-- Generated by graphviz version 5.0.0 (20220707.1540)
 -->
<!-- Title: dependencies Pages: 1 -->
<svg width="1811pt" height="174pt"
 viewBox="0.00 0.00 1811.00 173.80" xmlns="http://www.w3.org/2000/svg" xmlns:xlink="http://www.w3.org/1999/xlink">
<g id="graph0" class="graph" transform="scale(1 1) rotate(0) translate(4 169.8)">
<title>dependencies</title>
<polygon fill="white" stroke="transparent" points="-4,4 -4,-169.8 1807,-169.8 1807,4 -4,4"/>
<text text-anchor="middle" x="901.5" y="-8.2" font-family="sans-serif" font-size="14.00">dependencies</text>
<g id="clust1" class="cluster">
<title>cluster_SignupModule</title>
<polygon fill="none" stroke="black" stroke-dasharray="1,5" points="8,-32.8 8,-157.8 1795,-157.8 1795,-32.8 8,-32.8"/>
</g>
<g id="clust8" class="cluster">
<title>cluster_SignupModule_imports</title>
<polygon fill="none" stroke="black" points="1089,-40.8 1089,-92.8 1787,-92.8 1787,-40.8 1089,-40.8"/>
</g>
<g id="clust11" class="cluster">
<title>cluster_SignupModule_providers</title>
<polygon fill="none" stroke="black" points="931,-40.8 931,-92.8 1081,-92.8 1081,-40.8 931,-40.8"/>
</g>
<g id="clust2" class="cluster">
<title>cluster_SignupModule_declarations</title>
<polygon fill="none" stroke="black" points="16,-40.8 16,-92.8 923,-92.8 923,-40.8 16,-40.8"/>
</g>
<!-- OtpComponent -->
<g id="node1" class="node">
<title>OtpComponent</title>
<polygon fill="#ffffb3" stroke="black" points="915.33,-84.8 812.67,-84.8 812.67,-48.8 915.33,-48.8 915.33,-84.8"/>
<text text-anchor="middle" x="864" y="-62.6" font-family="Times,serif" font-size="14.00">OtpComponent</text>
</g>
<!-- SignupModule -->
<g id="node6" class="node">
<title>SignupModule</title>
<polygon fill="#8dd3c7" stroke="black" points="1055.73,-149.8 1052.73,-153.8 1031.73,-153.8 1028.73,-149.8 956.27,-149.8 956.27,-113.8 1055.73,-113.8 1055.73,-149.8"/>
<text text-anchor="middle" x="1006" y="-127.6" font-family="Times,serif" font-size="14.00">SignupModule</text>
</g>
<!-- OtpComponent&#45;&gt;SignupModule -->
<g id="edge1" class="edge">
<title>OtpComponent&#45;&gt;SignupModule</title>
<path fill="none" stroke="black" d="M864,-85.04C864,-100.37 864,-119.8 864,-119.8 864,-119.8 946.34,-119.8 946.34,-119.8"/>
<polygon fill="black" stroke="black" points="946.34,-123.3 956.34,-119.8 946.34,-116.3 946.34,-123.3"/>
</g>
<!-- SignupBasicInfoComponent -->
<g id="node2" class="node">
<title>SignupBasicInfoComponent</title>
<polygon fill="#ffffb3" stroke="black" points="794.94,-84.8 619.06,-84.8 619.06,-48.8 794.94,-48.8 794.94,-84.8"/>
<text text-anchor="middle" x="707" y="-62.6" font-family="Times,serif" font-size="14.00">SignupBasicInfoComponent</text>
</g>
<!-- SignupBasicInfoComponent&#45;&gt;SignupModule -->
<g id="edge2" class="edge">
<title>SignupBasicInfoComponent&#45;&gt;SignupModule</title>
<path fill="none" stroke="black" d="M707,-84.82C707,-102.17 707,-125.8 707,-125.8 707,-125.8 946.29,-125.8 946.29,-125.8"/>
<polygon fill="black" stroke="black" points="946.29,-129.3 956.29,-125.8 946.29,-122.3 946.29,-129.3"/>
</g>
<!-- SignupComponent -->
<g id="node3" class="node">
<title>SignupComponent</title>
<polygon fill="#ffffb3" stroke="black" points="601.51,-84.8 480.49,-84.8 480.49,-48.8 601.51,-48.8 601.51,-84.8"/>
<text text-anchor="middle" x="541" y="-62.6" font-family="Times,serif" font-size="14.00">SignupComponent</text>
</g>
<!-- SignupComponent&#45;&gt;SignupModule -->
<g id="edge3" class="edge">
<title>SignupComponent&#45;&gt;SignupModule</title>
<path fill="none" stroke="black" d="M541,-84.91C541,-104.14 541,-131.8 541,-131.8 541,-131.8 946.24,-131.8 946.24,-131.8"/>
<polygon fill="black" stroke="black" points="946.24,-135.3 956.24,-131.8 946.24,-128.3 946.24,-135.3"/>
</g>
<!-- SignupEmailPasswordComponent -->
<g id="node4" class="node">
<title>SignupEmailPasswordComponent</title>
<polygon fill="#ffffb3" stroke="black" points="462.11,-84.8 253.89,-84.8 253.89,-48.8 462.11,-48.8 462.11,-84.8"/>
<text text-anchor="middle" x="358" y="-62.6" font-family="Times,serif" font-size="14.00">SignupEmailPasswordComponent</text>
</g>
<!-- SignupEmailPasswordComponent&#45;&gt;SignupModule -->
<g id="edge4" class="edge">
<title>SignupEmailPasswordComponent&#45;&gt;SignupModule</title>
<path fill="none" stroke="black" d="M358,-85.08C358,-106.12 358,-137.8 358,-137.8 358,-137.8 946.23,-137.8 946.23,-137.8"/>
<polygon fill="black" stroke="black" points="946.23,-141.3 956.23,-137.8 946.23,-134.3 946.23,-141.3"/>
</g>
<!-- SignupOnboardingInfoComponent -->
<g id="node5" class="node">
<title>SignupOnboardingInfoComponent</title>
<polygon fill="#ffffb3" stroke="black" points="235.71,-84.8 24.29,-84.8 24.29,-48.8 235.71,-48.8 235.71,-84.8"/>
<text text-anchor="middle" x="130" y="-62.6" font-family="Times,serif" font-size="14.00">SignupOnboardingInfoComponent</text>
</g>
<!-- SignupOnboardingInfoComponent&#45;&gt;SignupModule -->
<g id="edge5" class="edge">
<title>SignupOnboardingInfoComponent&#45;&gt;SignupModule</title>
<path fill="none" stroke="black" d="M130,-84.89C130,-107.93 130,-144.8 130,-144.8 130,-144.8 946.07,-144.8 946.07,-144.8"/>
<polygon fill="black" stroke="black" points="946.07,-148.3 956.07,-144.8 946.07,-141.3 946.07,-148.3"/>
</g>
<!-- LocationModule -->
<g id="node7" class="node">
<title>LocationModule</title>
<polygon fill="#8dd3c7" stroke="black" points="1778.81,-84.8 1775.81,-88.8 1754.81,-88.8 1751.81,-84.8 1669.19,-84.8 1669.19,-48.8 1778.81,-48.8 1778.81,-84.8"/>
<text text-anchor="middle" x="1724" y="-62.6" font-family="Times,serif" font-size="14.00">LocationModule</text>
</g>
<!-- LocationModule&#45;&gt;SignupModule -->
<g id="edge6" class="edge">
<title>LocationModule&#45;&gt;SignupModule</title>
<path fill="none" stroke="black" d="M1724,-84.89C1724,-107.93 1724,-144.8 1724,-144.8 1724,-144.8 1065.63,-144.8 1065.63,-144.8"/>
<polygon fill="black" stroke="black" points="1065.63,-141.3 1055.63,-144.8 1065.63,-148.3 1065.63,-141.3"/>
</g>
<!-- SharedFeatureModule -->
<g id="node8" class="node">
<title>SharedFeatureModule</title>
<polygon fill="#8dd3c7" stroke="black" points="1651.41,-84.8 1648.41,-88.8 1627.41,-88.8 1624.41,-84.8 1510.59,-84.8 1510.59,-48.8 1651.41,-48.8 1651.41,-84.8"/>
<text text-anchor="middle" x="1581" y="-62.6" font-family="Times,serif" font-size="14.00">SharedFeatureModule</text>
</g>
<!-- SharedFeatureModule&#45;&gt;SignupModule -->
<g id="edge7" class="edge">
<title>SharedFeatureModule&#45;&gt;SignupModule</title>
<path fill="none" stroke="black" d="M1581,-85.08C1581,-106.12 1581,-137.8 1581,-137.8 1581,-137.8 1066.02,-137.8 1066.02,-137.8"/>
<polygon fill="black" stroke="black" points="1066.02,-134.3 1056.02,-137.8 1066.02,-141.3 1066.02,-134.3"/>
</g>
<!-- SharedModule -->
<g id="node9" class="node">
<title>SharedModule</title>
<polygon fill="#8dd3c7" stroke="black" points="1493.43,-84.8 1490.43,-88.8 1469.43,-88.8 1466.43,-84.8 1394.57,-84.8 1394.57,-48.8 1493.43,-48.8 1493.43,-84.8"/>
<text text-anchor="middle" x="1444" y="-62.6" font-family="Times,serif" font-size="14.00">SharedModule</text>
</g>
<!-- SharedModule&#45;&gt;SignupModule -->
<g id="edge8" class="edge">
<title>SharedModule&#45;&gt;SignupModule</title>
<path fill="none" stroke="black" d="M1444,-84.91C1444,-104.14 1444,-131.8 1444,-131.8 1444,-131.8 1065.82,-131.8 1065.82,-131.8"/>
<polygon fill="black" stroke="black" points="1065.82,-128.3 1055.82,-131.8 1065.82,-135.3 1065.82,-128.3"/>
</g>
<!-- SignupRoutingModule -->
<g id="node10" class="node">
<title>SignupRoutingModule</title>
<polygon fill="#8dd3c7" stroke="black" points="1377.35,-84.8 1374.35,-88.8 1353.35,-88.8 1350.35,-84.8 1232.65,-84.8 1232.65,-48.8 1377.35,-48.8 1377.35,-84.8"/>
<text text-anchor="middle" x="1305" y="-62.6" font-family="Times,serif" font-size="14.00">SignupRoutingModule</text>
</g>
<!-- SignupRoutingModule&#45;&gt;SignupModule -->
<g id="edge9" class="edge">
<title>SignupRoutingModule&#45;&gt;SignupModule</title>
<path fill="none" stroke="black" d="M1305,-84.82C1305,-102.17 1305,-125.8 1305,-125.8 1305,-125.8 1065.71,-125.8 1065.71,-125.8"/>
<polygon fill="black" stroke="black" points="1065.71,-122.3 1055.71,-125.8 1065.71,-129.3 1065.71,-122.3"/>
</g>
<!-- TelemetryModule -->
<g id="node11" class="node">
<title>TelemetryModule</title>
<polygon fill="#8dd3c7" stroke="black" points="1214.58,-84.8 1211.58,-88.8 1190.58,-88.8 1187.58,-84.8 1097.42,-84.8 1097.42,-48.8 1214.58,-48.8 1214.58,-84.8"/>
<text text-anchor="middle" x="1156" y="-62.6" font-family="Times,serif" font-size="14.00">TelemetryModule</text>
</g>
<!-- TelemetryModule&#45;&gt;SignupModule -->
<g id="edge10" class="edge">
<title>TelemetryModule&#45;&gt;SignupModule</title>
<path fill="none" stroke="black" d="M1156,-85.04C1156,-100.37 1156,-119.8 1156,-119.8 1156,-119.8 1065.95,-119.8 1065.95,-119.8"/>
<polygon fill="black" stroke="black" points="1065.95,-116.3 1055.95,-119.8 1065.95,-123.3 1065.95,-116.3"/>
</g>
<!-- SignupService -->
<g id="node12" class="node">
<title>SignupService</title>
<ellipse fill="#fdb462" stroke="black" cx="1006" cy="-66.8" rx="67.22" ry="18"/>
<text text-anchor="middle" x="1006" y="-62.6" font-family="Times,serif" font-size="14.00">SignupService</text>
</g>
<!-- SignupService&#45;&gt;SignupModule -->
<g id="edge11" class="edge">
<title>SignupService&#45;&gt;SignupModule</title>
<path fill="none" stroke="black" d="M1006,-84.91C1006,-84.91 1006,-103.79 1006,-103.79"/>
<polygon fill="black" stroke="black" points="1002.5,-103.79 1006,-113.79 1009.5,-103.79 1002.5,-103.79"/>
</g>
</g>
</svg>
