<?xml version="1.0" encoding="UTF-8" standalone="no"?>
<!DOCTYPE svg PUBLIC "-//W3C//DTD SVG 1.1//EN"
 "http://www.w3.org/Graphics/SVG/1.1/DTD/svg11.dtd">
<!-- Generated by graphviz version 5.0.0 (20220707.1540)
 -->
<!-- Title: dependencies Pages: 1 -->
<svg width="1811pt" height="174pt"
 viewBox="0.00 0.00 1811.00 173.80" xmlns="http://www.w3.org/2000/svg" xmlns:xlink="http://www.w3.org/1999/xlink">
<g id="graph0" class="graph" transform="scale(1 1) rotate(0) translate(4 169.8)">
<title>dependencies</title>
<polygon fill="white" stroke="transparent" points="-4,4 -4,-169.8 1807,-169.8 1807,4 -4,4"/>
<text text-anchor="middle" x="901.5" y="-8.2" font-family="sans-serif" font-size="14.00">dependencies</text>
<g id="clust1" class="cluster">
<title>cluster_SignupModule</title>
<polygon fill="none" stroke="black" stroke-dasharray="1,5" points="8,-32.8 8,-157.8 1795,-157.8 1795,-32.8 8,-32.8"/>
</g>
<g id="clust11" class="cluster">
<title>cluster_SignupModule_providers</title>
<polygon fill="none" stroke="black" points="1637,-40.8 1637,-92.8 1787,-92.8 1787,-40.8 1637,-40.8"/>
</g>
<g id="clust8" class="cluster">
<title>cluster_SignupModule_imports</title>
<polygon fill="none" stroke="black" points="931,-40.8 931,-92.8 1629,-92.8 1629,-40.8 931,-40.8"/>
</g>
<g id="clust2" class="cluster">
<title>cluster_SignupModule_declarations</title>
<polygon fill="none" stroke="black" points="16,-40.8 16,-92.8 923,-92.8 923,-40.8 16,-40.8"/>
</g>
<!-- OtpComponent -->
<g id="node1" class="node">
<title>OtpComponent</title>
<polygon fill="#ffffb3" stroke="black" points="915.33,-84.8 812.67,-84.8 812.67,-48.8 915.33,-48.8 915.33,-84.8"/>
<text text-anchor="middle" x="864" y="-62.6" font-family="Times,serif" font-size="14.00">OtpComponent</text>
</g>
<!-- SignupModule -->
<g id="node6" class="node">
<title>SignupModule</title>
<polygon fill="#8dd3c7" stroke="black" points="1047.73,-149.8 1044.73,-153.8 1023.73,-153.8 1020.73,-149.8 948.27,-149.8 948.27,-113.8 1047.73,-113.8 1047.73,-149.8"/>
<text text-anchor="middle" x="998" y="-127.6" font-family="Times,serif" font-size="14.00">SignupModule</text>
</g>
<!-- OtpComponent&#45;&gt;SignupModule -->
<g id="edge1" class="edge">
<title>OtpComponent&#45;&gt;SignupModule</title>
<path fill="none" stroke="black" d="M864,-85.04C864,-100.37 864,-119.8 864,-119.8 864,-119.8 938.1,-119.8 938.1,-119.8"/>
<polygon fill="black" stroke="black" points="938.1,-123.3 948.1,-119.8 938.1,-116.3 938.1,-123.3"/>
</g>
<!-- SignupBasicInfoComponent -->
<g id="node2" class="node">
<title>SignupBasicInfoComponent</title>
<polygon fill="#ffffb3" stroke="black" points="794.94,-84.8 619.06,-84.8 619.06,-48.8 794.94,-48.8 794.94,-84.8"/>
<text text-anchor="middle" x="707" y="-62.6" font-family="Times,serif" font-size="14.00">SignupBasicInfoComponent</text>
</g>
<!-- SignupBasicInfoComponent&#45;&gt;SignupModule -->
<g id="edge2" class="edge">
<title>SignupBasicInfoComponent&#45;&gt;SignupModule</title>
<path fill="none" stroke="black" d="M707,-84.82C707,-102.17 707,-125.8 707,-125.8 707,-125.8 938.31,-125.8 938.31,-125.8"/>
<polygon fill="black" stroke="black" points="938.31,-129.3 948.31,-125.8 938.31,-122.3 938.31,-129.3"/>
</g>
<!-- SignupComponent -->
<g id="node3" class="node">
<title>SignupComponent</title>
<polygon fill="#ffffb3" stroke="black" points="601.51,-84.8 480.49,-84.8 480.49,-48.8 601.51,-48.8 601.51,-84.8"/>
<text text-anchor="middle" x="541" y="-62.6" font-family="Times,serif" font-size="14.00">SignupComponent</text>
</g>
<!-- SignupComponent&#45;&gt;SignupModule -->
<g id="edge3" class="edge">
<title>SignupComponent&#45;&gt;SignupModule</title>
<path fill="none" stroke="black" d="M541,-84.91C541,-104.14 541,-131.8 541,-131.8 541,-131.8 938.22,-131.8 938.22,-131.8"/>
<polygon fill="black" stroke="black" points="938.22,-135.3 948.22,-131.8 938.22,-128.3 938.22,-135.3"/>
</g>
<!-- SignupEmailPasswordComponent -->
<g id="node4" class="node">
<title>SignupEmailPasswordComponent</title>
<polygon fill="#ffffb3" stroke="black" points="462.11,-84.8 253.89,-84.8 253.89,-48.8 462.11,-48.8 462.11,-84.8"/>
<text text-anchor="middle" x="358" y="-62.6" font-family="Times,serif" font-size="14.00">SignupEmailPasswordComponent</text>
</g>
<!-- SignupEmailPasswordComponent&#45;&gt;SignupModule -->
<g id="edge4" class="edge">
<title>SignupEmailPasswordComponent&#45;&gt;SignupModule</title>
<path fill="none" stroke="black" d="M358,-85.08C358,-106.12 358,-137.8 358,-137.8 358,-137.8 938.31,-137.8 938.31,-137.8"/>
<polygon fill="black" stroke="black" points="938.31,-141.3 948.31,-137.8 938.31,-134.3 938.31,-141.3"/>
</g>
<!-- SignupOnboardingInfoComponent -->
<g id="node5" class="node">
<title>SignupOnboardingInfoComponent</title>
<polygon fill="#ffffb3" stroke="black" points="235.71,-84.8 24.29,-84.8 24.29,-48.8 235.71,-48.8 235.71,-84.8"/>
<text text-anchor="middle" x="130" y="-62.6" font-family="Times,serif" font-size="14.00">SignupOnboardingInfoComponent</text>
</g>
<!-- SignupOnboardingInfoComponent&#45;&gt;SignupModule -->
<g id="edge5" class="edge">
<title>SignupOnboardingInfoComponent&#45;&gt;SignupModule</title>
<path fill="none" stroke="black" d="M130,-84.89C130,-107.93 130,-144.8 130,-144.8 130,-144.8 938.21,-144.8 938.21,-144.8"/>
<polygon fill="black" stroke="black" points="938.21,-148.3 948.21,-144.8 938.21,-141.3 938.21,-148.3"/>
</g>
<!-- LocationModule -->
<g id="node7" class="node">
<title>LocationModule</title>
<polygon fill="#8dd3c7" stroke="black" points="1620.81,-84.8 1617.81,-88.8 1596.81,-88.8 1593.81,-84.8 1511.19,-84.8 1511.19,-48.8 1620.81,-48.8 1620.81,-84.8"/>
<text text-anchor="middle" x="1566" y="-62.6" font-family="Times,serif" font-size="14.00">LocationModule</text>
</g>
<!-- LocationModule&#45;&gt;SignupModule -->
<g id="edge6" class="edge">
<title>LocationModule&#45;&gt;SignupModule</title>
<path fill="none" stroke="black" d="M1566,-85.08C1566,-106.12 1566,-137.8 1566,-137.8 1566,-137.8 1057.91,-137.8 1057.91,-137.8"/>
<polygon fill="black" stroke="black" points="1057.91,-134.3 1047.91,-137.8 1057.91,-141.3 1057.91,-134.3"/>
</g>
<!-- SharedFeatureModule -->
<g id="node8" class="node">
<title>SharedFeatureModule</title>
<polygon fill="#8dd3c7" stroke="black" points="1493.41,-84.8 1490.41,-88.8 1469.41,-88.8 1466.41,-84.8 1352.59,-84.8 1352.59,-48.8 1493.41,-48.8 1493.41,-84.8"/>
<text text-anchor="middle" x="1423" y="-62.6" font-family="Times,serif" font-size="14.00">SharedFeatureModule</text>
</g>
<!-- SharedFeatureModule&#45;&gt;SignupModule -->
<g id="edge7" class="edge">
<title>SharedFeatureModule&#45;&gt;SignupModule</title>
<path fill="none" stroke="black" d="M1423,-84.91C1423,-104.14 1423,-131.8 1423,-131.8 1423,-131.8 1058,-131.8 1058,-131.8"/>
<polygon fill="black" stroke="black" points="1058,-128.3 1048,-131.8 1058,-135.3 1058,-128.3"/>
</g>
<!-- SharedModule -->
<g id="node9" class="node">
<title>SharedModule</title>
<polygon fill="#8dd3c7" stroke="black" points="1335.43,-84.8 1332.43,-88.8 1311.43,-88.8 1308.43,-84.8 1236.57,-84.8 1236.57,-48.8 1335.43,-48.8 1335.43,-84.8"/>
<text text-anchor="middle" x="1286" y="-62.6" font-family="Times,serif" font-size="14.00">SharedModule</text>
</g>
<!-- SharedModule&#45;&gt;SignupModule -->
<g id="edge8" class="edge">
<title>SharedModule&#45;&gt;SignupModule</title>
<path fill="none" stroke="black" d="M1286,-84.82C1286,-102.17 1286,-125.8 1286,-125.8 1286,-125.8 1057.84,-125.8 1057.84,-125.8"/>
<polygon fill="black" stroke="black" points="1057.84,-122.3 1047.84,-125.8 1057.84,-129.3 1057.84,-122.3"/>
</g>
<!-- SignupRoutingModule -->
<g id="node10" class="node">
<title>SignupRoutingModule</title>
<polygon fill="#8dd3c7" stroke="black" points="1219.35,-84.8 1216.35,-88.8 1195.35,-88.8 1192.35,-84.8 1074.65,-84.8 1074.65,-48.8 1219.35,-48.8 1219.35,-84.8"/>
<text text-anchor="middle" x="1147" y="-62.6" font-family="Times,serif" font-size="14.00">SignupRoutingModule</text>
</g>
<!-- SignupRoutingModule&#45;&gt;SignupModule -->
<g id="edge9" class="edge">
<title>SignupRoutingModule&#45;&gt;SignupModule</title>
<path fill="none" stroke="black" d="M1147,-85.04C1147,-100.37 1147,-119.8 1147,-119.8 1147,-119.8 1057.61,-119.8 1057.61,-119.8"/>
<polygon fill="black" stroke="black" points="1057.61,-116.3 1047.61,-119.8 1057.61,-123.3 1057.61,-116.3"/>
</g>
<!-- TelemetryModule -->
<g id="node11" class="node">
<title>TelemetryModule</title>
<polygon fill="#8dd3c7" stroke="black" points="1056.58,-84.8 1053.58,-88.8 1032.58,-88.8 1029.58,-84.8 939.42,-84.8 939.42,-48.8 1056.58,-48.8 1056.58,-84.8"/>
<text text-anchor="middle" x="998" y="-62.6" font-family="Times,serif" font-size="14.00">TelemetryModule</text>
</g>
<!-- TelemetryModule&#45;&gt;SignupModule -->
<g id="edge10" class="edge">
<title>TelemetryModule&#45;&gt;SignupModule</title>
<path fill="none" stroke="black" d="M998,-84.91C998,-84.91 998,-103.79 998,-103.79"/>
<polygon fill="black" stroke="black" points="994.5,-103.79 998,-113.79 1001.5,-103.79 994.5,-103.79"/>
</g>
<!-- SignupService -->
<g id="node12" class="node">
<title>SignupService</title>
<ellipse fill="#fdb462" stroke="black" cx="1712" cy="-66.8" rx="67.22" ry="18"/>
<text text-anchor="middle" x="1712" y="-62.6" font-family="Times,serif" font-size="14.00">SignupService</text>
</g>
<!-- SignupService&#45;&gt;SignupModule -->
<g id="edge11" class="edge">
<title>SignupService&#45;&gt;SignupModule</title>
<path fill="none" stroke="black" d="M1712,-84.89C1712,-107.93 1712,-144.8 1712,-144.8 1712,-144.8 1057.64,-144.8 1057.64,-144.8"/>
<polygon fill="black" stroke="black" points="1057.64,-141.3 1047.64,-144.8 1057.64,-148.3 1057.64,-141.3"/>
</g>
</g>
</svg>
