<?xml version="1.0" encoding="UTF-8" standalone="no"?>
<!DOCTYPE svg PUBLIC "-//W3C//DTD SVG 1.1//EN"
 "http://www.w3.org/Graphics/SVG/1.1/DTD/svg11.dtd">
<!-- Generated by graphviz version 5.0.0 (20220707.1540)
 -->
<!-- Title: dependencies Pages: 1 -->
<svg width="1399pt" height="174pt"
 viewBox="0.00 0.00 1399.00 173.80" xmlns="http://www.w3.org/2000/svg" xmlns:xlink="http://www.w3.org/1999/xlink">
<g id="graph0" class="graph" transform="scale(1 1) rotate(0) translate(4 169.8)">
<title>dependencies</title>
<polygon fill="white" stroke="transparent" points="-4,4 -4,-169.8 1395,-169.8 1395,4 -4,4"/>
<text text-anchor="middle" x="695.5" y="-8.2" font-family="sans-serif" font-size="14.00">dependencies</text>
<g id="clust1" class="cluster">
<title>cluster_ReportModule</title>
<polygon fill="none" stroke="black" stroke-dasharray="1,5" points="8,-32.8 8,-157.8 1383,-157.8 1383,-32.8 8,-32.8"/>
</g>
<g id="clust2" class="cluster">
<title>cluster_ReportModule_declarations</title>
<polygon fill="none" stroke="black" points="698,-40.8 698,-92.8 1375,-92.8 1375,-40.8 698,-40.8"/>
</g>
<g id="clust7" class="cluster">
<title>cluster_ReportModule_imports</title>
<polygon fill="none" stroke="black" points="16,-40.8 16,-92.8 690,-92.8 690,-40.8 16,-40.8"/>
</g>
<!-- AllEvidenceComponent -->
<g id="node1" class="node">
<title>AllEvidenceComponent</title>
<polygon fill="#ffffb3" stroke="black" points="1366.8,-84.8 1215.2,-84.8 1215.2,-48.8 1366.8,-48.8 1366.8,-84.8"/>
<text text-anchor="middle" x="1291" y="-62.6" font-family="Times,serif" font-size="14.00">AllEvidenceComponent</text>
</g>
<!-- ReportModule -->
<g id="node5" class="node">
<title>ReportModule</title>
<polygon fill="#8dd3c7" stroke="black" points="620.66,-149.8 617.66,-153.8 596.66,-153.8 593.66,-149.8 523.34,-149.8 523.34,-113.8 620.66,-113.8 620.66,-149.8"/>
<text text-anchor="middle" x="572" y="-127.6" font-family="Times,serif" font-size="14.00">ReportModule</text>
</g>
<!-- AllEvidenceComponent&#45;&gt;ReportModule -->
<g id="edge1" class="edge">
<title>AllEvidenceComponent&#45;&gt;ReportModule</title>
<path fill="none" stroke="black" d="M1291,-84.81C1291,-107.29 1291,-142.8 1291,-142.8 1291,-142.8 630.85,-142.8 630.85,-142.8"/>
<polygon fill="black" stroke="black" points="630.85,-139.3 620.85,-142.8 630.85,-146.3 630.85,-139.3"/>
</g>
<!-- EntityListComponent -->
<g id="node2" class="node">
<title>EntityListComponent</title>
<polygon fill="#ffffb3" stroke="black" points="1197.83,-84.8 1060.17,-84.8 1060.17,-48.8 1197.83,-48.8 1197.83,-84.8"/>
<text text-anchor="middle" x="1129" y="-62.6" font-family="Times,serif" font-size="14.00">EntityListComponent</text>
</g>
<!-- EntityListComponent&#45;&gt;ReportModule -->
<g id="edge2" class="edge">
<title>EntityListComponent&#45;&gt;ReportModule</title>
<path fill="none" stroke="black" d="M1129,-84.93C1129,-105.37 1129,-135.8 1129,-135.8 1129,-135.8 630.94,-135.8 630.94,-135.8"/>
<polygon fill="black" stroke="black" points="630.94,-132.3 620.94,-135.8 630.94,-139.3 630.94,-132.3"/>
</g>
<!-- ReportViewComponent -->
<g id="node3" class="node">
<title>ReportViewComponent</title>
<polygon fill="#ffffb3" stroke="black" points="1041.76,-84.8 892.24,-84.8 892.24,-48.8 1041.76,-48.8 1041.76,-84.8"/>
<text text-anchor="middle" x="967" y="-62.6" font-family="Times,serif" font-size="14.00">ReportViewComponent</text>
</g>
<!-- ReportViewComponent&#45;&gt;ReportModule -->
<g id="edge3" class="edge">
<title>ReportViewComponent&#45;&gt;ReportModule</title>
<path fill="none" stroke="black" d="M967,-85.07C967,-103.36 967,-128.8 967,-128.8 967,-128.8 630.83,-128.8 630.83,-128.8"/>
<polygon fill="black" stroke="black" points="630.83,-125.3 620.83,-128.8 630.83,-132.3 630.83,-125.3"/>
</g>
<!-- SolutionListingComponent -->
<g id="node4" class="node">
<title>SolutionListingComponent</title>
<polygon fill="#ffffb3" stroke="black" points="874.46,-84.8 705.54,-84.8 705.54,-48.8 874.46,-48.8 874.46,-84.8"/>
<text text-anchor="middle" x="790" y="-62.6" font-family="Times,serif" font-size="14.00">SolutionListingComponent</text>
</g>
<!-- SolutionListingComponent&#45;&gt;ReportModule -->
<g id="edge4" class="edge">
<title>SolutionListingComponent&#45;&gt;ReportModule</title>
<path fill="none" stroke="black" d="M790,-84.81C790,-100.85 790,-121.8 790,-121.8 790,-121.8 630.92,-121.8 630.92,-121.8"/>
<polygon fill="black" stroke="black" points="630.92,-118.3 620.92,-121.8 630.92,-125.3 630.92,-118.3"/>
</g>
<!-- CoreModule -->
<g id="node6" class="node">
<title>CoreModule</title>
<polygon fill="#8dd3c7" stroke="black" points="682.27,-84.8 679.27,-88.8 658.27,-88.8 655.27,-84.8 595.73,-84.8 595.73,-48.8 682.27,-48.8 682.27,-84.8"/>
<text text-anchor="middle" x="639" y="-62.6" font-family="Times,serif" font-size="14.00">CoreModule</text>
</g>
<!-- CoreModule&#45;&gt;ReportModule -->
<g id="edge5" class="edge">
<title>CoreModule&#45;&gt;ReportModule</title>
<path fill="none" stroke="black" d="M604.02,-84.91C604.02,-84.91 604.02,-103.79 604.02,-103.79"/>
<polygon fill="black" stroke="black" points="600.52,-103.79 604.02,-113.79 607.52,-103.79 600.52,-103.79"/>
</g>
<!-- CoreModule&#45;&gt;ReportModule -->
<g id="edge6" class="edge">
<title>CoreModule&#45;&gt;ReportModule</title>
<path fill="none" stroke="black" d="M612.42,-84.91C612.42,-84.91 612.42,-103.79 612.42,-103.79"/>
<polygon fill="black" stroke="black" points="608.92,-103.79 612.42,-113.79 615.92,-103.79 608.92,-103.79"/>
</g>
<!-- ReportRoutingModule -->
<g id="node7" class="node">
<title>ReportRoutingModule</title>
<polygon fill="#8dd3c7" stroke="black" points="577.27,-84.8 574.27,-88.8 553.27,-88.8 550.27,-84.8 434.73,-84.8 434.73,-48.8 577.27,-48.8 577.27,-84.8"/>
<text text-anchor="middle" x="506" y="-62.6" font-family="Times,serif" font-size="14.00">ReportRoutingModule</text>
</g>
<!-- ReportRoutingModule&#45;&gt;ReportModule -->
<g id="edge7" class="edge">
<title>ReportRoutingModule&#45;&gt;ReportModule</title>
<path fill="none" stroke="black" d="M550.28,-84.91C550.28,-84.91 550.28,-103.79 550.28,-103.79"/>
<polygon fill="black" stroke="black" points="546.78,-103.79 550.28,-113.79 553.78,-103.79 546.78,-103.79"/>
</g>
<!-- SharedFeatureModule -->
<g id="node8" class="node">
<title>SharedFeatureModule</title>
<polygon fill="#8dd3c7" stroke="black" points="416.41,-84.8 413.41,-88.8 392.41,-88.8 389.41,-84.8 275.59,-84.8 275.59,-48.8 416.41,-48.8 416.41,-84.8"/>
<text text-anchor="middle" x="346" y="-62.6" font-family="Times,serif" font-size="14.00">SharedFeatureModule</text>
</g>
<!-- SharedFeatureModule&#45;&gt;ReportModule -->
<g id="edge8" class="edge">
<title>SharedFeatureModule&#45;&gt;ReportModule</title>
<path fill="none" stroke="black" d="M322.6,-84.82C322.6,-102.17 322.6,-125.8 322.6,-125.8 322.6,-125.8 513.32,-125.8 513.32,-125.8"/>
<polygon fill="black" stroke="black" points="513.32,-129.3 523.32,-125.8 513.32,-122.3 513.32,-129.3"/>
</g>
<!-- SharedFeatureModule&#45;&gt;ReportModule -->
<g id="edge9" class="edge">
<title>SharedFeatureModule&#45;&gt;ReportModule</title>
<path fill="none" stroke="black" d="M369.4,-85.04C369.4,-100.37 369.4,-119.8 369.4,-119.8 369.4,-119.8 513.21,-119.8 513.21,-119.8"/>
<polygon fill="black" stroke="black" points="513.21,-123.3 523.21,-119.8 513.21,-116.3 513.21,-123.3"/>
</g>
<!-- SharedModule -->
<g id="node9" class="node">
<title>SharedModule</title>
<polygon fill="#8dd3c7" stroke="black" points="258.43,-84.8 255.43,-88.8 234.43,-88.8 231.43,-84.8 159.57,-84.8 159.57,-48.8 258.43,-48.8 258.43,-84.8"/>
<text text-anchor="middle" x="209" y="-62.6" font-family="Times,serif" font-size="14.00">SharedModule</text>
</g>
<!-- SharedModule&#45;&gt;ReportModule -->
<g id="edge10" class="edge">
<title>SharedModule&#45;&gt;ReportModule</title>
<path fill="none" stroke="black" d="M225.4,-84.91C225.4,-104.14 225.4,-131.8 225.4,-131.8 225.4,-131.8 513.08,-131.8 513.08,-131.8"/>
<polygon fill="black" stroke="black" points="513.08,-135.3 523.08,-131.8 513.08,-128.3 513.08,-135.3"/>
</g>
<!-- SharedModule&#45;&gt;ReportModule -->
<g id="edge11" class="edge">
<title>SharedModule&#45;&gt;ReportModule</title>
<path fill="none" stroke="black" d="M192.6,-85.08C192.6,-106.12 192.6,-137.8 192.6,-137.8 192.6,-137.8 513.18,-137.8 513.18,-137.8"/>
<polygon fill="black" stroke="black" points="513.18,-141.3 523.18,-137.8 513.18,-134.3 513.18,-141.3"/>
</g>
<!-- TelemetryModule -->
<g id="node10" class="node">
<title>TelemetryModule</title>
<polygon fill="#8dd3c7" stroke="black" points="141.58,-84.8 138.58,-88.8 117.58,-88.8 114.58,-84.8 24.42,-84.8 24.42,-48.8 141.58,-48.8 141.58,-84.8"/>
<text text-anchor="middle" x="83" y="-62.6" font-family="Times,serif" font-size="14.00">TelemetryModule</text>
</g>
<!-- TelemetryModule&#45;&gt;ReportModule -->
<g id="edge12" class="edge">
<title>TelemetryModule&#45;&gt;ReportModule</title>
<path fill="none" stroke="black" d="M83,-84.89C83,-107.93 83,-144.8 83,-144.8 83,-144.8 513.33,-144.8 513.33,-144.8"/>
<polygon fill="black" stroke="black" points="513.33,-148.3 523.33,-144.8 513.33,-141.3 513.33,-148.3"/>
</g>
</g>
</svg>
