<?xml version="1.0" encoding="UTF-8" standalone="no"?>
<!DOCTYPE svg PUBLIC "-//W3C//DTD SVG 1.1//EN"
 "http://www.w3.org/Graphics/SVG/1.1/DTD/svg11.dtd">
<!-- Generated by graphviz version 5.0.0 (20220707.1540)
 -->
<!-- Title: dependencies Pages: 1 -->
<svg width="1399pt" height="174pt"
 viewBox="0.00 0.00 1399.00 173.80" xmlns="http://www.w3.org/2000/svg" xmlns:xlink="http://www.w3.org/1999/xlink">
<g id="graph0" class="graph" transform="scale(1 1) rotate(0) translate(4 169.8)">
<title>dependencies</title>
<polygon fill="white" stroke="transparent" points="-4,4 -4,-169.8 1395,-169.8 1395,4 -4,4"/>
<text text-anchor="middle" x="695.5" y="-8.2" font-family="sans-serif" font-size="14.00">dependencies</text>
<g id="clust1" class="cluster">
<title>cluster_ReportModule</title>
<polygon fill="none" stroke="black" stroke-dasharray="1,5" points="8,-32.8 8,-157.8 1383,-157.8 1383,-32.8 8,-32.8"/>
</g>
<g id="clust7" class="cluster">
<title>cluster_ReportModule_imports</title>
<polygon fill="none" stroke="black" points="701,-40.8 701,-92.8 1375,-92.8 1375,-40.8 701,-40.8"/>
</g>
<g id="clust2" class="cluster">
<title>cluster_ReportModule_declarations</title>
<polygon fill="none" stroke="black" points="16,-40.8 16,-92.8 693,-92.8 693,-40.8 16,-40.8"/>
</g>
<!-- AllEvidenceComponent -->
<g id="node1" class="node">
<title>AllEvidenceComponent</title>
<polygon fill="#ffffb3" stroke="black" points="684.8,-84.8 533.2,-84.8 533.2,-48.8 684.8,-48.8 684.8,-84.8"/>
<text text-anchor="middle" x="609" y="-62.6" font-family="Times,serif" font-size="14.00">AllEvidenceComponent</text>
</g>
<!-- ReportModule -->
<g id="node5" class="node">
<title>ReportModule</title>
<polygon fill="#8dd3c7" stroke="black" points="942.66,-149.8 939.66,-153.8 918.66,-153.8 915.66,-149.8 845.34,-149.8 845.34,-113.8 942.66,-113.8 942.66,-149.8"/>
<text text-anchor="middle" x="894" y="-127.6" font-family="Times,serif" font-size="14.00">ReportModule</text>
</g>
<!-- AllEvidenceComponent&#45;&gt;ReportModule -->
<g id="edge1" class="edge">
<title>AllEvidenceComponent&#45;&gt;ReportModule</title>
<path fill="none" stroke="black" d="M609,-84.82C609,-102.17 609,-125.8 609,-125.8 609,-125.8 835.33,-125.8 835.33,-125.8"/>
<polygon fill="black" stroke="black" points="835.33,-129.3 845.33,-125.8 835.33,-122.3 835.33,-129.3"/>
</g>
<!-- EntityListComponent -->
<g id="node2" class="node">
<title>EntityListComponent</title>
<polygon fill="#ffffb3" stroke="black" points="515.83,-84.8 378.17,-84.8 378.17,-48.8 515.83,-48.8 515.83,-84.8"/>
<text text-anchor="middle" x="447" y="-62.6" font-family="Times,serif" font-size="14.00">EntityListComponent</text>
</g>
<!-- EntityListComponent&#45;&gt;ReportModule -->
<g id="edge2" class="edge">
<title>EntityListComponent&#45;&gt;ReportModule</title>
<path fill="none" stroke="black" d="M447,-84.91C447,-104.14 447,-131.8 447,-131.8 447,-131.8 835.31,-131.8 835.31,-131.8"/>
<polygon fill="black" stroke="black" points="835.31,-135.3 845.31,-131.8 835.31,-128.3 835.31,-135.3"/>
</g>
<!-- ReportViewComponent -->
<g id="node3" class="node">
<title>ReportViewComponent</title>
<polygon fill="#ffffb3" stroke="black" points="359.76,-84.8 210.24,-84.8 210.24,-48.8 359.76,-48.8 359.76,-84.8"/>
<text text-anchor="middle" x="285" y="-62.6" font-family="Times,serif" font-size="14.00">ReportViewComponent</text>
</g>
<!-- ReportViewComponent&#45;&gt;ReportModule -->
<g id="edge3" class="edge">
<title>ReportViewComponent&#45;&gt;ReportModule</title>
<path fill="none" stroke="black" d="M285,-85.08C285,-106.12 285,-137.8 285,-137.8 285,-137.8 835.19,-137.8 835.19,-137.8"/>
<polygon fill="black" stroke="black" points="835.19,-141.3 845.19,-137.8 835.19,-134.3 835.19,-141.3"/>
</g>
<!-- SolutionListingComponent -->
<g id="node4" class="node">
<title>SolutionListingComponent</title>
<polygon fill="#ffffb3" stroke="black" points="192.46,-84.8 23.54,-84.8 23.54,-48.8 192.46,-48.8 192.46,-84.8"/>
<text text-anchor="middle" x="108" y="-62.6" font-family="Times,serif" font-size="14.00">SolutionListingComponent</text>
</g>
<!-- SolutionListingComponent&#45;&gt;ReportModule -->
<g id="edge4" class="edge">
<title>SolutionListingComponent&#45;&gt;ReportModule</title>
<path fill="none" stroke="black" d="M108,-84.89C108,-107.93 108,-144.8 108,-144.8 108,-144.8 835.13,-144.8 835.13,-144.8"/>
<polygon fill="black" stroke="black" points="835.13,-148.3 845.13,-144.8 835.13,-141.3 835.13,-148.3"/>
</g>
<!-- CoreModule -->
<g id="node6" class="node">
<title>CoreModule</title>
<polygon fill="#8dd3c7" stroke="black" points="1367.27,-84.8 1364.27,-88.8 1343.27,-88.8 1340.27,-84.8 1280.73,-84.8 1280.73,-48.8 1367.27,-48.8 1367.27,-84.8"/>
<text text-anchor="middle" x="1324" y="-62.6" font-family="Times,serif" font-size="14.00">CoreModule</text>
</g>
<!-- CoreModule&#45;&gt;ReportModule -->
<g id="edge5" class="edge">
<title>CoreModule&#45;&gt;ReportModule</title>
<path fill="none" stroke="black" d="M1338.46,-84.89C1338.46,-107.93 1338.46,-144.8 1338.46,-144.8 1338.46,-144.8 952.84,-144.8 952.84,-144.8"/>
<polygon fill="black" stroke="black" points="952.84,-141.3 942.84,-144.8 952.84,-148.3 952.84,-141.3"/>
</g>
<!-- CoreModule&#45;&gt;ReportModule -->
<g id="edge6" class="edge">
<title>CoreModule&#45;&gt;ReportModule</title>
<path fill="none" stroke="black" d="M1309.54,-85.08C1309.54,-106.12 1309.54,-137.8 1309.54,-137.8 1309.54,-137.8 952.89,-137.8 952.89,-137.8"/>
<polygon fill="black" stroke="black" points="952.89,-134.3 942.89,-137.8 952.89,-141.3 952.89,-134.3"/>
</g>
<!-- ReportRoutingModule -->
<g id="node7" class="node">
<title>ReportRoutingModule</title>
<polygon fill="#8dd3c7" stroke="black" points="1262.27,-84.8 1259.27,-88.8 1238.27,-88.8 1235.27,-84.8 1119.73,-84.8 1119.73,-48.8 1262.27,-48.8 1262.27,-84.8"/>
<text text-anchor="middle" x="1191" y="-62.6" font-family="Times,serif" font-size="14.00">ReportRoutingModule</text>
</g>
<!-- ReportRoutingModule&#45;&gt;ReportModule -->
<g id="edge7" class="edge">
<title>ReportRoutingModule&#45;&gt;ReportModule</title>
<path fill="none" stroke="black" d="M1191,-84.91C1191,-104.14 1191,-131.8 1191,-131.8 1191,-131.8 952.71,-131.8 952.71,-131.8"/>
<polygon fill="black" stroke="black" points="952.71,-128.3 942.71,-131.8 952.71,-135.3 952.71,-128.3"/>
</g>
<!-- SharedFeatureModule -->
<g id="node8" class="node">
<title>SharedFeatureModule</title>
<polygon fill="#8dd3c7" stroke="black" points="1101.41,-84.8 1098.41,-88.8 1077.41,-88.8 1074.41,-84.8 960.59,-84.8 960.59,-48.8 1101.41,-48.8 1101.41,-84.8"/>
<text text-anchor="middle" x="1031" y="-62.6" font-family="Times,serif" font-size="14.00">SharedFeatureModule</text>
</g>
<!-- SharedFeatureModule&#45;&gt;ReportModule -->
<g id="edge8" class="edge">
<title>SharedFeatureModule&#45;&gt;ReportModule</title>
<path fill="none" stroke="black" d="M1054.4,-84.82C1054.4,-102.17 1054.4,-125.8 1054.4,-125.8 1054.4,-125.8 953,-125.8 953,-125.8"/>
<polygon fill="black" stroke="black" points="953,-122.3 943,-125.8 953,-129.3 953,-122.3"/>
</g>
<!-- SharedFeatureModule&#45;&gt;ReportModule -->
<g id="edge9" class="edge">
<title>SharedFeatureModule&#45;&gt;ReportModule</title>
<path fill="none" stroke="black" d="M1007.6,-85.04C1007.6,-100.37 1007.6,-119.8 1007.6,-119.8 1007.6,-119.8 952.84,-119.8 952.84,-119.8"/>
<polygon fill="black" stroke="black" points="952.84,-116.3 942.84,-119.8 952.84,-123.3 952.84,-116.3"/>
</g>
<!-- SharedModule -->
<g id="node9" class="node">
<title>SharedModule</title>
<polygon fill="#8dd3c7" stroke="black" points="943.43,-84.8 940.43,-88.8 919.43,-88.8 916.43,-84.8 844.57,-84.8 844.57,-48.8 943.43,-48.8 943.43,-84.8"/>
<text text-anchor="middle" x="894" y="-62.6" font-family="Times,serif" font-size="14.00">SharedModule</text>
</g>
<!-- SharedModule&#45;&gt;ReportModule -->
<g id="edge10" class="edge">
<title>SharedModule&#45;&gt;ReportModule</title>
<path fill="none" stroke="black" d="M877.72,-84.91C877.72,-84.91 877.72,-103.79 877.72,-103.79"/>
<polygon fill="black" stroke="black" points="874.22,-103.79 877.72,-113.79 881.22,-103.79 874.22,-103.79"/>
</g>
<!-- SharedModule&#45;&gt;ReportModule -->
<g id="edge11" class="edge">
<title>SharedModule&#45;&gt;ReportModule</title>
<path fill="none" stroke="black" d="M910.28,-84.91C910.28,-84.91 910.28,-103.79 910.28,-103.79"/>
<polygon fill="black" stroke="black" points="906.78,-103.79 910.28,-113.79 913.78,-103.79 906.78,-103.79"/>
</g>
<!-- TelemetryModule -->
<g id="node10" class="node">
<title>TelemetryModule</title>
<polygon fill="#8dd3c7" stroke="black" points="826.58,-84.8 823.58,-88.8 802.58,-88.8 799.58,-84.8 709.42,-84.8 709.42,-48.8 826.58,-48.8 826.58,-84.8"/>
<text text-anchor="middle" x="768" y="-62.6" font-family="Times,serif" font-size="14.00">TelemetryModule</text>
</g>
<!-- TelemetryModule&#45;&gt;ReportModule -->
<g id="edge12" class="edge">
<title>TelemetryModule&#45;&gt;ReportModule</title>
<path fill="none" stroke="black" d="M768,-85.04C768,-100.37 768,-119.8 768,-119.8 768,-119.8 835.29,-119.8 835.29,-119.8"/>
<polygon fill="black" stroke="black" points="835.29,-123.3 845.29,-119.8 835.29,-116.3 835.29,-123.3"/>
</g>
</g>
</svg>
