<?xml version="1.0" encoding="UTF-8" standalone="no"?>
<!DOCTYPE svg PUBLIC "-//W3C//DTD SVG 1.1//EN"
 "http://www.w3.org/Graphics/SVG/1.1/DTD/svg11.dtd">
<!-- Generated by graphviz version 5.0.0 (20220707.1540)
 -->
<!-- Title: dependencies Pages: 1 -->
<svg width="1263pt" height="174pt"
 viewBox="0.00 0.00 1263.00 173.80" xmlns="http://www.w3.org/2000/svg" xmlns:xlink="http://www.w3.org/1999/xlink">
<g id="graph0" class="graph" transform="scale(1 1) rotate(0) translate(4 169.8)">
<title>dependencies</title>
<polygon fill="white" stroke="transparent" points="-4,4 -4,-169.8 1259,-169.8 1259,4 -4,4"/>
<text text-anchor="middle" x="627.5" y="-8.2" font-family="sans-serif" font-size="14.00">dependencies</text>
<g id="clust1" class="cluster">
<title>cluster_BatchModule</title>
<polygon fill="none" stroke="black" stroke-dasharray="1,5" points="8,-32.8 8,-157.8 1247,-157.8 1247,-32.8 8,-32.8"/>
</g>
<g id="clust2" class="cluster">
<title>cluster_BatchModule_declarations</title>
<polygon fill="none" stroke="black" points="693,-40.8 693,-92.8 1239,-92.8 1239,-40.8 693,-40.8"/>
</g>
<g id="clust6" class="cluster">
<title>cluster_BatchModule_imports</title>
<polygon fill="none" stroke="black" points="16,-40.8 16,-92.8 685,-92.8 685,-40.8 16,-40.8"/>
</g>
<!-- CreateBatchComponent -->
<g id="node1" class="node">
<title>CreateBatchComponent</title>
<polygon fill="#ffffb3" stroke="black" points="1231.02,-84.8 1080.98,-84.8 1080.98,-48.8 1231.02,-48.8 1231.02,-84.8"/>
<text text-anchor="middle" x="1156" y="-62.6" font-family="Times,serif" font-size="14.00">CreateBatchComponent</text>
</g>
<!-- BatchModule -->
<g id="node4" class="node">
<title>BatchModule</title>
<polygon fill="#8dd3c7" stroke="black" points="589.21,-149.8 586.21,-153.8 565.21,-153.8 562.21,-149.8 496.79,-149.8 496.79,-113.8 589.21,-113.8 589.21,-149.8"/>
<text text-anchor="middle" x="543" y="-127.6" font-family="Times,serif" font-size="14.00">BatchModule</text>
</g>
<!-- CreateBatchComponent&#45;&gt;BatchModule -->
<g id="edge1" class="edge">
<title>CreateBatchComponent&#45;&gt;BatchModule</title>
<path fill="none" stroke="black" d="M1156,-85.09C1156,-107.01 1156,-140.8 1156,-140.8 1156,-140.8 599.33,-140.8 599.33,-140.8"/>
<polygon fill="black" stroke="black" points="599.33,-137.3 589.33,-140.8 599.33,-144.3 599.33,-137.3"/>
</g>
<!-- EnrollBatchComponent -->
<g id="node2" class="node">
<title>EnrollBatchComponent</title>
<polygon fill="#ffffb3" stroke="black" points="1062.48,-84.8 913.52,-84.8 913.52,-48.8 1062.48,-48.8 1062.48,-84.8"/>
<text text-anchor="middle" x="988" y="-62.6" font-family="Times,serif" font-size="14.00">EnrollBatchComponent</text>
</g>
<!-- EnrollBatchComponent&#45;&gt;BatchModule -->
<g id="edge2" class="edge">
<title>EnrollBatchComponent&#45;&gt;BatchModule</title>
<path fill="none" stroke="black" d="M988,-84.91C988,-104.14 988,-131.8 988,-131.8 988,-131.8 599.36,-131.8 599.36,-131.8"/>
<polygon fill="black" stroke="black" points="599.36,-128.3 589.36,-131.8 599.36,-135.3 599.36,-128.3"/>
</g>
<!-- UpdateCourseBatchComponent -->
<g id="node3" class="node">
<title>UpdateCourseBatchComponent</title>
<polygon fill="#ffffb3" stroke="black" points="895.08,-84.8 700.92,-84.8 700.92,-48.8 895.08,-48.8 895.08,-84.8"/>
<text text-anchor="middle" x="798" y="-62.6" font-family="Times,serif" font-size="14.00">UpdateCourseBatchComponent</text>
</g>
<!-- UpdateCourseBatchComponent&#45;&gt;BatchModule -->
<g id="edge3" class="edge">
<title>UpdateCourseBatchComponent&#45;&gt;BatchModule</title>
<path fill="none" stroke="black" d="M798,-84.83C798,-101.2 798,-122.8 798,-122.8 798,-122.8 599.18,-122.8 599.18,-122.8"/>
<polygon fill="black" stroke="black" points="599.18,-119.3 589.18,-122.8 599.18,-126.3 599.18,-119.3"/>
</g>
<!-- BatchRoutingModule -->
<g id="node5" class="node">
<title>BatchRoutingModule</title>
<polygon fill="#8dd3c7" stroke="black" points="676.82,-84.8 673.82,-88.8 652.82,-88.8 649.82,-84.8 539.18,-84.8 539.18,-48.8 676.82,-48.8 676.82,-84.8"/>
<text text-anchor="middle" x="608" y="-62.6" font-family="Times,serif" font-size="14.00">BatchRoutingModule</text>
</g>
<!-- BatchRoutingModule&#45;&gt;BatchModule -->
<g id="edge4" class="edge">
<title>BatchRoutingModule&#45;&gt;BatchModule</title>
<path fill="none" stroke="black" d="M564.22,-84.91C564.22,-84.91 564.22,-103.79 564.22,-103.79"/>
<polygon fill="black" stroke="black" points="560.72,-103.79 564.22,-113.79 567.72,-103.79 560.72,-103.79"/>
</g>
<!-- CoreModule -->
<g id="node6" class="node">
<title>CoreModule</title>
<polygon fill="#8dd3c7" stroke="black" points="521.27,-84.8 518.27,-88.8 497.27,-88.8 494.27,-84.8 434.73,-84.8 434.73,-48.8 521.27,-48.8 521.27,-84.8"/>
<text text-anchor="middle" x="478" y="-62.6" font-family="Times,serif" font-size="14.00">CoreModule</text>
</g>
<!-- CoreModule&#45;&gt;BatchModule -->
<g id="edge5" class="edge">
<title>CoreModule&#45;&gt;BatchModule</title>
<path fill="none" stroke="black" d="M509.14,-84.91C509.14,-84.91 509.14,-103.79 509.14,-103.79"/>
<polygon fill="black" stroke="black" points="505.64,-103.79 509.14,-113.79 512.64,-103.79 505.64,-103.79"/>
</g>
<!-- SharedFeatureModule -->
<g id="node7" class="node">
<title>SharedFeatureModule</title>
<polygon fill="#8dd3c7" stroke="black" points="416.41,-84.8 413.41,-88.8 392.41,-88.8 389.41,-84.8 275.59,-84.8 275.59,-48.8 416.41,-48.8 416.41,-84.8"/>
<text text-anchor="middle" x="346" y="-62.6" font-family="Times,serif" font-size="14.00">SharedFeatureModule</text>
</g>
<!-- SharedFeatureModule&#45;&gt;BatchModule -->
<g id="edge6" class="edge">
<title>SharedFeatureModule&#45;&gt;BatchModule</title>
<path fill="none" stroke="black" d="M346,-84.83C346,-101.2 346,-122.8 346,-122.8 346,-122.8 486.81,-122.8 486.81,-122.8"/>
<polygon fill="black" stroke="black" points="486.81,-126.3 496.81,-122.8 486.81,-119.3 486.81,-126.3"/>
</g>
<!-- SharedModule -->
<g id="node8" class="node">
<title>SharedModule</title>
<polygon fill="#8dd3c7" stroke="black" points="258.43,-84.8 255.43,-88.8 234.43,-88.8 231.43,-84.8 159.57,-84.8 159.57,-48.8 258.43,-48.8 258.43,-84.8"/>
<text text-anchor="middle" x="209" y="-62.6" font-family="Times,serif" font-size="14.00">SharedModule</text>
</g>
<!-- SharedModule&#45;&gt;BatchModule -->
<g id="edge7" class="edge">
<title>SharedModule&#45;&gt;BatchModule</title>
<path fill="none" stroke="black" d="M209,-84.91C209,-104.14 209,-131.8 209,-131.8 209,-131.8 486.56,-131.8 486.56,-131.8"/>
<polygon fill="black" stroke="black" points="486.56,-135.3 496.56,-131.8 486.56,-128.3 486.56,-135.3"/>
</g>
<!-- TelemetryModule -->
<g id="node9" class="node">
<title>TelemetryModule</title>
<polygon fill="#8dd3c7" stroke="black" points="141.58,-84.8 138.58,-88.8 117.58,-88.8 114.58,-84.8 24.42,-84.8 24.42,-48.8 141.58,-48.8 141.58,-84.8"/>
<text text-anchor="middle" x="83" y="-62.6" font-family="Times,serif" font-size="14.00">TelemetryModule</text>
</g>
<!-- TelemetryModule&#45;&gt;BatchModule -->
<g id="edge8" class="edge">
<title>TelemetryModule&#45;&gt;BatchModule</title>
<path fill="none" stroke="black" d="M83,-85.09C83,-107.01 83,-140.8 83,-140.8 83,-140.8 486.79,-140.8 486.79,-140.8"/>
<polygon fill="black" stroke="black" points="486.79,-144.3 496.79,-140.8 486.79,-137.3 486.79,-144.3"/>
</g>
</g>
</svg>
