<?xml version="1.0" encoding="UTF-8" standalone="no"?>
<!DOCTYPE svg PUBLIC "-//W3C//DTD SVG 1.1//EN"
 "http://www.w3.org/Graphics/SVG/1.1/DTD/svg11.dtd">
<!-- Generated by graphviz version 5.0.0 (20220707.1540)
 -->
<!-- Title: dependencies Pages: 1 -->
<svg width="945pt" height="174pt"
 viewBox="0.00 0.00 945.00 173.80" xmlns="http://www.w3.org/2000/svg" xmlns:xlink="http://www.w3.org/1999/xlink">
<g id="graph0" class="graph" transform="scale(1 1) rotate(0) translate(4 169.8)">
<title>dependencies</title>
<polygon fill="white" stroke="transparent" points="-4,4 -4,-169.8 941,-169.8 941,4 -4,4"/>
<text text-anchor="middle" x="468.5" y="-8.2" font-family="sans-serif" font-size="14.00">dependencies</text>
<g id="clust1" class="cluster">
<title>cluster_GuestProfileModule</title>
<polygon fill="none" stroke="black" stroke-dasharray="1,5" points="8,-32.8 8,-157.8 929,-157.8 929,-32.8 8,-32.8"/>
</g>
<g id="clust2" class="cluster">
<title>cluster_GuestProfileModule_declarations</title>
<polygon fill="none" stroke="black" points="753,-40.8 753,-92.8 921,-92.8 921,-40.8 753,-40.8"/>
</g>
<g id="clust4" class="cluster">
<title>cluster_GuestProfileModule_imports</title>
<polygon fill="none" stroke="black" points="16,-40.8 16,-92.8 745,-92.8 745,-40.8 16,-40.8"/>
</g>
<!-- GuestProfileComponent -->
<g id="node1" class="node">
<title>GuestProfileComponent</title>
<polygon fill="#ffffb3" stroke="black" points="913.1,-84.8 760.9,-84.8 760.9,-48.8 913.1,-48.8 913.1,-84.8"/>
<text text-anchor="middle" x="837" y="-62.6" font-family="Times,serif" font-size="14.00">GuestProfileComponent</text>
</g>
<!-- GuestProfileModule -->
<g id="node2" class="node">
<title>GuestProfileModule</title>
<polygon fill="#8dd3c7" stroke="black" points="482.32,-149.8 479.32,-153.8 458.32,-153.8 455.32,-149.8 351.68,-149.8 351.68,-113.8 482.32,-113.8 482.32,-149.8"/>
<text text-anchor="middle" x="417" y="-127.6" font-family="Times,serif" font-size="14.00">GuestProfileModule</text>
</g>
<!-- GuestProfileComponent&#45;&gt;GuestProfileModule -->
<g id="edge1" class="edge">
<title>GuestProfileComponent&#45;&gt;GuestProfileModule</title>
<path fill="none" stroke="black" d="M837,-85.08C837,-106.12 837,-137.8 837,-137.8 837,-137.8 492.16,-137.8 492.16,-137.8"/>
<polygon fill="black" stroke="black" points="492.16,-134.3 482.16,-137.8 492.16,-141.3 492.16,-134.3"/>
</g>
<!-- GuestProfileRoutingModule -->
<g id="node3" class="node">
<title>GuestProfileRoutingModule</title>
<polygon fill="#8dd3c7" stroke="black" points="736.94,-84.8 733.94,-88.8 712.94,-88.8 709.94,-84.8 561.06,-84.8 561.06,-48.8 736.94,-48.8 736.94,-84.8"/>
<text text-anchor="middle" x="649" y="-62.6" font-family="Times,serif" font-size="14.00">GuestProfileRoutingModule</text>
</g>
<!-- GuestProfileRoutingModule&#45;&gt;GuestProfileModule -->
<g id="edge2" class="edge">
<title>GuestProfileRoutingModule&#45;&gt;GuestProfileModule</title>
<path fill="none" stroke="black" d="M649,-84.82C649,-102.17 649,-125.8 649,-125.8 649,-125.8 492.24,-125.8 492.24,-125.8"/>
<polygon fill="black" stroke="black" points="492.24,-122.3 482.24,-125.8 492.24,-129.3 492.24,-122.3"/>
</g>
<!-- LocationModule -->
<g id="node4" class="node">
<title>LocationModule</title>
<polygon fill="#8dd3c7" stroke="black" points="543.81,-84.8 540.81,-88.8 519.81,-88.8 516.81,-84.8 434.19,-84.8 434.19,-48.8 543.81,-48.8 543.81,-84.8"/>
<text text-anchor="middle" x="489" y="-62.6" font-family="Times,serif" font-size="14.00">LocationModule</text>
</g>
<!-- LocationModule&#45;&gt;GuestProfileModule -->
<g id="edge3" class="edge">
<title>LocationModule&#45;&gt;GuestProfileModule</title>
<path fill="none" stroke="black" d="M458.25,-84.91C458.25,-84.91 458.25,-103.79 458.25,-103.79"/>
<polygon fill="black" stroke="black" points="454.75,-103.79 458.25,-113.79 461.75,-103.79 454.75,-103.79"/>
</g>
<!-- SharedFeatureModule -->
<g id="node5" class="node">
<title>SharedFeatureModule</title>
<polygon fill="#8dd3c7" stroke="black" points="416.41,-84.8 413.41,-88.8 392.41,-88.8 389.41,-84.8 275.59,-84.8 275.59,-48.8 416.41,-48.8 416.41,-84.8"/>
<text text-anchor="middle" x="346" y="-62.6" font-family="Times,serif" font-size="14.00">SharedFeatureModule</text>
</g>
<!-- SharedFeatureModule&#45;&gt;GuestProfileModule -->
<g id="edge4" class="edge">
<title>SharedFeatureModule&#45;&gt;GuestProfileModule</title>
<path fill="none" stroke="black" d="M384.02,-84.91C384.02,-84.91 384.02,-103.79 384.02,-103.79"/>
<polygon fill="black" stroke="black" points="380.52,-103.79 384.02,-113.79 387.52,-103.79 380.52,-103.79"/>
</g>
<!-- SharedModule -->
<g id="node6" class="node">
<title>SharedModule</title>
<polygon fill="#8dd3c7" stroke="black" points="258.43,-84.8 255.43,-88.8 234.43,-88.8 231.43,-84.8 159.57,-84.8 159.57,-48.8 258.43,-48.8 258.43,-84.8"/>
<text text-anchor="middle" x="209" y="-62.6" font-family="Times,serif" font-size="14.00">SharedModule</text>
</g>
<!-- SharedModule&#45;&gt;GuestProfileModule -->
<g id="edge5" class="edge">
<title>SharedModule&#45;&gt;GuestProfileModule</title>
<path fill="none" stroke="black" d="M209,-84.82C209,-102.17 209,-125.8 209,-125.8 209,-125.8 341.76,-125.8 341.76,-125.8"/>
<polygon fill="black" stroke="black" points="341.76,-129.3 351.76,-125.8 341.76,-122.3 341.76,-129.3"/>
</g>
<!-- TelemetryModule -->
<g id="node7" class="node">
<title>TelemetryModule</title>
<polygon fill="#8dd3c7" stroke="black" points="141.58,-84.8 138.58,-88.8 117.58,-88.8 114.58,-84.8 24.42,-84.8 24.42,-48.8 141.58,-48.8 141.58,-84.8"/>
<text text-anchor="middle" x="83" y="-62.6" font-family="Times,serif" font-size="14.00">TelemetryModule</text>
</g>
<!-- TelemetryModule&#45;&gt;GuestProfileModule -->
<g id="edge6" class="edge">
<title>TelemetryModule&#45;&gt;GuestProfileModule</title>
<path fill="none" stroke="black" d="M83,-85.08C83,-106.12 83,-137.8 83,-137.8 83,-137.8 341.81,-137.8 341.81,-137.8"/>
<polygon fill="black" stroke="black" points="341.81,-141.3 351.81,-137.8 341.81,-134.3 341.81,-141.3"/>
</g>
</g>
</svg>
