<?xml version="1.0" encoding="UTF-8" standalone="no"?>
<!DOCTYPE svg PUBLIC "-//W3C//DTD SVG 1.1//EN"
 "http://www.w3.org/Graphics/SVG/1.1/DTD/svg11.dtd">
<!-- Generated by graphviz version 5.0.0 (20220707.1540)
 -->
<!-- Title: dependencies Pages: 1 -->
<svg width="945pt" height="174pt"
 viewBox="0.00 0.00 945.00 173.80" xmlns="http://www.w3.org/2000/svg" xmlns:xlink="http://www.w3.org/1999/xlink">
<g id="graph0" class="graph" transform="scale(1 1) rotate(0) translate(4 169.8)">
<title>dependencies</title>
<polygon fill="white" stroke="transparent" points="-4,4 -4,-169.8 941,-169.8 941,4 -4,4"/>
<text text-anchor="middle" x="468.5" y="-8.2" font-family="sans-serif" font-size="14.00">dependencies</text>
<g id="clust1" class="cluster">
<title>cluster_GuestProfileModule</title>
<polygon fill="none" stroke="black" stroke-dasharray="1,5" points="8,-32.8 8,-157.8 929,-157.8 929,-32.8 8,-32.8"/>
</g>
<g id="clust4" class="cluster">
<title>cluster_GuestProfileModule_imports</title>
<polygon fill="none" stroke="black" points="192,-40.8 192,-92.8 921,-92.8 921,-40.8 192,-40.8"/>
</g>
<g id="clust2" class="cluster">
<title>cluster_GuestProfileModule_declarations</title>
<polygon fill="none" stroke="black" points="16,-40.8 16,-92.8 184,-92.8 184,-40.8 16,-40.8"/>
</g>
<!-- GuestProfileComponent -->
<g id="node1" class="node">
<title>GuestProfileComponent</title>
<polygon fill="#ffffb3" stroke="black" points="176.1,-84.8 23.9,-84.8 23.9,-48.8 176.1,-48.8 176.1,-84.8"/>
<text text-anchor="middle" x="100" y="-62.6" font-family="Times,serif" font-size="14.00">GuestProfileComponent</text>
</g>
<!-- GuestProfileModule -->
<g id="node2" class="node">
<title>GuestProfileModule</title>
<polygon fill="#8dd3c7" stroke="black" points="518.32,-149.8 515.32,-153.8 494.32,-153.8 491.32,-149.8 387.68,-149.8 387.68,-113.8 518.32,-113.8 518.32,-149.8"/>
<text text-anchor="middle" x="453" y="-127.6" font-family="Times,serif" font-size="14.00">GuestProfileModule</text>
</g>
<!-- GuestProfileComponent&#45;&gt;GuestProfileModule -->
<g id="edge1" class="edge">
<title>GuestProfileComponent&#45;&gt;GuestProfileModule</title>
<path fill="none" stroke="black" d="M100,-85.08C100,-106.12 100,-137.8 100,-137.8 100,-137.8 377.43,-137.8 377.43,-137.8"/>
<polygon fill="black" stroke="black" points="377.43,-141.3 387.43,-137.8 377.43,-134.3 377.43,-141.3"/>
</g>
<!-- GuestProfileRoutingModule -->
<g id="node3" class="node">
<title>GuestProfileRoutingModule</title>
<polygon fill="#8dd3c7" stroke="black" points="912.94,-84.8 909.94,-88.8 888.94,-88.8 885.94,-84.8 737.06,-84.8 737.06,-48.8 912.94,-48.8 912.94,-84.8"/>
<text text-anchor="middle" x="825" y="-62.6" font-family="Times,serif" font-size="14.00">GuestProfileRoutingModule</text>
</g>
<!-- GuestProfileRoutingModule&#45;&gt;GuestProfileModule -->
<g id="edge2" class="edge">
<title>GuestProfileRoutingModule&#45;&gt;GuestProfileModule</title>
<path fill="none" stroke="black" d="M825,-85.08C825,-106.12 825,-137.8 825,-137.8 825,-137.8 528.22,-137.8 528.22,-137.8"/>
<polygon fill="black" stroke="black" points="528.22,-134.3 518.22,-137.8 528.22,-141.3 528.22,-134.3"/>
</g>
<!-- LocationModule -->
<g id="node4" class="node">
<title>LocationModule</title>
<polygon fill="#8dd3c7" stroke="black" points="719.81,-84.8 716.81,-88.8 695.81,-88.8 692.81,-84.8 610.19,-84.8 610.19,-48.8 719.81,-48.8 719.81,-84.8"/>
<text text-anchor="middle" x="665" y="-62.6" font-family="Times,serif" font-size="14.00">LocationModule</text>
</g>
<!-- LocationModule&#45;&gt;GuestProfileModule -->
<g id="edge3" class="edge">
<title>LocationModule&#45;&gt;GuestProfileModule</title>
<path fill="none" stroke="black" d="M665,-84.82C665,-102.17 665,-125.8 665,-125.8 665,-125.8 528.34,-125.8 528.34,-125.8"/>
<polygon fill="black" stroke="black" points="528.34,-122.3 518.34,-125.8 528.34,-129.3 528.34,-122.3"/>
</g>
<!-- SharedFeatureModule -->
<g id="node5" class="node">
<title>SharedFeatureModule</title>
<polygon fill="#8dd3c7" stroke="black" points="592.41,-84.8 589.41,-88.8 568.41,-88.8 565.41,-84.8 451.59,-84.8 451.59,-48.8 592.41,-48.8 592.41,-84.8"/>
<text text-anchor="middle" x="522" y="-62.6" font-family="Times,serif" font-size="14.00">SharedFeatureModule</text>
</g>
<!-- SharedFeatureModule&#45;&gt;GuestProfileModule -->
<g id="edge4" class="edge">
<title>SharedFeatureModule&#45;&gt;GuestProfileModule</title>
<path fill="none" stroke="black" d="M484.98,-84.91C484.98,-84.91 484.98,-103.79 484.98,-103.79"/>
<polygon fill="black" stroke="black" points="481.48,-103.79 484.98,-113.79 488.48,-103.79 481.48,-103.79"/>
</g>
<!-- SharedModule -->
<g id="node6" class="node">
<title>SharedModule</title>
<polygon fill="#8dd3c7" stroke="black" points="434.43,-84.8 431.43,-88.8 410.43,-88.8 407.43,-84.8 335.57,-84.8 335.57,-48.8 434.43,-48.8 434.43,-84.8"/>
<text text-anchor="middle" x="385" y="-62.6" font-family="Times,serif" font-size="14.00">SharedModule</text>
</g>
<!-- SharedModule&#45;&gt;GuestProfileModule -->
<g id="edge5" class="edge">
<title>SharedModule&#45;&gt;GuestProfileModule</title>
<path fill="none" stroke="black" d="M411.03,-84.91C411.03,-84.91 411.03,-103.79 411.03,-103.79"/>
<polygon fill="black" stroke="black" points="407.53,-103.79 411.03,-113.79 414.53,-103.79 407.53,-103.79"/>
</g>
<!-- TelemetryModule -->
<g id="node7" class="node">
<title>TelemetryModule</title>
<polygon fill="#8dd3c7" stroke="black" points="317.58,-84.8 314.58,-88.8 293.58,-88.8 290.58,-84.8 200.42,-84.8 200.42,-48.8 317.58,-48.8 317.58,-84.8"/>
<text text-anchor="middle" x="259" y="-62.6" font-family="Times,serif" font-size="14.00">TelemetryModule</text>
</g>
<!-- TelemetryModule&#45;&gt;GuestProfileModule -->
<g id="edge6" class="edge">
<title>TelemetryModule&#45;&gt;GuestProfileModule</title>
<path fill="none" stroke="black" d="M259,-84.82C259,-102.17 259,-125.8 259,-125.8 259,-125.8 377.59,-125.8 377.59,-125.8"/>
<polygon fill="black" stroke="black" points="377.59,-129.3 387.59,-125.8 377.59,-122.3 377.59,-129.3"/>
</g>
</g>
</svg>
