<?xml version="1.0" encoding="UTF-8" standalone="no"?>
<!DOCTYPE svg PUBLIC "-//W3C//DTD SVG 1.1//EN"
 "http://www.w3.org/Graphics/SVG/1.1/DTD/svg11.dtd">
<!-- Generated by graphviz version 5.0.0 (20220707.1540)
 -->
<!-- Title: dependencies Pages: 1 -->
<svg width="1328pt" height="174pt"
 viewBox="0.00 0.00 1328.00 173.80" xmlns="http://www.w3.org/2000/svg" xmlns:xlink="http://www.w3.org/1999/xlink">
<g id="graph0" class="graph" transform="scale(1 1) rotate(0) translate(4 169.8)">
<title>dependencies</title>
<polygon fill="white" stroke="transparent" points="-4,4 -4,-169.8 1324,-169.8 1324,4 -4,4"/>
<text text-anchor="middle" x="660" y="-8.2" font-family="sans-serif" font-size="14.00">dependencies</text>
<g id="clust1" class="cluster">
<title>cluster_ExploreModule</title>
<polygon fill="none" stroke="black" stroke-dasharray="1,5" points="8,-32.8 8,-157.8 1312,-157.8 1312,-32.8 8,-32.8"/>
</g>
<g id="clust2" class="cluster">
<title>cluster_ExploreModule_declarations</title>
<polygon fill="none" stroke="black" points="864,-40.8 864,-92.8 1304,-92.8 1304,-40.8 864,-40.8"/>
</g>
<g id="clust5" class="cluster">
<title>cluster_ExploreModule_imports</title>
<polygon fill="none" stroke="black" points="16,-40.8 16,-92.8 856,-92.8 856,-40.8 16,-40.8"/>
</g>
<!-- ExploreContentComponent -->
<g id="node1" class="node">
<title>ExploreContentComponent</title>
<polygon fill="#ffffb3" stroke="black" points="1295.98,-84.8 1126.02,-84.8 1126.02,-48.8 1295.98,-48.8 1295.98,-84.8"/>
<text text-anchor="middle" x="1211" y="-62.6" font-family="Times,serif" font-size="14.00">ExploreContentComponent</text>
</g>
<!-- ExploreModule -->
<g id="node3" class="node">
<title>ExploreModule</title>
<polygon fill="#8dd3c7" stroke="black" points="628.87,-149.8 625.87,-153.8 604.87,-153.8 601.87,-149.8 525.13,-149.8 525.13,-113.8 628.87,-113.8 628.87,-149.8"/>
<text text-anchor="middle" x="577" y="-127.6" font-family="Times,serif" font-size="14.00">ExploreModule</text>
</g>
<!-- ExploreContentComponent&#45;&gt;ExploreModule -->
<g id="edge1" class="edge">
<title>ExploreContentComponent&#45;&gt;ExploreModule</title>
<path fill="none" stroke="black" d="M1211,-85.09C1211,-107.01 1211,-140.8 1211,-140.8 1211,-140.8 638.88,-140.8 638.88,-140.8"/>
<polygon fill="black" stroke="black" points="638.88,-137.3 628.88,-140.8 638.88,-144.3 638.88,-137.3"/>
</g>
<!-- ExploreCurriculumCoursesComponent -->
<g id="node2" class="node">
<title>ExploreCurriculumCoursesComponent</title>
<polygon fill="#ffffb3" stroke="black" points="1107.8,-84.8 872.2,-84.8 872.2,-48.8 1107.8,-48.8 1107.8,-84.8"/>
<text text-anchor="middle" x="990" y="-62.6" font-family="Times,serif" font-size="14.00">ExploreCurriculumCoursesComponent</text>
</g>
<!-- ExploreCurriculumCoursesComponent&#45;&gt;ExploreModule -->
<g id="edge2" class="edge">
<title>ExploreCurriculumCoursesComponent&#45;&gt;ExploreModule</title>
<path fill="none" stroke="black" d="M990,-84.91C990,-104.14 990,-131.8 990,-131.8 990,-131.8 638.89,-131.8 638.89,-131.8"/>
<polygon fill="black" stroke="black" points="638.89,-128.3 628.89,-131.8 638.89,-135.3 638.89,-128.3"/>
</g>
<!-- ContentSearchModule -->
<g id="node4" class="node">
<title>ContentSearchModule</title>
<polygon fill="#8dd3c7" stroke="black" points="847.97,-84.8 844.97,-88.8 823.97,-88.8 820.97,-84.8 706.03,-84.8 706.03,-48.8 847.97,-48.8 847.97,-84.8"/>
<text text-anchor="middle" x="777" y="-62.6" font-family="Times,serif" font-size="14.00">ContentSearchModule</text>
</g>
<!-- ContentSearchModule&#45;&gt;ExploreModule -->
<g id="edge3" class="edge">
<title>ContentSearchModule&#45;&gt;ExploreModule</title>
<path fill="none" stroke="black" d="M777,-84.83C777,-101.2 777,-122.8 777,-122.8 777,-122.8 639.03,-122.8 639.03,-122.8"/>
<polygon fill="black" stroke="black" points="639.03,-119.3 629.03,-122.8 639.03,-126.3 639.03,-119.3"/>
</g>
<!-- CoreModule -->
<g id="node5" class="node">
<title>CoreModule</title>
<polygon fill="#8dd3c7" stroke="black" points="688.27,-84.8 685.27,-88.8 664.27,-88.8 661.27,-84.8 601.73,-84.8 601.73,-48.8 688.27,-48.8 688.27,-84.8"/>
<text text-anchor="middle" x="645" y="-62.6" font-family="Times,serif" font-size="14.00">CoreModule</text>
</g>
<!-- CoreModule&#45;&gt;ExploreModule -->
<g id="edge4" class="edge">
<title>CoreModule&#45;&gt;ExploreModule</title>
<path fill="none" stroke="black" d="M615.28,-84.91C615.28,-84.91 615.28,-103.79 615.28,-103.79"/>
<polygon fill="black" stroke="black" points="611.78,-103.79 615.28,-113.79 618.78,-103.79 611.78,-103.79"/>
</g>
<!-- ExploreRoutingModule -->
<g id="node6" class="node">
<title>ExploreRoutingModule</title>
<polygon fill="#8dd3c7" stroke="black" points="583.49,-84.8 580.49,-88.8 559.49,-88.8 556.49,-84.8 434.51,-84.8 434.51,-48.8 583.49,-48.8 583.49,-84.8"/>
<text text-anchor="middle" x="509" y="-62.6" font-family="Times,serif" font-size="14.00">ExploreRoutingModule</text>
</g>
<!-- ExploreRoutingModule&#45;&gt;ExploreModule -->
<g id="edge5" class="edge">
<title>ExploreRoutingModule&#45;&gt;ExploreModule</title>
<path fill="none" stroke="black" d="M554.28,-84.91C554.28,-84.91 554.28,-103.79 554.28,-103.79"/>
<polygon fill="black" stroke="black" points="550.78,-103.79 554.28,-113.79 557.78,-103.79 550.78,-103.79"/>
</g>
<!-- SharedFeatureModule -->
<g id="node7" class="node">
<title>SharedFeatureModule</title>
<polygon fill="#8dd3c7" stroke="black" points="416.41,-84.8 413.41,-88.8 392.41,-88.8 389.41,-84.8 275.59,-84.8 275.59,-48.8 416.41,-48.8 416.41,-84.8"/>
<text text-anchor="middle" x="346" y="-62.6" font-family="Times,serif" font-size="14.00">SharedFeatureModule</text>
</g>
<!-- SharedFeatureModule&#45;&gt;ExploreModule -->
<g id="edge6" class="edge">
<title>SharedFeatureModule&#45;&gt;ExploreModule</title>
<path fill="none" stroke="black" d="M346,-84.83C346,-101.2 346,-122.8 346,-122.8 346,-122.8 514.87,-122.8 514.87,-122.8"/>
<polygon fill="black" stroke="black" points="514.87,-126.3 524.87,-122.8 514.87,-119.3 514.87,-126.3"/>
</g>
<!-- SharedModule -->
<g id="node8" class="node">
<title>SharedModule</title>
<polygon fill="#8dd3c7" stroke="black" points="258.43,-84.8 255.43,-88.8 234.43,-88.8 231.43,-84.8 159.57,-84.8 159.57,-48.8 258.43,-48.8 258.43,-84.8"/>
<text text-anchor="middle" x="209" y="-62.6" font-family="Times,serif" font-size="14.00">SharedModule</text>
</g>
<!-- SharedModule&#45;&gt;ExploreModule -->
<g id="edge7" class="edge">
<title>SharedModule&#45;&gt;ExploreModule</title>
<path fill="none" stroke="black" d="M209,-84.91C209,-104.14 209,-131.8 209,-131.8 209,-131.8 515.06,-131.8 515.06,-131.8"/>
<polygon fill="black" stroke="black" points="515.06,-135.3 525.06,-131.8 515.06,-128.3 515.06,-135.3"/>
</g>
<!-- TelemetryModule -->
<g id="node9" class="node">
<title>TelemetryModule</title>
<polygon fill="#8dd3c7" stroke="black" points="141.58,-84.8 138.58,-88.8 117.58,-88.8 114.58,-84.8 24.42,-84.8 24.42,-48.8 141.58,-48.8 141.58,-84.8"/>
<text text-anchor="middle" x="83" y="-62.6" font-family="Times,serif" font-size="14.00">TelemetryModule</text>
</g>
<!-- TelemetryModule&#45;&gt;ExploreModule -->
<g id="edge8" class="edge">
<title>TelemetryModule&#45;&gt;ExploreModule</title>
<path fill="none" stroke="black" d="M83,-85.09C83,-107.01 83,-140.8 83,-140.8 83,-140.8 515.07,-140.8 515.07,-140.8"/>
<polygon fill="black" stroke="black" points="515.07,-144.3 525.07,-140.8 515.07,-137.3 515.07,-144.3"/>
</g>
</g>
</svg>
