<?xml version="1.0" encoding="UTF-8" standalone="no"?>
<!DOCTYPE svg PUBLIC "-//W3C//DTD SVG 1.1//EN"
 "http://www.w3.org/Graphics/SVG/1.1/DTD/svg11.dtd">
<!-- Generated by graphviz version 5.0.0 (20220707.1540)
 -->
<!-- Title: dependencies Pages: 1 -->
<svg width="585pt" height="174pt"
 viewBox="0.00 0.00 585.00 173.80" xmlns="http://www.w3.org/2000/svg" xmlns:xlink="http://www.w3.org/1999/xlink">
<g id="graph0" class="graph" transform="scale(1 1) rotate(0) translate(4 169.8)">
<title>dependencies</title>
<polygon fill="white" stroke="transparent" points="-4,4 -4,-169.8 581,-169.8 581,4 -4,4"/>
<text text-anchor="middle" x="288.5" y="-8.2" font-family="sans-serif" font-size="14.00">dependencies</text>
<g id="clust1" class="cluster">
<title>cluster_MergeAccountModule</title>
<polygon fill="none" stroke="black" stroke-dasharray="1,5" points="8,-32.8 8,-157.8 569,-157.8 569,-32.8 8,-32.8"/>
</g>
<g id="clust4" class="cluster">
<title>cluster_MergeAccountModule_imports</title>
<polygon fill="none" stroke="black" points="240,-40.8 240,-92.8 561,-92.8 561,-40.8 240,-40.8"/>
</g>
<g id="clust2" class="cluster">
<title>cluster_MergeAccountModule_declarations</title>
<polygon fill="none" stroke="black" points="16,-40.8 16,-92.8 232,-92.8 232,-40.8 16,-40.8"/>
</g>
<!-- MergeAccountStatusComponent -->
<g id="node1" class="node">
<title>MergeAccountStatusComponent</title>
<polygon fill="#ffffb3" stroke="black" points="223.52,-84.8 24.48,-84.8 24.48,-48.8 223.52,-48.8 223.52,-84.8"/>
<text text-anchor="middle" x="124" y="-62.6" font-family="Times,serif" font-size="14.00">MergeAccountStatusComponent</text>
</g>
<!-- MergeAccountModule -->
<g id="node2" class="node">
<title>MergeAccountModule</title>
<polygon fill="#8dd3c7" stroke="black" points="368.52,-149.8 365.52,-153.8 344.52,-153.8 341.52,-149.8 225.48,-149.8 225.48,-113.8 368.52,-113.8 368.52,-149.8"/>
<text text-anchor="middle" x="297" y="-127.6" font-family="Times,serif" font-size="14.00">MergeAccountModule</text>
</g>
<!-- MergeAccountStatusComponent&#45;&gt;MergeAccountModule -->
<g id="edge1" class="edge">
<title>MergeAccountStatusComponent&#45;&gt;MergeAccountModule</title>
<path fill="none" stroke="black" d="M223.61,-66.8C231.51,-66.8 236.51,-66.8 236.51,-66.8 236.51,-66.8 236.51,-103.69 236.51,-103.69"/>
<polygon fill="black" stroke="black" points="233.01,-103.69 236.51,-113.69 240.01,-103.69 233.01,-103.69"/>
</g>
<!-- MergeAccountRoutingModule -->
<g id="node3" class="node">
<title>MergeAccountRoutingModule</title>
<polygon fill="#8dd3c7" stroke="black" points="553.14,-84.8 550.14,-88.8 529.14,-88.8 526.14,-84.8 364.86,-84.8 364.86,-48.8 553.14,-48.8 553.14,-84.8"/>
<text text-anchor="middle" x="459" y="-62.6" font-family="Times,serif" font-size="14.00">MergeAccountRoutingModule</text>
</g>
<!-- MergeAccountRoutingModule&#45;&gt;MergeAccountModule -->
<g id="edge2" class="edge">
<title>MergeAccountRoutingModule&#45;&gt;MergeAccountModule</title>
<path fill="none" stroke="black" d="M364.64,-66.8C358.94,-66.8 355.45,-66.8 355.45,-66.8 355.45,-66.8 355.45,-103.69 355.45,-103.69"/>
<polygon fill="black" stroke="black" points="351.95,-103.69 355.45,-113.69 358.95,-103.69 351.95,-103.69"/>
</g>
<!-- SharedModule -->
<g id="node4" class="node">
<title>SharedModule</title>
<polygon fill="#8dd3c7" stroke="black" points="346.43,-84.8 343.43,-88.8 322.43,-88.8 319.43,-84.8 247.57,-84.8 247.57,-48.8 346.43,-48.8 346.43,-84.8"/>
<text text-anchor="middle" x="297" y="-62.6" font-family="Times,serif" font-size="14.00">SharedModule</text>
</g>
<!-- SharedModule&#45;&gt;MergeAccountModule -->
<g id="edge3" class="edge">
<title>SharedModule&#45;&gt;MergeAccountModule</title>
<path fill="none" stroke="black" d="M297,-84.91C297,-84.91 297,-103.79 297,-103.79"/>
<polygon fill="black" stroke="black" points="293.5,-103.79 297,-113.79 300.5,-103.79 293.5,-103.79"/>
</g>
</g>
</svg>
