<?xml version="1.0" encoding="UTF-8" standalone="no"?>
<!DOCTYPE svg PUBLIC "-//W3C//DTD SVG 1.1//EN"
 "http://www.w3.org/Graphics/SVG/1.1/DTD/svg11.dtd">
<!-- Generated by graphviz version 5.0.0 (20220707.1540)
 -->
<!-- Title: dependencies Pages: 1 -->
<svg width="585pt" height="174pt"
 viewBox="0.00 0.00 585.00 173.80" xmlns="http://www.w3.org/2000/svg" xmlns:xlink="http://www.w3.org/1999/xlink">
<g id="graph0" class="graph" transform="scale(1 1) rotate(0) translate(4 169.8)">
<title>dependencies</title>
<polygon fill="white" stroke="transparent" points="-4,4 -4,-169.8 581,-169.8 581,4 -4,4"/>
<text text-anchor="middle" x="288.5" y="-8.2" font-family="sans-serif" font-size="14.00">dependencies</text>
<g id="clust1" class="cluster">
<title>cluster_MergeAccountModule</title>
<polygon fill="none" stroke="black" stroke-dasharray="1,5" points="8,-32.8 8,-157.8 569,-157.8 569,-32.8 8,-32.8"/>
</g>
<g id="clust2" class="cluster">
<title>cluster_MergeAccountModule_declarations</title>
<polygon fill="none" stroke="black" points="345,-40.8 345,-92.8 561,-92.8 561,-40.8 345,-40.8"/>
</g>
<g id="clust4" class="cluster">
<title>cluster_MergeAccountModule_imports</title>
<polygon fill="none" stroke="black" points="16,-40.8 16,-92.8 337,-92.8 337,-40.8 16,-40.8"/>
</g>
<!-- MergeAccountStatusComponent -->
<g id="node1" class="node">
<title>MergeAccountStatusComponent</title>
<polygon fill="#ffffb3" stroke="black" points="552.52,-84.8 353.48,-84.8 353.48,-48.8 552.52,-48.8 552.52,-84.8"/>
<text text-anchor="middle" x="453" y="-62.6" font-family="Times,serif" font-size="14.00">MergeAccountStatusComponent</text>
</g>
<!-- MergeAccountModule -->
<g id="node2" class="node">
<title>MergeAccountModule</title>
<polygon fill="#8dd3c7" stroke="black" points="306.52,-149.8 303.52,-153.8 282.52,-153.8 279.52,-149.8 163.48,-149.8 163.48,-113.8 306.52,-113.8 306.52,-149.8"/>
<text text-anchor="middle" x="235" y="-127.6" font-family="Times,serif" font-size="14.00">MergeAccountModule</text>
</g>
<!-- MergeAccountStatusComponent&#45;&gt;MergeAccountModule -->
<g id="edge1" class="edge">
<title>MergeAccountStatusComponent&#45;&gt;MergeAccountModule</title>
<path fill="none" stroke="black" d="M453,-84.91C453,-104.14 453,-131.8 453,-131.8 453,-131.8 316.68,-131.8 316.68,-131.8"/>
<polygon fill="black" stroke="black" points="316.68,-128.3 306.68,-131.8 316.68,-135.3 316.68,-128.3"/>
</g>
<!-- MergeAccountRoutingModule -->
<g id="node3" class="node">
<title>MergeAccountRoutingModule</title>
<polygon fill="#8dd3c7" stroke="black" points="329.14,-84.8 326.14,-88.8 305.14,-88.8 302.14,-84.8 140.86,-84.8 140.86,-48.8 329.14,-48.8 329.14,-84.8"/>
<text text-anchor="middle" x="235" y="-62.6" font-family="Times,serif" font-size="14.00">MergeAccountRoutingModule</text>
</g>
<!-- MergeAccountRoutingModule&#45;&gt;MergeAccountModule -->
<g id="edge2" class="edge">
<title>MergeAccountRoutingModule&#45;&gt;MergeAccountModule</title>
<path fill="none" stroke="black" d="M235,-84.91C235,-84.91 235,-103.79 235,-103.79"/>
<polygon fill="black" stroke="black" points="231.5,-103.79 235,-113.79 238.5,-103.79 231.5,-103.79"/>
</g>
<!-- SharedModule -->
<g id="node4" class="node">
<title>SharedModule</title>
<polygon fill="#8dd3c7" stroke="black" points="122.43,-84.8 119.43,-88.8 98.43,-88.8 95.43,-84.8 23.57,-84.8 23.57,-48.8 122.43,-48.8 122.43,-84.8"/>
<text text-anchor="middle" x="73" y="-62.6" font-family="Times,serif" font-size="14.00">SharedModule</text>
</g>
<!-- SharedModule&#45;&gt;MergeAccountModule -->
<g id="edge3" class="edge">
<title>SharedModule&#45;&gt;MergeAccountModule</title>
<path fill="none" stroke="black" d="M73,-84.91C73,-104.14 73,-131.8 73,-131.8 73,-131.8 153.47,-131.8 153.47,-131.8"/>
<polygon fill="black" stroke="black" points="153.47,-135.3 163.47,-131.8 153.47,-128.3 153.47,-135.3"/>
</g>
</g>
</svg>
