<?xml version="1.0" encoding="UTF-8" standalone="no"?>
<!DOCTYPE svg PUBLIC "-//W3C//DTD SVG 1.1//EN"
 "http://www.w3.org/Graphics/SVG/1.1/DTD/svg11.dtd">
<!-- Generated by graphviz version 5.0.0 (20220707.1540)
 -->
<!-- Title: dependencies Pages: 1 -->
<svg width="1095pt" height="174pt"
 viewBox="0.00 0.00 1095.00 173.80" xmlns="http://www.w3.org/2000/svg" xmlns:xlink="http://www.w3.org/1999/xlink">
<g id="graph0" class="graph" transform="scale(1 1) rotate(0) translate(4 169.8)">
<title>dependencies</title>
<polygon fill="white" stroke="transparent" points="-4,4 -4,-169.8 1091,-169.8 1091,4 -4,4"/>
<text text-anchor="middle" x="543.5" y="-8.2" font-family="sans-serif" font-size="14.00">dependencies</text>
<g id="clust1" class="cluster">
<title>cluster_GroupModule</title>
<polygon fill="none" stroke="black" stroke-dasharray="1,5" points="8,-32.8 8,-157.8 1079,-157.8 1079,-32.8 8,-32.8"/>
</g>
<g id="clust2" class="cluster">
<title>cluster_GroupModule_declarations</title>
<polygon fill="none" stroke="black" points="695,-40.8 695,-92.8 1071,-92.8 1071,-40.8 695,-40.8"/>
</g>
<g id="clust5" class="cluster">
<title>cluster_GroupModule_imports</title>
<polygon fill="none" stroke="black" points="16,-40.8 16,-92.8 687,-92.8 687,-40.8 16,-40.8"/>
</g>
<!-- ExploreFtuPopupComponent -->
<g id="node1" class="node">
<title>ExploreFtuPopupComponent</title>
<polygon fill="#ffffb3" stroke="black" points="1063.11,-84.8 882.89,-84.8 882.89,-48.8 1063.11,-48.8 1063.11,-84.8"/>
<text text-anchor="middle" x="973" y="-62.6" font-family="Times,serif" font-size="14.00">ExploreFtuPopupComponent</text>
</g>
<!-- GroupModule -->
<g id="node3" class="node">
<title>GroupModule</title>
<polygon fill="#8dd3c7" stroke="black" points="551.82,-149.8 548.82,-153.8 527.82,-153.8 524.82,-149.8 456.18,-149.8 456.18,-113.8 551.82,-113.8 551.82,-149.8"/>
<text text-anchor="middle" x="504" y="-127.6" font-family="Times,serif" font-size="14.00">GroupModule</text>
</g>
<!-- ExploreFtuPopupComponent&#45;&gt;GroupModule -->
<g id="edge1" class="edge">
<title>ExploreFtuPopupComponent&#45;&gt;GroupModule</title>
<path fill="none" stroke="black" d="M973,-85.09C973,-107.01 973,-140.8 973,-140.8 973,-140.8 561.99,-140.8 561.99,-140.8"/>
<polygon fill="black" stroke="black" points="561.99,-137.3 551.99,-140.8 561.99,-144.3 561.99,-137.3"/>
</g>
<!-- ExploreGroupComponent -->
<g id="node2" class="node">
<title>ExploreGroupComponent</title>
<polygon fill="#ffffb3" stroke="black" points="864.92,-84.8 703.08,-84.8 703.08,-48.8 864.92,-48.8 864.92,-84.8"/>
<text text-anchor="middle" x="784" y="-62.6" font-family="Times,serif" font-size="14.00">ExploreGroupComponent</text>
</g>
<!-- ExploreGroupComponent&#45;&gt;GroupModule -->
<g id="edge2" class="edge">
<title>ExploreGroupComponent&#45;&gt;GroupModule</title>
<path fill="none" stroke="black" d="M784,-84.91C784,-104.14 784,-131.8 784,-131.8 784,-131.8 561.82,-131.8 561.82,-131.8"/>
<polygon fill="black" stroke="black" points="561.82,-128.3 551.82,-131.8 561.82,-135.3 561.82,-128.3"/>
</g>
<!-- CoreModule -->
<g id="node4" class="node">
<title>CoreModule</title>
<polygon fill="#8dd3c7" stroke="black" points="679.27,-84.8 676.27,-88.8 655.27,-88.8 652.27,-84.8 592.73,-84.8 592.73,-48.8 679.27,-48.8 679.27,-84.8"/>
<text text-anchor="middle" x="636" y="-62.6" font-family="Times,serif" font-size="14.00">CoreModule</text>
</g>
<!-- CoreModule&#45;&gt;GroupModule -->
<g id="edge3" class="edge">
<title>CoreModule&#45;&gt;GroupModule</title>
<path fill="none" stroke="black" d="M636,-84.83C636,-101.2 636,-122.8 636,-122.8 636,-122.8 562.03,-122.8 562.03,-122.8"/>
<polygon fill="black" stroke="black" points="562.03,-119.3 552.03,-122.8 562.03,-126.3 562.03,-119.3"/>
</g>
<!-- GroupRoutingModule -->
<g id="node5" class="node">
<title>GroupRoutingModule</title>
<polygon fill="#8dd3c7" stroke="black" points="574.44,-84.8 571.44,-88.8 550.44,-88.8 547.44,-84.8 433.56,-84.8 433.56,-48.8 574.44,-48.8 574.44,-84.8"/>
<text text-anchor="middle" x="504" y="-62.6" font-family="Times,serif" font-size="14.00">GroupRoutingModule</text>
</g>
<!-- GroupRoutingModule&#45;&gt;GroupModule -->
<g id="edge4" class="edge">
<title>GroupRoutingModule&#45;&gt;GroupModule</title>
<path fill="none" stroke="black" d="M504,-84.91C504,-84.91 504,-103.79 504,-103.79"/>
<polygon fill="black" stroke="black" points="500.5,-103.79 504,-113.79 507.5,-103.79 500.5,-103.79"/>
</g>
<!-- SharedFeatureModule -->
<g id="node6" class="node">
<title>SharedFeatureModule</title>
<polygon fill="#8dd3c7" stroke="black" points="416.41,-84.8 413.41,-88.8 392.41,-88.8 389.41,-84.8 275.59,-84.8 275.59,-48.8 416.41,-48.8 416.41,-84.8"/>
<text text-anchor="middle" x="346" y="-62.6" font-family="Times,serif" font-size="14.00">SharedFeatureModule</text>
</g>
<!-- SharedFeatureModule&#45;&gt;GroupModule -->
<g id="edge5" class="edge">
<title>SharedFeatureModule&#45;&gt;GroupModule</title>
<path fill="none" stroke="black" d="M346,-84.83C346,-101.2 346,-122.8 346,-122.8 346,-122.8 446.17,-122.8 446.17,-122.8"/>
<polygon fill="black" stroke="black" points="446.17,-126.3 456.17,-122.8 446.17,-119.3 446.17,-126.3"/>
</g>
<!-- SharedModule -->
<g id="node7" class="node">
<title>SharedModule</title>
<polygon fill="#8dd3c7" stroke="black" points="258.43,-84.8 255.43,-88.8 234.43,-88.8 231.43,-84.8 159.57,-84.8 159.57,-48.8 258.43,-48.8 258.43,-84.8"/>
<text text-anchor="middle" x="209" y="-62.6" font-family="Times,serif" font-size="14.00">SharedModule</text>
</g>
<!-- SharedModule&#45;&gt;GroupModule -->
<g id="edge6" class="edge">
<title>SharedModule&#45;&gt;GroupModule</title>
<path fill="none" stroke="black" d="M209,-84.91C209,-104.14 209,-131.8 209,-131.8 209,-131.8 446.28,-131.8 446.28,-131.8"/>
<polygon fill="black" stroke="black" points="446.28,-135.3 456.28,-131.8 446.28,-128.3 446.28,-135.3"/>
</g>
<!-- TelemetryModule -->
<g id="node8" class="node">
<title>TelemetryModule</title>
<polygon fill="#8dd3c7" stroke="black" points="141.58,-84.8 138.58,-88.8 117.58,-88.8 114.58,-84.8 24.42,-84.8 24.42,-48.8 141.58,-48.8 141.58,-84.8"/>
<text text-anchor="middle" x="83" y="-62.6" font-family="Times,serif" font-size="14.00">TelemetryModule</text>
</g>
<!-- TelemetryModule&#45;&gt;GroupModule -->
<g id="edge7" class="edge">
<title>TelemetryModule&#45;&gt;GroupModule</title>
<path fill="none" stroke="black" d="M83,-85.09C83,-107.01 83,-140.8 83,-140.8 83,-140.8 446.12,-140.8 446.12,-140.8"/>
<polygon fill="black" stroke="black" points="446.12,-144.3 456.12,-140.8 446.12,-137.3 446.12,-144.3"/>
</g>
</g>
</svg>
