<?xml version="1.0" encoding="UTF-8" standalone="no"?>
<!DOCTYPE svg PUBLIC "-//W3C//DTD SVG 1.1//EN"
 "http://www.w3.org/Graphics/SVG/1.1/DTD/svg11.dtd">
<!-- Generated by graphviz version 5.0.0 (20220707.1540)
 -->
<!-- Title: dependencies Pages: 1 -->
<svg width="1526pt" height="174pt"
 viewBox="0.00 0.00 1526.00 173.80" xmlns="http://www.w3.org/2000/svg" xmlns:xlink="http://www.w3.org/1999/xlink">
<g id="graph0" class="graph" transform="scale(1 1) rotate(0) translate(4 169.8)">
<title>dependencies</title>
<polygon fill="white" stroke="transparent" points="-4,4 -4,-169.8 1522,-169.8 1522,4 -4,4"/>
<text text-anchor="middle" x="759" y="-8.2" font-family="sans-serif" font-size="14.00">dependencies</text>
<g id="clust1" class="cluster">
<title>cluster_ManageModule</title>
<polygon fill="none" stroke="black" stroke-dasharray="1,5" points="8,-32.8 8,-157.8 1510,-157.8 1510,-32.8 8,-32.8"/>
</g>
<g id="clust8" class="cluster">
<title>cluster_ManageModule_providers</title>
<polygon fill="none" stroke="black" points="1018,-40.8 1018,-92.8 1502,-92.8 1502,-40.8 1018,-40.8"/>
</g>
<g id="clust5" class="cluster">
<title>cluster_ManageModule_imports</title>
<polygon fill="none" stroke="black" points="434,-40.8 434,-92.8 1010,-92.8 1010,-40.8 434,-40.8"/>
</g>
<g id="clust2" class="cluster">
<title>cluster_ManageModule_declarations</title>
<polygon fill="none" stroke="black" points="16,-40.8 16,-92.8 426,-92.8 426,-40.8 16,-40.8"/>
</g>
<!-- UserOrgManagementComponent -->
<g id="node1" class="node">
<title>UserOrgManagementComponent</title>
<polygon fill="#ffffb3" stroke="black" points="418.12,-84.8 215.88,-84.8 215.88,-48.8 418.12,-48.8 418.12,-84.8"/>
<text text-anchor="middle" x="317" y="-62.6" font-family="Times,serif" font-size="14.00">UserOrgManagementComponent</text>
</g>
<!-- ManageModule -->
<g id="node3" class="node">
<title>ManageModule</title>
<polygon fill="#8dd3c7" stroke="black" points="816.14,-149.8 813.14,-153.8 792.14,-153.8 789.14,-149.8 711.86,-149.8 711.86,-113.8 816.14,-113.8 816.14,-149.8"/>
<text text-anchor="middle" x="764" y="-127.6" font-family="Times,serif" font-size="14.00">ManageModule</text>
</g>
<!-- UserOrgManagementComponent&#45;&gt;ManageModule -->
<g id="edge1" class="edge">
<title>UserOrgManagementComponent&#45;&gt;ManageModule</title>
<path fill="none" stroke="black" d="M317,-84.93C317,-105.37 317,-135.8 317,-135.8 317,-135.8 701.85,-135.8 701.85,-135.8"/>
<polygon fill="black" stroke="black" points="701.85,-139.3 711.85,-135.8 701.85,-132.3 701.85,-139.3"/>
</g>
<!-- UserRoleAssignComponent -->
<g id="node2" class="node">
<title>UserRoleAssignComponent</title>
<polygon fill="#ffffb3" stroke="black" points="197.6,-84.8 24.4,-84.8 24.4,-48.8 197.6,-48.8 197.6,-84.8"/>
<text text-anchor="middle" x="111" y="-62.6" font-family="Times,serif" font-size="14.00">UserRoleAssignComponent</text>
</g>
<!-- UserRoleAssignComponent&#45;&gt;ManageModule -->
<g id="edge2" class="edge">
<title>UserRoleAssignComponent&#45;&gt;ManageModule</title>
<path fill="none" stroke="black" d="M111,-84.81C111,-107.29 111,-142.8 111,-142.8 111,-142.8 701.67,-142.8 701.67,-142.8"/>
<polygon fill="black" stroke="black" points="701.67,-146.3 711.67,-142.8 701.67,-139.3 701.67,-146.3"/>
</g>
<!-- ManageRoutingModule -->
<g id="node4" class="node">
<title>ManageRoutingModule</title>
<polygon fill="#8dd3c7" stroke="black" points="1001.76,-84.8 998.76,-88.8 977.76,-88.8 974.76,-84.8 852.24,-84.8 852.24,-48.8 1001.76,-48.8 1001.76,-84.8"/>
<text text-anchor="middle" x="927" y="-62.6" font-family="Times,serif" font-size="14.00">ManageRoutingModule</text>
</g>
<!-- ManageRoutingModule&#45;&gt;ManageModule -->
<g id="edge3" class="edge">
<title>ManageRoutingModule&#45;&gt;ManageModule</title>
<path fill="none" stroke="black" d="M927,-84.81C927,-100.85 927,-121.8 927,-121.8 927,-121.8 826.47,-121.8 826.47,-121.8"/>
<polygon fill="black" stroke="black" points="826.47,-118.3 816.47,-121.8 826.47,-125.3 826.47,-118.3"/>
</g>
<!-- SharedFeatureModule -->
<g id="node5" class="node">
<title>SharedFeatureModule</title>
<polygon fill="#8dd3c7" stroke="black" points="834.41,-84.8 831.41,-88.8 810.41,-88.8 807.41,-84.8 693.59,-84.8 693.59,-48.8 834.41,-48.8 834.41,-84.8"/>
<text text-anchor="middle" x="764" y="-62.6" font-family="Times,serif" font-size="14.00">SharedFeatureModule</text>
</g>
<!-- SharedFeatureModule&#45;&gt;ManageModule -->
<g id="edge4" class="edge">
<title>SharedFeatureModule&#45;&gt;ManageModule</title>
<path fill="none" stroke="black" d="M764,-84.91C764,-84.91 764,-103.79 764,-103.79"/>
<polygon fill="black" stroke="black" points="760.5,-103.79 764,-113.79 767.5,-103.79 760.5,-103.79"/>
</g>
<!-- SharedModule -->
<g id="node6" class="node">
<title>SharedModule</title>
<polygon fill="#8dd3c7" stroke="black" points="676.43,-84.8 673.43,-88.8 652.43,-88.8 649.43,-84.8 577.57,-84.8 577.57,-48.8 676.43,-48.8 676.43,-84.8"/>
<text text-anchor="middle" x="627" y="-62.6" font-family="Times,serif" font-size="14.00">SharedModule</text>
</g>
<!-- SharedModule&#45;&gt;ManageModule -->
<g id="edge5" class="edge">
<title>SharedModule&#45;&gt;ManageModule</title>
<path fill="none" stroke="black" d="M627,-84.81C627,-100.85 627,-121.8 627,-121.8 627,-121.8 701.82,-121.8 701.82,-121.8"/>
<polygon fill="black" stroke="black" points="701.82,-125.3 711.82,-121.8 701.82,-118.3 701.82,-125.3"/>
</g>
<!-- TelemetryModule -->
<g id="node7" class="node">
<title>TelemetryModule</title>
<polygon fill="#8dd3c7" stroke="black" points="559.58,-84.8 556.58,-88.8 535.58,-88.8 532.58,-84.8 442.42,-84.8 442.42,-48.8 559.58,-48.8 559.58,-84.8"/>
<text text-anchor="middle" x="501" y="-62.6" font-family="Times,serif" font-size="14.00">TelemetryModule</text>
</g>
<!-- TelemetryModule&#45;&gt;ManageModule -->
<g id="edge6" class="edge">
<title>TelemetryModule&#45;&gt;ManageModule</title>
<path fill="none" stroke="black" d="M501,-85.07C501,-103.36 501,-128.8 501,-128.8 501,-128.8 701.73,-128.8 701.73,-128.8"/>
<polygon fill="black" stroke="black" points="701.73,-132.3 711.73,-128.8 701.73,-125.3 701.73,-132.3"/>
</g>
<!-- ManageService -->
<g id="node8" class="node">
<title>ManageService</title>
<ellipse fill="#fdb462" stroke="black" cx="1423" cy="-66.8" rx="71.19" ry="18"/>
<text text-anchor="middle" x="1423" y="-62.6" font-family="Times,serif" font-size="14.00">ManageService</text>
</g>
<!-- ManageService&#45;&gt;ManageModule -->
<g id="edge7" class="edge">
<title>ManageService&#45;&gt;ManageModule</title>
<path fill="none" stroke="black" d="M1423,-84.81C1423,-107.29 1423,-142.8 1423,-142.8 1423,-142.8 826.26,-142.8 826.26,-142.8"/>
<polygon fill="black" stroke="black" points="826.26,-139.3 816.26,-142.8 826.26,-146.3 826.26,-139.3"/>
</g>
<!-- ResourceService -->
<g id="node9" class="node">
<title>ResourceService</title>
<ellipse fill="#fdb462" stroke="black" cx="1258" cy="-66.8" rx="75.85" ry="18"/>
<text text-anchor="middle" x="1258" y="-62.6" font-family="Times,serif" font-size="14.00">ResourceService</text>
</g>
<!-- ResourceService&#45;&gt;ManageModule -->
<g id="edge8" class="edge">
<title>ResourceService&#45;&gt;ManageModule</title>
<path fill="none" stroke="black" d="M1258,-84.93C1258,-105.37 1258,-135.8 1258,-135.8 1258,-135.8 826.4,-135.8 826.4,-135.8"/>
<polygon fill="black" stroke="black" points="826.4,-132.3 816.4,-135.8 826.4,-139.3 826.4,-132.3"/>
</g>
<!-- ToasterService -->
<g id="node10" class="node">
<title>ToasterService</title>
<ellipse fill="#fdb462" stroke="black" cx="1095" cy="-66.8" rx="68.9" ry="18"/>
<text text-anchor="middle" x="1095" y="-62.6" font-family="Times,serif" font-size="14.00">ToasterService</text>
</g>
<!-- ToasterService&#45;&gt;ManageModule -->
<g id="edge9" class="edge">
<title>ToasterService&#45;&gt;ManageModule</title>
<path fill="none" stroke="black" d="M1095,-85.07C1095,-103.36 1095,-128.8 1095,-128.8 1095,-128.8 826.45,-128.8 826.45,-128.8"/>
<polygon fill="black" stroke="black" points="826.45,-125.3 816.45,-128.8 826.45,-132.3 826.45,-125.3"/>
</g>
</g>
</svg>
