<?xml version="1.0" encoding="UTF-8" standalone="no"?>
<!DOCTYPE svg PUBLIC "-//W3C//DTD SVG 1.1//EN"
 "http://www.w3.org/Graphics/SVG/1.1/DTD/svg11.dtd">
<!-- Generated by graphviz version 5.0.0 (20220707.1540)
 -->
<!-- Title: dependencies Pages: 1 -->
<svg width="1526pt" height="174pt"
 viewBox="0.00 0.00 1526.00 173.80" xmlns="http://www.w3.org/2000/svg" xmlns:xlink="http://www.w3.org/1999/xlink">
<g id="graph0" class="graph" transform="scale(1 1) rotate(0) translate(4 169.8)">
<title>dependencies</title>
<polygon fill="white" stroke="transparent" points="-4,4 -4,-169.8 1522,-169.8 1522,4 -4,4"/>
<text text-anchor="middle" x="759" y="-8.2" font-family="sans-serif" font-size="14.00">dependencies</text>
<g id="clust1" class="cluster">
<title>cluster_ManageModule</title>
<polygon fill="none" stroke="black" stroke-dasharray="1,5" points="8,-32.8 8,-157.8 1510,-157.8 1510,-32.8 8,-32.8"/>
</g>
<g id="clust2" class="cluster">
<title>cluster_ManageModule_declarations</title>
<polygon fill="none" stroke="black" points="1092,-40.8 1092,-92.8 1502,-92.8 1502,-40.8 1092,-40.8"/>
</g>
<g id="clust5" class="cluster">
<title>cluster_ManageModule_imports</title>
<polygon fill="none" stroke="black" points="508,-40.8 508,-92.8 1084,-92.8 1084,-40.8 508,-40.8"/>
</g>
<g id="clust8" class="cluster">
<title>cluster_ManageModule_providers</title>
<polygon fill="none" stroke="black" points="16,-40.8 16,-92.8 500,-92.8 500,-40.8 16,-40.8"/>
</g>
<!-- UserOrgManagementComponent -->
<g id="node1" class="node">
<title>UserOrgManagementComponent</title>
<polygon fill="#ffffb3" stroke="black" points="1494.12,-84.8 1291.88,-84.8 1291.88,-48.8 1494.12,-48.8 1494.12,-84.8"/>
<text text-anchor="middle" x="1393" y="-62.6" font-family="Times,serif" font-size="14.00">UserOrgManagementComponent</text>
</g>
<!-- ManageModule -->
<g id="node3" class="node">
<title>ManageModule</title>
<polygon fill="#8dd3c7" stroke="black" points="753.14,-149.8 750.14,-153.8 729.14,-153.8 726.14,-149.8 648.86,-149.8 648.86,-113.8 753.14,-113.8 753.14,-149.8"/>
<text text-anchor="middle" x="701" y="-127.6" font-family="Times,serif" font-size="14.00">ManageModule</text>
</g>
<!-- UserOrgManagementComponent&#45;&gt;ManageModule -->
<g id="edge1" class="edge">
<title>UserOrgManagementComponent&#45;&gt;ManageModule</title>
<path fill="none" stroke="black" d="M1393,-84.81C1393,-107.29 1393,-142.8 1393,-142.8 1393,-142.8 763.3,-142.8 763.3,-142.8"/>
<polygon fill="black" stroke="black" points="763.3,-139.3 753.3,-142.8 763.3,-146.3 763.3,-139.3"/>
</g>
<!-- UserRoleAssignComponent -->
<g id="node2" class="node">
<title>UserRoleAssignComponent</title>
<polygon fill="#ffffb3" stroke="black" points="1273.6,-84.8 1100.4,-84.8 1100.4,-48.8 1273.6,-48.8 1273.6,-84.8"/>
<text text-anchor="middle" x="1187" y="-62.6" font-family="Times,serif" font-size="14.00">UserRoleAssignComponent</text>
</g>
<!-- UserRoleAssignComponent&#45;&gt;ManageModule -->
<g id="edge2" class="edge">
<title>UserRoleAssignComponent&#45;&gt;ManageModule</title>
<path fill="none" stroke="black" d="M1187,-84.93C1187,-105.37 1187,-135.8 1187,-135.8 1187,-135.8 763.47,-135.8 763.47,-135.8"/>
<polygon fill="black" stroke="black" points="763.47,-132.3 753.47,-135.8 763.47,-139.3 763.47,-132.3"/>
</g>
<!-- ManageRoutingModule -->
<g id="node4" class="node">
<title>ManageRoutingModule</title>
<polygon fill="#8dd3c7" stroke="black" points="1075.76,-84.8 1072.76,-88.8 1051.76,-88.8 1048.76,-84.8 926.24,-84.8 926.24,-48.8 1075.76,-48.8 1075.76,-84.8"/>
<text text-anchor="middle" x="1001" y="-62.6" font-family="Times,serif" font-size="14.00">ManageRoutingModule</text>
</g>
<!-- ManageRoutingModule&#45;&gt;ManageModule -->
<g id="edge3" class="edge">
<title>ManageRoutingModule&#45;&gt;ManageModule</title>
<path fill="none" stroke="black" d="M1001,-85.07C1001,-103.36 1001,-128.8 1001,-128.8 1001,-128.8 763.26,-128.8 763.26,-128.8"/>
<polygon fill="black" stroke="black" points="763.26,-125.3 753.26,-128.8 763.26,-132.3 763.26,-125.3"/>
</g>
<!-- SharedFeatureModule -->
<g id="node5" class="node">
<title>SharedFeatureModule</title>
<polygon fill="#8dd3c7" stroke="black" points="908.41,-84.8 905.41,-88.8 884.41,-88.8 881.41,-84.8 767.59,-84.8 767.59,-48.8 908.41,-48.8 908.41,-84.8"/>
<text text-anchor="middle" x="838" y="-62.6" font-family="Times,serif" font-size="14.00">SharedFeatureModule</text>
</g>
<!-- SharedFeatureModule&#45;&gt;ManageModule -->
<g id="edge4" class="edge">
<title>SharedFeatureModule&#45;&gt;ManageModule</title>
<path fill="none" stroke="black" d="M838,-84.81C838,-100.85 838,-121.8 838,-121.8 838,-121.8 763.18,-121.8 763.18,-121.8"/>
<polygon fill="black" stroke="black" points="763.18,-118.3 753.18,-121.8 763.18,-125.3 763.18,-118.3"/>
</g>
<!-- SharedModule -->
<g id="node6" class="node">
<title>SharedModule</title>
<polygon fill="#8dd3c7" stroke="black" points="750.43,-84.8 747.43,-88.8 726.43,-88.8 723.43,-84.8 651.57,-84.8 651.57,-48.8 750.43,-48.8 750.43,-84.8"/>
<text text-anchor="middle" x="701" y="-62.6" font-family="Times,serif" font-size="14.00">SharedModule</text>
</g>
<!-- SharedModule&#45;&gt;ManageModule -->
<g id="edge5" class="edge">
<title>SharedModule&#45;&gt;ManageModule</title>
<path fill="none" stroke="black" d="M701,-84.91C701,-84.91 701,-103.79 701,-103.79"/>
<polygon fill="black" stroke="black" points="697.5,-103.79 701,-113.79 704.5,-103.79 697.5,-103.79"/>
</g>
<!-- TelemetryModule -->
<g id="node7" class="node">
<title>TelemetryModule</title>
<polygon fill="#8dd3c7" stroke="black" points="633.58,-84.8 630.58,-88.8 609.58,-88.8 606.58,-84.8 516.42,-84.8 516.42,-48.8 633.58,-48.8 633.58,-84.8"/>
<text text-anchor="middle" x="575" y="-62.6" font-family="Times,serif" font-size="14.00">TelemetryModule</text>
</g>
<!-- TelemetryModule&#45;&gt;ManageModule -->
<g id="edge6" class="edge">
<title>TelemetryModule&#45;&gt;ManageModule</title>
<path fill="none" stroke="black" d="M575,-84.81C575,-100.85 575,-121.8 575,-121.8 575,-121.8 638.66,-121.8 638.66,-121.8"/>
<polygon fill="black" stroke="black" points="638.66,-125.3 648.66,-121.8 638.66,-118.3 638.66,-125.3"/>
</g>
<!-- ManageService -->
<g id="node8" class="node">
<title>ManageService</title>
<ellipse fill="#fdb462" stroke="black" cx="421" cy="-66.8" rx="71.19" ry="18"/>
<text text-anchor="middle" x="421" y="-62.6" font-family="Times,serif" font-size="14.00">ManageService</text>
</g>
<!-- ManageService&#45;&gt;ManageModule -->
<g id="edge7" class="edge">
<title>ManageService&#45;&gt;ManageModule</title>
<path fill="none" stroke="black" d="M421,-85.07C421,-103.36 421,-128.8 421,-128.8 421,-128.8 638.66,-128.8 638.66,-128.8"/>
<polygon fill="black" stroke="black" points="638.66,-132.3 648.66,-128.8 638.66,-125.3 638.66,-132.3"/>
</g>
<!-- ResourceService -->
<g id="node9" class="node">
<title>ResourceService</title>
<ellipse fill="#fdb462" stroke="black" cx="256" cy="-66.8" rx="75.85" ry="18"/>
<text text-anchor="middle" x="256" y="-62.6" font-family="Times,serif" font-size="14.00">ResourceService</text>
</g>
<!-- ResourceService&#45;&gt;ManageModule -->
<g id="edge8" class="edge">
<title>ResourceService&#45;&gt;ManageModule</title>
<path fill="none" stroke="black" d="M256,-84.93C256,-105.37 256,-135.8 256,-135.8 256,-135.8 638.64,-135.8 638.64,-135.8"/>
<polygon fill="black" stroke="black" points="638.64,-139.3 648.64,-135.8 638.64,-132.3 638.64,-139.3"/>
</g>
<!-- ToasterService -->
<g id="node10" class="node">
<title>ToasterService</title>
<ellipse fill="#fdb462" stroke="black" cx="93" cy="-66.8" rx="68.9" ry="18"/>
<text text-anchor="middle" x="93" y="-62.6" font-family="Times,serif" font-size="14.00">ToasterService</text>
</g>
<!-- ToasterService&#45;&gt;ManageModule -->
<g id="edge9" class="edge">
<title>ToasterService&#45;&gt;ManageModule</title>
<path fill="none" stroke="black" d="M93,-84.81C93,-107.29 93,-142.8 93,-142.8 93,-142.8 638.64,-142.8 638.64,-142.8"/>
<polygon fill="black" stroke="black" points="638.64,-146.3 648.64,-142.8 638.64,-139.3 638.64,-146.3"/>
</g>
</g>
</svg>
