<?xml version="1.0" encoding="UTF-8" standalone="no"?>
<!DOCTYPE svg PUBLIC "-//W3C//DTD SVG 1.1//EN"
 "http://www.w3.org/Graphics/SVG/1.1/DTD/svg11.dtd">
<!-- Generated by graphviz version 5.0.0 (20220707.1540)
 -->
<!-- Title: dependencies Pages: 1 -->
<svg width="1098pt" height="174pt"
 viewBox="0.00 0.00 1098.00 173.80" xmlns="http://www.w3.org/2000/svg" xmlns:xlink="http://www.w3.org/1999/xlink">
<g id="graph0" class="graph" transform="scale(1 1) rotate(0) translate(4 169.8)">
<title>dependencies</title>
<polygon fill="white" stroke="transparent" points="-4,4 -4,-169.8 1094,-169.8 1094,4 -4,4"/>
<text text-anchor="middle" x="545" y="-8.2" font-family="sans-serif" font-size="14.00">dependencies</text>
<g id="clust1" class="cluster">
<title>cluster_SsoModule</title>
<polygon fill="none" stroke="black" stroke-dasharray="1,5" points="8,-32.8 8,-157.8 1082,-157.8 1082,-32.8 8,-32.8"/>
</g>
<g id="clust2" class="cluster">
<title>cluster_SsoModule_declarations</title>
<polygon fill="none" stroke="black" points="575,-40.8 575,-92.8 1074,-92.8 1074,-40.8 575,-40.8"/>
</g>
<g id="clust6" class="cluster">
<title>cluster_SsoModule_imports</title>
<polygon fill="none" stroke="black" points="16,-40.8 16,-92.8 567,-92.8 567,-40.8 16,-40.8"/>
</g>
<!-- AuthFailedComponent -->
<g id="node1" class="node">
<title>AuthFailedComponent</title>
<polygon fill="#ffffb3" stroke="black" points="1066.32,-84.8 921.68,-84.8 921.68,-48.8 1066.32,-48.8 1066.32,-84.8"/>
<text text-anchor="middle" x="994" y="-62.6" font-family="Times,serif" font-size="14.00">AuthFailedComponent</text>
</g>
<!-- SsoModule -->
<g id="node4" class="node">
<title>SsoModule</title>
<polygon fill="#8dd3c7" stroke="black" points="528.79,-149.8 525.79,-153.8 504.79,-153.8 501.79,-149.8 449.21,-149.8 449.21,-113.8 528.79,-113.8 528.79,-149.8"/>
<text text-anchor="middle" x="489" y="-127.6" font-family="Times,serif" font-size="14.00">SsoModule</text>
</g>
<!-- AuthFailedComponent&#45;&gt;SsoModule -->
<g id="edge1" class="edge">
<title>AuthFailedComponent&#45;&gt;SsoModule</title>
<path fill="none" stroke="black" d="M994,-85.09C994,-107.01 994,-140.8 994,-140.8 994,-140.8 539.05,-140.8 539.05,-140.8"/>
<polygon fill="black" stroke="black" points="539.05,-137.3 529.05,-140.8 539.05,-144.3 539.05,-137.3"/>
</g>
<!-- SelectOrgComponent -->
<g id="node2" class="node">
<title>SelectOrgComponent</title>
<polygon fill="#ffffb3" stroke="black" points="903.81,-84.8 766.19,-84.8 766.19,-48.8 903.81,-48.8 903.81,-84.8"/>
<text text-anchor="middle" x="835" y="-62.6" font-family="Times,serif" font-size="14.00">SelectOrgComponent</text>
</g>
<!-- SelectOrgComponent&#45;&gt;SsoModule -->
<g id="edge2" class="edge">
<title>SelectOrgComponent&#45;&gt;SsoModule</title>
<path fill="none" stroke="black" d="M835,-84.91C835,-104.14 835,-131.8 835,-131.8 835,-131.8 539.03,-131.8 539.03,-131.8"/>
<polygon fill="black" stroke="black" points="539.03,-128.3 529.03,-131.8 539.03,-135.3 539.03,-128.3"/>
</g>
<!-- UpdateContactComponent -->
<g id="node3" class="node">
<title>UpdateContactComponent</title>
<polygon fill="#ffffb3" stroke="black" points="748.8,-84.8 583.2,-84.8 583.2,-48.8 748.8,-48.8 748.8,-84.8"/>
<text text-anchor="middle" x="666" y="-62.6" font-family="Times,serif" font-size="14.00">UpdateContactComponent</text>
</g>
<!-- UpdateContactComponent&#45;&gt;SsoModule -->
<g id="edge3" class="edge">
<title>UpdateContactComponent&#45;&gt;SsoModule</title>
<path fill="none" stroke="black" d="M666,-84.83C666,-101.2 666,-122.8 666,-122.8 666,-122.8 539.16,-122.8 539.16,-122.8"/>
<polygon fill="black" stroke="black" points="539.16,-119.3 529.16,-122.8 539.16,-126.3 539.16,-119.3"/>
</g>
<!-- SharedFeatureModule -->
<g id="node5" class="node">
<title>SharedFeatureModule</title>
<polygon fill="#8dd3c7" stroke="black" points="559.41,-84.8 556.41,-88.8 535.41,-88.8 532.41,-84.8 418.59,-84.8 418.59,-48.8 559.41,-48.8 559.41,-84.8"/>
<text text-anchor="middle" x="489" y="-62.6" font-family="Times,serif" font-size="14.00">SharedFeatureModule</text>
</g>
<!-- SharedFeatureModule&#45;&gt;SsoModule -->
<g id="edge4" class="edge">
<title>SharedFeatureModule&#45;&gt;SsoModule</title>
<path fill="none" stroke="black" d="M489,-84.91C489,-84.91 489,-103.79 489,-103.79"/>
<polygon fill="black" stroke="black" points="485.5,-103.79 489,-113.79 492.5,-103.79 485.5,-103.79"/>
</g>
<!-- SharedModule -->
<g id="node6" class="node">
<title>SharedModule</title>
<polygon fill="#8dd3c7" stroke="black" points="401.43,-84.8 398.43,-88.8 377.43,-88.8 374.43,-84.8 302.57,-84.8 302.57,-48.8 401.43,-48.8 401.43,-84.8"/>
<text text-anchor="middle" x="352" y="-62.6" font-family="Times,serif" font-size="14.00">SharedModule</text>
</g>
<!-- SharedModule&#45;&gt;SsoModule -->
<g id="edge5" class="edge">
<title>SharedModule&#45;&gt;SsoModule</title>
<path fill="none" stroke="black" d="M352,-84.83C352,-101.2 352,-122.8 352,-122.8 352,-122.8 439.01,-122.8 439.01,-122.8"/>
<polygon fill="black" stroke="black" points="439.01,-126.3 449.01,-122.8 439.01,-119.3 439.01,-126.3"/>
</g>
<!-- SsoRoutingModule -->
<g id="node7" class="node">
<title>SsoRoutingModule</title>
<polygon fill="#8dd3c7" stroke="black" points="284.4,-84.8 281.4,-88.8 260.4,-88.8 257.4,-84.8 159.6,-84.8 159.6,-48.8 284.4,-48.8 284.4,-84.8"/>
<text text-anchor="middle" x="222" y="-62.6" font-family="Times,serif" font-size="14.00">SsoRoutingModule</text>
</g>
<!-- SsoRoutingModule&#45;&gt;SsoModule -->
<g id="edge6" class="edge">
<title>SsoRoutingModule&#45;&gt;SsoModule</title>
<path fill="none" stroke="black" d="M222,-84.91C222,-104.14 222,-131.8 222,-131.8 222,-131.8 439.03,-131.8 439.03,-131.8"/>
<polygon fill="black" stroke="black" points="439.03,-135.3 449.03,-131.8 439.03,-128.3 439.03,-135.3"/>
</g>
<!-- TelemetryModule -->
<g id="node8" class="node">
<title>TelemetryModule</title>
<polygon fill="#8dd3c7" stroke="black" points="141.58,-84.8 138.58,-88.8 117.58,-88.8 114.58,-84.8 24.42,-84.8 24.42,-48.8 141.58,-48.8 141.58,-84.8"/>
<text text-anchor="middle" x="83" y="-62.6" font-family="Times,serif" font-size="14.00">TelemetryModule</text>
</g>
<!-- TelemetryModule&#45;&gt;SsoModule -->
<g id="edge7" class="edge">
<title>TelemetryModule&#45;&gt;SsoModule</title>
<path fill="none" stroke="black" d="M83,-85.09C83,-107.01 83,-140.8 83,-140.8 83,-140.8 438.96,-140.8 438.96,-140.8"/>
<polygon fill="black" stroke="black" points="438.96,-144.3 448.96,-140.8 438.96,-137.3 438.96,-144.3"/>
</g>
</g>
</svg>
