<?xml version="1.0" encoding="UTF-8" standalone="no"?>
<!DOCTYPE svg PUBLIC "-//W3C//DTD SVG 1.1//EN"
 "http://www.w3.org/Graphics/SVG/1.1/DTD/svg11.dtd">
<!-- Generated by graphviz version 5.0.0 (20220707.1540)
 -->
<!-- Title: dependencies Pages: 1 -->
<svg width="5753pt" height="247pt"
 viewBox="0.00 0.00 5753.00 246.80" xmlns="http://www.w3.org/2000/svg" xmlns:xlink="http://www.w3.org/1999/xlink">
<g id="graph0" class="graph" transform="scale(1 1) rotate(0) translate(4 242.8)">
<title>dependencies</title>
<polygon fill="white" stroke="transparent" points="-4,4 -4,-242.8 5749,-242.8 5749,4 -4,4"/>
<text text-anchor="middle" x="2872.5" y="-8.2" font-family="sans-serif" font-size="14.00">dependencies</text>
<g id="clust1" class="cluster">
<title>cluster_DashboardModule</title>
<polygon fill="none" stroke="black" stroke-dasharray="1,5" points="8,-32.8 8,-230.8 5737,-230.8 5737,-32.8 8,-32.8"/>
</g>
<g id="clust23" class="cluster">
<title>cluster_DashboardModule_providers</title>
<polygon fill="none" stroke="black" points="3868,-40.8 3868,-92.8 5729,-92.8 5729,-40.8 3868,-40.8"/>
</g>
<g id="clust20" class="cluster">
<title>cluster_DashboardModule_imports</title>
<polygon fill="none" stroke="black" points="2959,-40.8 2959,-92.8 3860,-92.8 3860,-40.8 2959,-40.8"/>
</g>
<g id="clust21" class="cluster">
<title>cluster_DashboardModule_exports</title>
<polygon fill="none" stroke="black" points="2632,-170.8 2632,-222.8 3115,-222.8 3115,-170.8 2632,-170.8"/>
</g>
<g id="clust2" class="cluster">
<title>cluster_DashboardModule_declarations</title>
<polygon fill="none" stroke="black" points="16,-40.8 16,-92.8 2951,-92.8 2951,-40.8 16,-40.8"/>
</g>
<!-- AddSummaryModalComponent -->
<g id="node1" class="node">
<title>AddSummaryModalComponent</title>
<polygon fill="#ffffb3" stroke="black" points="2943.44,-84.8 2746.56,-84.8 2746.56,-48.8 2943.44,-48.8 2943.44,-84.8"/>
<text text-anchor="middle" x="2845" y="-62.6" font-family="Times,serif" font-size="14.00">AddSummaryModalComponent</text>
</g>
<!-- DashboardModule -->
<g id="node18" class="node">
<title>DashboardModule</title>
<polygon fill="#8dd3c7" stroke="black" points="2905.2,-149.8 2902.2,-153.8 2881.2,-153.8 2878.2,-149.8 2784.8,-149.8 2784.8,-113.8 2905.2,-113.8 2905.2,-149.8"/>
<text text-anchor="middle" x="2845" y="-127.6" font-family="Times,serif" font-size="14.00">DashboardModule</text>
</g>
<!-- AddSummaryModalComponent&#45;&gt;DashboardModule -->
<g id="edge1" class="edge">
<title>AddSummaryModalComponent&#45;&gt;DashboardModule</title>
<path fill="none" stroke="black" d="M2845,-84.91C2845,-84.91 2845,-103.79 2845,-103.79"/>
<polygon fill="black" stroke="black" points="2841.5,-103.79 2845,-113.79 2848.5,-103.79 2841.5,-103.79"/>
</g>
<!-- CourseConsumptionComponent -->
<g id="node2" class="node">
<title>CourseConsumptionComponent</title>
<polygon fill="#ffffb3" stroke="black" points="2729.45,-84.8 2532.55,-84.8 2532.55,-48.8 2729.45,-48.8 2729.45,-84.8"/>
<text text-anchor="middle" x="2631" y="-62.6" font-family="Times,serif" font-size="14.00">CourseConsumptionComponent</text>
</g>
<!-- CourseConsumptionComponent&#45;&gt;DashboardModule -->
<g id="edge2" class="edge">
<title>CourseConsumptionComponent&#45;&gt;DashboardModule</title>
<path fill="none" stroke="black" d="M2684.82,-85.05C2684.82,-98.98 2684.82,-115.8 2684.82,-115.8 2684.82,-115.8 2774.9,-115.8 2774.9,-115.8"/>
<polygon fill="black" stroke="black" points="2774.9,-119.3 2784.9,-115.8 2774.9,-112.3 2774.9,-119.3"/>
</g>
<!-- CourseDashboardComponent -->
<g id="node3" class="node">
<title>CourseDashboardComponent</title>
<polygon fill="#ffffb3" stroke="black" points="2514.64,-84.8 2333.36,-84.8 2333.36,-48.8 2514.64,-48.8 2514.64,-84.8"/>
<text text-anchor="middle" x="2424" y="-62.6" font-family="Times,serif" font-size="14.00">CourseDashboardComponent</text>
</g>
<!-- CourseDashboardComponent&#45;&gt;DashboardModule -->
<g id="edge3" class="edge">
<title>CourseDashboardComponent&#45;&gt;DashboardModule</title>
<path fill="none" stroke="black" d="M2424,-84.92C2424,-99.58 2424,-117.8 2424,-117.8 2424,-117.8 2774.68,-117.8 2774.68,-117.8"/>
<polygon fill="black" stroke="black" points="2774.68,-121.3 2784.68,-117.8 2774.68,-114.3 2774.68,-121.3"/>
</g>
<!-- CourseProgressComponent -->
<g id="node4" class="node">
<title>CourseProgressComponent</title>
<polygon fill="#ffffb3" stroke="black" points="2315.71,-84.8 2146.29,-84.8 2146.29,-48.8 2315.71,-48.8 2315.71,-84.8"/>
<text text-anchor="middle" x="2231" y="-62.6" font-family="Times,serif" font-size="14.00">CourseProgressComponent</text>
</g>
<!-- CourseProgressComponent&#45;&gt;DashboardModule -->
<g id="edge4" class="edge">
<title>CourseProgressComponent&#45;&gt;DashboardModule</title>
<path fill="none" stroke="black" d="M2231,-85.04C2231,-100.37 2231,-119.8 2231,-119.8 2231,-119.8 2774.73,-119.8 2774.73,-119.8"/>
<polygon fill="black" stroke="black" points="2774.73,-123.3 2784.73,-119.8 2774.73,-116.3 2774.73,-123.3"/>
</g>
<!-- DashboardSidebarComponent -->
<g id="node5" class="node">
<title>DashboardSidebarComponent</title>
<polygon fill="#ffffb3" stroke="black" points="2128.25,-84.8 1943.75,-84.8 1943.75,-48.8 2128.25,-48.8 2128.25,-84.8"/>
<text text-anchor="middle" x="2036" y="-62.6" font-family="Times,serif" font-size="14.00">DashboardSidebarComponent</text>
</g>
<!-- DashboardSidebarComponent&#45;&gt;DashboardModule -->
<g id="edge5" class="edge">
<title>DashboardSidebarComponent&#45;&gt;DashboardModule</title>
<path fill="none" stroke="black" d="M2036,-84.81C2036,-100.85 2036,-121.8 2036,-121.8 2036,-121.8 2774.85,-121.8 2774.85,-121.8"/>
<polygon fill="black" stroke="black" points="2774.85,-125.3 2784.85,-121.8 2774.85,-118.3 2774.85,-125.3"/>
</g>
<!-- DataChartComponent -->
<g id="node6" class="node">
<title>DataChartComponent</title>
<polygon fill="#ffffb3" stroke="black" points="1925.36,-84.8 1786.64,-84.8 1786.64,-48.8 1925.36,-48.8 1925.36,-84.8"/>
<text text-anchor="middle" x="1856" y="-62.6" font-family="Times,serif" font-size="14.00">DataChartComponent</text>
</g>
<!-- DataChartComponent&#45;&gt;DashboardModule -->
<g id="edge6" class="edge">
<title>DataChartComponent&#45;&gt;DashboardModule</title>
<path fill="none" stroke="black" d="M1856,-84.84C1856,-101.53 1856,-123.8 1856,-123.8 1856,-123.8 2774.62,-123.8 2774.62,-123.8"/>
<polygon fill="black" stroke="black" points="2774.62,-127.3 2784.62,-123.8 2774.62,-120.3 2774.62,-127.3"/>
</g>
<!-- DataTableComponent -->
<g id="node7" class="node">
<title>DataTableComponent</title>
<polygon fill="#ffffb3" stroke="black" points="1768.63,-84.8 1629.37,-84.8 1629.37,-48.8 1768.63,-48.8 1768.63,-84.8"/>
<text text-anchor="middle" x="1699" y="-62.6" font-family="Times,serif" font-size="14.00">DataTableComponent</text>
</g>
<!-- DataTableComponent&#45;&gt;DashboardModule -->
<g id="edge7" class="edge">
<title>DataTableComponent&#45;&gt;DashboardModule</title>
<path fill="none" stroke="black" d="M1699,-84.82C1699,-102.17 1699,-125.8 1699,-125.8 1699,-125.8 2774.6,-125.8 2774.6,-125.8"/>
<polygon fill="black" stroke="black" points="2774.6,-129.3 2784.6,-125.8 2774.6,-122.3 2774.6,-129.3"/>
</g>
<!-- DatasetComponent -->
<g id="node8" class="node">
<title>DatasetComponent</title>
<polygon fill="#ffffb3" stroke="black" points="1611.81,-84.8 1488.19,-84.8 1488.19,-48.8 1611.81,-48.8 1611.81,-84.8"/>
<text text-anchor="middle" x="1550" y="-62.6" font-family="Times,serif" font-size="14.00">DatasetComponent</text>
</g>
<!-- DatasetComponent&#45;&gt;DashboardModule -->
<g id="edge8" class="edge">
<title>DatasetComponent&#45;&gt;DashboardModule</title>
<path fill="none" stroke="black" d="M1550,-85.1C1550,-103.07 1550,-127.8 1550,-127.8 1550,-127.8 2774.71,-127.8 2774.71,-127.8"/>
<polygon fill="black" stroke="black" points="2774.71,-131.3 2784.71,-127.8 2774.71,-124.3 2774.71,-131.3"/>
</g>
<!-- FilterComponent -->
<g id="node9" class="node">
<title>FilterComponent</title>
<polygon fill="#ffffb3" stroke="black" points="1470.66,-84.8 1359.34,-84.8 1359.34,-48.8 1470.66,-48.8 1470.66,-84.8"/>
<text text-anchor="middle" x="1415" y="-62.6" font-family="Times,serif" font-size="14.00">FilterComponent</text>
</g>
<!-- FilterComponent&#45;&gt;DashboardModule -->
<g id="edge9" class="edge">
<title>FilterComponent&#45;&gt;DashboardModule</title>
<path fill="none" stroke="black" d="M1415,-85.02C1415,-103.63 1415,-129.8 1415,-129.8 1415,-129.8 2774.47,-129.8 2774.47,-129.8"/>
<polygon fill="black" stroke="black" points="2774.47,-133.3 2784.47,-129.8 2774.47,-126.3 2774.47,-133.3"/>
</g>
<!-- ListAllReportsComponent -->
<g id="node10" class="node">
<title>ListAllReportsComponent</title>
<polygon fill="#ffffb3" stroke="black" points="1341.05,-84.8 1176.95,-84.8 1176.95,-48.8 1341.05,-48.8 1341.05,-84.8"/>
<text text-anchor="middle" x="1259" y="-62.6" font-family="Times,serif" font-size="14.00">ListAllReportsComponent</text>
</g>
<!-- ListAllReportsComponent&#45;&gt;DashboardModule -->
<g id="edge10" class="edge">
<title>ListAllReportsComponent&#45;&gt;DashboardModule</title>
<path fill="none" stroke="black" d="M1259,-84.91C1259,-104.14 1259,-131.8 1259,-131.8 1259,-131.8 2774.76,-131.8 2774.76,-131.8"/>
<polygon fill="black" stroke="black" points="2774.76,-135.3 2784.76,-131.8 2774.76,-128.3 2774.76,-135.3"/>
</g>
<!-- MapComponent -->
<g id="node11" class="node">
<title>MapComponent</title>
<polygon fill="#ffffb3" stroke="black" points="1158.49,-84.8 1051.51,-84.8 1051.51,-48.8 1158.49,-48.8 1158.49,-84.8"/>
<text text-anchor="middle" x="1105" y="-62.6" font-family="Times,serif" font-size="14.00">MapComponent</text>
</g>
<!-- MapComponent&#45;&gt;DashboardModule -->
<g id="edge11" class="edge">
<title>MapComponent&#45;&gt;DashboardModule</title>
<path fill="none" stroke="black" d="M1105,-85.11C1105,-104.95 1105,-133.8 1105,-133.8 1105,-133.8 2774.85,-133.8 2774.85,-133.8"/>
<polygon fill="black" stroke="black" points="2774.85,-137.3 2784.85,-133.8 2774.85,-130.3 2774.85,-137.3"/>
</g>
<!-- OrganisationComponent -->
<g id="node12" class="node">
<title>OrganisationComponent</title>
<polygon fill="#ffffb3" stroke="black" points="1033.65,-84.8 880.35,-84.8 880.35,-48.8 1033.65,-48.8 1033.65,-84.8"/>
<text text-anchor="middle" x="957" y="-62.6" font-family="Times,serif" font-size="14.00">OrganisationComponent</text>
</g>
<!-- OrganisationComponent&#45;&gt;DashboardModule -->
<g id="edge12" class="edge">
<title>OrganisationComponent&#45;&gt;DashboardModule</title>
<path fill="none" stroke="black" d="M957,-84.93C957,-105.37 957,-135.8 957,-135.8 957,-135.8 2774.85,-135.8 2774.85,-135.8"/>
<polygon fill="black" stroke="black" points="2774.85,-139.3 2784.85,-135.8 2774.85,-132.3 2774.85,-139.3"/>
</g>
<!-- ReIssueCertificateComponent -->
<g id="node13" class="node">
<title>ReIssueCertificateComponent</title>
<polygon fill="#ffffb3" stroke="black" points="862.23,-84.8 677.77,-84.8 677.77,-48.8 862.23,-48.8 862.23,-84.8"/>
<text text-anchor="middle" x="770" y="-62.6" font-family="Times,serif" font-size="14.00">ReIssueCertificateComponent</text>
</g>
<!-- ReIssueCertificateComponent&#45;&gt;DashboardModule -->
<g id="edge13" class="edge">
<title>ReIssueCertificateComponent&#45;&gt;DashboardModule</title>
<path fill="none" stroke="black" d="M770,-85.08C770,-106.12 770,-137.8 770,-137.8 770,-137.8 2774.86,-137.8 2774.86,-137.8"/>
<polygon fill="black" stroke="black" points="2774.86,-141.3 2784.86,-137.8 2774.86,-134.3 2774.86,-141.3"/>
</g>
<!-- ReportComponent -->
<g id="node14" class="node">
<title>ReportComponent</title>
<polygon fill="#ffffb3" stroke="black" points="659.94,-84.8 540.06,-84.8 540.06,-48.8 659.94,-48.8 659.94,-84.8"/>
<text text-anchor="middle" x="600" y="-62.6" font-family="Times,serif" font-size="14.00">ReportComponent</text>
</g>
<!-- ReportComponent&#45;&gt;DashboardModule -->
<g id="edge14" class="edge">
<title>ReportComponent&#45;&gt;DashboardModule</title>
<path fill="none" stroke="black" d="M600,-84.84C600,-106.46 600,-139.8 600,-139.8 600,-139.8 2774.66,-139.8 2774.66,-139.8"/>
<polygon fill="black" stroke="black" points="2774.66,-143.3 2784.66,-139.8 2774.66,-136.3 2774.66,-143.3"/>
</g>
<!-- ReportSummaryComponent -->
<g id="node15" class="node">
<title>ReportSummaryComponent</title>
<polygon fill="#ffffb3" stroke="black" points="521.88,-84.8 348.12,-84.8 348.12,-48.8 521.88,-48.8 521.88,-84.8"/>
<text text-anchor="middle" x="435" y="-62.6" font-family="Times,serif" font-size="14.00">ReportSummaryComponent</text>
</g>
<!-- ReportSummaryComponent&#45;&gt;DashboardModule -->
<g id="edge15" class="edge">
<title>ReportSummaryComponent&#45;&gt;DashboardModule</title>
<path fill="none" stroke="black" d="M435,-84.96C435,-107.15 435,-141.8 435,-141.8 435,-141.8 2774.83,-141.8 2774.83,-141.8"/>
<polygon fill="black" stroke="black" points="2774.83,-145.3 2784.83,-141.8 2774.83,-138.3 2774.83,-145.3"/>
</g>
<!-- SbTableComponent -->
<g id="node16" class="node">
<title>SbTableComponent</title>
<polygon fill="#ffffb3" stroke="black" points="329.99,-84.8 202.01,-84.8 202.01,-48.8 329.99,-48.8 329.99,-84.8"/>
<text text-anchor="middle" x="266" y="-62.6" font-family="Times,serif" font-size="14.00">SbTableComponent</text>
</g>
<!-- SbTableComponent&#45;&gt;DashboardModule -->
<g id="edge16" class="edge">
<title>SbTableComponent&#45;&gt;DashboardModule</title>
<path fill="none" stroke="black" d="M266,-85.05C266,-107.82 266,-143.8 266,-143.8 266,-143.8 2774.73,-143.8 2774.73,-143.8"/>
<polygon fill="black" stroke="black" points="2774.73,-147.3 2784.73,-143.8 2774.73,-140.3 2774.73,-147.3"/>
</g>
<!-- UsageReportsComponent -->
<g id="node17" class="node">
<title>UsageReportsComponent</title>
<polygon fill="#ffffb3" stroke="black" points="183.87,-84.8 24.13,-84.8 24.13,-48.8 183.87,-48.8 183.87,-84.8"/>
<text text-anchor="middle" x="104" y="-62.6" font-family="Times,serif" font-size="14.00">UsageReportsComponent</text>
</g>
<!-- UsageReportsComponent&#45;&gt;DashboardModule -->
<g id="edge17" class="edge">
<title>UsageReportsComponent&#45;&gt;DashboardModule</title>
<path fill="none" stroke="black" d="M104,-85.12C104,-108.46 104,-145.8 104,-145.8 104,-145.8 2774.88,-145.8 2774.88,-145.8"/>
<polygon fill="black" stroke="black" points="2774.88,-149.3 2784.88,-145.8 2774.88,-142.3 2774.88,-149.3"/>
</g>
<!-- CourseProgressComponent  -->
<g id="node25" class="node">
<title>CourseProgressComponent </title>
<polygon fill="#fb8072" stroke="black" points="3107.21,-214.8 2934.79,-214.8 2934.79,-178.8 3107.21,-178.8 3107.21,-214.8"/>
<text text-anchor="middle" x="3021" y="-192.6" font-family="Times,serif" font-size="14.00">CourseProgressComponent </text>
</g>
<!-- DashboardModule&#45;&gt;CourseProgressComponent  -->
<g id="edge24" class="edge">
<title>DashboardModule&#45;&gt;CourseProgressComponent </title>
<path fill="none" stroke="black" stroke-dasharray="5,2" d="M2905.28,-147.8C2923.58,-147.8 2938.93,-147.8 2938.93,-147.8 2938.93,-147.8 2938.93,-168.55 2938.93,-168.55"/>
<polygon fill="black" stroke="black" points="2935.43,-168.55 2938.93,-178.55 2942.43,-168.55 2935.43,-168.55"/>
</g>
<!-- DataTableComponent  -->
<g id="node26" class="node">
<title>DataTableComponent </title>
<polygon fill="#fb8072" stroke="black" points="2916.63,-214.8 2773.37,-214.8 2773.37,-178.8 2916.63,-178.8 2916.63,-214.8"/>
<text text-anchor="middle" x="2845" y="-192.6" font-family="Times,serif" font-size="14.00">DataTableComponent </text>
</g>
<!-- DashboardModule&#45;&gt;DataTableComponent  -->
<g id="edge25" class="edge">
<title>DashboardModule&#45;&gt;DataTableComponent </title>
<path fill="none" stroke="black" stroke-dasharray="5,2" d="M2845,-149.91C2845,-149.91 2845,-168.79 2845,-168.79"/>
<polygon fill="black" stroke="black" points="2841.5,-168.79 2845,-178.79 2848.5,-168.79 2841.5,-168.79"/>
</g>
<!-- FilterComponent  -->
<g id="node27" class="node">
<title>FilterComponent </title>
<polygon fill="#fb8072" stroke="black" points="2755.66,-214.8 2640.34,-214.8 2640.34,-178.8 2755.66,-178.8 2755.66,-214.8"/>
<text text-anchor="middle" x="2698" y="-192.6" font-family="Times,serif" font-size="14.00">FilterComponent </text>
</g>
<!-- DashboardModule&#45;&gt;FilterComponent  -->
<g id="edge26" class="edge">
<title>DashboardModule&#45;&gt;FilterComponent </title>
<path fill="none" stroke="black" stroke-dasharray="5,2" d="M2784.79,-147.8C2766.52,-147.8 2751.18,-147.8 2751.18,-147.8 2751.18,-147.8 2751.18,-168.55 2751.18,-168.55"/>
<polygon fill="black" stroke="black" points="2747.68,-168.55 2751.18,-178.55 2754.68,-168.55 2747.68,-168.55"/>
</g>
<!-- DashboardRoutingModule -->
<g id="node19" class="node">
<title>DashboardRoutingModule</title>
<polygon fill="#8dd3c7" stroke="black" points="3851.82,-84.8 3848.82,-88.8 3827.82,-88.8 3824.82,-84.8 3686.18,-84.8 3686.18,-48.8 3851.82,-48.8 3851.82,-84.8"/>
<text text-anchor="middle" x="3769" y="-62.6" font-family="Times,serif" font-size="14.00">DashboardRoutingModule</text>
</g>
<!-- DashboardRoutingModule&#45;&gt;DashboardModule -->
<g id="edge18" class="edge">
<title>DashboardRoutingModule&#45;&gt;DashboardModule</title>
<path fill="none" stroke="black" d="M3769,-84.82C3769,-102.17 3769,-125.8 3769,-125.8 3769,-125.8 2915.27,-125.8 2915.27,-125.8"/>
<polygon fill="black" stroke="black" points="2915.27,-122.3 2905.27,-125.8 2915.27,-129.3 2915.27,-122.3"/>
</g>
<!-- DiscussionModule -->
<g id="node20" class="node">
<title>DiscussionModule</title>
<polygon fill="#8dd3c7" stroke="black" points="3668.5,-84.8 3665.5,-88.8 3644.5,-88.8 3641.5,-84.8 3547.5,-84.8 3547.5,-48.8 3668.5,-48.8 3668.5,-84.8"/>
<text text-anchor="middle" x="3608" y="-62.6" font-family="Times,serif" font-size="14.00">DiscussionModule</text>
</g>
<!-- DiscussionModule&#45;&gt;DashboardModule -->
<g id="edge19" class="edge">
<title>DiscussionModule&#45;&gt;DashboardModule</title>
<path fill="none" stroke="black" d="M3608,-84.84C3608,-101.53 3608,-123.8 3608,-123.8 3608,-123.8 2915.19,-123.8 2915.19,-123.8"/>
<polygon fill="black" stroke="black" points="2915.19,-120.3 2905.19,-123.8 2915.19,-127.3 2915.19,-120.3"/>
</g>
<!-- NgxDaterangepickerMd -->
<g id="node21" class="node">
<title>NgxDaterangepickerMd</title>
<polygon fill="#8dd3c7" stroke="black" points="3529.06,-84.8 3526.06,-88.8 3505.06,-88.8 3502.06,-84.8 3376.94,-84.8 3376.94,-48.8 3529.06,-48.8 3529.06,-84.8"/>
<text text-anchor="middle" x="3453" y="-62.6" font-family="Times,serif" font-size="14.00">NgxDaterangepickerMd</text>
</g>
<!-- NgxDaterangepickerMd&#45;&gt;DashboardModule -->
<g id="edge20" class="edge">
<title>NgxDaterangepickerMd&#45;&gt;DashboardModule</title>
<path fill="none" stroke="black" d="M3453,-84.81C3453,-100.85 3453,-121.8 3453,-121.8 3453,-121.8 2915.24,-121.8 2915.24,-121.8"/>
<polygon fill="black" stroke="black" points="2915.24,-118.3 2905.24,-121.8 2915.24,-125.3 2915.24,-118.3"/>
</g>
<!-- SharedFeatureModule -->
<g id="node22" class="node">
<title>SharedFeatureModule</title>
<polygon fill="#8dd3c7" stroke="black" points="3359.41,-84.8 3356.41,-88.8 3335.41,-88.8 3332.41,-84.8 3218.59,-84.8 3218.59,-48.8 3359.41,-48.8 3359.41,-84.8"/>
<text text-anchor="middle" x="3289" y="-62.6" font-family="Times,serif" font-size="14.00">SharedFeatureModule</text>
</g>
<!-- SharedFeatureModule&#45;&gt;DashboardModule -->
<g id="edge21" class="edge">
<title>SharedFeatureModule&#45;&gt;DashboardModule</title>
<path fill="none" stroke="black" d="M3289,-85.04C3289,-100.37 3289,-119.8 3289,-119.8 3289,-119.8 2915.34,-119.8 2915.34,-119.8"/>
<polygon fill="black" stroke="black" points="2915.34,-116.3 2905.34,-119.8 2915.34,-123.3 2915.34,-116.3"/>
</g>
<!-- SharedModule -->
<g id="node23" class="node">
<title>SharedModule</title>
<polygon fill="#8dd3c7" stroke="black" points="3201.43,-84.8 3198.43,-88.8 3177.43,-88.8 3174.43,-84.8 3102.57,-84.8 3102.57,-48.8 3201.43,-48.8 3201.43,-84.8"/>
<text text-anchor="middle" x="3152" y="-62.6" font-family="Times,serif" font-size="14.00">SharedModule</text>
</g>
<!-- SharedModule&#45;&gt;DashboardModule -->
<g id="edge22" class="edge">
<title>SharedModule&#45;&gt;DashboardModule</title>
<path fill="none" stroke="black" d="M3154.29,-84.92C3154.29,-99.58 3154.29,-117.8 3154.29,-117.8 3154.29,-117.8 2915.37,-117.8 2915.37,-117.8"/>
<polygon fill="black" stroke="black" points="2915.37,-114.3 2905.37,-117.8 2915.37,-121.3 2915.37,-114.3"/>
</g>
<!-- TelemetryModule -->
<g id="node24" class="node">
<title>TelemetryModule</title>
<polygon fill="#8dd3c7" stroke="black" points="3084.58,-84.8 3081.58,-88.8 3060.58,-88.8 3057.58,-84.8 2967.42,-84.8 2967.42,-48.8 3084.58,-48.8 3084.58,-84.8"/>
<text text-anchor="middle" x="3026" y="-62.6" font-family="Times,serif" font-size="14.00">TelemetryModule</text>
</g>
<!-- TelemetryModule&#45;&gt;DashboardModule -->
<g id="edge23" class="edge">
<title>TelemetryModule&#45;&gt;DashboardModule</title>
<path fill="none" stroke="black" d="M3026,-85.05C3026,-98.98 3026,-115.8 3026,-115.8 3026,-115.8 2915.27,-115.8 2915.27,-115.8"/>
<polygon fill="black" stroke="black" points="2915.27,-112.3 2905.27,-115.8 2915.27,-119.3 2915.27,-112.3"/>
</g>
<!-- CourseConsumptionService -->
<g id="node28" class="node">
<title>CourseConsumptionService</title>
<ellipse fill="#fdb462" stroke="black" cx="5602" cy="-66.8" rx="119.3" ry="18"/>
<text text-anchor="middle" x="5602" y="-62.6" font-family="Times,serif" font-size="14.00">CourseConsumptionService</text>
</g>
<!-- CourseConsumptionService&#45;&gt;DashboardModule -->
<g id="edge27" class="edge">
<title>CourseConsumptionService&#45;&gt;DashboardModule</title>
<path fill="none" stroke="black" d="M5602,-85.12C5602,-108.46 5602,-145.8 5602,-145.8 5602,-145.8 2915.15,-145.8 2915.15,-145.8"/>
<polygon fill="black" stroke="black" points="2915.15,-142.3 2905.15,-145.8 2915.15,-149.3 2915.15,-142.3"/>
</g>
<!-- CourseProgressService -->
<g id="node29" class="node">
<title>CourseProgressService</title>
<ellipse fill="#fdb462" stroke="black" cx="5364" cy="-66.8" rx="100.73" ry="18"/>
<text text-anchor="middle" x="5364" y="-62.6" font-family="Times,serif" font-size="14.00">CourseProgressService</text>
</g>
<!-- CourseProgressService&#45;&gt;DashboardModule -->
<g id="edge28" class="edge">
<title>CourseProgressService&#45;&gt;DashboardModule</title>
<path fill="none" stroke="black" d="M5364,-85.05C5364,-107.82 5364,-143.8 5364,-143.8 5364,-143.8 2915.4,-143.8 2915.4,-143.8"/>
<polygon fill="black" stroke="black" points="2915.4,-140.3 2905.4,-143.8 2915.4,-147.3 2915.4,-140.3"/>
</g>
<!-- DashboardUtilsService -->
<g id="node30" class="node">
<title>DashboardUtilsService</title>
<ellipse fill="#fdb462" stroke="black" cx="5145" cy="-66.8" rx="100.72" ry="18"/>
<text text-anchor="middle" x="5145" y="-62.6" font-family="Times,serif" font-size="14.00">DashboardUtilsService</text>
</g>
<!-- DashboardUtilsService&#45;&gt;DashboardModule -->
<g id="edge29" class="edge">
<title>DashboardUtilsService&#45;&gt;DashboardModule</title>
<path fill="none" stroke="black" d="M5145,-84.96C5145,-107.15 5145,-141.8 5145,-141.8 5145,-141.8 2915.34,-141.8 2915.34,-141.8"/>
<polygon fill="black" stroke="black" points="2915.34,-138.3 2905.34,-141.8 2915.34,-145.3 2915.34,-138.3"/>
</g>
<!-- DownloadService -->
<g id="node31" class="node">
<title>DownloadService</title>
<ellipse fill="#fdb462" stroke="black" cx="4946" cy="-66.8" rx="80.45" ry="18"/>
<text text-anchor="middle" x="4946" y="-62.6" font-family="Times,serif" font-size="14.00">DownloadService</text>
</g>
<!-- DownloadService&#45;&gt;DashboardModule -->
<g id="edge30" class="edge">
<title>DownloadService&#45;&gt;DashboardModule</title>
<path fill="none" stroke="black" d="M4946,-84.84C4946,-106.46 4946,-139.8 4946,-139.8 4946,-139.8 2915.33,-139.8 2915.33,-139.8"/>
<polygon fill="black" stroke="black" points="2915.33,-136.3 2905.33,-139.8 2915.33,-143.3 2915.33,-136.3"/>
</g>
<!-- LineChartService -->
<g id="node32" class="node">
<title>LineChartService</title>
<ellipse fill="#fdb462" stroke="black" cx="4769" cy="-66.8" rx="79.29" ry="18"/>
<text text-anchor="middle" x="4769" y="-62.6" font-family="Times,serif" font-size="14.00">LineChartService</text>
</g>
<!-- LineChartService&#45;&gt;DashboardModule -->
<g id="edge31" class="edge">
<title>LineChartService&#45;&gt;DashboardModule</title>
<path fill="none" stroke="black" d="M4769,-85.08C4769,-106.12 4769,-137.8 4769,-137.8 4769,-137.8 2915.22,-137.8 2915.22,-137.8"/>
<polygon fill="black" stroke="black" points="2915.22,-134.3 2905.22,-137.8 2915.22,-141.3 2915.22,-134.3"/>
</g>
<!-- OrganisationService -->
<g id="node33" class="node">
<title>OrganisationService</title>
<ellipse fill="#fdb462" stroke="black" cx="4582" cy="-66.8" rx="89.75" ry="18"/>
<text text-anchor="middle" x="4582" y="-62.6" font-family="Times,serif" font-size="14.00">OrganisationService</text>
</g>
<!-- OrganisationService&#45;&gt;DashboardModule -->
<g id="edge32" class="edge">
<title>OrganisationService&#45;&gt;DashboardModule</title>
<path fill="none" stroke="black" d="M4582,-84.93C4582,-105.37 4582,-135.8 4582,-135.8 4582,-135.8 2915.3,-135.8 2915.3,-135.8"/>
<polygon fill="black" stroke="black" points="2915.3,-132.3 2905.3,-135.8 2915.3,-139.3 2915.3,-132.3"/>
</g>
<!-- RendererService -->
<g id="node34" class="node">
<title>RendererService</title>
<ellipse fill="#fdb462" stroke="black" cx="4399" cy="-66.8" rx="75.26" ry="18"/>
<text text-anchor="middle" x="4399" y="-62.6" font-family="Times,serif" font-size="14.00">RendererService</text>
</g>
<!-- RendererService&#45;&gt;DashboardModule -->
<g id="edge33" class="edge">
<title>RendererService&#45;&gt;DashboardModule</title>
<path fill="none" stroke="black" d="M4399,-85.11C4399,-104.95 4399,-133.8 4399,-133.8 4399,-133.8 2915.44,-133.8 2915.44,-133.8"/>
<polygon fill="black" stroke="black" points="2915.44,-130.3 2905.44,-133.8 2915.44,-137.3 2915.44,-130.3"/>
</g>
<!-- ReportService -->
<g id="node35" class="node">
<title>ReportService</title>
<ellipse fill="#fdb462" stroke="black" cx="4239" cy="-66.8" rx="66.05" ry="18"/>
<text text-anchor="middle" x="4239" y="-62.6" font-family="Times,serif" font-size="14.00">ReportService</text>
</g>
<!-- ReportService&#45;&gt;DashboardModule -->
<g id="edge34" class="edge">
<title>ReportService&#45;&gt;DashboardModule</title>
<path fill="none" stroke="black" d="M4239,-84.91C4239,-104.14 4239,-131.8 4239,-131.8 4239,-131.8 2915.35,-131.8 2915.35,-131.8"/>
<polygon fill="black" stroke="black" points="2915.35,-128.3 2905.35,-131.8 2915.35,-135.3 2915.35,-128.3"/>
</g>
<!-- SearchService -->
<g id="node36" class="node">
<title>SearchService</title>
<ellipse fill="#fdb462" stroke="black" cx="4088" cy="-66.8" rx="66.03" ry="18"/>
<text text-anchor="middle" x="4088" y="-62.6" font-family="Times,serif" font-size="14.00">SearchService</text>
</g>
<!-- SearchService&#45;&gt;DashboardModule -->
<g id="edge35" class="edge">
<title>SearchService&#45;&gt;DashboardModule</title>
<path fill="none" stroke="black" d="M4088,-85.02C4088,-103.63 4088,-129.8 4088,-129.8 4088,-129.8 2915.37,-129.8 2915.37,-129.8"/>
<polygon fill="black" stroke="black" points="2915.37,-126.3 2905.37,-129.8 2915.37,-133.3 2915.37,-126.3"/>
</g>
<!-- UsageService -->
<g id="node37" class="node">
<title>UsageService</title>
<ellipse fill="#fdb462" stroke="black" cx="3940" cy="-66.8" rx="64.25" ry="18"/>
<text text-anchor="middle" x="3940" y="-62.6" font-family="Times,serif" font-size="14.00">UsageService</text>
</g>
<!-- UsageService&#45;&gt;DashboardModule -->
<g id="edge36" class="edge">
<title>UsageService&#45;&gt;DashboardModule</title>
<path fill="none" stroke="black" d="M3940,-85.1C3940,-103.07 3940,-127.8 3940,-127.8 3940,-127.8 2915.43,-127.8 2915.43,-127.8"/>
<polygon fill="black" stroke="black" points="2915.43,-124.3 2905.43,-127.8 2915.43,-131.3 2915.43,-124.3"/>
</g>
</g>
</svg>
