<?xml version="1.0" encoding="UTF-8" standalone="no"?>
<!DOCTYPE svg PUBLIC "-//W3C//DTD SVG 1.1//EN"
 "http://www.w3.org/Graphics/SVG/1.1/DTD/svg11.dtd">
<!-- Generated by graphviz version 5.0.0 (20220707.1540)
 -->
<!-- Title: dependencies Pages: 1 -->
<svg width="1040pt" height="174pt"
 viewBox="0.00 0.00 1040.00 173.80" xmlns="http://www.w3.org/2000/svg" xmlns:xlink="http://www.w3.org/1999/xlink">
<g id="graph0" class="graph" transform="scale(1 1) rotate(0) translate(4 169.8)">
<title>dependencies</title>
<polygon fill="white" stroke="transparent" points="-4,4 -4,-169.8 1036,-169.8 1036,4 -4,4"/>
<text text-anchor="middle" x="516" y="-8.2" font-family="sans-serif" font-size="14.00">dependencies</text>
<g id="clust1" class="cluster">
<title>cluster_LearnModule</title>
<polygon fill="none" stroke="black" stroke-dasharray="1,5" points="8,-32.8 8,-157.8 1024,-157.8 1024,-32.8 8,-32.8"/>
</g>
<g id="clust2" class="cluster">
<title>cluster_LearnModule_declarations</title>
<polygon fill="none" stroke="black" points="852,-40.8 852,-92.8 1016,-92.8 1016,-40.8 852,-40.8"/>
</g>
<g id="clust4" class="cluster">
<title>cluster_LearnModule_imports</title>
<polygon fill="none" stroke="black" points="16,-40.8 16,-92.8 844,-92.8 844,-40.8 16,-40.8"/>
</g>
<!-- CoursePageComponent -->
<g id="node1" class="node">
<title>CoursePageComponent</title>
<polygon fill="#ffffb3" stroke="black" points="1008.21,-84.8 859.79,-84.8 859.79,-48.8 1008.21,-48.8 1008.21,-84.8"/>
<text text-anchor="middle" x="934" y="-62.6" font-family="Times,serif" font-size="14.00">CoursePageComponent</text>
</g>
<!-- LearnModule -->
<g id="node2" class="node">
<title>LearnModule</title>
<polygon fill="#8dd3c7" stroke="black" points="549.19,-149.8 546.19,-153.8 525.19,-153.8 522.19,-149.8 456.81,-149.8 456.81,-113.8 549.19,-113.8 549.19,-149.8"/>
<text text-anchor="middle" x="503" y="-127.6" font-family="Times,serif" font-size="14.00">LearnModule</text>
</g>
<!-- CoursePageComponent&#45;&gt;LearnModule -->
<g id="edge1" class="edge">
<title>CoursePageComponent&#45;&gt;LearnModule</title>
<path fill="none" stroke="black" d="M934,-85.09C934,-107.01 934,-140.8 934,-140.8 934,-140.8 559.12,-140.8 559.12,-140.8"/>
<polygon fill="black" stroke="black" points="559.12,-137.3 549.12,-140.8 559.12,-144.3 559.12,-137.3"/>
</g>
<!-- ContentSearchModule -->
<g id="node3" class="node">
<title>ContentSearchModule</title>
<polygon fill="#8dd3c7" stroke="black" points="835.97,-84.8 832.97,-88.8 811.97,-88.8 808.97,-84.8 694.03,-84.8 694.03,-48.8 835.97,-48.8 835.97,-84.8"/>
<text text-anchor="middle" x="765" y="-62.6" font-family="Times,serif" font-size="14.00">ContentSearchModule</text>
</g>
<!-- ContentSearchModule&#45;&gt;LearnModule -->
<g id="edge2" class="edge">
<title>ContentSearchModule&#45;&gt;LearnModule</title>
<path fill="none" stroke="black" d="M765,-84.91C765,-104.14 765,-131.8 765,-131.8 765,-131.8 559.24,-131.8 559.24,-131.8"/>
<polygon fill="black" stroke="black" points="559.24,-128.3 549.24,-131.8 559.24,-135.3 559.24,-128.3"/>
</g>
<!-- CoreModule -->
<g id="node4" class="node">
<title>CoreModule</title>
<polygon fill="#8dd3c7" stroke="black" points="676.27,-84.8 673.27,-88.8 652.27,-88.8 649.27,-84.8 589.73,-84.8 589.73,-48.8 676.27,-48.8 676.27,-84.8"/>
<text text-anchor="middle" x="633" y="-62.6" font-family="Times,serif" font-size="14.00">CoreModule</text>
</g>
<!-- CoreModule&#45;&gt;LearnModule -->
<g id="edge3" class="edge">
<title>CoreModule&#45;&gt;LearnModule</title>
<path fill="none" stroke="black" d="M633,-84.83C633,-101.2 633,-122.8 633,-122.8 633,-122.8 559.2,-122.8 559.2,-122.8"/>
<polygon fill="black" stroke="black" points="559.2,-119.3 549.2,-122.8 559.2,-126.3 559.2,-119.3"/>
</g>
<!-- LearnRoutingModule -->
<g id="node5" class="node">
<title>LearnRoutingModule</title>
<polygon fill="#8dd3c7" stroke="black" points="571.81,-84.8 568.81,-88.8 547.81,-88.8 544.81,-84.8 434.19,-84.8 434.19,-48.8 571.81,-48.8 571.81,-84.8"/>
<text text-anchor="middle" x="503" y="-62.6" font-family="Times,serif" font-size="14.00">LearnRoutingModule</text>
</g>
<!-- LearnRoutingModule&#45;&gt;LearnModule -->
<g id="edge4" class="edge">
<title>LearnRoutingModule&#45;&gt;LearnModule</title>
<path fill="none" stroke="black" d="M503,-84.91C503,-84.91 503,-103.79 503,-103.79"/>
<polygon fill="black" stroke="black" points="499.5,-103.79 503,-113.79 506.5,-103.79 499.5,-103.79"/>
</g>
<!-- SharedFeatureModule -->
<g id="node6" class="node">
<title>SharedFeatureModule</title>
<polygon fill="#8dd3c7" stroke="black" points="416.41,-84.8 413.41,-88.8 392.41,-88.8 389.41,-84.8 275.59,-84.8 275.59,-48.8 416.41,-48.8 416.41,-84.8"/>
<text text-anchor="middle" x="346" y="-62.6" font-family="Times,serif" font-size="14.00">SharedFeatureModule</text>
</g>
<!-- SharedFeatureModule&#45;&gt;LearnModule -->
<g id="edge5" class="edge">
<title>SharedFeatureModule&#45;&gt;LearnModule</title>
<path fill="none" stroke="black" d="M346,-84.83C346,-101.2 346,-122.8 346,-122.8 346,-122.8 446.74,-122.8 446.74,-122.8"/>
<polygon fill="black" stroke="black" points="446.74,-126.3 456.74,-122.8 446.74,-119.3 446.74,-126.3"/>
</g>
<!-- SharedModule -->
<g id="node7" class="node">
<title>SharedModule</title>
<polygon fill="#8dd3c7" stroke="black" points="258.43,-84.8 255.43,-88.8 234.43,-88.8 231.43,-84.8 159.57,-84.8 159.57,-48.8 258.43,-48.8 258.43,-84.8"/>
<text text-anchor="middle" x="209" y="-62.6" font-family="Times,serif" font-size="14.00">SharedModule</text>
</g>
<!-- SharedModule&#45;&gt;LearnModule -->
<g id="edge6" class="edge">
<title>SharedModule&#45;&gt;LearnModule</title>
<path fill="none" stroke="black" d="M209,-84.91C209,-104.14 209,-131.8 209,-131.8 209,-131.8 446.74,-131.8 446.74,-131.8"/>
<polygon fill="black" stroke="black" points="446.74,-135.3 456.74,-131.8 446.74,-128.3 446.74,-135.3"/>
</g>
<!-- TelemetryModule -->
<g id="node8" class="node">
<title>TelemetryModule</title>
<polygon fill="#8dd3c7" stroke="black" points="141.58,-84.8 138.58,-88.8 117.58,-88.8 114.58,-84.8 24.42,-84.8 24.42,-48.8 141.58,-48.8 141.58,-84.8"/>
<text text-anchor="middle" x="83" y="-62.6" font-family="Times,serif" font-size="14.00">TelemetryModule</text>
</g>
<!-- TelemetryModule&#45;&gt;LearnModule -->
<g id="edge7" class="edge">
<title>TelemetryModule&#45;&gt;LearnModule</title>
<path fill="none" stroke="black" d="M83,-85.09C83,-107.01 83,-140.8 83,-140.8 83,-140.8 446.85,-140.8 446.85,-140.8"/>
<polygon fill="black" stroke="black" points="446.85,-144.3 456.85,-140.8 446.85,-137.3 446.85,-144.3"/>
</g>
</g>
</svg>
