<?xml version="1.0" encoding="UTF-8" standalone="no"?>
<!DOCTYPE svg PUBLIC "-//W3C//DTD SVG 1.1//EN"
 "http://www.w3.org/Graphics/SVG/1.1/DTD/svg11.dtd">
<!-- Generated by graphviz version 5.0.0 (20220707.1540)
 -->
<!-- Title: dependencies Pages: 1 -->
<svg width="987pt" height="174pt"
 viewBox="0.00 0.00 987.00 173.80" xmlns="http://www.w3.org/2000/svg" xmlns:xlink="http://www.w3.org/1999/xlink">
<g id="graph0" class="graph" transform="scale(1 1) rotate(0) translate(4 169.8)">
<title>dependencies</title>
<polygon fill="white" stroke="transparent" points="-4,4 -4,-169.8 983,-169.8 983,4 -4,4"/>
<text text-anchor="middle" x="489.5" y="-8.2" font-family="sans-serif" font-size="14.00">dependencies</text>
<g id="clust1" class="cluster">
<title>cluster_PlayerModule</title>
<polygon fill="none" stroke="black" stroke-dasharray="1,5" points="8,-32.8 8,-157.8 971,-157.8 971,-32.8 8,-32.8"/>
</g>
<g id="clust3" class="cluster">
<title>cluster_PlayerModule_imports</title>
<polygon fill="none" stroke="black" points="16,-40.8 16,-92.8 963,-92.8 963,-40.8 16,-40.8"/>
</g>
<!-- BadgingModule -->
<g id="node1" class="node">
<title>BadgingModule</title>
<polygon fill="#8dd3c7" stroke="black" points="955.49,-84.8 952.49,-88.8 931.49,-88.8 928.49,-84.8 848.51,-84.8 848.51,-48.8 955.49,-48.8 955.49,-84.8"/>
<text text-anchor="middle" x="902" y="-62.6" font-family="Times,serif" font-size="14.00">BadgingModule</text>
</g>
<!-- PlayerModule -->
<g id="node8" class="node">
<title>PlayerModule</title>
<polygon fill="#8dd3c7" stroke="black" points="551.82,-149.8 548.82,-153.8 527.82,-153.8 524.82,-149.8 456.18,-149.8 456.18,-113.8 551.82,-113.8 551.82,-149.8"/>
<text text-anchor="middle" x="504" y="-127.6" font-family="Times,serif" font-size="14.00">PlayerModule</text>
</g>
<!-- BadgingModule&#45;&gt;PlayerModule -->
<g id="edge1" class="edge">
<title>BadgingModule&#45;&gt;PlayerModule</title>
<path fill="none" stroke="black" d="M902,-85.09C902,-107.01 902,-140.8 902,-140.8 902,-140.8 562.01,-140.8 562.01,-140.8"/>
<polygon fill="black" stroke="black" points="562.01,-137.3 552.01,-140.8 562.01,-144.3 562.01,-137.3"/>
</g>
<!-- CoreModule -->
<g id="node2" class="node">
<title>CoreModule</title>
<polygon fill="#8dd3c7" stroke="black" points="830.27,-84.8 827.27,-88.8 806.27,-88.8 803.27,-84.8 743.73,-84.8 743.73,-48.8 830.27,-48.8 830.27,-84.8"/>
<text text-anchor="middle" x="787" y="-62.6" font-family="Times,serif" font-size="14.00">CoreModule</text>
</g>
<!-- CoreModule&#45;&gt;PlayerModule -->
<g id="edge2" class="edge">
<title>CoreModule&#45;&gt;PlayerModule</title>
<path fill="none" stroke="black" d="M787,-84.91C787,-104.14 787,-131.8 787,-131.8 787,-131.8 561.69,-131.8 561.69,-131.8"/>
<polygon fill="black" stroke="black" points="561.69,-128.3 551.69,-131.8 561.69,-135.3 561.69,-128.3"/>
</g>
<!-- PlayerHelperModule -->
<g id="node3" class="node">
<title>PlayerHelperModule</title>
<polygon fill="#8dd3c7" stroke="black" points="725.91,-84.8 722.91,-88.8 701.91,-88.8 698.91,-84.8 592.09,-84.8 592.09,-48.8 725.91,-48.8 725.91,-84.8"/>
<text text-anchor="middle" x="659" y="-62.6" font-family="Times,serif" font-size="14.00">PlayerHelperModule</text>
</g>
<!-- PlayerHelperModule&#45;&gt;PlayerModule -->
<g id="edge3" class="edge">
<title>PlayerHelperModule&#45;&gt;PlayerModule</title>
<path fill="none" stroke="black" d="M659,-84.83C659,-101.2 659,-122.8 659,-122.8 659,-122.8 561.77,-122.8 561.77,-122.8"/>
<polygon fill="black" stroke="black" points="561.77,-119.3 551.77,-122.8 561.77,-126.3 561.77,-119.3"/>
</g>
<!-- PlayerRoutingModule -->
<g id="node4" class="node">
<title>PlayerRoutingModule</title>
<polygon fill="#8dd3c7" stroke="black" points="574.44,-84.8 571.44,-88.8 550.44,-88.8 547.44,-84.8 433.56,-84.8 433.56,-48.8 574.44,-48.8 574.44,-84.8"/>
<text text-anchor="middle" x="504" y="-62.6" font-family="Times,serif" font-size="14.00">PlayerRoutingModule</text>
</g>
<!-- PlayerRoutingModule&#45;&gt;PlayerModule -->
<g id="edge4" class="edge">
<title>PlayerRoutingModule&#45;&gt;PlayerModule</title>
<path fill="none" stroke="black" d="M504,-84.91C504,-84.91 504,-103.79 504,-103.79"/>
<polygon fill="black" stroke="black" points="500.5,-103.79 504,-113.79 507.5,-103.79 500.5,-103.79"/>
</g>
<!-- SharedFeatureModule -->
<g id="node5" class="node">
<title>SharedFeatureModule</title>
<polygon fill="#8dd3c7" stroke="black" points="416.41,-84.8 413.41,-88.8 392.41,-88.8 389.41,-84.8 275.59,-84.8 275.59,-48.8 416.41,-48.8 416.41,-84.8"/>
<text text-anchor="middle" x="346" y="-62.6" font-family="Times,serif" font-size="14.00">SharedFeatureModule</text>
</g>
<!-- SharedFeatureModule&#45;&gt;PlayerModule -->
<g id="edge5" class="edge">
<title>SharedFeatureModule&#45;&gt;PlayerModule</title>
<path fill="none" stroke="black" d="M346,-84.83C346,-101.2 346,-122.8 346,-122.8 346,-122.8 446.17,-122.8 446.17,-122.8"/>
<polygon fill="black" stroke="black" points="446.17,-126.3 456.17,-122.8 446.17,-119.3 446.17,-126.3"/>
</g>
<!-- SharedModule -->
<g id="node6" class="node">
<title>SharedModule</title>
<polygon fill="#8dd3c7" stroke="black" points="258.43,-84.8 255.43,-88.8 234.43,-88.8 231.43,-84.8 159.57,-84.8 159.57,-48.8 258.43,-48.8 258.43,-84.8"/>
<text text-anchor="middle" x="209" y="-62.6" font-family="Times,serif" font-size="14.00">SharedModule</text>
</g>
<!-- SharedModule&#45;&gt;PlayerModule -->
<g id="edge6" class="edge">
<title>SharedModule&#45;&gt;PlayerModule</title>
<path fill="none" stroke="black" d="M209,-84.91C209,-104.14 209,-131.8 209,-131.8 209,-131.8 446.28,-131.8 446.28,-131.8"/>
<polygon fill="black" stroke="black" points="446.28,-135.3 456.28,-131.8 446.28,-128.3 446.28,-135.3"/>
</g>
<!-- TelemetryModule -->
<g id="node7" class="node">
<title>TelemetryModule</title>
<polygon fill="#8dd3c7" stroke="black" points="141.58,-84.8 138.58,-88.8 117.58,-88.8 114.58,-84.8 24.42,-84.8 24.42,-48.8 141.58,-48.8 141.58,-84.8"/>
<text text-anchor="middle" x="83" y="-62.6" font-family="Times,serif" font-size="14.00">TelemetryModule</text>
</g>
<!-- TelemetryModule&#45;&gt;PlayerModule -->
<g id="edge7" class="edge">
<title>TelemetryModule&#45;&gt;PlayerModule</title>
<path fill="none" stroke="black" d="M83,-85.09C83,-107.01 83,-140.8 83,-140.8 83,-140.8 446.12,-140.8 446.12,-140.8"/>
<polygon fill="black" stroke="black" points="446.12,-144.3 456.12,-140.8 446.12,-137.3 446.12,-144.3"/>
</g>
</g>
</svg>
