<?xml version="1.0" encoding="UTF-8" standalone="no"?>
<!DOCTYPE svg PUBLIC "-//W3C//DTD SVG 1.1//EN"
 "http://www.w3.org/Graphics/SVG/1.1/DTD/svg11.dtd">
<!-- Generated by graphviz version 5.0.0 (20220707.1540)
 -->
<!-- Title: dependencies Pages: 1 -->
<svg width="4153pt" height="247pt"
 viewBox="0.00 0.00 4153.00 246.80" xmlns="http://www.w3.org/2000/svg" xmlns:xlink="http://www.w3.org/1999/xlink">
<g id="graph0" class="graph" transform="scale(1 1) rotate(0) translate(4 242.8)">
<title>dependencies</title>
<polygon fill="white" stroke="transparent" points="-4,4 -4,-242.8 4149,-242.8 4149,4 -4,4"/>
<text text-anchor="middle" x="2072.5" y="-8.2" font-family="sans-serif" font-size="14.00">dependencies</text>
<g id="clust1" class="cluster">
<title>cluster_SharedFeatureModule</title>
<polygon fill="none" stroke="black" stroke-dasharray="1,5" points="8,-32.8 8,-230.8 4137,-230.8 4137,-32.8 8,-32.8"/>
</g>
<g id="clust2" class="cluster">
<title>cluster_SharedFeatureModule_declarations</title>
<polygon fill="none" stroke="black" points="657,-40.8 657,-92.8 4129,-92.8 4129,-40.8 657,-40.8"/>
</g>
<g id="clust21" class="cluster">
<title>cluster_SharedFeatureModule_exports</title>
<polygon fill="none" stroke="black" points="215,-170.8 215,-222.8 3514,-222.8 3514,-170.8 215,-170.8"/>
</g>
<g id="clust20" class="cluster">
<title>cluster_SharedFeatureModule_imports</title>
<polygon fill="none" stroke="black" points="16,-40.8 16,-92.8 649,-92.8 649,-40.8 16,-40.8"/>
</g>
<!-- BatchInfoComponent -->
<g id="node1" class="node">
<title>BatchInfoComponent</title>
<polygon fill="#ffffb3" stroke="black" points="4120.81,-84.8 3983.19,-84.8 3983.19,-48.8 4120.81,-48.8 4120.81,-84.8"/>
<text text-anchor="middle" x="4052" y="-62.6" font-family="Times,serif" font-size="14.00">BatchInfoComponent</text>
</g>
<!-- SharedFeatureModule -->
<g id="node18" class="node">
<title>SharedFeatureModule</title>
<polygon fill="#8dd3c7" stroke="black" points="2033.41,-149.8 2030.41,-153.8 2009.41,-153.8 2006.41,-149.8 1892.59,-149.8 1892.59,-113.8 2033.41,-113.8 2033.41,-149.8"/>
<text text-anchor="middle" x="1963" y="-127.6" font-family="Times,serif" font-size="14.00">SharedFeatureModule</text>
</g>
<!-- BatchInfoComponent&#45;&gt;SharedFeatureModule -->
<g id="edge1" class="edge">
<title>BatchInfoComponent&#45;&gt;SharedFeatureModule</title>
<path fill="none" stroke="black" d="M4052,-85.11C4052,-104.95 4052,-133.8 4052,-133.8 4052,-133.8 2043.4,-133.8 2043.4,-133.8"/>
<polygon fill="black" stroke="black" points="2043.4,-130.3 2033.4,-133.8 2043.4,-137.3 2043.4,-130.3"/>
</g>
<!-- CertPreviewPopupComponent -->
<g id="node2" class="node">
<title>CertPreviewPopupComponent</title>
<polygon fill="#ffffb3" stroke="black" points="3965.6,-84.8 3778.4,-84.8 3778.4,-48.8 3965.6,-48.8 3965.6,-84.8"/>
<text text-anchor="middle" x="3872" y="-62.6" font-family="Times,serif" font-size="14.00">CertPreviewPopupComponent</text>
</g>
<!-- CertPreviewPopupComponent&#45;&gt;SharedFeatureModule -->
<g id="edge2" class="edge">
<title>CertPreviewPopupComponent&#45;&gt;SharedFeatureModule</title>
<path fill="none" stroke="black" d="M3872,-84.91C3872,-104.14 3872,-131.8 3872,-131.8 3872,-131.8 2043.21,-131.8 2043.21,-131.8"/>
<polygon fill="black" stroke="black" points="2043.21,-128.3 2033.21,-131.8 2043.21,-135.3 2043.21,-128.3"/>
</g>
<!-- CollectionPlayerComponent -->
<g id="node3" class="node">
<title>CollectionPlayerComponent</title>
<polygon fill="#ffffb3" stroke="black" points="3760.92,-84.8 3585.08,-84.8 3585.08,-48.8 3760.92,-48.8 3760.92,-84.8"/>
<text text-anchor="middle" x="3673" y="-62.6" font-family="Times,serif" font-size="14.00">CollectionPlayerComponent</text>
</g>
<!-- CollectionPlayerComponent&#45;&gt;SharedFeatureModule -->
<g id="edge3" class="edge">
<title>CollectionPlayerComponent&#45;&gt;SharedFeatureModule</title>
<path fill="none" stroke="black" d="M3673,-85.02C3673,-103.63 3673,-129.8 3673,-129.8 3673,-129.8 2043.22,-129.8 2043.22,-129.8"/>
<polygon fill="black" stroke="black" points="2043.22,-126.3 2033.22,-129.8 2043.22,-133.3 2043.22,-126.3"/>
</g>
<!-- ConfirmationPopupComponent -->
<g id="node4" class="node">
<title>ConfirmationPopupComponent</title>
<polygon fill="#ffffb3" stroke="black" points="3567.05,-84.8 3374.95,-84.8 3374.95,-48.8 3567.05,-48.8 3567.05,-84.8"/>
<text text-anchor="middle" x="3471" y="-62.6" font-family="Times,serif" font-size="14.00">ConfirmationPopupComponent</text>
</g>
<!-- ConfirmationPopupComponent&#45;&gt;SharedFeatureModule -->
<g id="edge4" class="edge">
<title>ConfirmationPopupComponent&#45;&gt;SharedFeatureModule</title>
<path fill="none" stroke="black" d="M3440.56,-85.1C3440.56,-103.07 3440.56,-127.8 3440.56,-127.8 3440.56,-127.8 2043.27,-127.8 2043.27,-127.8"/>
<polygon fill="black" stroke="black" points="2043.27,-124.3 2033.27,-127.8 2043.27,-131.3 2043.27,-124.3"/>
</g>
<!-- ContentPlayerComponent -->
<g id="node5" class="node">
<title>ContentPlayerComponent</title>
<polygon fill="#ffffb3" stroke="black" points="3356.93,-84.8 3195.07,-84.8 3195.07,-48.8 3356.93,-48.8 3356.93,-84.8"/>
<text text-anchor="middle" x="3276" y="-62.6" font-family="Times,serif" font-size="14.00">ContentPlayerComponent</text>
</g>
<!-- ContentPlayerComponent&#45;&gt;SharedFeatureModule -->
<g id="edge5" class="edge">
<title>ContentPlayerComponent&#45;&gt;SharedFeatureModule</title>
<path fill="none" stroke="black" d="M3271.29,-84.82C3271.29,-102.17 3271.29,-125.8 3271.29,-125.8 3271.29,-125.8 2043.34,-125.8 2043.34,-125.8"/>
<polygon fill="black" stroke="black" points="2043.34,-122.3 2033.34,-125.8 2043.34,-129.3 2043.34,-122.3"/>
</g>
<!-- DashboardComponent -->
<g id="node6" class="node">
<title>DashboardComponent</title>
<polygon fill="#ffffb3" stroke="black" points="3176.98,-84.8 3035.02,-84.8 3035.02,-48.8 3176.98,-48.8 3176.98,-84.8"/>
<text text-anchor="middle" x="3106" y="-62.6" font-family="Times,serif" font-size="14.00">DashboardComponent</text>
</g>
<!-- DashboardComponent&#45;&gt;SharedFeatureModule -->
<g id="edge6" class="edge">
<title>DashboardComponent&#45;&gt;SharedFeatureModule</title>
<path fill="none" stroke="black" d="M3086.74,-84.84C3086.74,-101.53 3086.74,-123.8 3086.74,-123.8 3086.74,-123.8 2043.29,-123.8 2043.29,-123.8"/>
<polygon fill="black" stroke="black" points="2043.29,-120.3 2033.29,-123.8 2043.29,-127.3 2043.29,-120.3"/>
</g>
<!-- FrameworkCatLabelTranslatePipe -->
<g id="node7" class="node">
<title>FrameworkCatLabelTranslatePipe</title>
<polygon fill="#ffffb3" stroke="black" points="3017.32,-84.8 2808.68,-84.8 2808.68,-48.8 3017.32,-48.8 3017.32,-84.8"/>
<text text-anchor="middle" x="2913" y="-62.6" font-family="Times,serif" font-size="14.00">FrameworkCatLabelTranslatePipe</text>
</g>
<!-- FrameworkCatLabelTranslatePipe&#45;&gt;SharedFeatureModule -->
<g id="edge7" class="edge">
<title>FrameworkCatLabelTranslatePipe&#45;&gt;SharedFeatureModule</title>
<path fill="none" stroke="black" d="M2875.31,-84.81C2875.31,-100.85 2875.31,-121.8 2875.31,-121.8 2875.31,-121.8 2043.45,-121.8 2043.45,-121.8"/>
<polygon fill="black" stroke="black" points="2043.45,-118.3 2033.45,-121.8 2043.45,-125.3 2043.45,-118.3"/>
</g>
<!-- GlobalConsentPiiComponent -->
<g id="node8" class="node">
<title>GlobalConsentPiiComponent</title>
<polygon fill="#ffffb3" stroke="black" points="2790.39,-84.8 2609.61,-84.8 2609.61,-48.8 2790.39,-48.8 2790.39,-84.8"/>
<text text-anchor="middle" x="2700" y="-62.6" font-family="Times,serif" font-size="14.00">GlobalConsentPiiComponent</text>
</g>
<!-- GlobalConsentPiiComponent&#45;&gt;SharedFeatureModule -->
<g id="edge8" class="edge">
<title>GlobalConsentPiiComponent&#45;&gt;SharedFeatureModule</title>
<path fill="none" stroke="black" d="M2669.01,-85.04C2669.01,-100.37 2669.01,-119.8 2669.01,-119.8 2669.01,-119.8 2043.28,-119.8 2043.28,-119.8"/>
<polygon fill="black" stroke="black" points="2043.28,-116.3 2033.28,-119.8 2043.28,-123.3 2043.28,-116.3"/>
</g>
<!-- OnboardingUserSelectionComponent -->
<g id="node9" class="node">
<title>OnboardingUserSelectionComponent</title>
<polygon fill="#ffffb3" stroke="black" points="2591.24,-84.8 2364.76,-84.8 2364.76,-48.8 2591.24,-48.8 2591.24,-84.8"/>
<text text-anchor="middle" x="2478" y="-62.6" font-family="Times,serif" font-size="14.00">OnboardingUserSelectionComponent</text>
</g>
<!-- OnboardingUserSelectionComponent&#45;&gt;SharedFeatureModule -->
<g id="edge9" class="edge">
<title>OnboardingUserSelectionComponent&#45;&gt;SharedFeatureModule</title>
<path fill="none" stroke="black" d="M2373.41,-84.92C2373.41,-99.58 2373.41,-117.8 2373.41,-117.8 2373.41,-117.8 2043.55,-117.8 2043.55,-117.8"/>
<polygon fill="black" stroke="black" points="2043.55,-114.3 2033.55,-117.8 2043.55,-121.3 2043.55,-114.3"/>
</g>
<!-- OtpPopupComponent -->
<g id="node10" class="node">
<title>OtpPopupComponent</title>
<polygon fill="#ffffb3" stroke="black" points="2347.12,-84.8 2208.88,-84.8 2208.88,-48.8 2347.12,-48.8 2347.12,-84.8"/>
<text text-anchor="middle" x="2278" y="-62.6" font-family="Times,serif" font-size="14.00">OtpPopupComponent</text>
</g>
<!-- OtpPopupComponent&#45;&gt;SharedFeatureModule -->
<g id="edge10" class="edge">
<title>OtpPopupComponent&#45;&gt;SharedFeatureModule</title>
<path fill="none" stroke="black" d="M2278,-85.05C2278,-98.98 2278,-115.8 2278,-115.8 2278,-115.8 2043.3,-115.8 2043.3,-115.8"/>
<polygon fill="black" stroke="black" points="2043.3,-112.3 2033.3,-115.8 2043.3,-119.3 2043.3,-112.3"/>
</g>
<!-- ProfileFrameworkPopupComponent -->
<g id="node11" class="node">
<title>ProfileFrameworkPopupComponent</title>
<polygon fill="#ffffb3" stroke="black" points="2190.76,-84.8 1971.24,-84.8 1971.24,-48.8 2190.76,-48.8 2190.76,-84.8"/>
<text text-anchor="middle" x="2081" y="-62.6" font-family="Times,serif" font-size="14.00">ProfileFrameworkPopupComponent</text>
</g>
<!-- ProfileFrameworkPopupComponent&#45;&gt;SharedFeatureModule -->
<g id="edge11" class="edge">
<title>ProfileFrameworkPopupComponent&#45;&gt;SharedFeatureModule</title>
<path fill="none" stroke="black" d="M2002.16,-84.91C2002.16,-84.91 2002.16,-103.79 2002.16,-103.79"/>
<polygon fill="black" stroke="black" points="1998.66,-103.79 2002.16,-113.79 2005.66,-103.79 1998.66,-103.79"/>
</g>
<!-- SsoMergeConfirmationComponent -->
<g id="node12" class="node">
<title>SsoMergeConfirmationComponent</title>
<polygon fill="#ffffb3" stroke="black" points="1952.54,-84.8 1739.46,-84.8 1739.46,-48.8 1952.54,-48.8 1952.54,-84.8"/>
<text text-anchor="middle" x="1846" y="-62.6" font-family="Times,serif" font-size="14.00">SsoMergeConfirmationComponent</text>
</g>
<!-- SsoMergeConfirmationComponent&#45;&gt;SharedFeatureModule -->
<g id="edge12" class="edge">
<title>SsoMergeConfirmationComponent&#45;&gt;SharedFeatureModule</title>
<path fill="none" stroke="black" d="M1922.78,-84.91C1922.78,-84.91 1922.78,-103.79 1922.78,-103.79"/>
<polygon fill="black" stroke="black" points="1919.28,-103.79 1922.78,-113.79 1926.28,-103.79 1919.28,-103.79"/>
</g>
<!-- TermsAndConditionsPopupComponent -->
<g id="node13" class="node">
<title>TermsAndConditionsPopupComponent</title>
<polygon fill="#ffffb3" stroke="black" points="1721.45,-84.8 1482.55,-84.8 1482.55,-48.8 1721.45,-48.8 1721.45,-84.8"/>
<text text-anchor="middle" x="1602" y="-62.6" font-family="Times,serif" font-size="14.00">TermsAndConditionsPopupComponent</text>
</g>
<!-- TermsAndConditionsPopupComponent&#45;&gt;SharedFeatureModule -->
<g id="edge13" class="edge">
<title>TermsAndConditionsPopupComponent&#45;&gt;SharedFeatureModule</title>
<path fill="none" stroke="black" d="M1635.3,-85.05C1635.3,-98.98 1635.3,-115.8 1635.3,-115.8 1635.3,-115.8 1882.7,-115.8 1882.7,-115.8"/>
<polygon fill="black" stroke="black" points="1882.7,-119.3 1892.7,-115.8 1882.7,-112.3 1882.7,-119.3"/>
</g>
<!-- UserLocationComponent -->
<g id="node14" class="node">
<title>UserLocationComponent</title>
<polygon fill="#ffffb3" stroke="black" points="1464.53,-84.8 1307.47,-84.8 1307.47,-48.8 1464.53,-48.8 1464.53,-84.8"/>
<text text-anchor="middle" x="1386" y="-62.6" font-family="Times,serif" font-size="14.00">UserLocationComponent</text>
</g>
<!-- UserLocationComponent&#45;&gt;SharedFeatureModule -->
<g id="edge14" class="edge">
<title>UserLocationComponent&#45;&gt;SharedFeatureModule</title>
<path fill="none" stroke="black" d="M1389.62,-84.92C1389.62,-99.58 1389.62,-117.8 1389.62,-117.8 1389.62,-117.8 1882.69,-117.8 1882.69,-117.8"/>
<polygon fill="black" stroke="black" points="1882.69,-121.3 1892.69,-117.8 1882.69,-114.3 1882.69,-121.3"/>
</g>
<!-- UserOnboardingComponent -->
<g id="node15" class="node">
<title>UserOnboardingComponent</title>
<polygon fill="#ffffb3" stroke="black" points="1289.14,-84.8 1114.86,-84.8 1114.86,-48.8 1289.14,-48.8 1289.14,-84.8"/>
<text text-anchor="middle" x="1202" y="-62.6" font-family="Times,serif" font-size="14.00">UserOnboardingComponent</text>
</g>
<!-- UserOnboardingComponent&#45;&gt;SharedFeatureModule -->
<g id="edge15" class="edge">
<title>UserOnboardingComponent&#45;&gt;SharedFeatureModule</title>
<path fill="none" stroke="black" d="M1202,-85.04C1202,-100.37 1202,-119.8 1202,-119.8 1202,-119.8 1882.77,-119.8 1882.77,-119.8"/>
<polygon fill="black" stroke="black" points="1882.77,-123.3 1892.77,-119.8 1882.77,-116.3 1882.77,-123.3"/>
</g>
<!-- ValidateTeacherIdentifierPopupComponent -->
<g id="node16" class="node">
<title>ValidateTeacherIdentifierPopupComponent</title>
<polygon fill="#ffffb3" stroke="black" points="1096.69,-84.8 835.31,-84.8 835.31,-48.8 1096.69,-48.8 1096.69,-84.8"/>
<text text-anchor="middle" x="966" y="-62.6" font-family="Times,serif" font-size="14.00">ValidateTeacherIdentifierPopupComponent</text>
</g>
<!-- ValidateTeacherIdentifierPopupComponent&#45;&gt;SharedFeatureModule -->
<g id="edge16" class="edge">
<title>ValidateTeacherIdentifierPopupComponent&#45;&gt;SharedFeatureModule</title>
<path fill="none" stroke="black" d="M1075.94,-84.81C1075.94,-100.85 1075.94,-121.8 1075.94,-121.8 1075.94,-121.8 1882.65,-121.8 1882.65,-121.8"/>
<polygon fill="black" stroke="black" points="1882.65,-125.3 1892.65,-121.8 1882.65,-118.3 1882.65,-125.3"/>
</g>
<!-- YearOfBirthComponent -->
<g id="node17" class="node">
<title>YearOfBirthComponent</title>
<polygon fill="#ffffb3" stroke="black" points="817.08,-84.8 664.92,-84.8 664.92,-48.8 817.08,-48.8 817.08,-84.8"/>
<text text-anchor="middle" x="741" y="-62.6" font-family="Times,serif" font-size="14.00">YearOfBirthComponent</text>
</g>
<!-- YearOfBirthComponent&#45;&gt;SharedFeatureModule -->
<g id="edge17" class="edge">
<title>YearOfBirthComponent&#45;&gt;SharedFeatureModule</title>
<path fill="none" stroke="black" d="M748.49,-84.84C748.49,-101.53 748.49,-123.8 748.49,-123.8 748.49,-123.8 1882.45,-123.8 1882.45,-123.8"/>
<polygon fill="black" stroke="black" points="1882.45,-127.3 1892.45,-123.8 1882.45,-120.3 1882.45,-127.3"/>
</g>
<!-- BatchInfoComponent  -->
<g id="node24" class="node">
<title>BatchInfoComponent </title>
<polygon fill="#fb8072" stroke="black" points="3506.31,-214.8 3365.69,-214.8 3365.69,-178.8 3506.31,-178.8 3506.31,-214.8"/>
<text text-anchor="middle" x="3436" y="-192.6" font-family="Times,serif" font-size="14.00">BatchInfoComponent </text>
</g>
<!-- SharedFeatureModule&#45;&gt;BatchInfoComponent  -->
<g id="edge23" class="edge">
<title>SharedFeatureModule&#45;&gt;BatchInfoComponent </title>
<path fill="none" stroke="black" stroke-dasharray="5,2" d="M2033.26,-135.8C2317.91,-135.8 3370.16,-135.8 3370.16,-135.8 3370.16,-135.8 3370.16,-168.5 3370.16,-168.5"/>
<polygon fill="black" stroke="black" points="3366.66,-168.5 3370.16,-178.5 3373.66,-168.5 3366.66,-168.5"/>
</g>
<!-- CertPreviewPopupComponent  -->
<g id="node25" class="node">
<title>CertPreviewPopupComponent </title>
<polygon fill="#fb8072" stroke="black" points="3347.1,-214.8 3156.9,-214.8 3156.9,-178.8 3347.1,-178.8 3347.1,-214.8"/>
<text text-anchor="middle" x="3252" y="-192.6" font-family="Times,serif" font-size="14.00">CertPreviewPopupComponent </text>
</g>
<!-- SharedFeatureModule&#45;&gt;CertPreviewPopupComponent  -->
<g id="edge24" class="edge">
<title>SharedFeatureModule&#45;&gt;CertPreviewPopupComponent </title>
<path fill="none" stroke="black" stroke-dasharray="5,2" d="M2033.37,-137.8C2290.86,-137.8 3166.85,-137.8 3166.85,-137.8 3166.85,-137.8 3166.85,-168.78 3166.85,-168.78"/>
<polygon fill="black" stroke="black" points="3163.35,-168.78 3166.85,-178.78 3170.35,-168.78 3163.35,-168.78"/>
</g>
<!-- CollectionPlayerComponent  -->
<g id="node26" class="node">
<title>CollectionPlayerComponent </title>
<polygon fill="#fb8072" stroke="black" points="3138.42,-214.8 2959.58,-214.8 2959.58,-178.8 3138.42,-178.8 3138.42,-214.8"/>
<text text-anchor="middle" x="3049" y="-192.6" font-family="Times,serif" font-size="14.00">CollectionPlayerComponent </text>
</g>
<!-- SharedFeatureModule&#45;&gt;CollectionPlayerComponent  -->
<g id="edge25" class="edge">
<title>SharedFeatureModule&#45;&gt;CollectionPlayerComponent </title>
<path fill="none" stroke="black" stroke-dasharray="5,2" d="M2033.49,-139.8C2265.17,-139.8 2988.48,-139.8 2988.48,-139.8 2988.48,-139.8 2988.48,-168.76 2988.48,-168.76"/>
<polygon fill="black" stroke="black" points="2984.98,-168.76 2988.48,-178.76 2991.98,-168.76 2984.98,-168.76"/>
</g>
<!-- ConfirmationPopupComponent  -->
<g id="node27" class="node">
<title>ConfirmationPopupComponent </title>
<polygon fill="#fb8072" stroke="black" points="2942.05,-214.8 2745.95,-214.8 2745.95,-178.8 2942.05,-178.8 2942.05,-214.8"/>
<text text-anchor="middle" x="2844" y="-192.6" font-family="Times,serif" font-size="14.00">ConfirmationPopupComponent </text>
</g>
<!-- SharedFeatureModule&#45;&gt;ConfirmationPopupComponent  -->
<g id="edge26" class="edge">
<title>SharedFeatureModule&#45;&gt;ConfirmationPopupComponent </title>
<path fill="none" stroke="black" stroke-dasharray="5,2" d="M2033.4,-141.8C2229.59,-141.8 2768.21,-141.8 2768.21,-141.8 2768.21,-141.8 2768.21,-168.79 2768.21,-168.79"/>
<polygon fill="black" stroke="black" points="2764.71,-168.79 2768.21,-178.79 2771.71,-168.79 2764.71,-168.79"/>
</g>
<!-- ContentPlayerComponent  -->
<g id="node28" class="node">
<title>ContentPlayerComponent </title>
<polygon fill="#fb8072" stroke="black" points="2728.43,-214.8 2563.57,-214.8 2563.57,-178.8 2728.43,-178.8 2728.43,-214.8"/>
<text text-anchor="middle" x="2646" y="-192.6" font-family="Times,serif" font-size="14.00">ContentPlayerComponent </text>
</g>
<!-- SharedFeatureModule&#45;&gt;ContentPlayerComponent  -->
<g id="edge27" class="edge">
<title>SharedFeatureModule&#45;&gt;ContentPlayerComponent </title>
<path fill="none" stroke="black" stroke-dasharray="5,2" d="M2033.49,-143.8C2194.88,-143.8 2577.45,-143.8 2577.45,-143.8 2577.45,-143.8 2577.45,-168.56 2577.45,-168.56"/>
<polygon fill="black" stroke="black" points="2573.95,-168.56 2577.45,-178.56 2580.95,-168.56 2573.95,-168.56"/>
</g>
<!-- DashboardComponent  -->
<g id="node29" class="node">
<title>DashboardComponent </title>
<polygon fill="#fb8072" stroke="black" points="2545.98,-214.8 2400.02,-214.8 2400.02,-178.8 2545.98,-178.8 2545.98,-214.8"/>
<text text-anchor="middle" x="2473" y="-192.6" font-family="Times,serif" font-size="14.00">DashboardComponent </text>
</g>
<!-- SharedFeatureModule&#45;&gt;DashboardComponent  -->
<g id="edge28" class="edge">
<title>SharedFeatureModule&#45;&gt;DashboardComponent </title>
<path fill="none" stroke="black" stroke-dasharray="5,2" d="M2033.38,-145.8C2173.28,-145.8 2473,-145.8 2473,-145.8 2473,-145.8 2473,-168.68 2473,-168.68"/>
<polygon fill="black" stroke="black" points="2469.5,-168.68 2473,-178.68 2476.5,-168.68 2469.5,-168.68"/>
</g>
<!-- GlobalConsentPiiComponent  -->
<g id="node30" class="node">
<title>GlobalConsentPiiComponent </title>
<polygon fill="#fb8072" stroke="black" points="2382.39,-214.8 2197.61,-214.8 2197.61,-178.8 2382.39,-178.8 2382.39,-214.8"/>
<text text-anchor="middle" x="2290" y="-192.6" font-family="Times,serif" font-size="14.00">GlobalConsentPiiComponent </text>
</g>
<!-- SharedFeatureModule&#45;&gt;GlobalConsentPiiComponent  -->
<g id="edge29" class="edge">
<title>SharedFeatureModule&#45;&gt;GlobalConsentPiiComponent </title>
<path fill="none" stroke="black" stroke-dasharray="5,2" d="M2033.5,-147.8C2104.42,-147.8 2203.37,-147.8 2203.37,-147.8 2203.37,-147.8 2203.37,-168.55 2203.37,-168.55"/>
<polygon fill="black" stroke="black" points="2199.87,-168.55 2203.37,-178.55 2206.87,-168.55 2199.87,-168.55"/>
</g>
<!-- OnboardingUserSelectionComponent  -->
<g id="node31" class="node">
<title>OnboardingUserSelectionComponent </title>
<polygon fill="#fb8072" stroke="black" points="2180.24,-214.8 1949.76,-214.8 1949.76,-178.8 2180.24,-178.8 2180.24,-214.8"/>
<text text-anchor="middle" x="2065" y="-192.6" font-family="Times,serif" font-size="14.00">OnboardingUserSelectionComponent </text>
</g>
<!-- SharedFeatureModule&#45;&gt;OnboardingUserSelectionComponent  -->
<g id="edge30" class="edge">
<title>SharedFeatureModule&#45;&gt;OnboardingUserSelectionComponent </title>
<path fill="none" stroke="black" stroke-dasharray="5,2" d="M1991.54,-149.91C1991.54,-149.91 1991.54,-168.79 1991.54,-168.79"/>
<polygon fill="black" stroke="black" points="1988.04,-168.79 1991.54,-178.79 1995.04,-168.79 1988.04,-168.79"/>
</g>
<!-- OtpPopupComponent  -->
<g id="node32" class="node">
<title>OtpPopupComponent </title>
<polygon fill="#fb8072" stroke="black" points="1931.62,-214.8 1790.38,-214.8 1790.38,-178.8 1931.62,-178.8 1931.62,-214.8"/>
<text text-anchor="middle" x="1861" y="-192.6" font-family="Times,serif" font-size="14.00">OtpPopupComponent </text>
</g>
<!-- SharedFeatureModule&#45;&gt;OtpPopupComponent  -->
<g id="edge31" class="edge">
<title>SharedFeatureModule&#45;&gt;OtpPopupComponent </title>
<path fill="none" stroke="black" stroke-dasharray="5,2" d="M1912.3,-149.91C1912.3,-149.91 1912.3,-168.79 1912.3,-168.79"/>
<polygon fill="black" stroke="black" points="1908.8,-168.79 1912.3,-178.79 1915.8,-168.79 1908.8,-168.79"/>
</g>
<!-- ProfileFrameworkPopupComponent  -->
<g id="node33" class="node">
<title>ProfileFrameworkPopupComponent </title>
<polygon fill="#fb8072" stroke="black" points="1772.76,-214.8 1549.24,-214.8 1549.24,-178.8 1772.76,-178.8 1772.76,-214.8"/>
<text text-anchor="middle" x="1661" y="-192.6" font-family="Times,serif" font-size="14.00">ProfileFrameworkPopupComponent </text>
</g>
<!-- SharedFeatureModule&#45;&gt;ProfileFrameworkPopupComponent  -->
<g id="edge32" class="edge">
<title>SharedFeatureModule&#45;&gt;ProfileFrameworkPopupComponent </title>
<path fill="none" stroke="black" stroke-dasharray="5,2" d="M1892.61,-147.8C1832.58,-147.8 1755.93,-147.8 1755.93,-147.8 1755.93,-147.8 1755.93,-168.55 1755.93,-168.55"/>
<polygon fill="black" stroke="black" points="1752.43,-168.55 1755.93,-178.55 1759.43,-168.55 1752.43,-168.55"/>
</g>
<!-- SsoMergeConfirmationComponent  -->
<g id="node34" class="node">
<title>SsoMergeConfirmationComponent </title>
<polygon fill="#fb8072" stroke="black" points="1531.54,-214.8 1314.46,-214.8 1314.46,-178.8 1531.54,-178.8 1531.54,-214.8"/>
<text text-anchor="middle" x="1423" y="-192.6" font-family="Times,serif" font-size="14.00">SsoMergeConfirmationComponent </text>
</g>
<!-- SharedFeatureModule&#45;&gt;SsoMergeConfirmationComponent  -->
<g id="edge33" class="edge">
<title>SharedFeatureModule&#45;&gt;SsoMergeConfirmationComponent </title>
<path fill="none" stroke="black" stroke-dasharray="5,2" d="M1892.77,-145.8C1764.9,-145.8 1507.15,-145.8 1507.15,-145.8 1507.15,-145.8 1507.15,-168.68 1507.15,-168.68"/>
<polygon fill="black" stroke="black" points="1503.65,-168.68 1507.15,-178.68 1510.65,-168.68 1503.65,-168.68"/>
</g>
<!-- TermsAndConditionsPopupComponent  -->
<g id="node35" class="node">
<title>TermsAndConditionsPopupComponent </title>
<polygon fill="#fb8072" stroke="black" points="1296.95,-214.8 1055.05,-214.8 1055.05,-178.8 1296.95,-178.8 1296.95,-214.8"/>
<text text-anchor="middle" x="1176" y="-192.6" font-family="Times,serif" font-size="14.00">TermsAndConditionsPopupComponent </text>
</g>
<!-- SharedFeatureModule&#45;&gt;TermsAndConditionsPopupComponent  -->
<g id="edge34" class="edge">
<title>SharedFeatureModule&#45;&gt;TermsAndConditionsPopupComponent </title>
<path fill="none" stroke="black" stroke-dasharray="5,2" d="M1892.58,-143.8C1720.6,-143.8 1293.15,-143.8 1293.15,-143.8 1293.15,-143.8 1293.15,-168.56 1293.15,-168.56"/>
<polygon fill="black" stroke="black" points="1289.65,-168.56 1293.15,-178.56 1296.65,-168.56 1289.65,-168.56"/>
</g>
<!-- UserLocationComponent  -->
<g id="node36" class="node">
<title>UserLocationComponent </title>
<polygon fill="#fb8072" stroke="black" points="1037.52,-214.8 876.48,-214.8 876.48,-178.8 1037.52,-178.8 1037.52,-214.8"/>
<text text-anchor="middle" x="957" y="-192.6" font-family="Times,serif" font-size="14.00">UserLocationComponent </text>
</g>
<!-- SharedFeatureModule&#45;&gt;UserLocationComponent  -->
<g id="edge35" class="edge">
<title>SharedFeatureModule&#45;&gt;UserLocationComponent </title>
<path fill="none" stroke="black" stroke-dasharray="5,2" d="M1892.66,-141.8C1664.1,-141.8 957,-141.8 957,-141.8 957,-141.8 957,-168.79 957,-168.79"/>
<polygon fill="black" stroke="black" points="953.5,-168.79 957,-178.79 960.5,-168.79 953.5,-168.79"/>
</g>
<!-- UserOnboardingComponent  -->
<g id="node37" class="node">
<title>UserOnboardingComponent </title>
<polygon fill="#fb8072" stroke="black" points="858.14,-214.8 679.86,-214.8 679.86,-178.8 858.14,-178.8 858.14,-214.8"/>
<text text-anchor="middle" x="769" y="-192.6" font-family="Times,serif" font-size="14.00">UserOnboardingComponent </text>
</g>
<!-- SharedFeatureModule&#45;&gt;UserOnboardingComponent  -->
<g id="edge36" class="edge">
<title>SharedFeatureModule&#45;&gt;UserOnboardingComponent </title>
<path fill="none" stroke="black" stroke-dasharray="5,2" d="M1892.74,-139.8C1647.84,-139.8 846.61,-139.8 846.61,-139.8 846.61,-139.8 846.61,-168.76 846.61,-168.76"/>
<polygon fill="black" stroke="black" points="843.11,-168.76 846.61,-178.76 850.11,-168.76 843.11,-168.76"/>
</g>
<!-- ValidateTeacherIdentifierPopupComponent  -->
<g id="node38" class="node">
<title>ValidateTeacherIdentifierPopupComponent </title>
<polygon fill="#fb8072" stroke="black" points="661.69,-214.8 396.31,-214.8 396.31,-178.8 661.69,-178.8 661.69,-214.8"/>
<text text-anchor="middle" x="529" y="-192.6" font-family="Times,serif" font-size="14.00">ValidateTeacherIdentifierPopupComponent </text>
</g>
<!-- SharedFeatureModule&#45;&gt;ValidateTeacherIdentifierPopupComponent  -->
<g id="edge37" class="edge">
<title>SharedFeatureModule&#45;&gt;ValidateTeacherIdentifierPopupComponent </title>
<path fill="none" stroke="black" stroke-dasharray="5,2" d="M1892.49,-137.8C1620.07,-137.8 651.49,-137.8 651.49,-137.8 651.49,-137.8 651.49,-168.78 651.49,-168.78"/>
<polygon fill="black" stroke="black" points="647.99,-168.78 651.49,-178.78 654.99,-168.78 647.99,-168.78"/>
</g>
<!-- YearOfBirthComponent  -->
<g id="node39" class="node">
<title>YearOfBirthComponent </title>
<polygon fill="#fb8072" stroke="black" points="378.58,-214.8 223.42,-214.8 223.42,-178.8 378.58,-178.8 378.58,-214.8"/>
<text text-anchor="middle" x="301" y="-192.6" font-family="Times,serif" font-size="14.00">YearOfBirthComponent </text>
</g>
<!-- SharedFeatureModule&#45;&gt;YearOfBirthComponent  -->
<g id="edge38" class="edge">
<title>SharedFeatureModule&#45;&gt;YearOfBirthComponent </title>
<path fill="none" stroke="black" stroke-dasharray="5,2" d="M1892.73,-135.8C1579.69,-135.8 327.54,-135.8 327.54,-135.8 327.54,-135.8 327.54,-168.5 327.54,-168.5"/>
<polygon fill="black" stroke="black" points="324.04,-168.5 327.54,-178.5 331.04,-168.5 324.04,-168.5"/>
</g>
<!-- CoreModule -->
<g id="node19" class="node">
<title>CoreModule</title>
<polygon fill="#8dd3c7" stroke="black" points="641.27,-84.8 638.27,-88.8 617.27,-88.8 614.27,-84.8 554.73,-84.8 554.73,-48.8 641.27,-48.8 641.27,-84.8"/>
<text text-anchor="middle" x="598" y="-62.6" font-family="Times,serif" font-size="14.00">CoreModule</text>
</g>
<!-- CoreModule&#45;&gt;SharedFeatureModule -->
<g id="edge18" class="edge">
<title>CoreModule&#45;&gt;SharedFeatureModule</title>
<path fill="none" stroke="black" d="M598,-84.82C598,-102.17 598,-125.8 598,-125.8 598,-125.8 1882.49,-125.8 1882.49,-125.8"/>
<polygon fill="black" stroke="black" points="1882.49,-129.3 1892.49,-125.8 1882.49,-122.3 1882.49,-129.3"/>
</g>
<!-- LocationModule -->
<g id="node20" class="node">
<title>LocationModule</title>
<polygon fill="#8dd3c7" stroke="black" points="536.81,-84.8 533.81,-88.8 512.81,-88.8 509.81,-84.8 427.19,-84.8 427.19,-48.8 536.81,-48.8 536.81,-84.8"/>
<text text-anchor="middle" x="482" y="-62.6" font-family="Times,serif" font-size="14.00">LocationModule</text>
</g>
<!-- LocationModule&#45;&gt;SharedFeatureModule -->
<g id="edge19" class="edge">
<title>LocationModule&#45;&gt;SharedFeatureModule</title>
<path fill="none" stroke="black" d="M482,-85.1C482,-103.07 482,-127.8 482,-127.8 482,-127.8 1882.56,-127.8 1882.56,-127.8"/>
<polygon fill="black" stroke="black" points="1882.56,-131.3 1892.56,-127.8 1882.56,-124.3 1882.56,-131.3"/>
</g>
<!-- PlayerHelperModule -->
<g id="node21" class="node">
<title>PlayerHelperModule</title>
<polygon fill="#8dd3c7" stroke="black" points="409.91,-84.8 406.91,-88.8 385.91,-88.8 382.91,-84.8 276.09,-84.8 276.09,-48.8 409.91,-48.8 409.91,-84.8"/>
<text text-anchor="middle" x="343" y="-62.6" font-family="Times,serif" font-size="14.00">PlayerHelperModule</text>
</g>
<!-- PlayerHelperModule&#45;&gt;SharedFeatureModule -->
<g id="edge20" class="edge">
<title>PlayerHelperModule&#45;&gt;SharedFeatureModule</title>
<path fill="none" stroke="black" d="M403.05,-85.02C403.05,-103.63 403.05,-129.8 403.05,-129.8 403.05,-129.8 1882.69,-129.8 1882.69,-129.8"/>
<polygon fill="black" stroke="black" points="1882.69,-133.3 1892.69,-129.8 1882.69,-126.3 1882.69,-133.3"/>
</g>
<!-- SharedModule -->
<g id="node22" class="node">
<title>SharedModule</title>
<polygon fill="#8dd3c7" stroke="black" points="258.43,-84.8 255.43,-88.8 234.43,-88.8 231.43,-84.8 159.57,-84.8 159.57,-48.8 258.43,-48.8 258.43,-84.8"/>
<text text-anchor="middle" x="209" y="-62.6" font-family="Times,serif" font-size="14.00">SharedModule</text>
</g>
<!-- SharedModule&#45;&gt;SharedFeatureModule -->
<g id="edge21" class="edge">
<title>SharedModule&#45;&gt;SharedFeatureModule</title>
<path fill="none" stroke="black" d="M240.71,-84.91C240.71,-104.14 240.71,-131.8 240.71,-131.8 240.71,-131.8 1882.54,-131.8 1882.54,-131.8"/>
<polygon fill="black" stroke="black" points="1882.54,-135.3 1892.54,-131.8 1882.54,-128.3 1882.54,-135.3"/>
</g>
<!-- TelemetryModule -->
<g id="node23" class="node">
<title>TelemetryModule</title>
<polygon fill="#8dd3c7" stroke="black" points="141.58,-84.8 138.58,-88.8 117.58,-88.8 114.58,-84.8 24.42,-84.8 24.42,-48.8 141.58,-48.8 141.58,-84.8"/>
<text text-anchor="middle" x="83" y="-62.6" font-family="Times,serif" font-size="14.00">TelemetryModule</text>
</g>
<!-- TelemetryModule&#45;&gt;SharedFeatureModule -->
<g id="edge22" class="edge">
<title>TelemetryModule&#45;&gt;SharedFeatureModule</title>
<path fill="none" stroke="black" d="M83,-85.11C83,-104.95 83,-133.8 83,-133.8 83,-133.8 1882.73,-133.8 1882.73,-133.8"/>
<polygon fill="black" stroke="black" points="1882.73,-137.3 1892.73,-133.8 1882.73,-130.3 1882.73,-137.3"/>
</g>
</g>
</svg>
