<?xml version="1.0" encoding="UTF-8" standalone="no"?>
<!DOCTYPE svg PUBLIC "-//W3C//DTD SVG 1.1//EN"
 "http://www.w3.org/Graphics/SVG/1.1/DTD/svg11.dtd">
<!-- Generated by graphviz version 5.0.0 (20220707.1540)
 -->
<!-- Title: dependencies Pages: 1 -->
<svg width="2274pt" height="174pt"
 viewBox="0.00 0.00 2274.00 173.80" xmlns="http://www.w3.org/2000/svg" xmlns:xlink="http://www.w3.org/1999/xlink">
<g id="graph0" class="graph" transform="scale(1 1) rotate(0) translate(4 169.8)">
<title>dependencies</title>
<polygon fill="white" stroke="transparent" points="-4,4 -4,-169.8 2270,-169.8 2270,4 -4,4"/>
<text text-anchor="middle" x="1133" y="-8.2" font-family="sans-serif" font-size="14.00">dependencies</text>
<g id="clust1" class="cluster">
<title>cluster_ObservationModule</title>
<polygon fill="none" stroke="black" stroke-dasharray="1,5" points="8,-32.8 8,-157.8 2258,-157.8 2258,-32.8 8,-32.8"/>
</g>
<g id="clust9" class="cluster">
<title>cluster_ObservationModule_imports</title>
<polygon fill="none" stroke="black" points="1108,-40.8 1108,-92.8 2250,-92.8 2250,-40.8 1108,-40.8"/>
</g>
<g id="clust2" class="cluster">
<title>cluster_ObservationModule_declarations</title>
<polygon fill="none" stroke="black" points="16,-40.8 16,-92.8 1100,-92.8 1100,-40.8 16,-40.8"/>
</g>
<!-- AddEntityComponent -->
<g id="node1" class="node">
<title>AddEntityComponent</title>
<polygon fill="#ffffb3" stroke="black" points="1091.66,-84.8 952.34,-84.8 952.34,-48.8 1091.66,-48.8 1091.66,-84.8"/>
<text text-anchor="middle" x="1022" y="-62.6" font-family="Times,serif" font-size="14.00">AddEntityComponent</text>
</g>
<!-- ObservationModule -->
<g id="node7" class="node">
<title>ObservationModule</title>
<polygon fill="#8dd3c7" stroke="black" points="1364.98,-149.8 1361.98,-153.8 1340.98,-153.8 1337.98,-149.8 1237.02,-149.8 1237.02,-113.8 1364.98,-113.8 1364.98,-149.8"/>
<text text-anchor="middle" x="1301" y="-127.6" font-family="Times,serif" font-size="14.00">ObservationModule</text>
</g>
<!-- AddEntityComponent&#45;&gt;ObservationModule -->
<g id="edge1" class="edge">
<title>AddEntityComponent&#45;&gt;ObservationModule</title>
<path fill="none" stroke="black" d="M1022,-85.04C1022,-100.37 1022,-119.8 1022,-119.8 1022,-119.8 1226.99,-119.8 1226.99,-119.8"/>
<polygon fill="black" stroke="black" points="1226.99,-123.3 1236.99,-119.8 1226.99,-116.3 1226.99,-123.3"/>
</g>
<!-- EditSubmissionComponent -->
<g id="node2" class="node">
<title>EditSubmissionComponent</title>
<polygon fill="#ffffb3" stroke="black" points="934.01,-84.8 763.99,-84.8 763.99,-48.8 934.01,-48.8 934.01,-84.8"/>
<text text-anchor="middle" x="849" y="-62.6" font-family="Times,serif" font-size="14.00">EditSubmissionComponent</text>
</g>
<!-- EditSubmissionComponent&#45;&gt;ObservationModule -->
<g id="edge2" class="edge">
<title>EditSubmissionComponent&#45;&gt;ObservationModule</title>
<path fill="none" stroke="black" d="M849,-84.83C849,-101.86 849,-124.8 849,-124.8 849,-124.8 1226.72,-124.8 1226.72,-124.8"/>
<polygon fill="black" stroke="black" points="1226.72,-128.3 1236.72,-124.8 1226.72,-121.3 1226.72,-128.3"/>
</g>
<!-- EntityListComponent -->
<g id="node3" class="node">
<title>EntityListComponent</title>
<polygon fill="#ffffb3" stroke="black" points="745.83,-84.8 608.17,-84.8 608.17,-48.8 745.83,-48.8 745.83,-84.8"/>
<text text-anchor="middle" x="677" y="-62.6" font-family="Times,serif" font-size="14.00">EntityListComponent</text>
</g>
<!-- EntityListComponent&#45;&gt;ObservationModule -->
<g id="edge3" class="edge">
<title>EntityListComponent&#45;&gt;ObservationModule</title>
<path fill="none" stroke="black" d="M677,-85.02C677,-103.63 677,-129.8 677,-129.8 677,-129.8 1226.86,-129.8 1226.86,-129.8"/>
<polygon fill="black" stroke="black" points="1226.86,-133.3 1236.86,-129.8 1226.86,-126.3 1226.86,-133.3"/>
</g>
<!-- ObservationDetailsComponent -->
<g id="node4" class="node">
<title>ObservationDetailsComponent</title>
<polygon fill="#ffffb3" stroke="black" points="590.91,-84.8 401.09,-84.8 401.09,-48.8 590.91,-48.8 590.91,-84.8"/>
<text text-anchor="middle" x="496" y="-62.6" font-family="Times,serif" font-size="14.00">ObservationDetailsComponent</text>
</g>
<!-- ObservationDetailsComponent&#45;&gt;ObservationModule -->
<g id="edge4" class="edge">
<title>ObservationDetailsComponent&#45;&gt;ObservationModule</title>
<path fill="none" stroke="black" d="M496,-85.02C496,-105.17 496,-134.8 496,-134.8 496,-134.8 1226.82,-134.8 1226.82,-134.8"/>
<polygon fill="black" stroke="black" points="1226.82,-138.3 1236.82,-134.8 1226.82,-131.3 1226.82,-138.3"/>
</g>
<!-- ObservationListingComponent -->
<g id="node5" class="node">
<title>ObservationListingComponent</title>
<polygon fill="#ffffb3" stroke="black" points="383.93,-84.8 194.07,-84.8 194.07,-48.8 383.93,-48.8 383.93,-84.8"/>
<text text-anchor="middle" x="289" y="-62.6" font-family="Times,serif" font-size="14.00">ObservationListingComponent</text>
</g>
<!-- ObservationListingComponent&#45;&gt;ObservationModule -->
<g id="edge5" class="edge">
<title>ObservationListingComponent&#45;&gt;ObservationModule</title>
<path fill="none" stroke="black" d="M289,-84.84C289,-106.46 289,-139.8 289,-139.8 289,-139.8 1226.93,-139.8 1226.93,-139.8"/>
<polygon fill="black" stroke="black" points="1226.93,-143.3 1236.93,-139.8 1226.93,-136.3 1226.93,-143.3"/>
</g>
<!-- SubmissionsComponent -->
<g id="node6" class="node">
<title>SubmissionsComponent</title>
<polygon fill="#ffffb3" stroke="black" points="176.13,-84.8 23.87,-84.8 23.87,-48.8 176.13,-48.8 176.13,-84.8"/>
<text text-anchor="middle" x="100" y="-62.6" font-family="Times,serif" font-size="14.00">SubmissionsComponent</text>
</g>
<!-- SubmissionsComponent&#45;&gt;ObservationModule -->
<g id="edge6" class="edge">
<title>SubmissionsComponent&#45;&gt;ObservationModule</title>
<path fill="none" stroke="black" d="M100,-84.89C100,-107.93 100,-144.8 100,-144.8 100,-144.8 1226.85,-144.8 1226.85,-144.8"/>
<polygon fill="black" stroke="black" points="1226.85,-148.3 1236.85,-144.8 1226.85,-141.3 1226.85,-148.3"/>
</g>
<!-- ContentSearchModule -->
<g id="node8" class="node">
<title>ContentSearchModule</title>
<polygon fill="#8dd3c7" stroke="black" points="2241.97,-84.8 2238.97,-88.8 2217.97,-88.8 2214.97,-84.8 2100.03,-84.8 2100.03,-48.8 2241.97,-48.8 2241.97,-84.8"/>
<text text-anchor="middle" x="2171" y="-62.6" font-family="Times,serif" font-size="14.00">ContentSearchModule</text>
</g>
<!-- ContentSearchModule&#45;&gt;ObservationModule -->
<g id="edge7" class="edge">
<title>ContentSearchModule&#45;&gt;ObservationModule</title>
<path fill="none" stroke="black" d="M2171,-84.89C2171,-107.93 2171,-144.8 2171,-144.8 2171,-144.8 1375.33,-144.8 1375.33,-144.8"/>
<polygon fill="black" stroke="black" points="1375.33,-141.3 1365.33,-144.8 1375.33,-148.3 1375.33,-141.3"/>
</g>
<!-- CoreModule -->
<g id="node9" class="node">
<title>CoreModule</title>
<polygon fill="#8dd3c7" stroke="black" points="2082.27,-84.8 2079.27,-88.8 2058.27,-88.8 2055.27,-84.8 1995.73,-84.8 1995.73,-48.8 2082.27,-48.8 2082.27,-84.8"/>
<text text-anchor="middle" x="2039" y="-62.6" font-family="Times,serif" font-size="14.00">CoreModule</text>
</g>
<!-- CoreModule&#45;&gt;ObservationModule -->
<g id="edge8" class="edge">
<title>CoreModule&#45;&gt;ObservationModule</title>
<path fill="none" stroke="black" d="M2053.46,-84.84C2053.46,-106.46 2053.46,-139.8 2053.46,-139.8 2053.46,-139.8 1375.15,-139.8 1375.15,-139.8"/>
<polygon fill="black" stroke="black" points="1375.15,-136.3 1365.15,-139.8 1375.15,-143.3 1375.15,-136.3"/>
</g>
<!-- CoreModule&#45;&gt;ObservationModule -->
<g id="edge9" class="edge">
<title>CoreModule&#45;&gt;ObservationModule</title>
<path fill="none" stroke="black" d="M2024.54,-85.02C2024.54,-105.17 2024.54,-134.8 2024.54,-134.8 2024.54,-134.8 1375.21,-134.8 1375.21,-134.8"/>
<polygon fill="black" stroke="black" points="1375.21,-131.3 1365.21,-134.8 1375.21,-138.3 1375.21,-131.3"/>
</g>
<!-- LocationModule -->
<g id="node10" class="node">
<title>LocationModule</title>
<polygon fill="#8dd3c7" stroke="black" points="1977.81,-84.8 1974.81,-88.8 1953.81,-88.8 1950.81,-84.8 1868.19,-84.8 1868.19,-48.8 1977.81,-48.8 1977.81,-84.8"/>
<text text-anchor="middle" x="1923" y="-62.6" font-family="Times,serif" font-size="14.00">LocationModule</text>
</g>
<!-- LocationModule&#45;&gt;ObservationModule -->
<g id="edge10" class="edge">
<title>LocationModule&#45;&gt;ObservationModule</title>
<path fill="none" stroke="black" d="M1923,-85.02C1923,-103.63 1923,-129.8 1923,-129.8 1923,-129.8 1375.22,-129.8 1375.22,-129.8"/>
<polygon fill="black" stroke="black" points="1375.22,-126.3 1365.22,-129.8 1375.22,-133.3 1375.22,-126.3"/>
</g>
<!-- ObservationRoutingModule -->
<g id="node11" class="node">
<title>ObservationRoutingModule</title>
<polygon fill="#8dd3c7" stroke="black" points="1850.6,-84.8 1847.6,-88.8 1826.6,-88.8 1823.6,-84.8 1677.4,-84.8 1677.4,-48.8 1850.6,-48.8 1850.6,-84.8"/>
<text text-anchor="middle" x="1764" y="-62.6" font-family="Times,serif" font-size="14.00">ObservationRoutingModule</text>
</g>
<!-- ObservationRoutingModule&#45;&gt;ObservationModule -->
<g id="edge11" class="edge">
<title>ObservationRoutingModule&#45;&gt;ObservationModule</title>
<path fill="none" stroke="black" d="M1764,-84.83C1764,-101.86 1764,-124.8 1764,-124.8 1764,-124.8 1375.38,-124.8 1375.38,-124.8"/>
<polygon fill="black" stroke="black" points="1375.38,-121.3 1365.38,-124.8 1375.38,-128.3 1375.38,-121.3"/>
</g>
<!-- PlayerHelperModule -->
<g id="node12" class="node">
<title>PlayerHelperModule</title>
<polygon fill="#8dd3c7" stroke="black" points="1659.91,-84.8 1656.91,-88.8 1635.91,-88.8 1632.91,-84.8 1526.09,-84.8 1526.09,-48.8 1659.91,-48.8 1659.91,-84.8"/>
<text text-anchor="middle" x="1593" y="-62.6" font-family="Times,serif" font-size="14.00">PlayerHelperModule</text>
</g>
<!-- PlayerHelperModule&#45;&gt;ObservationModule -->
<g id="edge12" class="edge">
<title>PlayerHelperModule&#45;&gt;ObservationModule</title>
<path fill="none" stroke="black" d="M1593,-85.04C1593,-100.37 1593,-119.8 1593,-119.8 1593,-119.8 1375.08,-119.8 1375.08,-119.8"/>
<polygon fill="black" stroke="black" points="1375.08,-116.3 1365.08,-119.8 1375.08,-123.3 1375.08,-116.3"/>
</g>
<!-- SharedFeatureModule -->
<g id="node13" class="node">
<title>SharedFeatureModule</title>
<polygon fill="#8dd3c7" stroke="black" points="1508.41,-84.8 1505.41,-88.8 1484.41,-88.8 1481.41,-84.8 1367.59,-84.8 1367.59,-48.8 1508.41,-48.8 1508.41,-84.8"/>
<text text-anchor="middle" x="1438" y="-62.6" font-family="Times,serif" font-size="14.00">SharedFeatureModule</text>
</g>
<!-- SharedFeatureModule&#45;&gt;ObservationModule -->
<g id="edge13" class="edge">
<title>SharedFeatureModule&#45;&gt;ObservationModule</title>
<path fill="none" stroke="black" d="M1367.72,-60.8C1360.16,-60.8 1355.14,-60.8 1355.14,-60.8 1355.14,-60.8 1355.14,-103.52 1355.14,-103.52"/>
<polygon fill="black" stroke="black" points="1351.64,-103.52 1355.14,-113.52 1358.64,-103.52 1351.64,-103.52"/>
</g>
<!-- SharedFeatureModule&#45;&gt;ObservationModule -->
<g id="edge14" class="edge">
<title>SharedFeatureModule&#45;&gt;ObservationModule</title>
<path fill="none" stroke="black" d="M1367.54,-72.8C1362.92,-72.8 1360.06,-72.8 1360.06,-72.8 1360.06,-72.8 1360.06,-103.78 1360.06,-103.78"/>
<polygon fill="black" stroke="black" points="1356.56,-103.78 1360.06,-113.78 1363.56,-103.78 1356.56,-103.78"/>
</g>
<!-- SharedModule -->
<g id="node14" class="node">
<title>SharedModule</title>
<polygon fill="#8dd3c7" stroke="black" points="1350.43,-84.8 1347.43,-88.8 1326.43,-88.8 1323.43,-84.8 1251.57,-84.8 1251.57,-48.8 1350.43,-48.8 1350.43,-84.8"/>
<text text-anchor="middle" x="1301" y="-62.6" font-family="Times,serif" font-size="14.00">SharedModule</text>
</g>
<!-- SharedModule&#45;&gt;ObservationModule -->
<g id="edge15" class="edge">
<title>SharedModule&#45;&gt;ObservationModule</title>
<path fill="none" stroke="black" d="M1317.4,-84.91C1317.4,-84.91 1317.4,-103.79 1317.4,-103.79"/>
<polygon fill="black" stroke="black" points="1313.9,-103.79 1317.4,-113.79 1320.9,-103.79 1313.9,-103.79"/>
</g>
<!-- SharedModule&#45;&gt;ObservationModule -->
<g id="edge16" class="edge">
<title>SharedModule&#45;&gt;ObservationModule</title>
<path fill="none" stroke="black" d="M1284.6,-84.91C1284.6,-84.91 1284.6,-103.79 1284.6,-103.79"/>
<polygon fill="black" stroke="black" points="1281.1,-103.79 1284.6,-113.79 1288.1,-103.79 1281.1,-103.79"/>
</g>
<!-- TelemetryModule -->
<g id="node15" class="node">
<title>TelemetryModule</title>
<polygon fill="#8dd3c7" stroke="black" points="1233.58,-84.8 1230.58,-88.8 1209.58,-88.8 1206.58,-84.8 1116.42,-84.8 1116.42,-48.8 1233.58,-48.8 1233.58,-84.8"/>
<text text-anchor="middle" x="1175" y="-62.6" font-family="Times,serif" font-size="14.00">TelemetryModule</text>
</g>
<!-- TelemetryModule&#45;&gt;ObservationModule -->
<g id="edge17" class="edge">
<title>TelemetryModule&#45;&gt;ObservationModule</title>
<path fill="none" stroke="black" d="M1233.55,-66.8C1240.06,-66.8 1244.4,-66.8 1244.4,-66.8 1244.4,-66.8 1244.4,-103.69 1244.4,-103.69"/>
<polygon fill="black" stroke="black" points="1240.9,-103.69 1244.4,-113.69 1247.9,-103.69 1240.9,-103.69"/>
</g>
</g>
</svg>
