<?xml version="1.0" encoding="UTF-8" standalone="no"?>
<!DOCTYPE svg PUBLIC "-//W3C//DTD SVG 1.1//EN"
 "http://www.w3.org/Graphics/SVG/1.1/DTD/svg11.dtd">
<!-- Generated by graphviz version 5.0.0 (20220707.1540)
 -->
<!-- Title: dependencies Pages: 1 -->
<svg width="2274pt" height="174pt"
 viewBox="0.00 0.00 2274.00 173.80" xmlns="http://www.w3.org/2000/svg" xmlns:xlink="http://www.w3.org/1999/xlink">
<g id="graph0" class="graph" transform="scale(1 1) rotate(0) translate(4 169.8)">
<title>dependencies</title>
<polygon fill="white" stroke="transparent" points="-4,4 -4,-169.8 2270,-169.8 2270,4 -4,4"/>
<text text-anchor="middle" x="1133" y="-8.2" font-family="sans-serif" font-size="14.00">dependencies</text>
<g id="clust1" class="cluster">
<title>cluster_ObservationModule</title>
<polygon fill="none" stroke="black" stroke-dasharray="1,5" points="8,-32.8 8,-157.8 2258,-157.8 2258,-32.8 8,-32.8"/>
</g>
<g id="clust2" class="cluster">
<title>cluster_ObservationModule_declarations</title>
<polygon fill="none" stroke="black" points="1166,-40.8 1166,-92.8 2250,-92.8 2250,-40.8 1166,-40.8"/>
</g>
<g id="clust9" class="cluster">
<title>cluster_ObservationModule_imports</title>
<polygon fill="none" stroke="black" points="16,-40.8 16,-92.8 1158,-92.8 1158,-40.8 16,-40.8"/>
</g>
<!-- AddEntityComponent -->
<g id="node1" class="node">
<title>AddEntityComponent</title>
<polygon fill="#ffffb3" stroke="black" points="2241.66,-84.8 2102.34,-84.8 2102.34,-48.8 2241.66,-48.8 2241.66,-84.8"/>
<text text-anchor="middle" x="2172" y="-62.6" font-family="Times,serif" font-size="14.00">AddEntityComponent</text>
</g>
<!-- ObservationModule -->
<g id="node7" class="node">
<title>ObservationModule</title>
<polygon fill="#8dd3c7" stroke="black" points="1010.98,-149.8 1007.98,-153.8 986.98,-153.8 983.98,-149.8 883.02,-149.8 883.02,-113.8 1010.98,-113.8 1010.98,-149.8"/>
<text text-anchor="middle" x="947" y="-127.6" font-family="Times,serif" font-size="14.00">ObservationModule</text>
</g>
<!-- AddEntityComponent&#45;&gt;ObservationModule -->
<g id="edge1" class="edge">
<title>AddEntityComponent&#45;&gt;ObservationModule</title>
<path fill="none" stroke="black" d="M2172,-84.89C2172,-107.93 2172,-144.8 2172,-144.8 2172,-144.8 1021.14,-144.8 1021.14,-144.8"/>
<polygon fill="black" stroke="black" points="1021.14,-141.3 1011.14,-144.8 1021.14,-148.3 1021.14,-141.3"/>
</g>
<!-- EditSubmissionComponent -->
<g id="node2" class="node">
<title>EditSubmissionComponent</title>
<polygon fill="#ffffb3" stroke="black" points="2084.01,-84.8 1913.99,-84.8 1913.99,-48.8 2084.01,-48.8 2084.01,-84.8"/>
<text text-anchor="middle" x="1999" y="-62.6" font-family="Times,serif" font-size="14.00">EditSubmissionComponent</text>
</g>
<!-- EditSubmissionComponent&#45;&gt;ObservationModule -->
<g id="edge2" class="edge">
<title>EditSubmissionComponent&#45;&gt;ObservationModule</title>
<path fill="none" stroke="black" d="M1999,-84.84C1999,-106.46 1999,-139.8 1999,-139.8 1999,-139.8 1021.22,-139.8 1021.22,-139.8"/>
<polygon fill="black" stroke="black" points="1021.22,-136.3 1011.22,-139.8 1021.22,-143.3 1021.22,-136.3"/>
</g>
<!-- EntityListComponent -->
<g id="node3" class="node">
<title>EntityListComponent</title>
<polygon fill="#ffffb3" stroke="black" points="1895.83,-84.8 1758.17,-84.8 1758.17,-48.8 1895.83,-48.8 1895.83,-84.8"/>
<text text-anchor="middle" x="1827" y="-62.6" font-family="Times,serif" font-size="14.00">EntityListComponent</text>
</g>
<!-- EntityListComponent&#45;&gt;ObservationModule -->
<g id="edge3" class="edge">
<title>EntityListComponent&#45;&gt;ObservationModule</title>
<path fill="none" stroke="black" d="M1827,-85.02C1827,-105.17 1827,-134.8 1827,-134.8 1827,-134.8 1021,-134.8 1021,-134.8"/>
<polygon fill="black" stroke="black" points="1021,-131.3 1011,-134.8 1021,-138.3 1021,-131.3"/>
</g>
<!-- ObservationDetailsComponent -->
<g id="node4" class="node">
<title>ObservationDetailsComponent</title>
<polygon fill="#ffffb3" stroke="black" points="1740.91,-84.8 1551.09,-84.8 1551.09,-48.8 1740.91,-48.8 1740.91,-84.8"/>
<text text-anchor="middle" x="1646" y="-62.6" font-family="Times,serif" font-size="14.00">ObservationDetailsComponent</text>
</g>
<!-- ObservationDetailsComponent&#45;&gt;ObservationModule -->
<g id="edge4" class="edge">
<title>ObservationDetailsComponent&#45;&gt;ObservationModule</title>
<path fill="none" stroke="black" d="M1646,-85.02C1646,-103.63 1646,-129.8 1646,-129.8 1646,-129.8 1021.2,-129.8 1021.2,-129.8"/>
<polygon fill="black" stroke="black" points="1021.2,-126.3 1011.2,-129.8 1021.2,-133.3 1021.2,-126.3"/>
</g>
<!-- ObservationListingComponent -->
<g id="node5" class="node">
<title>ObservationListingComponent</title>
<polygon fill="#ffffb3" stroke="black" points="1533.93,-84.8 1344.07,-84.8 1344.07,-48.8 1533.93,-48.8 1533.93,-84.8"/>
<text text-anchor="middle" x="1439" y="-62.6" font-family="Times,serif" font-size="14.00">ObservationListingComponent</text>
</g>
<!-- ObservationListingComponent&#45;&gt;ObservationModule -->
<g id="edge5" class="edge">
<title>ObservationListingComponent&#45;&gt;ObservationModule</title>
<path fill="none" stroke="black" d="M1439,-84.83C1439,-101.86 1439,-124.8 1439,-124.8 1439,-124.8 1021.07,-124.8 1021.07,-124.8"/>
<polygon fill="black" stroke="black" points="1021.07,-121.3 1011.07,-124.8 1021.07,-128.3 1021.07,-121.3"/>
</g>
<!-- SubmissionsComponent -->
<g id="node6" class="node">
<title>SubmissionsComponent</title>
<polygon fill="#ffffb3" stroke="black" points="1326.13,-84.8 1173.87,-84.8 1173.87,-48.8 1326.13,-48.8 1326.13,-84.8"/>
<text text-anchor="middle" x="1250" y="-62.6" font-family="Times,serif" font-size="14.00">SubmissionsComponent</text>
</g>
<!-- SubmissionsComponent&#45;&gt;ObservationModule -->
<g id="edge6" class="edge">
<title>SubmissionsComponent&#45;&gt;ObservationModule</title>
<path fill="none" stroke="black" d="M1250,-85.04C1250,-100.37 1250,-119.8 1250,-119.8 1250,-119.8 1021.26,-119.8 1021.26,-119.8"/>
<polygon fill="black" stroke="black" points="1021.26,-116.3 1011.26,-119.8 1021.26,-123.3 1021.26,-116.3"/>
</g>
<!-- ContentSearchModule -->
<g id="node8" class="node">
<title>ContentSearchModule</title>
<polygon fill="#8dd3c7" stroke="black" points="1149.97,-84.8 1146.97,-88.8 1125.97,-88.8 1122.97,-84.8 1008.03,-84.8 1008.03,-48.8 1149.97,-48.8 1149.97,-84.8"/>
<text text-anchor="middle" x="1079" y="-62.6" font-family="Times,serif" font-size="14.00">ContentSearchModule</text>
</g>
<!-- ContentSearchModule&#45;&gt;ObservationModule -->
<g id="edge7" class="edge">
<title>ContentSearchModule&#45;&gt;ObservationModule</title>
<path fill="none" stroke="black" d="M1007.74,-66.8C1002.49,-66.8 999.2,-66.8 999.2,-66.8 999.2,-66.8 999.2,-103.69 999.2,-103.69"/>
<polygon fill="black" stroke="black" points="995.7,-103.69 999.2,-113.69 1002.7,-103.69 995.7,-103.69"/>
</g>
<!-- CoreModule -->
<g id="node9" class="node">
<title>CoreModule</title>
<polygon fill="#8dd3c7" stroke="black" points="990.27,-84.8 987.27,-88.8 966.27,-88.8 963.27,-84.8 903.73,-84.8 903.73,-48.8 990.27,-48.8 990.27,-84.8"/>
<text text-anchor="middle" x="947" y="-62.6" font-family="Times,serif" font-size="14.00">CoreModule</text>
</g>
<!-- CoreModule&#45;&gt;ObservationModule -->
<g id="edge8" class="edge">
<title>CoreModule&#45;&gt;ObservationModule</title>
<path fill="none" stroke="black" d="M961.46,-84.91C961.46,-84.91 961.46,-103.79 961.46,-103.79"/>
<polygon fill="black" stroke="black" points="957.96,-103.79 961.46,-113.79 964.96,-103.79 957.96,-103.79"/>
</g>
<!-- CoreModule&#45;&gt;ObservationModule -->
<g id="edge9" class="edge">
<title>CoreModule&#45;&gt;ObservationModule</title>
<path fill="none" stroke="black" d="M932.54,-84.91C932.54,-84.91 932.54,-103.79 932.54,-103.79"/>
<polygon fill="black" stroke="black" points="929.04,-103.79 932.54,-113.79 936.04,-103.79 929.04,-103.79"/>
</g>
<!-- LocationModule -->
<g id="node10" class="node">
<title>LocationModule</title>
<polygon fill="#8dd3c7" stroke="black" points="885.81,-84.8 882.81,-88.8 861.81,-88.8 858.81,-84.8 776.19,-84.8 776.19,-48.8 885.81,-48.8 885.81,-84.8"/>
<text text-anchor="middle" x="831" y="-62.6" font-family="Times,serif" font-size="14.00">LocationModule</text>
</g>
<!-- LocationModule&#45;&gt;ObservationModule -->
<g id="edge10" class="edge">
<title>LocationModule&#45;&gt;ObservationModule</title>
<path fill="none" stroke="black" d="M885.79,-66.8C891.14,-66.8 894.64,-66.8 894.64,-66.8 894.64,-66.8 894.64,-103.69 894.64,-103.69"/>
<polygon fill="black" stroke="black" points="891.14,-103.69 894.64,-113.69 898.14,-103.69 891.14,-103.69"/>
</g>
<!-- ObservationRoutingModule -->
<g id="node11" class="node">
<title>ObservationRoutingModule</title>
<polygon fill="#8dd3c7" stroke="black" points="758.6,-84.8 755.6,-88.8 734.6,-88.8 731.6,-84.8 585.4,-84.8 585.4,-48.8 758.6,-48.8 758.6,-84.8"/>
<text text-anchor="middle" x="672" y="-62.6" font-family="Times,serif" font-size="14.00">ObservationRoutingModule</text>
</g>
<!-- ObservationRoutingModule&#45;&gt;ObservationModule -->
<g id="edge11" class="edge">
<title>ObservationRoutingModule&#45;&gt;ObservationModule</title>
<path fill="none" stroke="black" d="M672,-84.99C672,-99.98 672,-118.8 672,-118.8 672,-118.8 872.87,-118.8 872.87,-118.8"/>
<polygon fill="black" stroke="black" points="872.87,-122.3 882.87,-118.8 872.87,-115.3 872.87,-122.3"/>
</g>
<!-- PlayerHelperModule -->
<g id="node12" class="node">
<title>PlayerHelperModule</title>
<polygon fill="#8dd3c7" stroke="black" points="567.91,-84.8 564.91,-88.8 543.91,-88.8 540.91,-84.8 434.09,-84.8 434.09,-48.8 567.91,-48.8 567.91,-84.8"/>
<text text-anchor="middle" x="501" y="-62.6" font-family="Times,serif" font-size="14.00">PlayerHelperModule</text>
</g>
<!-- PlayerHelperModule&#45;&gt;ObservationModule -->
<g id="edge12" class="edge">
<title>PlayerHelperModule&#45;&gt;ObservationModule</title>
<path fill="none" stroke="black" d="M501,-84.83C501,-101.2 501,-122.8 501,-122.8 501,-122.8 872.62,-122.8 872.62,-122.8"/>
<polygon fill="black" stroke="black" points="872.62,-126.3 882.62,-122.8 872.62,-119.3 872.62,-126.3"/>
</g>
<!-- SharedFeatureModule -->
<g id="node13" class="node">
<title>SharedFeatureModule</title>
<polygon fill="#8dd3c7" stroke="black" points="416.41,-84.8 413.41,-88.8 392.41,-88.8 389.41,-84.8 275.59,-84.8 275.59,-48.8 416.41,-48.8 416.41,-84.8"/>
<text text-anchor="middle" x="346" y="-62.6" font-family="Times,serif" font-size="14.00">SharedFeatureModule</text>
</g>
<!-- SharedFeatureModule&#45;&gt;ObservationModule -->
<g id="edge13" class="edge">
<title>SharedFeatureModule&#45;&gt;ObservationModule</title>
<path fill="none" stroke="black" d="M322.6,-84.91C322.6,-104.14 322.6,-131.8 322.6,-131.8 322.6,-131.8 872.82,-131.8 872.82,-131.8"/>
<polygon fill="black" stroke="black" points="872.82,-135.3 882.82,-131.8 872.82,-128.3 872.82,-135.3"/>
</g>
<!-- SharedFeatureModule&#45;&gt;ObservationModule -->
<g id="edge14" class="edge">
<title>SharedFeatureModule&#45;&gt;ObservationModule</title>
<path fill="none" stroke="black" d="M369.4,-85.1C369.4,-103.07 369.4,-127.8 369.4,-127.8 369.4,-127.8 872.98,-127.8 872.98,-127.8"/>
<polygon fill="black" stroke="black" points="872.98,-131.3 882.98,-127.8 872.98,-124.3 872.98,-131.3"/>
</g>
<!-- SharedModule -->
<g id="node14" class="node">
<title>SharedModule</title>
<polygon fill="#8dd3c7" stroke="black" points="258.43,-84.8 255.43,-88.8 234.43,-88.8 231.43,-84.8 159.57,-84.8 159.57,-48.8 258.43,-48.8 258.43,-84.8"/>
<text text-anchor="middle" x="209" y="-62.6" font-family="Times,serif" font-size="14.00">SharedModule</text>
</g>
<!-- SharedModule&#45;&gt;ObservationModule -->
<g id="edge15" class="edge">
<title>SharedModule&#45;&gt;ObservationModule</title>
<path fill="none" stroke="black" d="M225.4,-84.83C225.4,-105.57 225.4,-136.8 225.4,-136.8 225.4,-136.8 872.96,-136.8 872.96,-136.8"/>
<polygon fill="black" stroke="black" points="872.96,-140.3 882.96,-136.8 872.96,-133.3 872.96,-140.3"/>
</g>
<!-- SharedModule&#45;&gt;ObservationModule -->
<g id="edge16" class="edge">
<title>SharedModule&#45;&gt;ObservationModule</title>
<path fill="none" stroke="black" d="M192.6,-85.09C192.6,-107.01 192.6,-140.8 192.6,-140.8 192.6,-140.8 873.01,-140.8 873.01,-140.8"/>
<polygon fill="black" stroke="black" points="873.01,-144.3 883.01,-140.8 873.01,-137.3 873.01,-144.3"/>
</g>
<!-- TelemetryModule -->
<g id="node15" class="node">
<title>TelemetryModule</title>
<polygon fill="#8dd3c7" stroke="black" points="141.58,-84.8 138.58,-88.8 117.58,-88.8 114.58,-84.8 24.42,-84.8 24.42,-48.8 141.58,-48.8 141.58,-84.8"/>
<text text-anchor="middle" x="83" y="-62.6" font-family="Times,serif" font-size="14.00">TelemetryModule</text>
</g>
<!-- TelemetryModule&#45;&gt;ObservationModule -->
<g id="edge17" class="edge">
<title>TelemetryModule&#45;&gt;ObservationModule</title>
<path fill="none" stroke="black" d="M83,-85.12C83,-108.46 83,-145.8 83,-145.8 83,-145.8 872.77,-145.8 872.77,-145.8"/>
<polygon fill="black" stroke="black" points="872.77,-149.3 882.77,-145.8 872.77,-142.3 872.77,-149.3"/>
</g>
</g>
</svg>
