<?xml version="1.0" encoding="UTF-8" standalone="no"?>
<!DOCTYPE svg PUBLIC "-//W3C//DTD SVG 1.1//EN"
 "http://www.w3.org/Graphics/SVG/1.1/DTD/svg11.dtd">
<!-- Generated by graphviz version 5.0.0 (20220707.1540)
 -->
<!-- Title: dependencies Pages: 1 -->
<svg width="3422pt" height="174pt"
 viewBox="0.00 0.00 3422.00 173.80" xmlns="http://www.w3.org/2000/svg" xmlns:xlink="http://www.w3.org/1999/xlink">
<g id="graph0" class="graph" transform="scale(1 1) rotate(0) translate(4 169.8)">
<title>dependencies</title>
<polygon fill="white" stroke="transparent" points="-4,4 -4,-169.8 3418,-169.8 3418,4 -4,4"/>
<text text-anchor="middle" x="1707" y="-8.2" font-family="sans-serif" font-size="14.00">dependencies</text>
<g id="clust1" class="cluster">
<title>cluster_CourseConsumptionModule</title>
<polygon fill="none" stroke="black" stroke-dasharray="1,5" points="8,-32.8 8,-157.8 3406,-157.8 3406,-32.8 8,-32.8"/>
</g>
<g id="clust13" class="cluster">
<title>cluster_CourseConsumptionModule_imports</title>
<polygon fill="none" stroke="black" points="2094,-40.8 2094,-92.8 3398,-92.8 3398,-40.8 2094,-40.8"/>
</g>
<g id="clust2" class="cluster">
<title>cluster_CourseConsumptionModule_declarations</title>
<polygon fill="none" stroke="black" points="16,-40.8 16,-92.8 2086,-92.8 2086,-40.8 16,-40.8"/>
</g>
<!-- AssessmentPlayerComponent -->
<g id="node1" class="node">
<title>AssessmentPlayerComponent</title>
<polygon fill="#ffffb3" stroke="black" points="2077.71,-84.8 1894.29,-84.8 1894.29,-48.8 2077.71,-48.8 2077.71,-84.8"/>
<text text-anchor="middle" x="1986" y="-62.6" font-family="Times,serif" font-size="14.00">AssessmentPlayerComponent</text>
</g>
<!-- CourseConsumptionModule -->
<g id="node11" class="node">
<title>CourseConsumptionModule</title>
<polygon fill="#8dd3c7" stroke="black" points="2073.17,-149.8 2070.17,-153.8 2049.17,-153.8 2046.17,-149.8 1898.83,-149.8 1898.83,-113.8 2073.17,-113.8 2073.17,-149.8"/>
<text text-anchor="middle" x="1986" y="-127.6" font-family="Times,serif" font-size="14.00">CourseConsumptionModule</text>
</g>
<!-- AssessmentPlayerComponent&#45;&gt;CourseConsumptionModule -->
<g id="edge1" class="edge">
<title>AssessmentPlayerComponent&#45;&gt;CourseConsumptionModule</title>
<path fill="none" stroke="black" d="M1956.89,-84.91C1956.89,-84.91 1956.89,-103.79 1956.89,-103.79"/>
<polygon fill="black" stroke="black" points="1953.39,-103.79 1956.89,-113.79 1960.39,-103.79 1953.39,-103.79"/>
</g>
<!-- AssessmentPlayerComponent&#45;&gt;CourseConsumptionModule -->
<g id="edge2" class="edge">
<title>AssessmentPlayerComponent&#45;&gt;CourseConsumptionModule</title>
<path fill="none" stroke="black" d="M2015.11,-84.91C2015.11,-84.91 2015.11,-103.79 2015.11,-103.79"/>
<polygon fill="black" stroke="black" points="2011.61,-103.79 2015.11,-113.79 2018.61,-103.79 2011.61,-103.79"/>
</g>
<!-- BatchDetailsComponent -->
<g id="node2" class="node">
<title>BatchDetailsComponent</title>
<polygon fill="#ffffb3" stroke="black" points="1876.64,-84.8 1723.36,-84.8 1723.36,-48.8 1876.64,-48.8 1876.64,-84.8"/>
<text text-anchor="middle" x="1800" y="-62.6" font-family="Times,serif" font-size="14.00">BatchDetailsComponent</text>
</g>
<!-- BatchDetailsComponent&#45;&gt;CourseConsumptionModule -->
<g id="edge3" class="edge">
<title>BatchDetailsComponent&#45;&gt;CourseConsumptionModule</title>
<path fill="none" stroke="black" d="M1800,-84.92C1800,-99.58 1800,-117.8 1800,-117.8 1800,-117.8 1888.72,-117.8 1888.72,-117.8"/>
<polygon fill="black" stroke="black" points="1888.72,-121.3 1898.72,-117.8 1888.72,-114.3 1888.72,-121.3"/>
</g>
<!-- CertificateNameUpdatePopupComponent -->
<g id="node3" class="node">
<title>CertificateNameUpdatePopupComponent</title>
<polygon fill="#ffffb3" stroke="black" points="1705.05,-84.8 1454.95,-84.8 1454.95,-48.8 1705.05,-48.8 1705.05,-84.8"/>
<text text-anchor="middle" x="1580" y="-62.6" font-family="Times,serif" font-size="14.00">CertificateNameUpdatePopupComponent</text>
</g>
<!-- CertificateNameUpdatePopupComponent&#45;&gt;CourseConsumptionModule -->
<g id="edge4" class="edge">
<title>CertificateNameUpdatePopupComponent&#45;&gt;CourseConsumptionModule</title>
<path fill="none" stroke="black" d="M1580,-84.81C1580,-100.85 1580,-121.8 1580,-121.8 1580,-121.8 1888.4,-121.8 1888.4,-121.8"/>
<polygon fill="black" stroke="black" points="1888.4,-125.3 1898.4,-121.8 1888.4,-118.3 1888.4,-125.3"/>
</g>
<!-- CourseCompletionComponent -->
<g id="node4" class="node">
<title>CourseCompletionComponent</title>
<polygon fill="#ffffb3" stroke="black" points="1436.6,-84.8 1249.4,-84.8 1249.4,-48.8 1436.6,-48.8 1436.6,-84.8"/>
<text text-anchor="middle" x="1343" y="-62.6" font-family="Times,serif" font-size="14.00">CourseCompletionComponent</text>
</g>
<!-- CourseCompletionComponent&#45;&gt;CourseConsumptionModule -->
<g id="edge5" class="edge">
<title>CourseCompletionComponent&#45;&gt;CourseConsumptionModule</title>
<path fill="none" stroke="black" d="M1343,-84.83C1343,-101.86 1343,-124.8 1343,-124.8 1343,-124.8 1888.61,-124.8 1888.61,-124.8"/>
<polygon fill="black" stroke="black" points="1888.61,-128.3 1898.61,-124.8 1888.61,-121.3 1888.61,-128.3"/>
</g>
<!-- CourseConsumptionHeaderComponent -->
<g id="node5" class="node">
<title>CourseConsumptionHeaderComponent</title>
<polygon fill="#ffffb3" stroke="black" points="1231.36,-84.8 994.64,-84.8 994.64,-48.8 1231.36,-48.8 1231.36,-84.8"/>
<text text-anchor="middle" x="1113" y="-62.6" font-family="Times,serif" font-size="14.00">CourseConsumptionHeaderComponent</text>
</g>
<!-- CourseConsumptionHeaderComponent&#45;&gt;CourseConsumptionModule -->
<g id="edge6" class="edge">
<title>CourseConsumptionHeaderComponent&#45;&gt;CourseConsumptionModule</title>
<path fill="none" stroke="black" d="M1113,-85.07C1113,-103.36 1113,-128.8 1113,-128.8 1113,-128.8 1888.7,-128.8 1888.7,-128.8"/>
<polygon fill="black" stroke="black" points="1888.7,-132.3 1898.7,-128.8 1888.7,-125.3 1888.7,-132.3"/>
</g>
<!-- CourseConsumptionPageComponent -->
<g id="node6" class="node">
<title>CourseConsumptionPageComponent</title>
<polygon fill="#ffffb3" stroke="black" points="976.66,-84.8 753.34,-84.8 753.34,-48.8 976.66,-48.8 976.66,-84.8"/>
<text text-anchor="middle" x="865" y="-62.6" font-family="Times,serif" font-size="14.00">CourseConsumptionPageComponent</text>
</g>
<!-- CourseConsumptionPageComponent&#45;&gt;CourseConsumptionModule -->
<g id="edge7" class="edge">
<title>CourseConsumptionPageComponent&#45;&gt;CourseConsumptionModule</title>
<path fill="none" stroke="black" d="M865,-84.91C865,-104.14 865,-131.8 865,-131.8 865,-131.8 1888.5,-131.8 1888.5,-131.8"/>
<polygon fill="black" stroke="black" points="1888.5,-135.3 1898.5,-131.8 1888.5,-128.3 1888.5,-135.3"/>
</g>
<!-- CourseDetailsComponent -->
<g id="node7" class="node">
<title>CourseDetailsComponent</title>
<polygon fill="#ffffb3" stroke="black" points="735.15,-84.8 574.85,-84.8 574.85,-48.8 735.15,-48.8 735.15,-84.8"/>
<text text-anchor="middle" x="655" y="-62.6" font-family="Times,serif" font-size="14.00">CourseDetailsComponent</text>
</g>
<!-- CourseDetailsComponent&#45;&gt;CourseConsumptionModule -->
<g id="edge8" class="edge">
<title>CourseDetailsComponent&#45;&gt;CourseConsumptionModule</title>
<path fill="none" stroke="black" d="M655,-84.93C655,-105.37 655,-135.8 655,-135.8 655,-135.8 1888.67,-135.8 1888.67,-135.8"/>
<polygon fill="black" stroke="black" points="1888.67,-139.3 1898.67,-135.8 1888.67,-132.3 1888.67,-139.3"/>
</g>
<!-- CoursePlayerComponent -->
<g id="node8" class="node">
<title>CoursePlayerComponent</title>
<polygon fill="#ffffb3" stroke="black" points="556.26,-84.8 399.74,-84.8 399.74,-48.8 556.26,-48.8 556.26,-84.8"/>
<text text-anchor="middle" x="478" y="-62.6" font-family="Times,serif" font-size="14.00">CoursePlayerComponent</text>
</g>
<!-- CoursePlayerComponent&#45;&gt;CourseConsumptionModule -->
<g id="edge9" class="edge">
<title>CoursePlayerComponent&#45;&gt;CourseConsumptionModule</title>
<path fill="none" stroke="black" d="M478,-84.84C478,-106.46 478,-139.8 478,-139.8 478,-139.8 1888.68,-139.8 1888.68,-139.8"/>
<polygon fill="black" stroke="black" points="1888.68,-143.3 1898.68,-139.8 1888.68,-136.3 1888.68,-143.3"/>
</g>
<!-- CurriculumCardComponent -->
<g id="node9" class="node">
<title>CurriculumCardComponent</title>
<polygon fill="#ffffb3" stroke="black" points="381.59,-84.8 208.41,-84.8 208.41,-48.8 381.59,-48.8 381.59,-84.8"/>
<text text-anchor="middle" x="295" y="-62.6" font-family="Times,serif" font-size="14.00">CurriculumCardComponent</text>
</g>
<!-- CurriculumCardComponent&#45;&gt;CourseConsumptionModule -->
<g id="edge10" class="edge">
<title>CurriculumCardComponent&#45;&gt;CourseConsumptionModule</title>
<path fill="none" stroke="black" d="M295,-84.81C295,-107.29 295,-142.8 295,-142.8 295,-142.8 1888.65,-142.8 1888.65,-142.8"/>
<polygon fill="black" stroke="black" points="1888.65,-146.3 1898.65,-142.8 1888.65,-139.3 1888.65,-146.3"/>
</g>
<!-- UnEnrollBatchComponent -->
<g id="node10" class="node">
<title>UnEnrollBatchComponent</title>
<polygon fill="#ffffb3" stroke="black" points="190.09,-84.8 23.91,-84.8 23.91,-48.8 190.09,-48.8 190.09,-84.8"/>
<text text-anchor="middle" x="107" y="-62.6" font-family="Times,serif" font-size="14.00">UnEnrollBatchComponent</text>
</g>
<!-- UnEnrollBatchComponent&#45;&gt;CourseConsumptionModule -->
<g id="edge11" class="edge">
<title>UnEnrollBatchComponent&#45;&gt;CourseConsumptionModule</title>
<path fill="none" stroke="black" d="M107,-84.95C107,-108.56 107,-146.8 107,-146.8 107,-146.8 1888.83,-146.8 1888.83,-146.8"/>
<polygon fill="black" stroke="black" points="1888.83,-150.3 1898.83,-146.8 1888.83,-143.3 1888.83,-150.3"/>
</g>
<!-- CoreModule -->
<g id="node12" class="node">
<title>CoreModule</title>
<polygon fill="#8dd3c7" stroke="black" points="3390.27,-84.8 3387.27,-88.8 3366.27,-88.8 3363.27,-84.8 3303.73,-84.8 3303.73,-48.8 3390.27,-48.8 3390.27,-84.8"/>
<text text-anchor="middle" x="3347" y="-62.6" font-family="Times,serif" font-size="14.00">CoreModule</text>
</g>
<!-- CoreModule&#45;&gt;CourseConsumptionModule -->
<g id="edge12" class="edge">
<title>CoreModule&#45;&gt;CourseConsumptionModule</title>
<path fill="none" stroke="black" d="M3347,-84.95C3347,-108.56 3347,-146.8 3347,-146.8 3347,-146.8 2083.21,-146.8 2083.21,-146.8"/>
<polygon fill="black" stroke="black" points="2083.21,-143.3 2073.21,-146.8 2083.21,-150.3 2083.21,-143.3"/>
</g>
<!-- CourseConsumptionRoutingModule -->
<g id="node13" class="node">
<title>CourseConsumptionRoutingModule</title>
<polygon fill="#8dd3c7" stroke="black" points="3285.79,-84.8 3282.79,-88.8 3261.79,-88.8 3258.79,-84.8 3066.21,-84.8 3066.21,-48.8 3285.79,-48.8 3285.79,-84.8"/>
<text text-anchor="middle" x="3176" y="-62.6" font-family="Times,serif" font-size="14.00">CourseConsumptionRoutingModule</text>
</g>
<!-- CourseConsumptionRoutingModule&#45;&gt;CourseConsumptionModule -->
<g id="edge13" class="edge">
<title>CourseConsumptionRoutingModule&#45;&gt;CourseConsumptionModule</title>
<path fill="none" stroke="black" d="M3176,-84.81C3176,-107.29 3176,-142.8 3176,-142.8 3176,-142.8 2083.5,-142.8 2083.5,-142.8"/>
<polygon fill="black" stroke="black" points="2083.5,-139.3 2073.5,-142.8 2083.5,-146.3 2083.5,-139.3"/>
</g>
<!-- DiscussionModule -->
<g id="node14" class="node">
<title>DiscussionModule</title>
<polygon fill="#8dd3c7" stroke="black" points="3048.5,-84.8 3045.5,-88.8 3024.5,-88.8 3021.5,-84.8 2927.5,-84.8 2927.5,-48.8 3048.5,-48.8 3048.5,-84.8"/>
<text text-anchor="middle" x="2988" y="-62.6" font-family="Times,serif" font-size="14.00">DiscussionModule</text>
</g>
<!-- DiscussionModule&#45;&gt;CourseConsumptionModule -->
<g id="edge14" class="edge">
<title>DiscussionModule&#45;&gt;CourseConsumptionModule</title>
<path fill="none" stroke="black" d="M2988,-84.84C2988,-106.46 2988,-139.8 2988,-139.8 2988,-139.8 2083.6,-139.8 2083.6,-139.8"/>
<polygon fill="black" stroke="black" points="2083.6,-136.3 2073.6,-139.8 2083.6,-143.3 2083.6,-136.3"/>
</g>
<!-- GroupsModule -->
<g id="node15" class="node">
<title>GroupsModule</title>
<polygon fill="#8dd3c7" stroke="black" points="2909.27,-84.8 2906.27,-88.8 2885.27,-88.8 2882.27,-84.8 2808.73,-84.8 2808.73,-48.8 2909.27,-48.8 2909.27,-84.8"/>
<text text-anchor="middle" x="2859" y="-62.6" font-family="Times,serif" font-size="14.00">GroupsModule</text>
</g>
<!-- GroupsModule&#45;&gt;CourseConsumptionModule -->
<g id="edge15" class="edge">
<title>GroupsModule&#45;&gt;CourseConsumptionModule</title>
<path fill="none" stroke="black" d="M2859,-84.93C2859,-105.37 2859,-135.8 2859,-135.8 2859,-135.8 2083.3,-135.8 2083.3,-135.8"/>
<polygon fill="black" stroke="black" points="2083.3,-132.3 2073.3,-135.8 2083.3,-139.3 2083.3,-132.3"/>
</g>
<!-- NotificationModule -->
<g id="node16" class="node">
<title>NotificationModule</title>
<polygon fill="#8dd3c7" stroke="black" points="2790.7,-84.8 2787.7,-88.8 2766.7,-88.8 2763.7,-84.8 2663.3,-84.8 2663.3,-48.8 2790.7,-48.8 2790.7,-84.8"/>
<text text-anchor="middle" x="2727" y="-62.6" font-family="Times,serif" font-size="14.00">NotificationModule</text>
</g>
<!-- NotificationModule&#45;&gt;CourseConsumptionModule -->
<g id="edge16" class="edge">
<title>NotificationModule&#45;&gt;CourseConsumptionModule</title>
<path fill="none" stroke="black" d="M2727,-84.91C2727,-104.14 2727,-131.8 2727,-131.8 2727,-131.8 2083.18,-131.8 2083.18,-131.8"/>
<polygon fill="black" stroke="black" points="2083.18,-128.3 2073.18,-131.8 2083.18,-135.3 2083.18,-128.3"/>
</g>
<!-- PlayerHelperModule -->
<g id="node17" class="node">
<title>PlayerHelperModule</title>
<polygon fill="#8dd3c7" stroke="black" points="2645.91,-84.8 2642.91,-88.8 2621.91,-88.8 2618.91,-84.8 2512.09,-84.8 2512.09,-48.8 2645.91,-48.8 2645.91,-84.8"/>
<text text-anchor="middle" x="2579" y="-62.6" font-family="Times,serif" font-size="14.00">PlayerHelperModule</text>
</g>
<!-- PlayerHelperModule&#45;&gt;CourseConsumptionModule -->
<g id="edge17" class="edge">
<title>PlayerHelperModule&#45;&gt;CourseConsumptionModule</title>
<path fill="none" stroke="black" d="M2579,-85.07C2579,-103.36 2579,-128.8 2579,-128.8 2579,-128.8 2083.18,-128.8 2083.18,-128.8"/>
<polygon fill="black" stroke="black" points="2083.18,-125.3 2073.18,-128.8 2083.18,-132.3 2083.18,-125.3"/>
</g>
<!-- SharedFeatureModule -->
<g id="node18" class="node">
<title>SharedFeatureModule</title>
<polygon fill="#8dd3c7" stroke="black" points="2494.41,-84.8 2491.41,-88.8 2470.41,-88.8 2467.41,-84.8 2353.59,-84.8 2353.59,-48.8 2494.41,-48.8 2494.41,-84.8"/>
<text text-anchor="middle" x="2424" y="-62.6" font-family="Times,serif" font-size="14.00">SharedFeatureModule</text>
</g>
<!-- SharedFeatureModule&#45;&gt;CourseConsumptionModule -->
<g id="edge18" class="edge">
<title>SharedFeatureModule&#45;&gt;CourseConsumptionModule</title>
<path fill="none" stroke="black" d="M2424,-84.83C2424,-101.86 2424,-124.8 2424,-124.8 2424,-124.8 2083.32,-124.8 2083.32,-124.8"/>
<polygon fill="black" stroke="black" points="2083.32,-121.3 2073.32,-124.8 2083.32,-128.3 2083.32,-121.3"/>
</g>
<!-- SharedModule -->
<g id="node19" class="node">
<title>SharedModule</title>
<polygon fill="#8dd3c7" stroke="black" points="2336.43,-84.8 2333.43,-88.8 2312.43,-88.8 2309.43,-84.8 2237.57,-84.8 2237.57,-48.8 2336.43,-48.8 2336.43,-84.8"/>
<text text-anchor="middle" x="2287" y="-62.6" font-family="Times,serif" font-size="14.00">SharedModule</text>
</g>
<!-- SharedModule&#45;&gt;CourseConsumptionModule -->
<g id="edge19" class="edge">
<title>SharedModule&#45;&gt;CourseConsumptionModule</title>
<path fill="none" stroke="black" d="M2287,-84.81C2287,-100.85 2287,-121.8 2287,-121.8 2287,-121.8 2083.47,-121.8 2083.47,-121.8"/>
<polygon fill="black" stroke="black" points="2083.47,-118.3 2073.47,-121.8 2083.47,-125.3 2083.47,-118.3"/>
</g>
<!-- TelemetryModule -->
<g id="node20" class="node">
<title>TelemetryModule</title>
<polygon fill="#8dd3c7" stroke="black" points="2219.58,-84.8 2216.58,-88.8 2195.58,-88.8 2192.58,-84.8 2102.42,-84.8 2102.42,-48.8 2219.58,-48.8 2219.58,-84.8"/>
<text text-anchor="middle" x="2161" y="-62.6" font-family="Times,serif" font-size="14.00">TelemetryModule</text>
</g>
<!-- TelemetryModule&#45;&gt;CourseConsumptionModule -->
<g id="edge20" class="edge">
<title>TelemetryModule&#45;&gt;CourseConsumptionModule</title>
<path fill="none" stroke="black" d="M2161,-84.92C2161,-99.58 2161,-117.8 2161,-117.8 2161,-117.8 2083.24,-117.8 2083.24,-117.8"/>
<polygon fill="black" stroke="black" points="2083.24,-114.3 2073.24,-117.8 2083.24,-121.3 2083.24,-114.3"/>
</g>
</g>
</svg>
