<?xml version="1.0" encoding="UTF-8" standalone="no"?>
<!DOCTYPE svg PUBLIC "-//W3C//DTD SVG 1.1//EN"
 "http://www.w3.org/Graphics/SVG/1.1/DTD/svg11.dtd">
<!-- Generated by graphviz version 5.0.0 (20220707.1540)
 -->
<!-- Title: dependencies Pages: 1 -->
<svg width="3422pt" height="174pt"
 viewBox="0.00 0.00 3422.00 173.80" xmlns="http://www.w3.org/2000/svg" xmlns:xlink="http://www.w3.org/1999/xlink">
<g id="graph0" class="graph" transform="scale(1 1) rotate(0) translate(4 169.8)">
<title>dependencies</title>
<polygon fill="white" stroke="transparent" points="-4,4 -4,-169.8 3418,-169.8 3418,4 -4,4"/>
<text text-anchor="middle" x="1707" y="-8.2" font-family="sans-serif" font-size="14.00">dependencies</text>
<g id="clust1" class="cluster">
<title>cluster_CourseConsumptionModule</title>
<polygon fill="none" stroke="black" stroke-dasharray="1,5" points="8,-32.8 8,-157.8 3406,-157.8 3406,-32.8 8,-32.8"/>
</g>
<g id="clust2" class="cluster">
<title>cluster_CourseConsumptionModule_declarations</title>
<polygon fill="none" stroke="black" points="1328,-40.8 1328,-92.8 3398,-92.8 3398,-40.8 1328,-40.8"/>
</g>
<g id="clust13" class="cluster">
<title>cluster_CourseConsumptionModule_imports</title>
<polygon fill="none" stroke="black" points="16,-40.8 16,-92.8 1320,-92.8 1320,-40.8 16,-40.8"/>
</g>
<!-- AssessmentPlayerComponent -->
<g id="node1" class="node">
<title>AssessmentPlayerComponent</title>
<polygon fill="#ffffb3" stroke="black" points="3389.71,-84.8 3206.29,-84.8 3206.29,-48.8 3389.71,-48.8 3389.71,-84.8"/>
<text text-anchor="middle" x="3298" y="-62.6" font-family="Times,serif" font-size="14.00">AssessmentPlayerComponent</text>
</g>
<!-- CourseConsumptionModule -->
<g id="node11" class="node">
<title>CourseConsumptionModule</title>
<polygon fill="#8dd3c7" stroke="black" points="1600.17,-149.8 1597.17,-153.8 1576.17,-153.8 1573.17,-149.8 1425.83,-149.8 1425.83,-113.8 1600.17,-113.8 1600.17,-149.8"/>
<text text-anchor="middle" x="1513" y="-127.6" font-family="Times,serif" font-size="14.00">CourseConsumptionModule</text>
</g>
<!-- AssessmentPlayerComponent&#45;&gt;CourseConsumptionModule -->
<g id="edge1" class="edge">
<title>AssessmentPlayerComponent&#45;&gt;CourseConsumptionModule</title>
<path fill="none" stroke="black" d="M3328.53,-84.95C3328.53,-108.56 3328.53,-146.8 3328.53,-146.8 3328.53,-146.8 1610.26,-146.8 1610.26,-146.8"/>
<polygon fill="black" stroke="black" points="1610.26,-143.3 1600.26,-146.8 1610.26,-150.3 1610.26,-143.3"/>
</g>
<!-- AssessmentPlayerComponent&#45;&gt;CourseConsumptionModule -->
<g id="edge2" class="edge">
<title>AssessmentPlayerComponent&#45;&gt;CourseConsumptionModule</title>
<path fill="none" stroke="black" d="M3267.47,-84.81C3267.47,-107.29 3267.47,-142.8 3267.47,-142.8 3267.47,-142.8 1610.3,-142.8 1610.3,-142.8"/>
<polygon fill="black" stroke="black" points="1610.3,-139.3 1600.3,-142.8 1610.3,-146.3 1610.3,-139.3"/>
</g>
<!-- BatchDetailsComponent -->
<g id="node2" class="node">
<title>BatchDetailsComponent</title>
<polygon fill="#ffffb3" stroke="black" points="3188.64,-84.8 3035.36,-84.8 3035.36,-48.8 3188.64,-48.8 3188.64,-84.8"/>
<text text-anchor="middle" x="3112" y="-62.6" font-family="Times,serif" font-size="14.00">BatchDetailsComponent</text>
</g>
<!-- BatchDetailsComponent&#45;&gt;CourseConsumptionModule -->
<g id="edge3" class="edge">
<title>BatchDetailsComponent&#45;&gt;CourseConsumptionModule</title>
<path fill="none" stroke="black" d="M3112,-84.84C3112,-106.46 3112,-139.8 3112,-139.8 3112,-139.8 1610.39,-139.8 1610.39,-139.8"/>
<polygon fill="black" stroke="black" points="1610.39,-136.3 1600.39,-139.8 1610.39,-143.3 1610.39,-136.3"/>
</g>
<!-- CertificateNameUpdatePopupComponent -->
<g id="node3" class="node">
<title>CertificateNameUpdatePopupComponent</title>
<polygon fill="#ffffb3" stroke="black" points="3017.05,-84.8 2766.95,-84.8 2766.95,-48.8 3017.05,-48.8 3017.05,-84.8"/>
<text text-anchor="middle" x="2892" y="-62.6" font-family="Times,serif" font-size="14.00">CertificateNameUpdatePopupComponent</text>
</g>
<!-- CertificateNameUpdatePopupComponent&#45;&gt;CourseConsumptionModule -->
<g id="edge4" class="edge">
<title>CertificateNameUpdatePopupComponent&#45;&gt;CourseConsumptionModule</title>
<path fill="none" stroke="black" d="M2892,-84.93C2892,-105.37 2892,-135.8 2892,-135.8 2892,-135.8 1610.31,-135.8 1610.31,-135.8"/>
<polygon fill="black" stroke="black" points="1610.31,-132.3 1600.31,-135.8 1610.31,-139.3 1610.31,-132.3"/>
</g>
<!-- CourseCompletionComponent -->
<g id="node4" class="node">
<title>CourseCompletionComponent</title>
<polygon fill="#ffffb3" stroke="black" points="2748.6,-84.8 2561.4,-84.8 2561.4,-48.8 2748.6,-48.8 2748.6,-84.8"/>
<text text-anchor="middle" x="2655" y="-62.6" font-family="Times,serif" font-size="14.00">CourseCompletionComponent</text>
</g>
<!-- CourseCompletionComponent&#45;&gt;CourseConsumptionModule -->
<g id="edge5" class="edge">
<title>CourseCompletionComponent&#45;&gt;CourseConsumptionModule</title>
<path fill="none" stroke="black" d="M2655,-84.91C2655,-104.14 2655,-131.8 2655,-131.8 2655,-131.8 1610.24,-131.8 1610.24,-131.8"/>
<polygon fill="black" stroke="black" points="1610.24,-128.3 1600.24,-131.8 1610.24,-135.3 1610.24,-128.3"/>
</g>
<!-- CourseConsumptionHeaderComponent -->
<g id="node5" class="node">
<title>CourseConsumptionHeaderComponent</title>
<polygon fill="#ffffb3" stroke="black" points="2543.36,-84.8 2306.64,-84.8 2306.64,-48.8 2543.36,-48.8 2543.36,-84.8"/>
<text text-anchor="middle" x="2425" y="-62.6" font-family="Times,serif" font-size="14.00">CourseConsumptionHeaderComponent</text>
</g>
<!-- CourseConsumptionHeaderComponent&#45;&gt;CourseConsumptionModule -->
<g id="edge6" class="edge">
<title>CourseConsumptionHeaderComponent&#45;&gt;CourseConsumptionModule</title>
<path fill="none" stroke="black" d="M2425,-85.07C2425,-103.36 2425,-128.8 2425,-128.8 2425,-128.8 1610.45,-128.8 1610.45,-128.8"/>
<polygon fill="black" stroke="black" points="1610.45,-125.3 1600.45,-128.8 1610.45,-132.3 1610.45,-125.3"/>
</g>
<!-- CourseConsumptionPageComponent -->
<g id="node6" class="node">
<title>CourseConsumptionPageComponent</title>
<polygon fill="#ffffb3" stroke="black" points="2288.66,-84.8 2065.34,-84.8 2065.34,-48.8 2288.66,-48.8 2288.66,-84.8"/>
<text text-anchor="middle" x="2177" y="-62.6" font-family="Times,serif" font-size="14.00">CourseConsumptionPageComponent</text>
</g>
<!-- CourseConsumptionPageComponent&#45;&gt;CourseConsumptionModule -->
<g id="edge7" class="edge">
<title>CourseConsumptionPageComponent&#45;&gt;CourseConsumptionModule</title>
<path fill="none" stroke="black" d="M2177,-84.83C2177,-101.86 2177,-124.8 2177,-124.8 2177,-124.8 1610.49,-124.8 1610.49,-124.8"/>
<polygon fill="black" stroke="black" points="1610.49,-121.3 1600.49,-124.8 1610.49,-128.3 1610.49,-121.3"/>
</g>
<!-- CourseDetailsComponent -->
<g id="node7" class="node">
<title>CourseDetailsComponent</title>
<polygon fill="#ffffb3" stroke="black" points="2047.15,-84.8 1886.85,-84.8 1886.85,-48.8 2047.15,-48.8 2047.15,-84.8"/>
<text text-anchor="middle" x="1967" y="-62.6" font-family="Times,serif" font-size="14.00">CourseDetailsComponent</text>
</g>
<!-- CourseDetailsComponent&#45;&gt;CourseConsumptionModule -->
<g id="edge8" class="edge">
<title>CourseDetailsComponent&#45;&gt;CourseConsumptionModule</title>
<path fill="none" stroke="black" d="M1967,-84.81C1967,-100.85 1967,-121.8 1967,-121.8 1967,-121.8 1610.27,-121.8 1610.27,-121.8"/>
<polygon fill="black" stroke="black" points="1610.27,-118.3 1600.27,-121.8 1610.27,-125.3 1610.27,-118.3"/>
</g>
<!-- CoursePlayerComponent -->
<g id="node8" class="node">
<title>CoursePlayerComponent</title>
<polygon fill="#ffffb3" stroke="black" points="1868.26,-84.8 1711.74,-84.8 1711.74,-48.8 1868.26,-48.8 1868.26,-84.8"/>
<text text-anchor="middle" x="1790" y="-62.6" font-family="Times,serif" font-size="14.00">CoursePlayerComponent</text>
</g>
<!-- CoursePlayerComponent&#45;&gt;CourseConsumptionModule -->
<g id="edge9" class="edge">
<title>CoursePlayerComponent&#45;&gt;CourseConsumptionModule</title>
<path fill="none" stroke="black" d="M1790,-84.92C1790,-99.58 1790,-117.8 1790,-117.8 1790,-117.8 1610.26,-117.8 1610.26,-117.8"/>
<polygon fill="black" stroke="black" points="1610.26,-114.3 1600.26,-117.8 1610.26,-121.3 1610.26,-114.3"/>
</g>
<!-- CurriculumCardComponent -->
<g id="node9" class="node">
<title>CurriculumCardComponent</title>
<polygon fill="#ffffb3" stroke="black" points="1693.59,-84.8 1520.41,-84.8 1520.41,-48.8 1693.59,-48.8 1693.59,-84.8"/>
<text text-anchor="middle" x="1607" y="-62.6" font-family="Times,serif" font-size="14.00">CurriculumCardComponent</text>
</g>
<!-- CurriculumCardComponent&#45;&gt;CourseConsumptionModule -->
<g id="edge10" class="edge">
<title>CurriculumCardComponent&#45;&gt;CourseConsumptionModule</title>
<path fill="none" stroke="black" d="M1560.39,-84.91C1560.39,-84.91 1560.39,-103.79 1560.39,-103.79"/>
<polygon fill="black" stroke="black" points="1556.89,-103.79 1560.39,-113.79 1563.89,-103.79 1556.89,-103.79"/>
</g>
<!-- UnEnrollBatchComponent -->
<g id="node10" class="node">
<title>UnEnrollBatchComponent</title>
<polygon fill="#ffffb3" stroke="black" points="1502.09,-84.8 1335.91,-84.8 1335.91,-48.8 1502.09,-48.8 1502.09,-84.8"/>
<text text-anchor="middle" x="1419" y="-62.6" font-family="Times,serif" font-size="14.00">UnEnrollBatchComponent</text>
</g>
<!-- UnEnrollBatchComponent&#45;&gt;CourseConsumptionModule -->
<g id="edge11" class="edge">
<title>UnEnrollBatchComponent&#45;&gt;CourseConsumptionModule</title>
<path fill="none" stroke="black" d="M1463.86,-84.91C1463.86,-84.91 1463.86,-103.79 1463.86,-103.79"/>
<polygon fill="black" stroke="black" points="1460.36,-103.79 1463.86,-113.79 1467.36,-103.79 1460.36,-103.79"/>
</g>
<!-- CoreModule -->
<g id="node12" class="node">
<title>CoreModule</title>
<polygon fill="#8dd3c7" stroke="black" points="1312.27,-84.8 1309.27,-88.8 1288.27,-88.8 1285.27,-84.8 1225.73,-84.8 1225.73,-48.8 1312.27,-48.8 1312.27,-84.8"/>
<text text-anchor="middle" x="1269" y="-62.6" font-family="Times,serif" font-size="14.00">CoreModule</text>
</g>
<!-- CoreModule&#45;&gt;CourseConsumptionModule -->
<g id="edge12" class="edge">
<title>CoreModule&#45;&gt;CourseConsumptionModule</title>
<path fill="none" stroke="black" d="M1269,-84.92C1269,-99.58 1269,-117.8 1269,-117.8 1269,-117.8 1415.6,-117.8 1415.6,-117.8"/>
<polygon fill="black" stroke="black" points="1415.6,-121.3 1425.6,-117.8 1415.6,-114.3 1415.6,-121.3"/>
</g>
<!-- CourseConsumptionRoutingModule -->
<g id="node13" class="node">
<title>CourseConsumptionRoutingModule</title>
<polygon fill="#8dd3c7" stroke="black" points="1207.79,-84.8 1204.79,-88.8 1183.79,-88.8 1180.79,-84.8 988.21,-84.8 988.21,-48.8 1207.79,-48.8 1207.79,-84.8"/>
<text text-anchor="middle" x="1098" y="-62.6" font-family="Times,serif" font-size="14.00">CourseConsumptionRoutingModule</text>
</g>
<!-- CourseConsumptionRoutingModule&#45;&gt;CourseConsumptionModule -->
<g id="edge13" class="edge">
<title>CourseConsumptionRoutingModule&#45;&gt;CourseConsumptionModule</title>
<path fill="none" stroke="black" d="M1098,-84.81C1098,-100.85 1098,-121.8 1098,-121.8 1098,-121.8 1415.75,-121.8 1415.75,-121.8"/>
<polygon fill="black" stroke="black" points="1415.75,-125.3 1425.75,-121.8 1415.75,-118.3 1415.75,-125.3"/>
</g>
<!-- DiscussionModule -->
<g id="node14" class="node">
<title>DiscussionModule</title>
<polygon fill="#8dd3c7" stroke="black" points="970.5,-84.8 967.5,-88.8 946.5,-88.8 943.5,-84.8 849.5,-84.8 849.5,-48.8 970.5,-48.8 970.5,-84.8"/>
<text text-anchor="middle" x="910" y="-62.6" font-family="Times,serif" font-size="14.00">DiscussionModule</text>
</g>
<!-- DiscussionModule&#45;&gt;CourseConsumptionModule -->
<g id="edge14" class="edge">
<title>DiscussionModule&#45;&gt;CourseConsumptionModule</title>
<path fill="none" stroke="black" d="M910,-84.83C910,-101.86 910,-124.8 910,-124.8 910,-124.8 1415.64,-124.8 1415.64,-124.8"/>
<polygon fill="black" stroke="black" points="1415.64,-128.3 1425.64,-124.8 1415.64,-121.3 1415.64,-128.3"/>
</g>
<!-- GroupsModule -->
<g id="node15" class="node">
<title>GroupsModule</title>
<polygon fill="#8dd3c7" stroke="black" points="831.27,-84.8 828.27,-88.8 807.27,-88.8 804.27,-84.8 730.73,-84.8 730.73,-48.8 831.27,-48.8 831.27,-84.8"/>
<text text-anchor="middle" x="781" y="-62.6" font-family="Times,serif" font-size="14.00">GroupsModule</text>
</g>
<!-- GroupsModule&#45;&gt;CourseConsumptionModule -->
<g id="edge15" class="edge">
<title>GroupsModule&#45;&gt;CourseConsumptionModule</title>
<path fill="none" stroke="black" d="M781,-85.07C781,-103.36 781,-128.8 781,-128.8 781,-128.8 1415.79,-128.8 1415.79,-128.8"/>
<polygon fill="black" stroke="black" points="1415.79,-132.3 1425.79,-128.8 1415.79,-125.3 1415.79,-132.3"/>
</g>
<!-- NotificationModule -->
<g id="node16" class="node">
<title>NotificationModule</title>
<polygon fill="#8dd3c7" stroke="black" points="712.7,-84.8 709.7,-88.8 688.7,-88.8 685.7,-84.8 585.3,-84.8 585.3,-48.8 712.7,-48.8 712.7,-84.8"/>
<text text-anchor="middle" x="649" y="-62.6" font-family="Times,serif" font-size="14.00">NotificationModule</text>
</g>
<!-- NotificationModule&#45;&gt;CourseConsumptionModule -->
<g id="edge16" class="edge">
<title>NotificationModule&#45;&gt;CourseConsumptionModule</title>
<path fill="none" stroke="black" d="M649,-84.91C649,-104.14 649,-131.8 649,-131.8 649,-131.8 1415.8,-131.8 1415.8,-131.8"/>
<polygon fill="black" stroke="black" points="1415.8,-135.3 1425.8,-131.8 1415.8,-128.3 1415.8,-135.3"/>
</g>
<!-- PlayerHelperModule -->
<g id="node17" class="node">
<title>PlayerHelperModule</title>
<polygon fill="#8dd3c7" stroke="black" points="567.91,-84.8 564.91,-88.8 543.91,-88.8 540.91,-84.8 434.09,-84.8 434.09,-48.8 567.91,-48.8 567.91,-84.8"/>
<text text-anchor="middle" x="501" y="-62.6" font-family="Times,serif" font-size="14.00">PlayerHelperModule</text>
</g>
<!-- PlayerHelperModule&#45;&gt;CourseConsumptionModule -->
<g id="edge17" class="edge">
<title>PlayerHelperModule&#45;&gt;CourseConsumptionModule</title>
<path fill="none" stroke="black" d="M501,-84.93C501,-105.37 501,-135.8 501,-135.8 501,-135.8 1415.4,-135.8 1415.4,-135.8"/>
<polygon fill="black" stroke="black" points="1415.4,-139.3 1425.4,-135.8 1415.4,-132.3 1415.4,-139.3"/>
</g>
<!-- SharedFeatureModule -->
<g id="node18" class="node">
<title>SharedFeatureModule</title>
<polygon fill="#8dd3c7" stroke="black" points="416.41,-84.8 413.41,-88.8 392.41,-88.8 389.41,-84.8 275.59,-84.8 275.59,-48.8 416.41,-48.8 416.41,-84.8"/>
<text text-anchor="middle" x="346" y="-62.6" font-family="Times,serif" font-size="14.00">SharedFeatureModule</text>
</g>
<!-- SharedFeatureModule&#45;&gt;CourseConsumptionModule -->
<g id="edge18" class="edge">
<title>SharedFeatureModule&#45;&gt;CourseConsumptionModule</title>
<path fill="none" stroke="black" d="M346,-84.84C346,-106.46 346,-139.8 346,-139.8 346,-139.8 1415.76,-139.8 1415.76,-139.8"/>
<polygon fill="black" stroke="black" points="1415.76,-143.3 1425.76,-139.8 1415.76,-136.3 1415.76,-143.3"/>
</g>
<!-- SharedModule -->
<g id="node19" class="node">
<title>SharedModule</title>
<polygon fill="#8dd3c7" stroke="black" points="258.43,-84.8 255.43,-88.8 234.43,-88.8 231.43,-84.8 159.57,-84.8 159.57,-48.8 258.43,-48.8 258.43,-84.8"/>
<text text-anchor="middle" x="209" y="-62.6" font-family="Times,serif" font-size="14.00">SharedModule</text>
</g>
<!-- SharedModule&#45;&gt;CourseConsumptionModule -->
<g id="edge19" class="edge">
<title>SharedModule&#45;&gt;CourseConsumptionModule</title>
<path fill="none" stroke="black" d="M209,-84.81C209,-107.29 209,-142.8 209,-142.8 209,-142.8 1415.67,-142.8 1415.67,-142.8"/>
<polygon fill="black" stroke="black" points="1415.67,-146.3 1425.67,-142.8 1415.67,-139.3 1415.67,-146.3"/>
</g>
<!-- TelemetryModule -->
<g id="node20" class="node">
<title>TelemetryModule</title>
<polygon fill="#8dd3c7" stroke="black" points="141.58,-84.8 138.58,-88.8 117.58,-88.8 114.58,-84.8 24.42,-84.8 24.42,-48.8 141.58,-48.8 141.58,-84.8"/>
<text text-anchor="middle" x="83" y="-62.6" font-family="Times,serif" font-size="14.00">TelemetryModule</text>
</g>
<!-- TelemetryModule&#45;&gt;CourseConsumptionModule -->
<g id="edge20" class="edge">
<title>TelemetryModule&#45;&gt;CourseConsumptionModule</title>
<path fill="none" stroke="black" d="M83,-84.95C83,-108.56 83,-146.8 83,-146.8 83,-146.8 1415.7,-146.8 1415.7,-146.8"/>
<polygon fill="black" stroke="black" points="1415.7,-150.3 1425.7,-146.8 1415.7,-143.3 1415.7,-150.3"/>
</g>
</g>
</svg>
