<?xml version="1.0" encoding="UTF-8" standalone="no"?>
<!DOCTYPE svg PUBLIC "-//W3C//DTD SVG 1.1//EN"
 "http://www.w3.org/Graphics/SVG/1.1/DTD/svg11.dtd">
<!-- Generated by graphviz version 5.0.0 (20220707.1540)
 -->
<!-- Title: dependencies Pages: 1 -->
<svg width="1378pt" height="174pt"
 viewBox="0.00 0.00 1378.00 173.80" xmlns="http://www.w3.org/2000/svg" xmlns:xlink="http://www.w3.org/1999/xlink">
<g id="graph0" class="graph" transform="scale(1 1) rotate(0) translate(4 169.8)">
<title>dependencies</title>
<polygon fill="white" stroke="transparent" points="-4,4 -4,-169.8 1374,-169.8 1374,4 -4,4"/>
<text text-anchor="middle" x="685" y="-8.2" font-family="sans-serif" font-size="14.00">dependencies</text>
<g id="clust1" class="cluster">
<title>cluster_DialCodeSearchModule</title>
<polygon fill="none" stroke="black" stroke-dasharray="1,5" points="8,-32.8 8,-157.8 1362,-157.8 1362,-32.8 8,-32.8"/>
</g>
<g id="clust2" class="cluster">
<title>cluster_DialCodeSearchModule_declarations</title>
<polygon fill="none" stroke="black" points="903,-40.8 903,-92.8 1354,-92.8 1354,-40.8 903,-40.8"/>
</g>
<g id="clust6" class="cluster">
<title>cluster_DialCodeSearchModule_imports</title>
<polygon fill="none" stroke="black" points="16,-40.8 16,-92.8 895,-92.8 895,-40.8 16,-40.8"/>
</g>
<!-- DialCodeCardComponent -->
<g id="node1" class="node">
<title>DialCodeCardComponent</title>
<polygon fill="#ffffb3" stroke="black" points="1346.2,-84.8 1183.8,-84.8 1183.8,-48.8 1346.2,-48.8 1346.2,-84.8"/>
<text text-anchor="middle" x="1265" y="-62.6" font-family="Times,serif" font-size="14.00">DialCodeCardComponent</text>
</g>
<!-- DialCodeSearchModule -->
<g id="node4" class="node">
<title>DialCodeSearchModule</title>
<polygon fill="#8dd3c7" stroke="black" points="759.8,-149.8 756.8,-153.8 735.8,-153.8 732.8,-149.8 608.2,-149.8 608.2,-113.8 759.8,-113.8 759.8,-149.8"/>
<text text-anchor="middle" x="684" y="-127.6" font-family="Times,serif" font-size="14.00">DialCodeSearchModule</text>
</g>
<!-- DialCodeCardComponent&#45;&gt;DialCodeSearchModule -->
<g id="edge1" class="edge">
<title>DialCodeCardComponent&#45;&gt;DialCodeSearchModule</title>
<path fill="none" stroke="black" d="M1265,-84.81C1265,-107.29 1265,-142.8 1265,-142.8 1265,-142.8 769.66,-142.8 769.66,-142.8"/>
<polygon fill="black" stroke="black" points="769.66,-139.3 759.66,-142.8 769.66,-146.3 769.66,-139.3"/>
</g>
<!-- DialCodeComponent -->
<g id="node2" class="node">
<title>DialCodeComponent</title>
<polygon fill="#ffffb3" stroke="black" points="1165.49,-84.8 1030.51,-84.8 1030.51,-48.8 1165.49,-48.8 1165.49,-84.8"/>
<text text-anchor="middle" x="1098" y="-62.6" font-family="Times,serif" font-size="14.00">DialCodeComponent</text>
</g>
<!-- DialCodeComponent&#45;&gt;DialCodeSearchModule -->
<g id="edge2" class="edge">
<title>DialCodeComponent&#45;&gt;DialCodeSearchModule</title>
<path fill="none" stroke="black" d="M1098,-84.93C1098,-105.37 1098,-135.8 1098,-135.8 1098,-135.8 769.93,-135.8 769.93,-135.8"/>
<polygon fill="black" stroke="black" points="769.93,-132.3 759.93,-135.8 769.93,-139.3 769.93,-132.3"/>
</g>
<!-- GetComponent -->
<g id="node3" class="node">
<title>GetComponent</title>
<polygon fill="#ffffb3" stroke="black" points="1012.55,-84.8 911.45,-84.8 911.45,-48.8 1012.55,-48.8 1012.55,-84.8"/>
<text text-anchor="middle" x="962" y="-62.6" font-family="Times,serif" font-size="14.00">GetComponent</text>
</g>
<!-- GetComponent&#45;&gt;DialCodeSearchModule -->
<g id="edge3" class="edge">
<title>GetComponent&#45;&gt;DialCodeSearchModule</title>
<path fill="none" stroke="black" d="M962,-85.07C962,-103.36 962,-128.8 962,-128.8 962,-128.8 769.96,-128.8 769.96,-128.8"/>
<polygon fill="black" stroke="black" points="769.96,-125.3 759.96,-128.8 769.96,-132.3 769.96,-125.3"/>
</g>
<!-- CoreModule -->
<g id="node5" class="node">
<title>CoreModule</title>
<polygon fill="#8dd3c7" stroke="black" points="887.27,-84.8 884.27,-88.8 863.27,-88.8 860.27,-84.8 800.73,-84.8 800.73,-48.8 887.27,-48.8 887.27,-84.8"/>
<text text-anchor="middle" x="844" y="-62.6" font-family="Times,serif" font-size="14.00">CoreModule</text>
</g>
<!-- CoreModule&#45;&gt;DialCodeSearchModule -->
<g id="edge4" class="edge">
<title>CoreModule&#45;&gt;DialCodeSearchModule</title>
<path fill="none" stroke="black" d="M844,-84.81C844,-100.85 844,-121.8 844,-121.8 844,-121.8 769.78,-121.8 769.78,-121.8"/>
<polygon fill="black" stroke="black" points="769.78,-118.3 759.78,-121.8 769.78,-125.3 769.78,-118.3"/>
</g>
<!-- DialCodeSearchRoutingModule -->
<g id="node6" class="node">
<title>DialCodeSearchRoutingModule</title>
<polygon fill="#8dd3c7" stroke="black" points="782.41,-84.8 779.41,-88.8 758.41,-88.8 755.41,-84.8 585.59,-84.8 585.59,-48.8 782.41,-48.8 782.41,-84.8"/>
<text text-anchor="middle" x="684" y="-62.6" font-family="Times,serif" font-size="14.00">DialCodeSearchRoutingModule</text>
</g>
<!-- DialCodeSearchRoutingModule&#45;&gt;DialCodeSearchModule -->
<g id="edge5" class="edge">
<title>DialCodeSearchRoutingModule&#45;&gt;DialCodeSearchModule</title>
<path fill="none" stroke="black" d="M684,-84.91C684,-84.91 684,-103.79 684,-103.79"/>
<polygon fill="black" stroke="black" points="680.5,-103.79 684,-113.79 687.5,-103.79 680.5,-103.79"/>
</g>
<!-- PlayerHelperModule -->
<g id="node7" class="node">
<title>PlayerHelperModule</title>
<polygon fill="#8dd3c7" stroke="black" points="567.91,-84.8 564.91,-88.8 543.91,-88.8 540.91,-84.8 434.09,-84.8 434.09,-48.8 567.91,-48.8 567.91,-84.8"/>
<text text-anchor="middle" x="501" y="-62.6" font-family="Times,serif" font-size="14.00">PlayerHelperModule</text>
</g>
<!-- PlayerHelperModule&#45;&gt;DialCodeSearchModule -->
<g id="edge6" class="edge">
<title>PlayerHelperModule&#45;&gt;DialCodeSearchModule</title>
<path fill="none" stroke="black" d="M501,-84.81C501,-100.85 501,-121.8 501,-121.8 501,-121.8 598.25,-121.8 598.25,-121.8"/>
<polygon fill="black" stroke="black" points="598.25,-125.3 608.25,-121.8 598.25,-118.3 598.25,-125.3"/>
</g>
<!-- SharedFeatureModule -->
<g id="node8" class="node">
<title>SharedFeatureModule</title>
<polygon fill="#8dd3c7" stroke="black" points="416.41,-84.8 413.41,-88.8 392.41,-88.8 389.41,-84.8 275.59,-84.8 275.59,-48.8 416.41,-48.8 416.41,-84.8"/>
<text text-anchor="middle" x="346" y="-62.6" font-family="Times,serif" font-size="14.00">SharedFeatureModule</text>
</g>
<!-- SharedFeatureModule&#45;&gt;DialCodeSearchModule -->
<g id="edge7" class="edge">
<title>SharedFeatureModule&#45;&gt;DialCodeSearchModule</title>
<path fill="none" stroke="black" d="M346,-85.07C346,-103.36 346,-128.8 346,-128.8 346,-128.8 598.15,-128.8 598.15,-128.8"/>
<polygon fill="black" stroke="black" points="598.15,-132.3 608.15,-128.8 598.15,-125.3 598.15,-132.3"/>
</g>
<!-- SharedModule -->
<g id="node9" class="node">
<title>SharedModule</title>
<polygon fill="#8dd3c7" stroke="black" points="258.43,-84.8 255.43,-88.8 234.43,-88.8 231.43,-84.8 159.57,-84.8 159.57,-48.8 258.43,-48.8 258.43,-84.8"/>
<text text-anchor="middle" x="209" y="-62.6" font-family="Times,serif" font-size="14.00">SharedModule</text>
</g>
<!-- SharedModule&#45;&gt;DialCodeSearchModule -->
<g id="edge8" class="edge">
<title>SharedModule&#45;&gt;DialCodeSearchModule</title>
<path fill="none" stroke="black" d="M209,-84.93C209,-105.37 209,-135.8 209,-135.8 209,-135.8 598.21,-135.8 598.21,-135.8"/>
<polygon fill="black" stroke="black" points="598.21,-139.3 608.21,-135.8 598.21,-132.3 598.21,-139.3"/>
</g>
<!-- TelemetryModule -->
<g id="node10" class="node">
<title>TelemetryModule</title>
<polygon fill="#8dd3c7" stroke="black" points="141.58,-84.8 138.58,-88.8 117.58,-88.8 114.58,-84.8 24.42,-84.8 24.42,-48.8 141.58,-48.8 141.58,-84.8"/>
<text text-anchor="middle" x="83" y="-62.6" font-family="Times,serif" font-size="14.00">TelemetryModule</text>
</g>
<!-- TelemetryModule&#45;&gt;DialCodeSearchModule -->
<g id="edge9" class="edge">
<title>TelemetryModule&#45;&gt;DialCodeSearchModule</title>
<path fill="none" stroke="black" d="M83,-84.81C83,-107.29 83,-142.8 83,-142.8 83,-142.8 598.19,-142.8 598.19,-142.8"/>
<polygon fill="black" stroke="black" points="598.19,-146.3 608.19,-142.8 598.19,-139.3 598.19,-146.3"/>
</g>
</g>
</svg>
