<?xml version="1.0" encoding="UTF-8" standalone="no"?>
<!DOCTYPE svg PUBLIC "-//W3C//DTD SVG 1.1//EN"
 "http://www.w3.org/Graphics/SVG/1.1/DTD/svg11.dtd">
<!-- Generated by graphviz version 5.0.0 (20220707.1540)
 -->
<!-- Title: dependencies Pages: 1 -->
<svg width="1378pt" height="174pt"
 viewBox="0.00 0.00 1378.00 173.80" xmlns="http://www.w3.org/2000/svg" xmlns:xlink="http://www.w3.org/1999/xlink">
<g id="graph0" class="graph" transform="scale(1 1) rotate(0) translate(4 169.8)">
<title>dependencies</title>
<polygon fill="white" stroke="transparent" points="-4,4 -4,-169.8 1374,-169.8 1374,4 -4,4"/>
<text text-anchor="middle" x="685" y="-8.2" font-family="sans-serif" font-size="14.00">dependencies</text>
<g id="clust1" class="cluster">
<title>cluster_DialCodeSearchModule</title>
<polygon fill="none" stroke="black" stroke-dasharray="1,5" points="8,-32.8 8,-157.8 1362,-157.8 1362,-32.8 8,-32.8"/>
</g>
<g id="clust6" class="cluster">
<title>cluster_DialCodeSearchModule_imports</title>
<polygon fill="none" stroke="black" points="475,-40.8 475,-92.8 1354,-92.8 1354,-40.8 475,-40.8"/>
</g>
<g id="clust2" class="cluster">
<title>cluster_DialCodeSearchModule_declarations</title>
<polygon fill="none" stroke="black" points="16,-40.8 16,-92.8 467,-92.8 467,-40.8 16,-40.8"/>
</g>
<!-- DialCodeCardComponent -->
<g id="node1" class="node">
<title>DialCodeCardComponent</title>
<polygon fill="#ffffb3" stroke="black" points="459.2,-84.8 296.8,-84.8 296.8,-48.8 459.2,-48.8 459.2,-84.8"/>
<text text-anchor="middle" x="378" y="-62.6" font-family="Times,serif" font-size="14.00">DialCodeCardComponent</text>
</g>
<!-- DialCodeSearchModule -->
<g id="node4" class="node">
<title>DialCodeSearchModule</title>
<polygon fill="#8dd3c7" stroke="black" points="743.8,-149.8 740.8,-153.8 719.8,-153.8 716.8,-149.8 592.2,-149.8 592.2,-113.8 743.8,-113.8 743.8,-149.8"/>
<text text-anchor="middle" x="668" y="-127.6" font-family="Times,serif" font-size="14.00">DialCodeSearchModule</text>
</g>
<!-- DialCodeCardComponent&#45;&gt;DialCodeSearchModule -->
<g id="edge1" class="edge">
<title>DialCodeCardComponent&#45;&gt;DialCodeSearchModule</title>
<path fill="none" stroke="black" d="M378,-84.83C378,-101.2 378,-122.8 378,-122.8 378,-122.8 582.18,-122.8 582.18,-122.8"/>
<polygon fill="black" stroke="black" points="582.18,-126.3 592.18,-122.8 582.18,-119.3 582.18,-126.3"/>
</g>
<!-- DialCodeComponent -->
<g id="node2" class="node">
<title>DialCodeComponent</title>
<polygon fill="#ffffb3" stroke="black" points="278.49,-84.8 143.51,-84.8 143.51,-48.8 278.49,-48.8 278.49,-84.8"/>
<text text-anchor="middle" x="211" y="-62.6" font-family="Times,serif" font-size="14.00">DialCodeComponent</text>
</g>
<!-- DialCodeComponent&#45;&gt;DialCodeSearchModule -->
<g id="edge2" class="edge">
<title>DialCodeComponent&#45;&gt;DialCodeSearchModule</title>
<path fill="none" stroke="black" d="M211,-84.91C211,-104.14 211,-131.8 211,-131.8 211,-131.8 582.28,-131.8 582.28,-131.8"/>
<polygon fill="black" stroke="black" points="582.28,-135.3 592.28,-131.8 582.28,-128.3 582.28,-135.3"/>
</g>
<!-- GetComponent -->
<g id="node3" class="node">
<title>GetComponent</title>
<polygon fill="#ffffb3" stroke="black" points="125.55,-84.8 24.45,-84.8 24.45,-48.8 125.55,-48.8 125.55,-84.8"/>
<text text-anchor="middle" x="75" y="-62.6" font-family="Times,serif" font-size="14.00">GetComponent</text>
</g>
<!-- GetComponent&#45;&gt;DialCodeSearchModule -->
<g id="edge3" class="edge">
<title>GetComponent&#45;&gt;DialCodeSearchModule</title>
<path fill="none" stroke="black" d="M75,-85.09C75,-107.01 75,-140.8 75,-140.8 75,-140.8 582.29,-140.8 582.29,-140.8"/>
<polygon fill="black" stroke="black" points="582.29,-144.3 592.29,-140.8 582.29,-137.3 582.29,-144.3"/>
</g>
<!-- CoreModule -->
<g id="node5" class="node">
<title>CoreModule</title>
<polygon fill="#8dd3c7" stroke="black" points="1346.27,-84.8 1343.27,-88.8 1322.27,-88.8 1319.27,-84.8 1259.73,-84.8 1259.73,-48.8 1346.27,-48.8 1346.27,-84.8"/>
<text text-anchor="middle" x="1303" y="-62.6" font-family="Times,serif" font-size="14.00">CoreModule</text>
</g>
<!-- CoreModule&#45;&gt;DialCodeSearchModule -->
<g id="edge4" class="edge">
<title>CoreModule&#45;&gt;DialCodeSearchModule</title>
<path fill="none" stroke="black" d="M1303,-85.09C1303,-107.01 1303,-140.8 1303,-140.8 1303,-140.8 753.65,-140.8 753.65,-140.8"/>
<polygon fill="black" stroke="black" points="753.65,-137.3 743.65,-140.8 753.65,-144.3 753.65,-137.3"/>
</g>
<!-- DialCodeSearchRoutingModule -->
<g id="node6" class="node">
<title>DialCodeSearchRoutingModule</title>
<polygon fill="#8dd3c7" stroke="black" points="1241.41,-84.8 1238.41,-88.8 1217.41,-88.8 1214.41,-84.8 1044.59,-84.8 1044.59,-48.8 1241.41,-48.8 1241.41,-84.8"/>
<text text-anchor="middle" x="1143" y="-62.6" font-family="Times,serif" font-size="14.00">DialCodeSearchRoutingModule</text>
</g>
<!-- DialCodeSearchRoutingModule&#45;&gt;DialCodeSearchModule -->
<g id="edge5" class="edge">
<title>DialCodeSearchRoutingModule&#45;&gt;DialCodeSearchModule</title>
<path fill="none" stroke="black" d="M1143,-84.91C1143,-104.14 1143,-131.8 1143,-131.8 1143,-131.8 753.79,-131.8 753.79,-131.8"/>
<polygon fill="black" stroke="black" points="753.79,-128.3 743.79,-131.8 753.79,-135.3 753.79,-128.3"/>
</g>
<!-- PlayerHelperModule -->
<g id="node7" class="node">
<title>PlayerHelperModule</title>
<polygon fill="#8dd3c7" stroke="black" points="1026.91,-84.8 1023.91,-88.8 1002.91,-88.8 999.91,-84.8 893.09,-84.8 893.09,-48.8 1026.91,-48.8 1026.91,-84.8"/>
<text text-anchor="middle" x="960" y="-62.6" font-family="Times,serif" font-size="14.00">PlayerHelperModule</text>
</g>
<!-- PlayerHelperModule&#45;&gt;DialCodeSearchModule -->
<g id="edge6" class="edge">
<title>PlayerHelperModule&#45;&gt;DialCodeSearchModule</title>
<path fill="none" stroke="black" d="M960,-84.83C960,-101.2 960,-122.8 960,-122.8 960,-122.8 753.96,-122.8 753.96,-122.8"/>
<polygon fill="black" stroke="black" points="753.96,-119.3 743.96,-122.8 753.96,-126.3 753.96,-119.3"/>
</g>
<!-- SharedFeatureModule -->
<g id="node8" class="node">
<title>SharedFeatureModule</title>
<polygon fill="#8dd3c7" stroke="black" points="875.41,-84.8 872.41,-88.8 851.41,-88.8 848.41,-84.8 734.59,-84.8 734.59,-48.8 875.41,-48.8 875.41,-84.8"/>
<text text-anchor="middle" x="805" y="-62.6" font-family="Times,serif" font-size="14.00">SharedFeatureModule</text>
</g>
<!-- SharedFeatureModule&#45;&gt;DialCodeSearchModule -->
<g id="edge7" class="edge">
<title>SharedFeatureModule&#45;&gt;DialCodeSearchModule</title>
<path fill="none" stroke="black" d="M739.22,-84.91C739.22,-84.91 739.22,-103.79 739.22,-103.79"/>
<polygon fill="black" stroke="black" points="735.72,-103.79 739.22,-113.79 742.72,-103.79 735.72,-103.79"/>
</g>
<!-- SharedModule -->
<g id="node9" class="node">
<title>SharedModule</title>
<polygon fill="#8dd3c7" stroke="black" points="717.43,-84.8 714.43,-88.8 693.43,-88.8 690.43,-84.8 618.57,-84.8 618.57,-48.8 717.43,-48.8 717.43,-84.8"/>
<text text-anchor="middle" x="668" y="-62.6" font-family="Times,serif" font-size="14.00">SharedModule</text>
</g>
<!-- SharedModule&#45;&gt;DialCodeSearchModule -->
<g id="edge8" class="edge">
<title>SharedModule&#45;&gt;DialCodeSearchModule</title>
<path fill="none" stroke="black" d="M668,-84.91C668,-84.91 668,-103.79 668,-103.79"/>
<polygon fill="black" stroke="black" points="664.5,-103.79 668,-113.79 671.5,-103.79 664.5,-103.79"/>
</g>
<!-- TelemetryModule -->
<g id="node10" class="node">
<title>TelemetryModule</title>
<polygon fill="#8dd3c7" stroke="black" points="600.58,-84.8 597.58,-88.8 576.58,-88.8 573.58,-84.8 483.42,-84.8 483.42,-48.8 600.58,-48.8 600.58,-84.8"/>
<text text-anchor="middle" x="542" y="-62.6" font-family="Times,serif" font-size="14.00">TelemetryModule</text>
</g>
<!-- TelemetryModule&#45;&gt;DialCodeSearchModule -->
<g id="edge9" class="edge">
<title>TelemetryModule&#45;&gt;DialCodeSearchModule</title>
<path fill="none" stroke="black" d="M596.44,-84.91C596.44,-84.91 596.44,-103.79 596.44,-103.79"/>
<polygon fill="black" stroke="black" points="592.94,-103.79 596.44,-113.79 599.94,-103.79 592.94,-103.79"/>
</g>
</g>
</svg>
