<?xml version="1.0" encoding="UTF-8" standalone="no"?>
<!DOCTYPE svg PUBLIC "-//W3C//DTD SVG 1.1//EN"
 "http://www.w3.org/Graphics/SVG/1.1/DTD/svg11.dtd">
<!-- Generated by graphviz version 5.0.0 (20220707.1540)
 -->
<!-- Title: dependencies Pages: 1 -->
<svg width="346pt" height="174pt"
 viewBox="0.00 0.00 346.00 173.80" xmlns="http://www.w3.org/2000/svg" xmlns:xlink="http://www.w3.org/1999/xlink">
<g id="graph0" class="graph" transform="scale(1 1) rotate(0) translate(4 169.8)">
<title>dependencies</title>
<polygon fill="white" stroke="transparent" points="-4,4 -4,-169.8 342,-169.8 342,4 -4,4"/>
<text text-anchor="middle" x="169" y="-8.2" font-family="sans-serif" font-size="14.00">dependencies</text>
<g id="clust1" class="cluster">
<title>cluster_UciAdminModule</title>
<polygon fill="none" stroke="black" stroke-dasharray="1,5" points="8,-32.8 8,-157.8 330,-157.8 330,-32.8 8,-32.8"/>
</g>
<g id="clust2" class="cluster">
<title>cluster_UciAdminModule_declarations</title>
<polygon fill="none" stroke="black" points="204,-40.8 204,-92.8 322,-92.8 322,-40.8 204,-40.8"/>
</g>
<g id="clust4" class="cluster">
<title>cluster_UciAdminModule_imports</title>
<polygon fill="none" stroke="black" points="16,-40.8 16,-92.8 196,-92.8 196,-40.8 16,-40.8"/>
</g>
<!-- UciComponent -->
<g id="node1" class="node">
<title>UciComponent</title>
<polygon fill="#ffffb3" stroke="black" points="313.55,-84.8 212.45,-84.8 212.45,-48.8 313.55,-48.8 313.55,-84.8"/>
<text text-anchor="middle" x="263" y="-62.6" font-family="Times,serif" font-size="14.00">UciComponent</text>
</g>
<!-- UciAdminModule -->
<g id="node2" class="node">
<title>UciAdminModule</title>
<polygon fill="#8dd3c7" stroke="black" points="243.16,-149.8 240.16,-153.8 219.16,-153.8 216.16,-149.8 124.84,-149.8 124.84,-113.8 243.16,-113.8 243.16,-149.8"/>
<text text-anchor="middle" x="184" y="-127.6" font-family="Times,serif" font-size="14.00">UciAdminModule</text>
</g>
<!-- UciComponent&#45;&gt;UciAdminModule -->
<g id="edge1" class="edge">
<title>UciComponent&#45;&gt;UciAdminModule</title>
<path fill="none" stroke="black" d="M227.78,-84.91C227.78,-84.91 227.78,-103.79 227.78,-103.79"/>
<polygon fill="black" stroke="black" points="224.28,-103.79 227.78,-113.79 231.28,-103.79 224.28,-103.79"/>
</g>
<!-- UciAdminRoutingModule -->
<g id="node3" class="node">
<title>UciAdminRoutingModule</title>
<polygon fill="#8dd3c7" stroke="black" points="187.77,-84.8 184.77,-88.8 163.77,-88.8 160.77,-84.8 24.23,-84.8 24.23,-48.8 187.77,-48.8 187.77,-84.8"/>
<text text-anchor="middle" x="106" y="-62.6" font-family="Times,serif" font-size="14.00">UciAdminRoutingModule</text>
</g>
<!-- UciAdminRoutingModule&#45;&gt;UciAdminModule -->
<g id="edge2" class="edge">
<title>UciAdminRoutingModule&#45;&gt;UciAdminModule</title>
<path fill="none" stroke="black" d="M156.28,-84.91C156.28,-84.91 156.28,-103.79 156.28,-103.79"/>
<polygon fill="black" stroke="black" points="152.78,-103.79 156.28,-113.79 159.78,-103.79 152.78,-103.79"/>
</g>
</g>
</svg>
