<?xml version="1.0" encoding="UTF-8" standalone="no"?>
<!DOCTYPE svg PUBLIC "-//W3C//DTD SVG 1.1//EN"
 "http://www.w3.org/Graphics/SVG/1.1/DTD/svg11.dtd">
<!-- Generated by graphviz version 5.0.0 (20220707.1540)
 -->
<!-- Title: dependencies Pages: 1 -->
<svg width="362pt" height="247pt"
 viewBox="0.00 0.00 362.00 246.80" xmlns="http://www.w3.org/2000/svg" xmlns:xlink="http://www.w3.org/1999/xlink">
<g id="graph0" class="graph" transform="scale(1 1) rotate(0) translate(4 242.8)">
<title>dependencies</title>
<polygon fill="white" stroke="transparent" points="-4,4 -4,-242.8 358,-242.8 358,4 -4,4"/>
<text text-anchor="middle" x="177" y="-8.2" font-family="sans-serif" font-size="14.00">dependencies</text>
<g id="clust1" class="cluster">
<title>cluster_NotificationModule</title>
<polygon fill="none" stroke="black" stroke-dasharray="1,5" points="8,-32.8 8,-230.8 346,-230.8 346,-32.8 8,-32.8"/>
</g>
<g id="clust2" class="cluster">
<title>cluster_NotificationModule_declarations</title>
<polygon fill="none" stroke="black" points="138,-40.8 138,-92.8 338,-92.8 338,-40.8 138,-40.8"/>
</g>
<g id="clust4" class="cluster">
<title>cluster_NotificationModule_imports</title>
<polygon fill="none" stroke="black" points="16,-40.8 16,-92.8 130,-92.8 130,-40.8 16,-40.8"/>
</g>
<g id="clust5" class="cluster">
<title>cluster_NotificationModule_exports</title>
<polygon fill="none" stroke="black" points="75,-170.8 75,-222.8 279,-222.8 279,-170.8 75,-170.8"/>
</g>
<!-- InAppNotificationComponent -->
<g id="node1" class="node">
<title>InAppNotificationComponent</title>
<polygon fill="#ffffb3" stroke="black" points="330.25,-84.8 145.75,-84.8 145.75,-48.8 330.25,-48.8 330.25,-84.8"/>
<text text-anchor="middle" x="238" y="-62.6" font-family="Times,serif" font-size="14.00">InAppNotificationComponent</text>
</g>
<!-- NotificationModule -->
<g id="node2" class="node">
<title>NotificationModule</title>
<polygon fill="#8dd3c7" stroke="black" points="240.7,-149.8 237.7,-153.8 216.7,-153.8 213.7,-149.8 113.3,-149.8 113.3,-113.8 240.7,-113.8 240.7,-149.8"/>
<text text-anchor="middle" x="177" y="-127.6" font-family="Times,serif" font-size="14.00">NotificationModule</text>
</g>
<!-- InAppNotificationComponent&#45;&gt;NotificationModule -->
<g id="edge1" class="edge">
<title>InAppNotificationComponent&#45;&gt;NotificationModule</title>
<path fill="none" stroke="black" d="M193.11,-84.91C193.11,-84.91 193.11,-103.79 193.11,-103.79"/>
<polygon fill="black" stroke="black" points="189.61,-103.79 193.11,-113.79 196.61,-103.79 189.61,-103.79"/>
</g>
<!-- InAppNotificationComponent  -->
<g id="node4" class="node">
<title>InAppNotificationComponent </title>
<polygon fill="#fb8072" stroke="black" points="271.25,-214.8 82.75,-214.8 82.75,-178.8 271.25,-178.8 271.25,-214.8"/>
<text text-anchor="middle" x="177" y="-192.6" font-family="Times,serif" font-size="14.00">InAppNotificationComponent </text>
</g>
<!-- NotificationModule&#45;&gt;InAppNotificationComponent  -->
<g id="edge3" class="edge">
<title>NotificationModule&#45;&gt;InAppNotificationComponent </title>
<path fill="none" stroke="black" stroke-dasharray="5,2" d="M177,-149.91C177,-149.91 177,-168.79 177,-168.79"/>
<polygon fill="black" stroke="black" points="173.5,-168.79 177,-178.79 180.5,-168.79 173.5,-168.79"/>
</g>
<!-- SharedModule -->
<g id="node3" class="node">
<title>SharedModule</title>
<polygon fill="#8dd3c7" stroke="black" points="122.43,-84.8 119.43,-88.8 98.43,-88.8 95.43,-84.8 23.57,-84.8 23.57,-48.8 122.43,-48.8 122.43,-84.8"/>
<text text-anchor="middle" x="73" y="-62.6" font-family="Times,serif" font-size="14.00">SharedModule</text>
</g>
<!-- SharedModule&#45;&gt;NotificationModule -->
<g id="edge2" class="edge">
<title>SharedModule&#45;&gt;NotificationModule</title>
<path fill="none" stroke="black" d="M117.81,-84.91C117.81,-84.91 117.81,-103.79 117.81,-103.79"/>
<polygon fill="black" stroke="black" points="114.31,-103.79 117.81,-113.79 121.31,-103.79 114.31,-103.79"/>
</g>
</g>
</svg>
