<?xml version="1.0" encoding="UTF-8" standalone="no"?>
<!DOCTYPE svg PUBLIC "-//W3C//DTD SVG 1.1//EN"
 "http://www.w3.org/Graphics/SVG/1.1/DTD/svg11.dtd">
<!-- Generated by graphviz version 5.0.0 (20220707.1540)
 -->
<!-- Title: dependencies Pages: 1 -->
<svg width="1912pt" height="247pt"
 viewBox="0.00 0.00 1912.00 246.80" xmlns="http://www.w3.org/2000/svg" xmlns:xlink="http://www.w3.org/1999/xlink">
<g id="graph0" class="graph" transform="scale(1 1) rotate(0) translate(4 242.8)">
<title>dependencies</title>
<polygon fill="white" stroke="transparent" points="-4,4 -4,-242.8 1908,-242.8 1908,4 -4,4"/>
<text text-anchor="middle" x="952" y="-8.2" font-family="sans-serif" font-size="14.00">dependencies</text>
<g id="clust1" class="cluster">
<title>cluster_ContentSearchModule</title>
<polygon fill="none" stroke="black" stroke-dasharray="1,5" points="8,-32.8 8,-230.8 1896,-230.8 1896,-32.8 8,-32.8"/>
</g>
<g id="clust2" class="cluster">
<title>cluster_ContentSearchModule_declarations</title>
<polygon fill="none" stroke="black" points="432,-40.8 432,-92.8 1888,-92.8 1888,-40.8 432,-40.8"/>
</g>
<g id="clust12" class="cluster">
<title>cluster_ContentSearchModule_exports</title>
<polygon fill="none" stroke="black" points="170,-170.8 170,-222.8 1654,-222.8 1654,-170.8 170,-170.8"/>
</g>
<g id="clust11" class="cluster">
<title>cluster_ContentSearchModule_imports</title>
<polygon fill="none" stroke="black" points="16,-40.8 16,-92.8 424,-92.8 424,-40.8 16,-40.8"/>
</g>
<!-- DataDrivenFilterComponent -->
<g id="node1" class="node">
<title>DataDrivenFilterComponent</title>
<polygon fill="#ffffb3" stroke="black" points="1880.47,-84.8 1703.53,-84.8 1703.53,-48.8 1880.47,-48.8 1880.47,-84.8"/>
<text text-anchor="middle" x="1792" y="-62.6" font-family="Times,serif" font-size="14.00">DataDrivenFilterComponent</text>
</g>
<!-- ContentSearchModule -->
<g id="node9" class="node">
<title>ContentSearchModule</title>
<polygon fill="#8dd3c7" stroke="black" points="901.97,-149.8 898.97,-153.8 877.97,-153.8 874.97,-149.8 760.03,-149.8 760.03,-113.8 901.97,-113.8 901.97,-149.8"/>
<text text-anchor="middle" x="831" y="-127.6" font-family="Times,serif" font-size="14.00">ContentSearchModule</text>
</g>
<!-- DataDrivenFilterComponent&#45;&gt;ContentSearchModule -->
<g id="edge1" class="edge">
<title>DataDrivenFilterComponent&#45;&gt;ContentSearchModule</title>
<path fill="none" stroke="black" d="M1792,-85.11C1792,-104.95 1792,-133.8 1792,-133.8 1792,-133.8 912.05,-133.8 912.05,-133.8"/>
<polygon fill="black" stroke="black" points="912.05,-130.3 902.05,-133.8 912.05,-137.3 912.05,-130.3"/>
</g>
<!-- GlobalSearchFilterComponent -->
<g id="node2" class="node">
<title>GlobalSearchFilterComponent</title>
<polygon fill="#ffffb3" stroke="black" points="1685.86,-84.8 1498.14,-84.8 1498.14,-48.8 1685.86,-48.8 1685.86,-84.8"/>
<text text-anchor="middle" x="1592" y="-62.6" font-family="Times,serif" font-size="14.00">GlobalSearchFilterComponent</text>
</g>
<!-- GlobalSearchFilterComponent&#45;&gt;ContentSearchModule -->
<g id="edge2" class="edge">
<title>GlobalSearchFilterComponent&#45;&gt;ContentSearchModule</title>
<path fill="none" stroke="black" d="M1572.15,-85.02C1572.15,-103.63 1572.15,-129.8 1572.15,-129.8 1572.15,-129.8 912.06,-129.8 912.06,-129.8"/>
<polygon fill="black" stroke="black" points="912.06,-126.3 902.06,-129.8 912.06,-133.3 912.06,-126.3"/>
</g>
<!-- GlobalSearchSelectedFilterComponent -->
<g id="node3" class="node">
<title>GlobalSearchSelectedFilterComponent</title>
<polygon fill="#ffffb3" stroke="black" points="1479.78,-84.8 1244.22,-84.8 1244.22,-48.8 1479.78,-48.8 1479.78,-84.8"/>
<text text-anchor="middle" x="1362" y="-62.6" font-family="Times,serif" font-size="14.00">GlobalSearchSelectedFilterComponent</text>
</g>
<!-- GlobalSearchSelectedFilterComponent&#45;&gt;ContentSearchModule -->
<g id="edge3" class="edge">
<title>GlobalSearchSelectedFilterComponent&#45;&gt;ContentSearchModule</title>
<path fill="none" stroke="black" d="M1250.34,-84.82C1250.34,-102.17 1250.34,-125.8 1250.34,-125.8 1250.34,-125.8 912.14,-125.8 912.14,-125.8"/>
<polygon fill="black" stroke="black" points="912.14,-122.3 902.14,-125.8 912.14,-129.3 912.14,-122.3"/>
</g>
<!-- NoResultComponent -->
<g id="node4" class="node">
<title>NoResultComponent</title>
<polygon fill="#ffffb3" stroke="black" points="1226.22,-84.8 1091.78,-84.8 1091.78,-48.8 1226.22,-48.8 1226.22,-84.8"/>
<text text-anchor="middle" x="1159" y="-62.6" font-family="Times,serif" font-size="14.00">NoResultComponent</text>
</g>
<!-- NoResultComponent&#45;&gt;ContentSearchModule -->
<g id="edge4" class="edge">
<title>NoResultComponent&#45;&gt;ContentSearchModule</title>
<path fill="none" stroke="black" d="M1159,-84.81C1159,-100.85 1159,-121.8 1159,-121.8 1159,-121.8 912.17,-121.8 912.17,-121.8"/>
<polygon fill="black" stroke="black" points="912.17,-118.3 902.17,-121.8 912.17,-125.3 912.17,-118.3"/>
</g>
<!-- PageSectionComponent -->
<g id="node5" class="node">
<title>PageSectionComponent</title>
<polygon fill="#ffffb3" stroke="black" points="1074.04,-84.8 923.96,-84.8 923.96,-48.8 1074.04,-48.8 1074.04,-84.8"/>
<text text-anchor="middle" x="999" y="-62.6" font-family="Times,serif" font-size="14.00">PageSectionComponent</text>
</g>
<!-- PageSectionComponent&#45;&gt;ContentSearchModule -->
<g id="edge5" class="edge">
<title>PageSectionComponent&#45;&gt;ContentSearchModule</title>
<path fill="none" stroke="black" d="M952.8,-84.92C952.8,-99.58 952.8,-117.8 952.8,-117.8 952.8,-117.8 912.2,-117.8 912.2,-117.8"/>
<polygon fill="black" stroke="black" points="912.2,-114.3 902.2,-117.8 912.2,-121.3 912.2,-114.3"/>
</g>
<!-- SearchFilterComponent -->
<g id="node6" class="node">
<title>SearchFilterComponent</title>
<polygon fill="#ffffb3" stroke="black" points="905.75,-84.8 756.25,-84.8 756.25,-48.8 905.75,-48.8 905.75,-84.8"/>
<text text-anchor="middle" x="831" y="-62.6" font-family="Times,serif" font-size="14.00">SearchFilterComponent</text>
</g>
<!-- SearchFilterComponent&#45;&gt;ContentSearchModule -->
<g id="edge6" class="edge">
<title>SearchFilterComponent&#45;&gt;ContentSearchModule</title>
<path fill="none" stroke="black" d="M831,-84.91C831,-84.91 831,-103.79 831,-103.79"/>
<polygon fill="black" stroke="black" points="827.5,-103.79 831,-113.79 834.5,-103.79 827.5,-103.79"/>
</g>
<!-- TopicPickerComponent -->
<g id="node7" class="node">
<title>TopicPickerComponent</title>
<polygon fill="#ffffb3" stroke="black" points="737.75,-84.8 588.25,-84.8 588.25,-48.8 737.75,-48.8 737.75,-84.8"/>
<text text-anchor="middle" x="663" y="-62.6" font-family="Times,serif" font-size="14.00">TopicPickerComponent</text>
</g>
<!-- TopicPickerComponent&#45;&gt;ContentSearchModule -->
<g id="edge7" class="edge">
<title>TopicPickerComponent&#45;&gt;ContentSearchModule</title>
<path fill="none" stroke="black" d="M704.93,-84.92C704.93,-99.58 704.93,-117.8 704.93,-117.8 704.93,-117.8 749.86,-117.8 749.86,-117.8"/>
<polygon fill="black" stroke="black" points="749.86,-121.3 759.86,-117.8 749.86,-114.3 749.86,-121.3"/>
</g>
<!-- ViewAllComponent -->
<g id="node8" class="node">
<title>ViewAllComponent</title>
<polygon fill="#ffffb3" stroke="black" points="569.55,-84.8 440.45,-84.8 440.45,-48.8 569.55,-48.8 569.55,-84.8"/>
<text text-anchor="middle" x="505" y="-62.6" font-family="Times,serif" font-size="14.00">ViewAllComponent</text>
</g>
<!-- ViewAllComponent&#45;&gt;ContentSearchModule -->
<g id="edge8" class="edge">
<title>ViewAllComponent&#45;&gt;ContentSearchModule</title>
<path fill="none" stroke="black" d="M535.07,-84.81C535.07,-100.85 535.07,-121.8 535.07,-121.8 535.07,-121.8 749.74,-121.8 749.74,-121.8"/>
<polygon fill="black" stroke="black" points="749.74,-125.3 759.74,-121.8 749.74,-118.3 749.74,-125.3"/>
</g>
<!-- DataDrivenFilterComponent  -->
<g id="node13" class="node">
<title>DataDrivenFilterComponent </title>
<polygon fill="#fb8072" stroke="black" points="1646.47,-214.8 1465.53,-214.8 1465.53,-178.8 1646.47,-178.8 1646.47,-214.8"/>
<text text-anchor="middle" x="1556" y="-192.6" font-family="Times,serif" font-size="14.00">DataDrivenFilterComponent </text>
</g>
<!-- ContentSearchModule&#45;&gt;DataDrivenFilterComponent  -->
<g id="edge12" class="edge">
<title>ContentSearchModule&#45;&gt;DataDrivenFilterComponent </title>
<path fill="none" stroke="black" stroke-dasharray="5,2" d="M902.13,-137.8C1069.2,-137.8 1472.7,-137.8 1472.7,-137.8 1472.7,-137.8 1472.7,-168.78 1472.7,-168.78"/>
<polygon fill="black" stroke="black" points="1469.2,-168.78 1472.7,-178.78 1476.2,-168.78 1469.2,-168.78"/>
</g>
<!-- GlobalSearchFilterComponent  -->
<g id="node14" class="node">
<title>GlobalSearchFilterComponent </title>
<polygon fill="#fb8072" stroke="black" points="1447.86,-214.8 1256.14,-214.8 1256.14,-178.8 1447.86,-178.8 1447.86,-214.8"/>
<text text-anchor="middle" x="1352" y="-192.6" font-family="Times,serif" font-size="14.00">GlobalSearchFilterComponent </text>
</g>
<!-- ContentSearchModule&#45;&gt;GlobalSearchFilterComponent  -->
<g id="edge13" class="edge">
<title>ContentSearchModule&#45;&gt;GlobalSearchFilterComponent </title>
<path fill="none" stroke="black" stroke-dasharray="5,2" d="M902.08,-141.8C1044.65,-141.8 1352,-141.8 1352,-141.8 1352,-141.8 1352,-168.79 1352,-168.79"/>
<polygon fill="black" stroke="black" points="1348.5,-168.79 1352,-178.79 1355.5,-168.79 1348.5,-168.79"/>
</g>
<!-- GlobalSearchSelectedFilterComponent  -->
<g id="node15" class="node">
<title>GlobalSearchSelectedFilterComponent </title>
<polygon fill="#fb8072" stroke="black" points="1238.28,-214.8 999.72,-214.8 999.72,-178.8 1238.28,-178.8 1238.28,-214.8"/>
<text text-anchor="middle" x="1119" y="-192.6" font-family="Times,serif" font-size="14.00">GlobalSearchSelectedFilterComponent </text>
</g>
<!-- ContentSearchModule&#45;&gt;GlobalSearchSelectedFilterComponent  -->
<g id="edge14" class="edge">
<title>ContentSearchModule&#45;&gt;GlobalSearchSelectedFilterComponent </title>
<path fill="none" stroke="black" stroke-dasharray="5,2" d="M902.16,-145.8C961.69,-145.8 1036.94,-145.8 1036.94,-145.8 1036.94,-145.8 1036.94,-168.68 1036.94,-168.68"/>
<polygon fill="black" stroke="black" points="1033.44,-168.68 1036.94,-178.68 1040.44,-168.68 1033.44,-168.68"/>
</g>
<!-- NoResultComponent  -->
<g id="node16" class="node">
<title>NoResultComponent </title>
<polygon fill="#fb8072" stroke="black" points="981.72,-214.8 844.28,-214.8 844.28,-178.8 981.72,-178.8 981.72,-214.8"/>
<text text-anchor="middle" x="913" y="-192.6" font-family="Times,serif" font-size="14.00">NoResultComponent </text>
</g>
<!-- ContentSearchModule&#45;&gt;NoResultComponent  -->
<g id="edge15" class="edge">
<title>ContentSearchModule&#45;&gt;NoResultComponent </title>
<path fill="none" stroke="black" stroke-dasharray="5,2" d="M873.06,-149.91C873.06,-149.91 873.06,-168.79 873.06,-168.79"/>
<polygon fill="black" stroke="black" points="869.56,-168.79 873.06,-178.79 876.56,-168.79 869.56,-168.79"/>
</g>
<!-- PageSectionComponent  -->
<g id="node17" class="node">
<title>PageSectionComponent </title>
<polygon fill="#fb8072" stroke="black" points="826.04,-214.8 671.96,-214.8 671.96,-178.8 826.04,-178.8 826.04,-214.8"/>
<text text-anchor="middle" x="749" y="-192.6" font-family="Times,serif" font-size="14.00">PageSectionComponent </text>
</g>
<!-- ContentSearchModule&#45;&gt;PageSectionComponent  -->
<g id="edge16" class="edge">
<title>ContentSearchModule&#45;&gt;PageSectionComponent </title>
<path fill="none" stroke="black" stroke-dasharray="5,2" d="M793.02,-149.91C793.02,-149.91 793.02,-168.79 793.02,-168.79"/>
<polygon fill="black" stroke="black" points="789.52,-168.79 793.02,-178.79 796.52,-168.79 789.52,-168.79"/>
</g>
<!-- SearchFilterComponent  -->
<g id="node18" class="node">
<title>SearchFilterComponent </title>
<polygon fill="#fb8072" stroke="black" points="653.75,-214.8 500.25,-214.8 500.25,-178.8 653.75,-178.8 653.75,-214.8"/>
<text text-anchor="middle" x="577" y="-192.6" font-family="Times,serif" font-size="14.00">SearchFilterComponent </text>
</g>
<!-- ContentSearchModule&#45;&gt;SearchFilterComponent  -->
<g id="edge17" class="edge">
<title>ContentSearchModule&#45;&gt;SearchFilterComponent </title>
<path fill="none" stroke="black" stroke-dasharray="5,2" d="M759.86,-145.8C698.9,-145.8 620.88,-145.8 620.88,-145.8 620.88,-145.8 620.88,-168.68 620.88,-168.68"/>
<polygon fill="black" stroke="black" points="617.38,-168.68 620.88,-178.68 624.38,-168.68 617.38,-168.68"/>
</g>
<!-- TopicPickerComponent  -->
<g id="node19" class="node">
<title>TopicPickerComponent </title>
<polygon fill="#fb8072" stroke="black" points="482.75,-214.8 329.25,-214.8 329.25,-178.8 482.75,-178.8 482.75,-214.8"/>
<text text-anchor="middle" x="406" y="-192.6" font-family="Times,serif" font-size="14.00">TopicPickerComponent </text>
</g>
<!-- ContentSearchModule&#45;&gt;TopicPickerComponent  -->
<g id="edge18" class="edge">
<title>ContentSearchModule&#45;&gt;TopicPickerComponent </title>
<path fill="none" stroke="black" stroke-dasharray="5,2" d="M759.74,-141.8C652.35,-141.8 461.43,-141.8 461.43,-141.8 461.43,-141.8 461.43,-168.79 461.43,-168.79"/>
<polygon fill="black" stroke="black" points="457.93,-168.79 461.43,-178.79 464.93,-168.79 457.93,-168.79"/>
</g>
<!-- ViewAllComponent  -->
<g id="node20" class="node">
<title>ViewAllComponent </title>
<polygon fill="#fb8072" stroke="black" points="311.54,-214.8 178.46,-214.8 178.46,-178.8 311.54,-178.8 311.54,-214.8"/>
<text text-anchor="middle" x="245" y="-192.6" font-family="Times,serif" font-size="14.00">ViewAllComponent </text>
</g>
<!-- ContentSearchModule&#45;&gt;ViewAllComponent  -->
<g id="edge19" class="edge">
<title>ContentSearchModule&#45;&gt;ViewAllComponent </title>
<path fill="none" stroke="black" stroke-dasharray="5,2" d="M759.92,-137.8C613.88,-137.8 293.66,-137.8 293.66,-137.8 293.66,-137.8 293.66,-168.78 293.66,-168.78"/>
<polygon fill="black" stroke="black" points="290.16,-168.78 293.66,-178.78 297.16,-168.78 290.16,-168.78"/>
</g>
<!-- SharedFeatureModule -->
<g id="node10" class="node">
<title>SharedFeatureModule</title>
<polygon fill="#8dd3c7" stroke="black" points="416.41,-84.8 413.41,-88.8 392.41,-88.8 389.41,-84.8 275.59,-84.8 275.59,-48.8 416.41,-48.8 416.41,-84.8"/>
<text text-anchor="middle" x="346" y="-62.6" font-family="Times,serif" font-size="14.00">SharedFeatureModule</text>
</g>
<!-- SharedFeatureModule&#45;&gt;ContentSearchModule -->
<g id="edge9" class="edge">
<title>SharedFeatureModule&#45;&gt;ContentSearchModule</title>
<path fill="none" stroke="black" d="M372.79,-84.82C372.79,-102.17 372.79,-125.8 372.79,-125.8 372.79,-125.8 749.91,-125.8 749.91,-125.8"/>
<polygon fill="black" stroke="black" points="749.91,-129.3 759.91,-125.8 749.91,-122.3 749.91,-129.3"/>
</g>
<!-- SharedModule -->
<g id="node11" class="node">
<title>SharedModule</title>
<polygon fill="#8dd3c7" stroke="black" points="258.43,-84.8 255.43,-88.8 234.43,-88.8 231.43,-84.8 159.57,-84.8 159.57,-48.8 258.43,-48.8 258.43,-84.8"/>
<text text-anchor="middle" x="209" y="-62.6" font-family="Times,serif" font-size="14.00">SharedModule</text>
</g>
<!-- SharedModule&#45;&gt;ContentSearchModule -->
<g id="edge10" class="edge">
<title>SharedModule&#45;&gt;ContentSearchModule</title>
<path fill="none" stroke="black" d="M218.35,-85.02C218.35,-103.63 218.35,-129.8 218.35,-129.8 218.35,-129.8 749.82,-129.8 749.82,-129.8"/>
<polygon fill="black" stroke="black" points="749.82,-133.3 759.82,-129.8 749.82,-126.3 749.82,-133.3"/>
</g>
<!-- TelemetryModule -->
<g id="node12" class="node">
<title>TelemetryModule</title>
<polygon fill="#8dd3c7" stroke="black" points="141.58,-84.8 138.58,-88.8 117.58,-88.8 114.58,-84.8 24.42,-84.8 24.42,-48.8 141.58,-48.8 141.58,-84.8"/>
<text text-anchor="middle" x="83" y="-62.6" font-family="Times,serif" font-size="14.00">TelemetryModule</text>
</g>
<!-- TelemetryModule&#45;&gt;ContentSearchModule -->
<g id="edge11" class="edge">
<title>TelemetryModule&#45;&gt;ContentSearchModule</title>
<path fill="none" stroke="black" d="M83,-85.11C83,-104.95 83,-133.8 83,-133.8 83,-133.8 749.96,-133.8 749.96,-133.8"/>
<polygon fill="black" stroke="black" points="749.96,-137.3 759.96,-133.8 749.96,-130.3 749.96,-137.3"/>
</g>
</g>
</svg>
