<?xml version="1.0" encoding="UTF-8" standalone="no"?>
<!DOCTYPE svg PUBLIC "-//W3C//DTD SVG 1.1//EN"
 "http://www.w3.org/Graphics/SVG/1.1/DTD/svg11.dtd">
<!-- Generated by graphviz version 5.0.0 (20220707.1540)
 -->
<!-- Title: dependencies Pages: 1 -->
<svg width="1912pt" height="247pt"
 viewBox="0.00 0.00 1912.00 246.80" xmlns="http://www.w3.org/2000/svg" xmlns:xlink="http://www.w3.org/1999/xlink">
<g id="graph0" class="graph" transform="scale(1 1) rotate(0) translate(4 242.8)">
<title>dependencies</title>
<polygon fill="white" stroke="transparent" points="-4,4 -4,-242.8 1908,-242.8 1908,4 -4,4"/>
<text text-anchor="middle" x="952" y="-8.2" font-family="sans-serif" font-size="14.00">dependencies</text>
<g id="clust1" class="cluster">
<title>cluster_ContentSearchModule</title>
<polygon fill="none" stroke="black" stroke-dasharray="1,5" points="8,-32.8 8,-230.8 1896,-230.8 1896,-32.8 8,-32.8"/>
</g>
<g id="clust11" class="cluster">
<title>cluster_ContentSearchModule_imports</title>
<polygon fill="none" stroke="black" points="1480,-40.8 1480,-92.8 1888,-92.8 1888,-40.8 1480,-40.8"/>
</g>
<g id="clust2" class="cluster">
<title>cluster_ContentSearchModule_declarations</title>
<polygon fill="none" stroke="black" points="16,-40.8 16,-92.8 1472,-92.8 1472,-40.8 16,-40.8"/>
</g>
<g id="clust12" class="cluster">
<title>cluster_ContentSearchModule_exports</title>
<polygon fill="none" stroke="black" points="285,-170.8 285,-222.8 1769,-222.8 1769,-170.8 285,-170.8"/>
</g>
<!-- DataDrivenFilterComponent -->
<g id="node1" class="node">
<title>DataDrivenFilterComponent</title>
<polygon fill="#ffffb3" stroke="black" points="1464.47,-84.8 1287.53,-84.8 1287.53,-48.8 1464.47,-48.8 1464.47,-84.8"/>
<text text-anchor="middle" x="1376" y="-62.6" font-family="Times,serif" font-size="14.00">DataDrivenFilterComponent</text>
</g>
<!-- ContentSearchModule -->
<g id="node9" class="node">
<title>ContentSearchModule</title>
<polygon fill="#8dd3c7" stroke="black" points="1016.97,-149.8 1013.97,-153.8 992.97,-153.8 989.97,-149.8 875.03,-149.8 875.03,-113.8 1016.97,-113.8 1016.97,-149.8"/>
<text text-anchor="middle" x="946" y="-127.6" font-family="Times,serif" font-size="14.00">ContentSearchModule</text>
</g>
<!-- DataDrivenFilterComponent&#45;&gt;ContentSearchModule -->
<g id="edge1" class="edge">
<title>DataDrivenFilterComponent&#45;&gt;ContentSearchModule</title>
<path fill="none" stroke="black" d="M1320.45,-84.81C1320.45,-100.85 1320.45,-121.8 1320.45,-121.8 1320.45,-121.8 1027.31,-121.8 1027.31,-121.8"/>
<polygon fill="black" stroke="black" points="1027.31,-118.3 1017.31,-121.8 1027.31,-125.3 1027.31,-118.3"/>
</g>
<!-- GlobalSearchFilterComponent -->
<g id="node2" class="node">
<title>GlobalSearchFilterComponent</title>
<polygon fill="#ffffb3" stroke="black" points="1269.86,-84.8 1082.14,-84.8 1082.14,-48.8 1269.86,-48.8 1269.86,-84.8"/>
<text text-anchor="middle" x="1176" y="-62.6" font-family="Times,serif" font-size="14.00">GlobalSearchFilterComponent</text>
</g>
<!-- GlobalSearchFilterComponent&#45;&gt;ContentSearchModule -->
<g id="edge2" class="edge">
<title>GlobalSearchFilterComponent&#45;&gt;ContentSearchModule</title>
<path fill="none" stroke="black" d="M1089.47,-84.92C1089.47,-99.58 1089.47,-117.8 1089.47,-117.8 1089.47,-117.8 1027.31,-117.8 1027.31,-117.8"/>
<polygon fill="black" stroke="black" points="1027.31,-114.3 1017.31,-117.8 1027.31,-121.3 1027.31,-114.3"/>
</g>
<!-- GlobalSearchSelectedFilterComponent -->
<g id="node3" class="node">
<title>GlobalSearchSelectedFilterComponent</title>
<polygon fill="#ffffb3" stroke="black" points="1063.78,-84.8 828.22,-84.8 828.22,-48.8 1063.78,-48.8 1063.78,-84.8"/>
<text text-anchor="middle" x="946" y="-62.6" font-family="Times,serif" font-size="14.00">GlobalSearchSelectedFilterComponent</text>
</g>
<!-- GlobalSearchSelectedFilterComponent&#45;&gt;ContentSearchModule -->
<g id="edge3" class="edge">
<title>GlobalSearchSelectedFilterComponent&#45;&gt;ContentSearchModule</title>
<path fill="none" stroke="black" d="M946,-84.91C946,-84.91 946,-103.79 946,-103.79"/>
<polygon fill="black" stroke="black" points="942.5,-103.79 946,-113.79 949.5,-103.79 942.5,-103.79"/>
</g>
<!-- NoResultComponent -->
<g id="node4" class="node">
<title>NoResultComponent</title>
<polygon fill="#ffffb3" stroke="black" points="810.22,-84.8 675.78,-84.8 675.78,-48.8 810.22,-48.8 810.22,-84.8"/>
<text text-anchor="middle" x="743" y="-62.6" font-family="Times,serif" font-size="14.00">NoResultComponent</text>
</g>
<!-- NoResultComponent&#45;&gt;ContentSearchModule -->
<g id="edge4" class="edge">
<title>NoResultComponent&#45;&gt;ContentSearchModule</title>
<path fill="none" stroke="black" d="M798.55,-84.92C798.55,-99.58 798.55,-117.8 798.55,-117.8 798.55,-117.8 864.86,-117.8 864.86,-117.8"/>
<polygon fill="black" stroke="black" points="864.86,-121.3 874.86,-117.8 864.86,-114.3 864.86,-121.3"/>
</g>
<!-- PageSectionComponent -->
<g id="node5" class="node">
<title>PageSectionComponent</title>
<polygon fill="#ffffb3" stroke="black" points="658.04,-84.8 507.96,-84.8 507.96,-48.8 658.04,-48.8 658.04,-84.8"/>
<text text-anchor="middle" x="583" y="-62.6" font-family="Times,serif" font-size="14.00">PageSectionComponent</text>
</g>
<!-- PageSectionComponent&#45;&gt;ContentSearchModule -->
<g id="edge5" class="edge">
<title>PageSectionComponent&#45;&gt;ContentSearchModule</title>
<path fill="none" stroke="black" d="M636.82,-84.81C636.82,-100.85 636.82,-121.8 636.82,-121.8 636.82,-121.8 864.68,-121.8 864.68,-121.8"/>
<polygon fill="black" stroke="black" points="864.68,-125.3 874.68,-121.8 864.68,-118.3 864.68,-125.3"/>
</g>
<!-- SearchFilterComponent -->
<g id="node6" class="node">
<title>SearchFilterComponent</title>
<polygon fill="#ffffb3" stroke="black" points="489.75,-84.8 340.25,-84.8 340.25,-48.8 489.75,-48.8 489.75,-84.8"/>
<text text-anchor="middle" x="415" y="-62.6" font-family="Times,serif" font-size="14.00">SearchFilterComponent</text>
</g>
<!-- SearchFilterComponent&#45;&gt;ContentSearchModule -->
<g id="edge6" class="edge">
<title>SearchFilterComponent&#45;&gt;ContentSearchModule</title>
<path fill="none" stroke="black" d="M467.12,-84.82C467.12,-102.17 467.12,-125.8 467.12,-125.8 467.12,-125.8 864.82,-125.8 864.82,-125.8"/>
<polygon fill="black" stroke="black" points="864.82,-129.3 874.82,-125.8 864.82,-122.3 864.82,-129.3"/>
</g>
<!-- TopicPickerComponent -->
<g id="node7" class="node">
<title>TopicPickerComponent</title>
<polygon fill="#ffffb3" stroke="black" points="321.75,-84.8 172.25,-84.8 172.25,-48.8 321.75,-48.8 321.75,-84.8"/>
<text text-anchor="middle" x="247" y="-62.6" font-family="Times,serif" font-size="14.00">TopicPickerComponent</text>
</g>
<!-- TopicPickerComponent&#45;&gt;ContentSearchModule -->
<g id="edge7" class="edge">
<title>TopicPickerComponent&#45;&gt;ContentSearchModule</title>
<path fill="none" stroke="black" d="M307.68,-85.02C307.68,-103.63 307.68,-129.8 307.68,-129.8 307.68,-129.8 864.94,-129.8 864.94,-129.8"/>
<polygon fill="black" stroke="black" points="864.94,-133.3 874.94,-129.8 864.94,-126.3 864.94,-133.3"/>
</g>
<!-- ViewAllComponent -->
<g id="node8" class="node">
<title>ViewAllComponent</title>
<polygon fill="#ffffb3" stroke="black" points="153.55,-84.8 24.45,-84.8 24.45,-48.8 153.55,-48.8 153.55,-84.8"/>
<text text-anchor="middle" x="89" y="-62.6" font-family="Times,serif" font-size="14.00">ViewAllComponent</text>
</g>
<!-- ViewAllComponent&#45;&gt;ContentSearchModule -->
<g id="edge8" class="edge">
<title>ViewAllComponent&#45;&gt;ContentSearchModule</title>
<path fill="none" stroke="black" d="M89,-85.11C89,-104.95 89,-133.8 89,-133.8 89,-133.8 864.77,-133.8 864.77,-133.8"/>
<polygon fill="black" stroke="black" points="864.77,-137.3 874.77,-133.8 864.77,-130.3 864.77,-137.3"/>
</g>
<!-- DataDrivenFilterComponent  -->
<g id="node13" class="node">
<title>DataDrivenFilterComponent </title>
<polygon fill="#fb8072" stroke="black" points="1761.47,-214.8 1580.53,-214.8 1580.53,-178.8 1761.47,-178.8 1761.47,-214.8"/>
<text text-anchor="middle" x="1671" y="-192.6" font-family="Times,serif" font-size="14.00">DataDrivenFilterComponent </text>
</g>
<!-- ContentSearchModule&#45;&gt;DataDrivenFilterComponent  -->
<g id="edge12" class="edge">
<title>ContentSearchModule&#45;&gt;DataDrivenFilterComponent </title>
<path fill="none" stroke="black" stroke-dasharray="5,2" d="M1017.11,-137.8C1185.22,-137.8 1593.15,-137.8 1593.15,-137.8 1593.15,-137.8 1593.15,-168.78 1593.15,-168.78"/>
<polygon fill="black" stroke="black" points="1589.65,-168.78 1593.15,-178.78 1596.65,-168.78 1589.65,-168.78"/>
</g>
<!-- GlobalSearchFilterComponent  -->
<g id="node14" class="node">
<title>GlobalSearchFilterComponent </title>
<polygon fill="#fb8072" stroke="black" points="1562.86,-214.8 1371.14,-214.8 1371.14,-178.8 1562.86,-178.8 1562.86,-214.8"/>
<text text-anchor="middle" x="1467" y="-192.6" font-family="Times,serif" font-size="14.00">GlobalSearchFilterComponent </text>
</g>
<!-- ContentSearchModule&#45;&gt;GlobalSearchFilterComponent  -->
<g id="edge13" class="edge">
<title>ContentSearchModule&#45;&gt;GlobalSearchFilterComponent </title>
<path fill="none" stroke="black" stroke-dasharray="5,2" d="M1017.16,-141.8C1148.99,-141.8 1417.9,-141.8 1417.9,-141.8 1417.9,-141.8 1417.9,-168.79 1417.9,-168.79"/>
<polygon fill="black" stroke="black" points="1414.4,-168.79 1417.9,-178.79 1421.4,-168.79 1414.4,-168.79"/>
</g>
<!-- GlobalSearchSelectedFilterComponent  -->
<g id="node15" class="node">
<title>GlobalSearchSelectedFilterComponent </title>
<polygon fill="#fb8072" stroke="black" points="1353.28,-214.8 1114.72,-214.8 1114.72,-178.8 1353.28,-178.8 1353.28,-214.8"/>
<text text-anchor="middle" x="1234" y="-192.6" font-family="Times,serif" font-size="14.00">GlobalSearchSelectedFilterComponent </text>
</g>
<!-- ContentSearchModule&#45;&gt;GlobalSearchSelectedFilterComponent  -->
<g id="edge14" class="edge">
<title>ContentSearchModule&#45;&gt;GlobalSearchSelectedFilterComponent </title>
<path fill="none" stroke="black" stroke-dasharray="5,2" d="M1017.23,-145.8C1089.96,-145.8 1192.27,-145.8 1192.27,-145.8 1192.27,-145.8 1192.27,-168.68 1192.27,-168.68"/>
<polygon fill="black" stroke="black" points="1188.77,-168.68 1192.27,-178.68 1195.77,-168.68 1188.77,-168.68"/>
</g>
<!-- NoResultComponent  -->
<g id="node16" class="node">
<title>NoResultComponent </title>
<polygon fill="#fb8072" stroke="black" points="1096.72,-214.8 959.28,-214.8 959.28,-178.8 1096.72,-178.8 1096.72,-214.8"/>
<text text-anchor="middle" x="1028" y="-192.6" font-family="Times,serif" font-size="14.00">NoResultComponent </text>
</g>
<!-- ContentSearchModule&#45;&gt;NoResultComponent  -->
<g id="edge15" class="edge">
<title>ContentSearchModule&#45;&gt;NoResultComponent </title>
<path fill="none" stroke="black" stroke-dasharray="5,2" d="M988.06,-149.91C988.06,-149.91 988.06,-168.79 988.06,-168.79"/>
<polygon fill="black" stroke="black" points="984.56,-168.79 988.06,-178.79 991.56,-168.79 984.56,-168.79"/>
</g>
<!-- PageSectionComponent  -->
<g id="node17" class="node">
<title>PageSectionComponent </title>
<polygon fill="#fb8072" stroke="black" points="941.04,-214.8 786.96,-214.8 786.96,-178.8 941.04,-178.8 941.04,-214.8"/>
<text text-anchor="middle" x="864" y="-192.6" font-family="Times,serif" font-size="14.00">PageSectionComponent </text>
</g>
<!-- ContentSearchModule&#45;&gt;PageSectionComponent  -->
<g id="edge16" class="edge">
<title>ContentSearchModule&#45;&gt;PageSectionComponent </title>
<path fill="none" stroke="black" stroke-dasharray="5,2" d="M908.02,-149.91C908.02,-149.91 908.02,-168.79 908.02,-168.79"/>
<polygon fill="black" stroke="black" points="904.52,-168.79 908.02,-178.79 911.52,-168.79 904.52,-168.79"/>
</g>
<!-- SearchFilterComponent  -->
<g id="node18" class="node">
<title>SearchFilterComponent </title>
<polygon fill="#fb8072" stroke="black" points="768.75,-214.8 615.25,-214.8 615.25,-178.8 768.75,-178.8 768.75,-214.8"/>
<text text-anchor="middle" x="692" y="-192.6" font-family="Times,serif" font-size="14.00">SearchFilterComponent </text>
</g>
<!-- ContentSearchModule&#45;&gt;SearchFilterComponent  -->
<g id="edge17" class="edge">
<title>ContentSearchModule&#45;&gt;SearchFilterComponent </title>
<path fill="none" stroke="black" stroke-dasharray="5,2" d="M874.9,-145.8C809.38,-145.8 722.26,-145.8 722.26,-145.8 722.26,-145.8 722.26,-168.68 722.26,-168.68"/>
<polygon fill="black" stroke="black" points="718.76,-168.68 722.26,-178.68 725.76,-168.68 718.76,-168.68"/>
</g>
<!-- TopicPickerComponent  -->
<g id="node19" class="node">
<title>TopicPickerComponent </title>
<polygon fill="#fb8072" stroke="black" points="597.75,-214.8 444.25,-214.8 444.25,-178.8 597.75,-178.8 597.75,-214.8"/>
<text text-anchor="middle" x="521" y="-192.6" font-family="Times,serif" font-size="14.00">TopicPickerComponent </text>
</g>
<!-- ContentSearchModule&#45;&gt;TopicPickerComponent  -->
<g id="edge18" class="edge">
<title>ContentSearchModule&#45;&gt;TopicPickerComponent </title>
<path fill="none" stroke="black" stroke-dasharray="5,2" d="M874.77,-141.8C761.43,-141.8 552.68,-141.8 552.68,-141.8 552.68,-141.8 552.68,-168.79 552.68,-168.79"/>
<polygon fill="black" stroke="black" points="549.18,-168.79 552.68,-178.79 556.18,-168.79 549.18,-168.79"/>
</g>
<!-- ViewAllComponent  -->
<g id="node20" class="node">
<title>ViewAllComponent </title>
<polygon fill="#fb8072" stroke="black" points="426.54,-214.8 293.46,-214.8 293.46,-178.8 426.54,-178.8 426.54,-214.8"/>
<text text-anchor="middle" x="360" y="-192.6" font-family="Times,serif" font-size="14.00">ViewAllComponent </text>
</g>
<!-- ContentSearchModule&#45;&gt;ViewAllComponent  -->
<g id="edge19" class="edge">
<title>ContentSearchModule&#45;&gt;ViewAllComponent </title>
<path fill="none" stroke="black" stroke-dasharray="5,2" d="M875.02,-137.8C723.76,-137.8 383.32,-137.8 383.32,-137.8 383.32,-137.8 383.32,-168.78 383.32,-168.78"/>
<polygon fill="black" stroke="black" points="379.82,-168.78 383.32,-178.78 386.82,-168.78 379.82,-168.78"/>
</g>
<!-- SharedFeatureModule -->
<g id="node10" class="node">
<title>SharedFeatureModule</title>
<polygon fill="#8dd3c7" stroke="black" points="1880.41,-84.8 1877.41,-88.8 1856.41,-88.8 1853.41,-84.8 1739.59,-84.8 1739.59,-48.8 1880.41,-48.8 1880.41,-84.8"/>
<text text-anchor="middle" x="1810" y="-62.6" font-family="Times,serif" font-size="14.00">SharedFeatureModule</text>
</g>
<!-- SharedFeatureModule&#45;&gt;ContentSearchModule -->
<g id="edge9" class="edge">
<title>SharedFeatureModule&#45;&gt;ContentSearchModule</title>
<path fill="none" stroke="black" d="M1750.51,-85.11C1750.51,-104.95 1750.51,-133.8 1750.51,-133.8 1750.51,-133.8 1027.04,-133.8 1027.04,-133.8"/>
<polygon fill="black" stroke="black" points="1027.04,-130.3 1017.04,-133.8 1027.04,-137.3 1027.04,-130.3"/>
</g>
<!-- SharedModule -->
<g id="node11" class="node">
<title>SharedModule</title>
<polygon fill="#8dd3c7" stroke="black" points="1722.43,-84.8 1719.43,-88.8 1698.43,-88.8 1695.43,-84.8 1623.57,-84.8 1623.57,-48.8 1722.43,-48.8 1722.43,-84.8"/>
<text text-anchor="middle" x="1673" y="-62.6" font-family="Times,serif" font-size="14.00">SharedModule</text>
</g>
<!-- SharedModule&#45;&gt;ContentSearchModule -->
<g id="edge10" class="edge">
<title>SharedModule&#45;&gt;ContentSearchModule</title>
<path fill="none" stroke="black" d="M1673,-85.02C1673,-103.63 1673,-129.8 1673,-129.8 1673,-129.8 1027.03,-129.8 1027.03,-129.8"/>
<polygon fill="black" stroke="black" points="1027.03,-126.3 1017.03,-129.8 1027.03,-133.3 1027.03,-126.3"/>
</g>
<!-- TelemetryModule -->
<g id="node12" class="node">
<title>TelemetryModule</title>
<polygon fill="#8dd3c7" stroke="black" points="1605.58,-84.8 1602.58,-88.8 1581.58,-88.8 1578.58,-84.8 1488.42,-84.8 1488.42,-48.8 1605.58,-48.8 1605.58,-84.8"/>
<text text-anchor="middle" x="1547" y="-62.6" font-family="Times,serif" font-size="14.00">TelemetryModule</text>
</g>
<!-- TelemetryModule&#45;&gt;ContentSearchModule -->
<g id="edge11" class="edge">
<title>TelemetryModule&#45;&gt;ContentSearchModule</title>
<path fill="none" stroke="black" d="M1525.57,-84.82C1525.57,-102.17 1525.57,-125.8 1525.57,-125.8 1525.57,-125.8 1027.07,-125.8 1027.07,-125.8"/>
<polygon fill="black" stroke="black" points="1027.07,-122.3 1017.07,-125.8 1027.07,-129.3 1027.07,-122.3"/>
</g>
</g>
</svg>
