<?xml version="1.0" encoding="UTF-8" standalone="no"?>
<!DOCTYPE svg PUBLIC "-//W3C//DTD SVG 1.1//EN"
 "http://www.w3.org/Graphics/SVG/1.1/DTD/svg11.dtd">
<!-- Generated by graphviz version 5.0.0 (20220707.1540)
 -->
<!-- Title: dependencies Pages: 1 -->
<svg width="1189pt" height="247pt"
 viewBox="0.00 0.00 1189.00 246.80" xmlns="http://www.w3.org/2000/svg" xmlns:xlink="http://www.w3.org/1999/xlink">
<g id="graph0" class="graph" transform="scale(1 1) rotate(0) translate(4 242.8)">
<title>dependencies</title>
<polygon fill="white" stroke="transparent" points="-4,4 -4,-242.8 1185,-242.8 1185,4 -4,4"/>
<text text-anchor="middle" x="590.5" y="-8.2" font-family="sans-serif" font-size="14.00">dependencies</text>
<g id="clust1" class="cluster">
<title>cluster_AppModule</title>
<polygon fill="none" stroke="black" stroke-dasharray="1,5" points="8,-32.8 8,-230.8 1173,-230.8 1173,-32.8 8,-32.8"/>
</g>
<g id="clust7" class="cluster">
<title>cluster_AppModule_providers</title>
<polygon fill="none" stroke="black" points="931,-40.8 931,-92.8 1165,-92.8 1165,-40.8 931,-40.8"/>
</g>
<g id="clust2" class="cluster">
<title>cluster_AppModule_declarations</title>
<polygon fill="none" stroke="black" points="801,-40.8 801,-92.8 923,-92.8 923,-40.8 801,-40.8"/>
</g>
<g id="clust4" class="cluster">
<title>cluster_AppModule_imports</title>
<polygon fill="none" stroke="black" points="16,-40.8 16,-92.8 793,-92.8 793,-40.8 16,-40.8"/>
</g>
<g id="clust6" class="cluster">
<title>cluster_AppModule_bootstrap</title>
<polygon fill="none" stroke="black" points="477,-170.8 477,-222.8 601,-222.8 601,-170.8 477,-170.8"/>
</g>
<!-- AppComponent -->
<g id="node1" class="node">
<title>AppComponent</title>
<polygon fill="#ffffb3" stroke="black" points="914.94,-84.8 809.06,-84.8 809.06,-48.8 914.94,-48.8 914.94,-84.8"/>
<text text-anchor="middle" x="862" y="-62.6" font-family="Times,serif" font-size="14.00">AppComponent</text>
</g>
<!-- AppModule -->
<g id="node2" class="node">
<title>AppModule</title>
<polygon fill="#8dd3c7" stroke="black" points="580.66,-149.8 577.66,-153.8 556.66,-153.8 553.66,-149.8 497.34,-149.8 497.34,-113.8 580.66,-113.8 580.66,-149.8"/>
<text text-anchor="middle" x="539" y="-127.6" font-family="Times,serif" font-size="14.00">AppModule</text>
</g>
<!-- AppComponent&#45;&gt;AppModule -->
<g id="edge1" class="edge">
<title>AppComponent&#45;&gt;AppModule</title>
<path fill="none" stroke="black" d="M862,-84.91C862,-104.14 862,-131.8 862,-131.8 862,-131.8 590.9,-131.8 590.9,-131.8"/>
<polygon fill="black" stroke="black" points="590.9,-128.3 580.9,-131.8 590.9,-135.3 590.9,-128.3"/>
</g>
<!-- AppComponent  -->
<g id="node9" class="node">
<title>AppComponent </title>
<polygon fill="#80b1d3" stroke="black" points="593.44,-214.8 484.56,-214.8 484.56,-178.8 593.44,-178.8 593.44,-214.8"/>
<text text-anchor="middle" x="539" y="-192.6" font-family="Times,serif" font-size="14.00">AppComponent </text>
</g>
<!-- AppModule&#45;&gt;AppComponent  -->
<g id="edge8" class="edge">
<title>AppModule&#45;&gt;AppComponent </title>
<path fill="none" stroke="black" stroke-dasharray="1,5" d="M539,-149.91C539,-149.91 539,-168.79 539,-168.79"/>
<polygon fill="black" stroke="black" points="535.5,-168.79 539,-178.79 542.5,-168.79 535.5,-168.79"/>
</g>
<!-- AppRoutingModule -->
<g id="node3" class="node">
<title>AppRoutingModule</title>
<polygon fill="#8dd3c7" stroke="black" points="785.28,-84.8 782.28,-88.8 761.28,-88.8 758.28,-84.8 656.72,-84.8 656.72,-48.8 785.28,-48.8 785.28,-84.8"/>
<text text-anchor="middle" x="721" y="-62.6" font-family="Times,serif" font-size="14.00">AppRoutingModule</text>
</g>
<!-- AppRoutingModule&#45;&gt;AppModule -->
<g id="edge2" class="edge">
<title>AppRoutingModule&#45;&gt;AppModule</title>
<path fill="none" stroke="black" d="M721,-84.83C721,-101.2 721,-122.8 721,-122.8 721,-122.8 590.75,-122.8 590.75,-122.8"/>
<polygon fill="black" stroke="black" points="590.75,-119.3 580.75,-122.8 590.75,-126.3 590.75,-119.3"/>
</g>
<!-- CoreModule -->
<g id="node4" class="node">
<title>CoreModule</title>
<polygon fill="#8dd3c7" stroke="black" points="638.27,-84.8 635.27,-88.8 614.27,-88.8 611.27,-84.8 551.73,-84.8 551.73,-48.8 638.27,-48.8 638.27,-84.8"/>
<text text-anchor="middle" x="595" y="-62.6" font-family="Times,serif" font-size="14.00">CoreModule</text>
</g>
<!-- CoreModule&#45;&gt;AppModule -->
<g id="edge3" class="edge">
<title>CoreModule&#45;&gt;AppModule</title>
<path fill="none" stroke="black" d="M566.22,-84.91C566.22,-84.91 566.22,-103.79 566.22,-103.79"/>
<polygon fill="black" stroke="black" points="562.72,-103.79 566.22,-113.79 569.72,-103.79 562.72,-103.79"/>
</g>
<!-- OfflineModule -->
<g id="node5" class="node">
<title>OfflineModule</title>
<polygon fill="#8dd3c7" stroke="black" points="533.98,-84.8 530.98,-88.8 509.98,-88.8 506.98,-84.8 434.02,-84.8 434.02,-48.8 533.98,-48.8 533.98,-84.8"/>
<text text-anchor="middle" x="484" y="-62.6" font-family="Times,serif" font-size="14.00">OfflineModule</text>
</g>
<!-- OfflineModule&#45;&gt;AppModule -->
<g id="edge4" class="edge">
<title>OfflineModule&#45;&gt;AppModule</title>
<path fill="none" stroke="black" d="M515.58,-84.91C515.58,-84.91 515.58,-103.79 515.58,-103.79"/>
<polygon fill="black" stroke="black" points="512.08,-103.79 515.58,-113.79 519.08,-103.79 512.08,-103.79"/>
</g>
<!-- SharedFeatureModule -->
<g id="node6" class="node">
<title>SharedFeatureModule</title>
<polygon fill="#8dd3c7" stroke="black" points="416.41,-84.8 413.41,-88.8 392.41,-88.8 389.41,-84.8 275.59,-84.8 275.59,-48.8 416.41,-48.8 416.41,-84.8"/>
<text text-anchor="middle" x="346" y="-62.6" font-family="Times,serif" font-size="14.00">SharedFeatureModule</text>
</g>
<!-- SharedFeatureModule&#45;&gt;AppModule -->
<g id="edge5" class="edge">
<title>SharedFeatureModule&#45;&gt;AppModule</title>
<path fill="none" stroke="black" d="M346,-84.83C346,-101.2 346,-122.8 346,-122.8 346,-122.8 487.12,-122.8 487.12,-122.8"/>
<polygon fill="black" stroke="black" points="487.12,-126.3 497.12,-122.8 487.12,-119.3 487.12,-126.3"/>
</g>
<!-- SharedModule -->
<g id="node7" class="node">
<title>SharedModule</title>
<polygon fill="#8dd3c7" stroke="black" points="258.43,-84.8 255.43,-88.8 234.43,-88.8 231.43,-84.8 159.57,-84.8 159.57,-48.8 258.43,-48.8 258.43,-84.8"/>
<text text-anchor="middle" x="209" y="-62.6" font-family="Times,serif" font-size="14.00">SharedModule</text>
</g>
<!-- SharedModule&#45;&gt;AppModule -->
<g id="edge6" class="edge">
<title>SharedModule&#45;&gt;AppModule</title>
<path fill="none" stroke="black" d="M209,-84.91C209,-104.14 209,-131.8 209,-131.8 209,-131.8 487.21,-131.8 487.21,-131.8"/>
<polygon fill="black" stroke="black" points="487.21,-135.3 497.21,-131.8 487.21,-128.3 487.21,-135.3"/>
</g>
<!-- TelemetryModule -->
<g id="node8" class="node">
<title>TelemetryModule</title>
<polygon fill="#8dd3c7" stroke="black" points="141.58,-84.8 138.58,-88.8 117.58,-88.8 114.58,-84.8 24.42,-84.8 24.42,-48.8 141.58,-48.8 141.58,-84.8"/>
<text text-anchor="middle" x="83" y="-62.6" font-family="Times,serif" font-size="14.00">TelemetryModule</text>
</g>
<!-- TelemetryModule&#45;&gt;AppModule -->
<g id="edge7" class="edge">
<title>TelemetryModule&#45;&gt;AppModule</title>
<path fill="none" stroke="black" d="M83,-85.09C83,-107.01 83,-140.8 83,-140.8 83,-140.8 487.32,-140.8 487.32,-140.8"/>
<polygon fill="black" stroke="black" points="487.32,-144.3 497.32,-140.8 487.32,-137.3 487.32,-144.3"/>
</g>
<!-- SessionExpiryInterceptor -->
<g id="node10" class="node">
<title>SessionExpiryInterceptor</title>
<ellipse fill="#fdb462" stroke="black" cx="1048" cy="-66.8" rx="109.38" ry="18"/>
<text text-anchor="middle" x="1048" y="-62.6" font-family="Times,serif" font-size="14.00">SessionExpiryInterceptor</text>
</g>
<!-- SessionExpiryInterceptor&#45;&gt;AppModule -->
<g id="edge9" class="edge">
<title>SessionExpiryInterceptor&#45;&gt;AppModule</title>
<path fill="none" stroke="black" d="M1048,-85.09C1048,-107.01 1048,-140.8 1048,-140.8 1048,-140.8 591.09,-140.8 591.09,-140.8"/>
<polygon fill="black" stroke="black" points="591.09,-137.3 581.09,-140.8 591.09,-144.3 591.09,-137.3"/>
</g>
</g>
</svg>
