<?xml version="1.0" encoding="UTF-8" standalone="no"?>
<!DOCTYPE svg PUBLIC "-//W3C//DTD SVG 1.1//EN"
 "http://www.w3.org/Graphics/SVG/1.1/DTD/svg11.dtd">
<!-- Generated by graphviz version 5.0.0 (20220707.1540)
 -->
<!-- Title: dependencies Pages: 1 -->
<svg width="1359pt" height="247pt"
 viewBox="0.00 0.00 1359.00 246.80" xmlns="http://www.w3.org/2000/svg" xmlns:xlink="http://www.w3.org/1999/xlink">
<g id="graph0" class="graph" transform="scale(1 1) rotate(0) translate(4 242.8)">
<title>dependencies</title>
<polygon fill="white" stroke="transparent" points="-4,4 -4,-242.8 1355,-242.8 1355,4 -4,4"/>
<text text-anchor="middle" x="675.5" y="-8.2" font-family="sans-serif" font-size="14.00">dependencies</text>
<g id="clust1" class="cluster">
<title>cluster_AppModule</title>
<polygon fill="none" stroke="black" stroke-dasharray="1,5" points="8,-32.8 8,-230.8 1343,-230.8 1343,-32.8 8,-32.8"/>
</g>
<g id="clust6" class="cluster">
<title>cluster_AppModule_bootstrap</title>
<polygon fill="none" stroke="black" points="689,-170.8 689,-222.8 813,-222.8 813,-170.8 689,-170.8"/>
</g>
<g id="clust4" class="cluster">
<title>cluster_AppModule_imports</title>
<polygon fill="none" stroke="black" points="388,-40.8 388,-92.8 1335,-92.8 1335,-40.8 388,-40.8"/>
</g>
<g id="clust7" class="cluster">
<title>cluster_AppModule_providers</title>
<polygon fill="none" stroke="black" points="146,-40.8 146,-92.8 380,-92.8 380,-40.8 146,-40.8"/>
</g>
<g id="clust2" class="cluster">
<title>cluster_AppModule_declarations</title>
<polygon fill="none" stroke="black" points="16,-40.8 16,-92.8 138,-92.8 138,-40.8 16,-40.8"/>
</g>
<!-- AppComponent -->
<g id="node1" class="node">
<title>AppComponent</title>
<polygon fill="#ffffb3" stroke="black" points="129.94,-84.8 24.06,-84.8 24.06,-48.8 129.94,-48.8 129.94,-84.8"/>
<text text-anchor="middle" x="77" y="-62.6" font-family="Times,serif" font-size="14.00">AppComponent</text>
</g>
<!-- AppModule -->
<g id="node2" class="node">
<title>AppModule</title>
<polygon fill="#8dd3c7" stroke="black" points="792.66,-149.8 789.66,-153.8 768.66,-153.8 765.66,-149.8 709.34,-149.8 709.34,-113.8 792.66,-113.8 792.66,-149.8"/>
<text text-anchor="middle" x="751" y="-127.6" font-family="Times,serif" font-size="14.00">AppModule</text>
</g>
<!-- AppComponent&#45;&gt;AppModule -->
<g id="edge1" class="edge">
<title>AppComponent&#45;&gt;AppModule</title>
<path fill="none" stroke="black" d="M77,-84.81C77,-107.29 77,-142.8 77,-142.8 77,-142.8 699.09,-142.8 699.09,-142.8"/>
<polygon fill="black" stroke="black" points="699.09,-146.3 709.09,-142.8 699.09,-139.3 699.09,-146.3"/>
</g>
<!-- AppComponent  -->
<g id="node10" class="node">
<title>AppComponent </title>
<polygon fill="#80b1d3" stroke="black" points="805.44,-214.8 696.56,-214.8 696.56,-178.8 805.44,-178.8 805.44,-214.8"/>
<text text-anchor="middle" x="751" y="-192.6" font-family="Times,serif" font-size="14.00">AppComponent </text>
</g>
<!-- AppModule&#45;&gt;AppComponent  -->
<g id="edge9" class="edge">
<title>AppModule&#45;&gt;AppComponent </title>
<path fill="none" stroke="black" stroke-dasharray="1,5" d="M751,-149.91C751,-149.91 751,-168.79 751,-168.79"/>
<polygon fill="black" stroke="black" points="747.5,-168.79 751,-178.79 754.5,-168.79 747.5,-168.79"/>
</g>
<!-- AppRoutingModule -->
<g id="node3" class="node">
<title>AppRoutingModule</title>
<polygon fill="#8dd3c7" stroke="black" points="1327.28,-84.8 1324.28,-88.8 1303.28,-88.8 1300.28,-84.8 1198.72,-84.8 1198.72,-48.8 1327.28,-48.8 1327.28,-84.8"/>
<text text-anchor="middle" x="1263" y="-62.6" font-family="Times,serif" font-size="14.00">AppRoutingModule</text>
</g>
<!-- AppRoutingModule&#45;&gt;AppModule -->
<g id="edge2" class="edge">
<title>AppRoutingModule&#45;&gt;AppModule</title>
<path fill="none" stroke="black" d="M1263,-84.81C1263,-107.29 1263,-142.8 1263,-142.8 1263,-142.8 802.9,-142.8 802.9,-142.8"/>
<polygon fill="black" stroke="black" points="802.9,-139.3 792.9,-142.8 802.9,-146.3 802.9,-139.3"/>
</g>
<!-- CoreModule -->
<g id="node4" class="node">
<title>CoreModule</title>
<polygon fill="#8dd3c7" stroke="black" points="1180.27,-84.8 1177.27,-88.8 1156.27,-88.8 1153.27,-84.8 1093.73,-84.8 1093.73,-48.8 1180.27,-48.8 1180.27,-84.8"/>
<text text-anchor="middle" x="1137" y="-62.6" font-family="Times,serif" font-size="14.00">CoreModule</text>
</g>
<!-- CoreModule&#45;&gt;AppModule -->
<g id="edge3" class="edge">
<title>CoreModule&#45;&gt;AppModule</title>
<path fill="none" stroke="black" d="M1137,-84.93C1137,-105.37 1137,-135.8 1137,-135.8 1137,-135.8 802.68,-135.8 802.68,-135.8"/>
<polygon fill="black" stroke="black" points="802.68,-132.3 792.68,-135.8 802.68,-139.3 802.68,-132.3"/>
</g>
<!-- OfflineModule -->
<g id="node5" class="node">
<title>OfflineModule</title>
<polygon fill="#8dd3c7" stroke="black" points="1075.98,-84.8 1072.98,-88.8 1051.98,-88.8 1048.98,-84.8 976.02,-84.8 976.02,-48.8 1075.98,-48.8 1075.98,-84.8"/>
<text text-anchor="middle" x="1026" y="-62.6" font-family="Times,serif" font-size="14.00">OfflineModule</text>
</g>
<!-- OfflineModule&#45;&gt;AppModule -->
<g id="edge4" class="edge">
<title>OfflineModule&#45;&gt;AppModule</title>
<path fill="none" stroke="black" d="M1026,-85.07C1026,-103.36 1026,-128.8 1026,-128.8 1026,-128.8 802.77,-128.8 802.77,-128.8"/>
<polygon fill="black" stroke="black" points="802.77,-125.3 792.77,-128.8 802.77,-132.3 802.77,-125.3"/>
</g>
<!-- SharedFeatureModule -->
<g id="node6" class="node">
<title>SharedFeatureModule</title>
<polygon fill="#8dd3c7" stroke="black" points="958.41,-84.8 955.41,-88.8 934.41,-88.8 931.41,-84.8 817.59,-84.8 817.59,-48.8 958.41,-48.8 958.41,-84.8"/>
<text text-anchor="middle" x="888" y="-62.6" font-family="Times,serif" font-size="14.00">SharedFeatureModule</text>
</g>
<!-- SharedFeatureModule&#45;&gt;AppModule -->
<g id="edge5" class="edge">
<title>SharedFeatureModule&#45;&gt;AppModule</title>
<path fill="none" stroke="black" d="M888,-84.81C888,-100.85 888,-121.8 888,-121.8 888,-121.8 802.85,-121.8 802.85,-121.8"/>
<polygon fill="black" stroke="black" points="802.85,-118.3 792.85,-121.8 802.85,-125.3 802.85,-118.3"/>
</g>
<!-- SharedModule -->
<g id="node7" class="node">
<title>SharedModule</title>
<polygon fill="#8dd3c7" stroke="black" points="800.43,-84.8 797.43,-88.8 776.43,-88.8 773.43,-84.8 701.57,-84.8 701.57,-48.8 800.43,-48.8 800.43,-84.8"/>
<text text-anchor="middle" x="751" y="-62.6" font-family="Times,serif" font-size="14.00">SharedModule</text>
</g>
<!-- SharedModule&#45;&gt;AppModule -->
<g id="edge6" class="edge">
<title>SharedModule&#45;&gt;AppModule</title>
<path fill="none" stroke="black" d="M751,-84.91C751,-84.91 751,-103.79 751,-103.79"/>
<polygon fill="black" stroke="black" points="747.5,-103.79 751,-113.79 754.5,-103.79 747.5,-103.79"/>
</g>
<!-- TelemetryModule -->
<g id="node8" class="node">
<title>TelemetryModule</title>
<polygon fill="#8dd3c7" stroke="black" points="683.58,-84.8 680.58,-88.8 659.58,-88.8 656.58,-84.8 566.42,-84.8 566.42,-48.8 683.58,-48.8 683.58,-84.8"/>
<text text-anchor="middle" x="625" y="-62.6" font-family="Times,serif" font-size="14.00">TelemetryModule</text>
</g>
<!-- TelemetryModule&#45;&gt;AppModule -->
<g id="edge7" class="edge">
<title>TelemetryModule&#45;&gt;AppModule</title>
<path fill="none" stroke="black" d="M625,-84.81C625,-100.85 625,-121.8 625,-121.8 625,-121.8 699.04,-121.8 699.04,-121.8"/>
<polygon fill="black" stroke="black" points="699.04,-125.3 709.04,-121.8 699.04,-118.3 699.04,-125.3"/>
</g>
<!-- UserOnboardingModule -->
<g id="node9" class="node">
<title>UserOnboardingModule</title>
<polygon fill="#8dd3c7" stroke="black" points="548.36,-84.8 545.36,-88.8 524.36,-88.8 521.36,-84.8 395.64,-84.8 395.64,-48.8 548.36,-48.8 548.36,-84.8"/>
<text text-anchor="middle" x="472" y="-62.6" font-family="Times,serif" font-size="14.00">UserOnboardingModule</text>
</g>
<!-- UserOnboardingModule&#45;&gt;AppModule -->
<g id="edge8" class="edge">
<title>UserOnboardingModule&#45;&gt;AppModule</title>
<path fill="none" stroke="black" d="M472,-85.07C472,-103.36 472,-128.8 472,-128.8 472,-128.8 699.23,-128.8 699.23,-128.8"/>
<polygon fill="black" stroke="black" points="699.23,-132.3 709.23,-128.8 699.23,-125.3 699.23,-132.3"/>
</g>
<!-- SessionExpiryInterceptor -->
<g id="node11" class="node">
<title>SessionExpiryInterceptor</title>
<ellipse fill="#fdb462" stroke="black" cx="263" cy="-66.8" rx="109.38" ry="18"/>
<text text-anchor="middle" x="263" y="-62.6" font-family="Times,serif" font-size="14.00">SessionExpiryInterceptor</text>
</g>
<!-- SessionExpiryInterceptor&#45;&gt;AppModule -->
<g id="edge10" class="edge">
<title>SessionExpiryInterceptor&#45;&gt;AppModule</title>
<path fill="none" stroke="black" d="M263,-84.93C263,-105.37 263,-135.8 263,-135.8 263,-135.8 698.97,-135.8 698.97,-135.8"/>
<polygon fill="black" stroke="black" points="698.97,-139.3 708.97,-135.8 698.97,-132.3 698.97,-139.3"/>
</g>
</g>
</svg>
