<?xml version="1.0" encoding="UTF-8" standalone="no"?>
<!DOCTYPE svg PUBLIC "-//W3C//DTD SVG 1.1//EN"
 "http://www.w3.org/Graphics/SVG/1.1/DTD/svg11.dtd">
<!-- Generated by graphviz version 5.0.0 (20220707.1540)
 -->
<!-- Title: dependencies Pages: 1 -->
<svg width="914pt" height="247pt"
 viewBox="0.00 0.00 914.00 246.80" xmlns="http://www.w3.org/2000/svg" xmlns:xlink="http://www.w3.org/1999/xlink">
<g id="graph0" class="graph" transform="scale(1 1) rotate(0) translate(4 242.8)">
<title>dependencies</title>
<polygon fill="white" stroke="transparent" points="-4,4 -4,-242.8 910,-242.8 910,4 -4,4"/>
<text text-anchor="middle" x="453" y="-8.2" font-family="sans-serif" font-size="14.00">dependencies</text>
<g id="clust1" class="cluster">
<title>cluster_BadgingModule</title>
<polygon fill="none" stroke="black" stroke-dasharray="1,5" points="8,-32.8 8,-230.8 898,-230.8 898,-32.8 8,-32.8"/>
</g>
<g id="clust5" class="cluster">
<title>cluster_BadgingModule_imports</title>
<polygon fill="none" stroke="black" points="640,-40.8 640,-92.8 890,-92.8 890,-40.8 640,-40.8"/>
</g>
<g id="clust6" class="cluster">
<title>cluster_BadgingModule_exports</title>
<polygon fill="none" stroke="black" points="337,-170.8 337,-222.8 745,-222.8 745,-170.8 337,-170.8"/>
</g>
<g id="clust8" class="cluster">
<title>cluster_BadgingModule_providers</title>
<polygon fill="none" stroke="black" points="426,-40.8 426,-92.8 632,-92.8 632,-40.8 426,-40.8"/>
</g>
<g id="clust2" class="cluster">
<title>cluster_BadgingModule_declarations</title>
<polygon fill="none" stroke="black" points="16,-40.8 16,-92.8 418,-92.8 418,-40.8 16,-40.8"/>
</g>
<!-- AssignBadgesContentComponent -->
<g id="node1" class="node">
<title>AssignBadgesContentComponent</title>
<polygon fill="#ffffb3" stroke="black" points="409.77,-84.8 204.23,-84.8 204.23,-48.8 409.77,-48.8 409.77,-84.8"/>
<text text-anchor="middle" x="307" y="-62.6" font-family="Times,serif" font-size="14.00">AssignBadgesContentComponent</text>
</g>
<!-- BadgingModule -->
<g id="node3" class="node">
<title>BadgingModule</title>
<polygon fill="#8dd3c7" stroke="black" points="582.49,-149.8 579.49,-153.8 558.49,-153.8 555.49,-149.8 475.51,-149.8 475.51,-113.8 582.49,-113.8 582.49,-149.8"/>
<text text-anchor="middle" x="529" y="-127.6" font-family="Times,serif" font-size="14.00">BadgingModule</text>
</g>
<!-- AssignBadgesContentComponent&#45;&gt;BadgingModule -->
<g id="edge1" class="edge">
<title>AssignBadgesContentComponent&#45;&gt;BadgingModule</title>
<path fill="none" stroke="black" d="M377.21,-84.82C377.21,-102.17 377.21,-125.8 377.21,-125.8 377.21,-125.8 465.48,-125.8 465.48,-125.8"/>
<polygon fill="black" stroke="black" points="465.48,-129.3 475.48,-125.8 465.48,-122.3 465.48,-129.3"/>
</g>
<!-- ContentBadgeComponent -->
<g id="node2" class="node">
<title>ContentBadgeComponent</title>
<polygon fill="#ffffb3" stroke="black" points="185.93,-84.8 24.07,-84.8 24.07,-48.8 185.93,-48.8 185.93,-84.8"/>
<text text-anchor="middle" x="105" y="-62.6" font-family="Times,serif" font-size="14.00">ContentBadgeComponent</text>
</g>
<!-- ContentBadgeComponent&#45;&gt;BadgingModule -->
<g id="edge2" class="edge">
<title>ContentBadgeComponent&#45;&gt;BadgingModule</title>
<path fill="none" stroke="black" d="M105,-85.08C105,-106.12 105,-137.8 105,-137.8 105,-137.8 465.3,-137.8 465.3,-137.8"/>
<polygon fill="black" stroke="black" points="465.3,-141.3 475.3,-137.8 465.3,-134.3 465.3,-141.3"/>
</g>
<!-- AssignBadgesContentComponent  -->
<g id="node6" class="node">
<title>AssignBadgesContentComponent </title>
<polygon fill="#fb8072" stroke="black" points="736.77,-214.8 527.23,-214.8 527.23,-178.8 736.77,-178.8 736.77,-214.8"/>
<text text-anchor="middle" x="632" y="-192.6" font-family="Times,serif" font-size="14.00">AssignBadgesContentComponent </text>
</g>
<!-- BadgingModule&#45;&gt;AssignBadgesContentComponent  -->
<g id="edge5" class="edge">
<title>BadgingModule&#45;&gt;AssignBadgesContentComponent </title>
<path fill="none" stroke="black" stroke-dasharray="5,2" d="M554.93,-149.91C554.93,-149.91 554.93,-168.79 554.93,-168.79"/>
<polygon fill="black" stroke="black" points="551.43,-168.79 554.93,-178.79 558.43,-168.79 551.43,-168.79"/>
</g>
<!-- ContentBadgeComponent  -->
<g id="node7" class="node">
<title>ContentBadgeComponent </title>
<polygon fill="#fb8072" stroke="black" points="509.43,-214.8 344.57,-214.8 344.57,-178.8 509.43,-178.8 509.43,-214.8"/>
<text text-anchor="middle" x="427" y="-192.6" font-family="Times,serif" font-size="14.00">ContentBadgeComponent </text>
</g>
<!-- BadgingModule&#45;&gt;ContentBadgeComponent  -->
<g id="edge6" class="edge">
<title>BadgingModule&#45;&gt;ContentBadgeComponent </title>
<path fill="none" stroke="black" stroke-dasharray="5,2" d="M492.48,-149.91C492.48,-149.91 492.48,-168.79 492.48,-168.79"/>
<polygon fill="black" stroke="black" points="488.98,-168.79 492.48,-178.79 495.98,-168.79 488.98,-168.79"/>
</g>
<!-- SharedModule -->
<g id="node4" class="node">
<title>SharedModule</title>
<polygon fill="#8dd3c7" stroke="black" points="882.43,-84.8 879.43,-88.8 858.43,-88.8 855.43,-84.8 783.57,-84.8 783.57,-48.8 882.43,-48.8 882.43,-84.8"/>
<text text-anchor="middle" x="833" y="-62.6" font-family="Times,serif" font-size="14.00">SharedModule</text>
</g>
<!-- SharedModule&#45;&gt;BadgingModule -->
<g id="edge3" class="edge">
<title>SharedModule&#45;&gt;BadgingModule</title>
<path fill="none" stroke="black" d="M833,-85.08C833,-106.12 833,-137.8 833,-137.8 833,-137.8 592.65,-137.8 592.65,-137.8"/>
<polygon fill="black" stroke="black" points="592.65,-134.3 582.65,-137.8 592.65,-141.3 592.65,-134.3"/>
</g>
<!-- TelemetryModule -->
<g id="node5" class="node">
<title>TelemetryModule</title>
<polygon fill="#8dd3c7" stroke="black" points="765.58,-84.8 762.58,-88.8 741.58,-88.8 738.58,-84.8 648.42,-84.8 648.42,-48.8 765.58,-48.8 765.58,-84.8"/>
<text text-anchor="middle" x="707" y="-62.6" font-family="Times,serif" font-size="14.00">TelemetryModule</text>
</g>
<!-- TelemetryModule&#45;&gt;BadgingModule -->
<g id="edge4" class="edge">
<title>TelemetryModule&#45;&gt;BadgingModule</title>
<path fill="none" stroke="black" d="M692.55,-84.82C692.55,-102.17 692.55,-125.8 692.55,-125.8 692.55,-125.8 592.55,-125.8 592.55,-125.8"/>
<polygon fill="black" stroke="black" points="592.55,-122.3 582.55,-125.8 592.55,-129.3 592.55,-122.3"/>
</g>
<!-- ContentBadgeService -->
<g id="node8" class="node">
<title>ContentBadgeService</title>
<ellipse fill="#fdb462" stroke="black" cx="529" cy="-66.8" rx="95.49" ry="18"/>
<text text-anchor="middle" x="529" y="-62.6" font-family="Times,serif" font-size="14.00">ContentBadgeService</text>
</g>
<!-- ContentBadgeService&#45;&gt;BadgingModule -->
<g id="edge7" class="edge">
<title>ContentBadgeService&#45;&gt;BadgingModule</title>
<path fill="none" stroke="black" d="M529,-84.91C529,-84.91 529,-103.79 529,-103.79"/>
<polygon fill="black" stroke="black" points="525.5,-103.79 529,-113.79 532.5,-103.79 525.5,-103.79"/>
</g>
</g>
</svg>
