<?xml version="1.0" encoding="UTF-8" standalone="no"?>
<!DOCTYPE svg PUBLIC "-//W3C//DTD SVG 1.1//EN"
 "http://www.w3.org/Graphics/SVG/1.1/DTD/svg11.dtd">
<!-- Generated by graphviz version 5.0.0 (20220707.1540)
 -->
<!-- Title: dependencies Pages: 1 -->
<svg width="914pt" height="247pt"
 viewBox="0.00 0.00 914.00 246.80" xmlns="http://www.w3.org/2000/svg" xmlns:xlink="http://www.w3.org/1999/xlink">
<g id="graph0" class="graph" transform="scale(1 1) rotate(0) translate(4 242.8)">
<title>dependencies</title>
<polygon fill="white" stroke="transparent" points="-4,4 -4,-242.8 910,-242.8 910,4 -4,4"/>
<text text-anchor="middle" x="453" y="-8.2" font-family="sans-serif" font-size="14.00">dependencies</text>
<g id="clust1" class="cluster">
<title>cluster_BadgingModule</title>
<polygon fill="none" stroke="black" stroke-dasharray="1,5" points="8,-32.8 8,-230.8 898,-230.8 898,-32.8 8,-32.8"/>
</g>
<g id="clust2" class="cluster">
<title>cluster_BadgingModule_declarations</title>
<polygon fill="none" stroke="black" points="488,-40.8 488,-92.8 890,-92.8 890,-40.8 488,-40.8"/>
</g>
<g id="clust6" class="cluster">
<title>cluster_BadgingModule_exports</title>
<polygon fill="none" stroke="black" points="231,-170.8 231,-222.8 639,-222.8 639,-170.8 231,-170.8"/>
</g>
<g id="clust5" class="cluster">
<title>cluster_BadgingModule_imports</title>
<polygon fill="none" stroke="black" points="230,-40.8 230,-92.8 480,-92.8 480,-40.8 230,-40.8"/>
</g>
<g id="clust8" class="cluster">
<title>cluster_BadgingModule_providers</title>
<polygon fill="none" stroke="black" points="16,-40.8 16,-92.8 222,-92.8 222,-40.8 16,-40.8"/>
</g>
<!-- AssignBadgesContentComponent -->
<g id="node1" class="node">
<title>AssignBadgesContentComponent</title>
<polygon fill="#ffffb3" stroke="black" points="881.77,-84.8 676.23,-84.8 676.23,-48.8 881.77,-48.8 881.77,-84.8"/>
<text text-anchor="middle" x="779" y="-62.6" font-family="Times,serif" font-size="14.00">AssignBadgesContentComponent</text>
</g>
<!-- BadgingModule -->
<g id="node3" class="node">
<title>BadgingModule</title>
<polygon fill="#8dd3c7" stroke="black" points="476.49,-149.8 473.49,-153.8 452.49,-153.8 449.49,-149.8 369.51,-149.8 369.51,-113.8 476.49,-113.8 476.49,-149.8"/>
<text text-anchor="middle" x="423" y="-127.6" font-family="Times,serif" font-size="14.00">BadgingModule</text>
</g>
<!-- AssignBadgesContentComponent&#45;&gt;BadgingModule -->
<g id="edge1" class="edge">
<title>AssignBadgesContentComponent&#45;&gt;BadgingModule</title>
<path fill="none" stroke="black" d="M779,-85.08C779,-106.12 779,-137.8 779,-137.8 779,-137.8 486.68,-137.8 486.68,-137.8"/>
<polygon fill="black" stroke="black" points="486.68,-134.3 476.68,-137.8 486.68,-141.3 486.68,-134.3"/>
</g>
<!-- ContentBadgeComponent -->
<g id="node2" class="node">
<title>ContentBadgeComponent</title>
<polygon fill="#ffffb3" stroke="black" points="657.93,-84.8 496.07,-84.8 496.07,-48.8 657.93,-48.8 657.93,-84.8"/>
<text text-anchor="middle" x="577" y="-62.6" font-family="Times,serif" font-size="14.00">ContentBadgeComponent</text>
</g>
<!-- ContentBadgeComponent&#45;&gt;BadgingModule -->
<g id="edge2" class="edge">
<title>ContentBadgeComponent&#45;&gt;BadgingModule</title>
<path fill="none" stroke="black" d="M563.46,-84.82C563.46,-102.17 563.46,-125.8 563.46,-125.8 563.46,-125.8 486.5,-125.8 486.5,-125.8"/>
<polygon fill="black" stroke="black" points="486.5,-122.3 476.5,-125.8 486.5,-129.3 486.5,-122.3"/>
</g>
<!-- AssignBadgesContentComponent  -->
<g id="node6" class="node">
<title>AssignBadgesContentComponent </title>
<polygon fill="#fb8072" stroke="black" points="630.77,-214.8 421.23,-214.8 421.23,-178.8 630.77,-178.8 630.77,-214.8"/>
<text text-anchor="middle" x="526" y="-192.6" font-family="Times,serif" font-size="14.00">AssignBadgesContentComponent </text>
</g>
<!-- BadgingModule&#45;&gt;AssignBadgesContentComponent  -->
<g id="edge5" class="edge">
<title>BadgingModule&#45;&gt;AssignBadgesContentComponent </title>
<path fill="none" stroke="black" stroke-dasharray="5,2" d="M448.93,-149.91C448.93,-149.91 448.93,-168.79 448.93,-168.79"/>
<polygon fill="black" stroke="black" points="445.43,-168.79 448.93,-178.79 452.43,-168.79 445.43,-168.79"/>
</g>
<!-- ContentBadgeComponent  -->
<g id="node7" class="node">
<title>ContentBadgeComponent </title>
<polygon fill="#fb8072" stroke="black" points="403.43,-214.8 238.57,-214.8 238.57,-178.8 403.43,-178.8 403.43,-214.8"/>
<text text-anchor="middle" x="321" y="-192.6" font-family="Times,serif" font-size="14.00">ContentBadgeComponent </text>
</g>
<!-- BadgingModule&#45;&gt;ContentBadgeComponent  -->
<g id="edge6" class="edge">
<title>BadgingModule&#45;&gt;ContentBadgeComponent </title>
<path fill="none" stroke="black" stroke-dasharray="5,2" d="M386.48,-149.91C386.48,-149.91 386.48,-168.79 386.48,-168.79"/>
<polygon fill="black" stroke="black" points="382.98,-168.79 386.48,-178.79 389.98,-168.79 382.98,-168.79"/>
</g>
<!-- SharedModule -->
<g id="node4" class="node">
<title>SharedModule</title>
<polygon fill="#8dd3c7" stroke="black" points="472.43,-84.8 469.43,-88.8 448.43,-88.8 445.43,-84.8 373.57,-84.8 373.57,-48.8 472.43,-48.8 472.43,-84.8"/>
<text text-anchor="middle" x="423" y="-62.6" font-family="Times,serif" font-size="14.00">SharedModule</text>
</g>
<!-- SharedModule&#45;&gt;BadgingModule -->
<g id="edge3" class="edge">
<title>SharedModule&#45;&gt;BadgingModule</title>
<path fill="none" stroke="black" d="M423,-84.91C423,-84.91 423,-103.79 423,-103.79"/>
<polygon fill="black" stroke="black" points="419.5,-103.79 423,-113.79 426.5,-103.79 419.5,-103.79"/>
</g>
<!-- TelemetryModule -->
<g id="node5" class="node">
<title>TelemetryModule</title>
<polygon fill="#8dd3c7" stroke="black" points="355.58,-84.8 352.58,-88.8 331.58,-88.8 328.58,-84.8 238.42,-84.8 238.42,-48.8 355.58,-48.8 355.58,-84.8"/>
<text text-anchor="middle" x="297" y="-62.6" font-family="Times,serif" font-size="14.00">TelemetryModule</text>
</g>
<!-- TelemetryModule&#45;&gt;BadgingModule -->
<g id="edge4" class="edge">
<title>TelemetryModule&#45;&gt;BadgingModule</title>
<path fill="none" stroke="black" d="M297.04,-84.82C297.04,-102.17 297.04,-125.8 297.04,-125.8 297.04,-125.8 359.22,-125.8 359.22,-125.8"/>
<polygon fill="black" stroke="black" points="359.22,-129.3 369.22,-125.8 359.21,-122.3 359.22,-129.3"/>
</g>
<!-- ContentBadgeService -->
<g id="node8" class="node">
<title>ContentBadgeService</title>
<ellipse fill="#fdb462" stroke="black" cx="119" cy="-66.8" rx="95.49" ry="18"/>
<text text-anchor="middle" x="119" y="-62.6" font-family="Times,serif" font-size="14.00">ContentBadgeService</text>
</g>
<!-- ContentBadgeService&#45;&gt;BadgingModule -->
<g id="edge7" class="edge">
<title>ContentBadgeService&#45;&gt;BadgingModule</title>
<path fill="none" stroke="black" d="M119,-85.08C119,-106.12 119,-137.8 119,-137.8 119,-137.8 359.35,-137.8 359.35,-137.8"/>
<polygon fill="black" stroke="black" points="359.35,-141.3 369.35,-137.8 359.35,-134.3 359.35,-141.3"/>
</g>
</g>
</svg>
