<?xml version="1.0" encoding="UTF-8" standalone="no"?>
<!DOCTYPE svg PUBLIC "-//W3C//DTD SVG 1.1//EN"
 "http://www.w3.org/Graphics/SVG/1.1/DTD/svg11.dtd">
<!-- Generated by graphviz version 5.0.0 (20220707.1540)
 -->
<!-- Title: dependencies Pages: 1 -->
<svg width="1228pt" height="174pt"
 viewBox="0.00 0.00 1228.00 173.80" xmlns="http://www.w3.org/2000/svg" xmlns:xlink="http://www.w3.org/1999/xlink">
<g id="graph0" class="graph" transform="scale(1 1) rotate(0) translate(4 169.8)">
<title>dependencies</title>
<polygon fill="white" stroke="transparent" points="-4,4 -4,-169.8 1224,-169.8 1224,4 -4,4"/>
<text text-anchor="middle" x="610" y="-8.2" font-family="sans-serif" font-size="14.00">dependencies</text>
<g id="clust1" class="cluster">
<title>cluster_ExplorePageModule</title>
<polygon fill="none" stroke="black" stroke-dasharray="1,5" points="8,-32.8 8,-157.8 1212,-157.8 1212,-32.8 8,-32.8"/>
</g>
<g id="clust2" class="cluster">
<title>cluster_ExplorePageModule_declarations</title>
<polygon fill="none" stroke="black" points="1036,-40.8 1036,-92.8 1204,-92.8 1204,-40.8 1036,-40.8"/>
</g>
<g id="clust4" class="cluster">
<title>cluster_ExplorePageModule_imports</title>
<polygon fill="none" stroke="black" points="16,-40.8 16,-92.8 1028,-92.8 1028,-40.8 16,-40.8"/>
</g>
<!-- ExplorePageComponent -->
<g id="node1" class="node">
<title>ExplorePageComponent</title>
<polygon fill="#ffffb3" stroke="black" points="1196.36,-84.8 1043.64,-84.8 1043.64,-48.8 1196.36,-48.8 1196.36,-84.8"/>
<text text-anchor="middle" x="1120" y="-62.6" font-family="Times,serif" font-size="14.00">ExplorePageComponent</text>
</g>
<!-- ExplorePageModule -->
<g id="node2" class="node">
<title>ExplorePageModule</title>
<polygon fill="#8dd3c7" stroke="black" points="648.58,-149.8 645.58,-153.8 624.58,-153.8 621.58,-149.8 517.42,-149.8 517.42,-113.8 648.58,-113.8 648.58,-149.8"/>
<text text-anchor="middle" x="583" y="-127.6" font-family="Times,serif" font-size="14.00">ExplorePageModule</text>
</g>
<!-- ExplorePageComponent&#45;&gt;ExplorePageModule -->
<g id="edge1" class="edge">
<title>ExplorePageComponent&#45;&gt;ExplorePageModule</title>
<path fill="none" stroke="black" d="M1120,-85.09C1120,-107.01 1120,-140.8 1120,-140.8 1120,-140.8 658.58,-140.8 658.58,-140.8"/>
<polygon fill="black" stroke="black" points="658.58,-137.3 648.58,-140.8 658.58,-144.3 658.58,-137.3"/>
</g>
<!-- ContentSearchModule -->
<g id="node3" class="node">
<title>ContentSearchModule</title>
<polygon fill="#8dd3c7" stroke="black" points="1019.97,-84.8 1016.97,-88.8 995.97,-88.8 992.97,-84.8 878.03,-84.8 878.03,-48.8 1019.97,-48.8 1019.97,-84.8"/>
<text text-anchor="middle" x="949" y="-62.6" font-family="Times,serif" font-size="14.00">ContentSearchModule</text>
</g>
<!-- ContentSearchModule&#45;&gt;ExplorePageModule -->
<g id="edge2" class="edge">
<title>ContentSearchModule&#45;&gt;ExplorePageModule</title>
<path fill="none" stroke="black" d="M949,-84.91C949,-104.14 949,-131.8 949,-131.8 949,-131.8 658.86,-131.8 658.86,-131.8"/>
<polygon fill="black" stroke="black" points="658.86,-128.3 648.86,-131.8 658.86,-135.3 658.86,-128.3"/>
</g>
<!-- CoreModule -->
<g id="node4" class="node">
<title>CoreModule</title>
<polygon fill="#8dd3c7" stroke="black" points="860.27,-84.8 857.27,-88.8 836.27,-88.8 833.27,-84.8 773.73,-84.8 773.73,-48.8 860.27,-48.8 860.27,-84.8"/>
<text text-anchor="middle" x="817" y="-62.6" font-family="Times,serif" font-size="14.00">CoreModule</text>
</g>
<!-- CoreModule&#45;&gt;ExplorePageModule -->
<g id="edge3" class="edge">
<title>CoreModule&#45;&gt;ExplorePageModule</title>
<path fill="none" stroke="black" d="M817,-84.83C817,-101.2 817,-122.8 817,-122.8 817,-122.8 658.8,-122.8 658.8,-122.8"/>
<polygon fill="black" stroke="black" points="658.8,-119.3 648.8,-122.8 658.8,-126.3 658.8,-119.3"/>
</g>
<!-- ExplorePageRoutingModule -->
<g id="node5" class="node">
<title>ExplorePageRoutingModule</title>
<polygon fill="#8dd3c7" stroke="black" points="756.2,-84.8 753.2,-88.8 732.2,-88.8 729.2,-84.8 579.8,-84.8 579.8,-48.8 756.2,-48.8 756.2,-84.8"/>
<text text-anchor="middle" x="668" y="-62.6" font-family="Times,serif" font-size="14.00">ExplorePageRoutingModule</text>
</g>
<!-- ExplorePageRoutingModule&#45;&gt;ExplorePageModule -->
<g id="edge4" class="edge">
<title>ExplorePageRoutingModule&#45;&gt;ExplorePageModule</title>
<path fill="none" stroke="black" d="M614.22,-84.91C614.22,-84.91 614.22,-103.79 614.22,-103.79"/>
<polygon fill="black" stroke="black" points="610.72,-103.79 614.22,-113.79 617.72,-103.79 610.72,-103.79"/>
</g>
<!-- ObservationModule -->
<g id="node6" class="node">
<title>ObservationModule</title>
<polygon fill="#8dd3c7" stroke="black" points="561.98,-84.8 558.98,-88.8 537.98,-88.8 534.98,-84.8 434.02,-84.8 434.02,-48.8 561.98,-48.8 561.98,-84.8"/>
<text text-anchor="middle" x="498" y="-62.6" font-family="Times,serif" font-size="14.00">ObservationModule</text>
</g>
<!-- ObservationModule&#45;&gt;ExplorePageModule -->
<g id="edge5" class="edge">
<title>ObservationModule&#45;&gt;ExplorePageModule</title>
<path fill="none" stroke="black" d="M539.72,-84.91C539.72,-84.91 539.72,-103.79 539.72,-103.79"/>
<polygon fill="black" stroke="black" points="536.22,-103.79 539.72,-113.79 543.22,-103.79 536.22,-103.79"/>
</g>
<!-- SharedFeatureModule -->
<g id="node7" class="node">
<title>SharedFeatureModule</title>
<polygon fill="#8dd3c7" stroke="black" points="416.41,-84.8 413.41,-88.8 392.41,-88.8 389.41,-84.8 275.59,-84.8 275.59,-48.8 416.41,-48.8 416.41,-84.8"/>
<text text-anchor="middle" x="346" y="-62.6" font-family="Times,serif" font-size="14.00">SharedFeatureModule</text>
</g>
<!-- SharedFeatureModule&#45;&gt;ExplorePageModule -->
<g id="edge6" class="edge">
<title>SharedFeatureModule&#45;&gt;ExplorePageModule</title>
<path fill="none" stroke="black" d="M346,-84.83C346,-101.2 346,-122.8 346,-122.8 346,-122.8 507.3,-122.8 507.3,-122.8"/>
<polygon fill="black" stroke="black" points="507.3,-126.3 517.3,-122.8 507.3,-119.3 507.3,-126.3"/>
</g>
<!-- SharedModule -->
<g id="node8" class="node">
<title>SharedModule</title>
<polygon fill="#8dd3c7" stroke="black" points="258.43,-84.8 255.43,-88.8 234.43,-88.8 231.43,-84.8 159.57,-84.8 159.57,-48.8 258.43,-48.8 258.43,-84.8"/>
<text text-anchor="middle" x="209" y="-62.6" font-family="Times,serif" font-size="14.00">SharedModule</text>
</g>
<!-- SharedModule&#45;&gt;ExplorePageModule -->
<g id="edge7" class="edge">
<title>SharedModule&#45;&gt;ExplorePageModule</title>
<path fill="none" stroke="black" d="M209,-84.91C209,-104.14 209,-131.8 209,-131.8 209,-131.8 507.43,-131.8 507.43,-131.8"/>
<polygon fill="black" stroke="black" points="507.43,-135.3 517.43,-131.8 507.43,-128.3 507.43,-135.3"/>
</g>
<!-- TelemetryModule -->
<g id="node9" class="node">
<title>TelemetryModule</title>
<polygon fill="#8dd3c7" stroke="black" points="141.58,-84.8 138.58,-88.8 117.58,-88.8 114.58,-84.8 24.42,-84.8 24.42,-48.8 141.58,-48.8 141.58,-84.8"/>
<text text-anchor="middle" x="83" y="-62.6" font-family="Times,serif" font-size="14.00">TelemetryModule</text>
</g>
<!-- TelemetryModule&#45;&gt;ExplorePageModule -->
<g id="edge8" class="edge">
<title>TelemetryModule&#45;&gt;ExplorePageModule</title>
<path fill="none" stroke="black" d="M83,-85.09C83,-107.01 83,-140.8 83,-140.8 83,-140.8 507.38,-140.8 507.38,-140.8"/>
<polygon fill="black" stroke="black" points="507.38,-144.3 517.38,-140.8 507.38,-137.3 507.38,-144.3"/>
</g>
</g>
</svg>
