<?xml version="1.0" encoding="UTF-8" standalone="no"?>
<!DOCTYPE svg PUBLIC "-//W3C//DTD SVG 1.1//EN"
 "http://www.w3.org/Graphics/SVG/1.1/DTD/svg11.dtd">
<!-- Generated by graphviz version 5.0.0 (20220707.1540)
 -->
<!-- Title: dependencies Pages: 1 -->
<svg width="3247pt" height="247pt"
 viewBox="0.00 0.00 3247.00 246.80" xmlns="http://www.w3.org/2000/svg" xmlns:xlink="http://www.w3.org/1999/xlink">
<g id="graph0" class="graph" transform="scale(1 1) rotate(0) translate(4 242.8)">
<title>dependencies</title>
<polygon fill="white" stroke="transparent" points="-4,4 -4,-242.8 3243,-242.8 3243,4 -4,4"/>
<text text-anchor="middle" x="1619.5" y="-8.2" font-family="sans-serif" font-size="14.00">dependencies</text>
<g id="clust1" class="cluster">
<title>cluster_PlayerHelperModule</title>
<polygon fill="none" stroke="black" stroke-dasharray="1,5" points="8,-32.8 8,-230.8 3231,-230.8 3231,-32.8 8,-32.8"/>
</g>
<g id="clust19" class="cluster">
<title>cluster_PlayerHelperModule_exports</title>
<polygon fill="none" stroke="black" points="75,-170.8 75,-222.8 2971,-222.8 2971,-170.8 75,-170.8"/>
</g>
<g id="clust2" class="cluster">
<title>cluster_PlayerHelperModule_declarations</title>
<polygon fill="none" stroke="black" points="379,-40.8 379,-92.8 3223,-92.8 3223,-40.8 379,-40.8"/>
</g>
<g id="clust18" class="cluster">
<title>cluster_PlayerHelperModule_imports</title>
<polygon fill="none" stroke="black" points="16,-40.8 16,-92.8 371,-92.8 371,-40.8 16,-40.8"/>
</g>
<!-- CollectionPlayerMetadataComponent -->
<g id="node1" class="node">
<title>CollectionPlayerMetadataComponent</title>
<polygon fill="#ffffb3" stroke="black" points="3214.5,-84.8 2987.5,-84.8 2987.5,-48.8 3214.5,-48.8 3214.5,-84.8"/>
<text text-anchor="middle" x="3101" y="-62.6" font-family="Times,serif" font-size="14.00">CollectionPlayerMetadataComponent</text>
</g>
<!-- PlayerHelperModule -->
<g id="node16" class="node">
<title>PlayerHelperModule</title>
<polygon fill="#8dd3c7" stroke="black" points="1522.91,-149.8 1519.91,-153.8 1498.91,-153.8 1495.91,-149.8 1389.09,-149.8 1389.09,-113.8 1522.91,-113.8 1522.91,-149.8"/>
<text text-anchor="middle" x="1456" y="-127.6" font-family="Times,serif" font-size="14.00">PlayerHelperModule</text>
</g>
<!-- CollectionPlayerMetadataComponent&#45;&gt;PlayerHelperModule -->
<g id="edge1" class="edge">
<title>CollectionPlayerMetadataComponent&#45;&gt;PlayerHelperModule</title>
<path fill="none" stroke="black" d="M3101,-84.91C3101,-104.14 3101,-131.8 3101,-131.8 3101,-131.8 1532.78,-131.8 1532.78,-131.8"/>
<polygon fill="black" stroke="black" points="1532.78,-128.3 1522.78,-131.8 1532.78,-135.3 1532.78,-128.3"/>
</g>
<!-- CommingSoonComponent -->
<g id="node2" class="node">
<title>CommingSoonComponent</title>
<polygon fill="#ffffb3" stroke="black" points="2969.12,-84.8 2802.88,-84.8 2802.88,-48.8 2969.12,-48.8 2969.12,-84.8"/>
<text text-anchor="middle" x="2886" y="-62.6" font-family="Times,serif" font-size="14.00">CommingSoonComponent</text>
</g>
<!-- CommingSoonComponent&#45;&gt;PlayerHelperModule -->
<g id="edge2" class="edge">
<title>CommingSoonComponent&#45;&gt;PlayerHelperModule</title>
<path fill="none" stroke="black" d="M2882.72,-85.02C2882.72,-103.63 2882.72,-129.8 2882.72,-129.8 2882.72,-129.8 1532.9,-129.8 1532.9,-129.8"/>
<polygon fill="black" stroke="black" points="1532.9,-126.3 1522.9,-129.8 1532.9,-133.3 1532.9,-126.3"/>
</g>
<!-- ContentActionsComponent -->
<g id="node3" class="node">
<title>ContentActionsComponent</title>
<polygon fill="#ffffb3" stroke="black" points="2784.71,-84.8 2615.29,-84.8 2615.29,-48.8 2784.71,-48.8 2784.71,-84.8"/>
<text text-anchor="middle" x="2700" y="-62.6" font-family="Times,serif" font-size="14.00">ContentActionsComponent</text>
</g>
<!-- ContentActionsComponent&#45;&gt;PlayerHelperModule -->
<g id="edge3" class="edge">
<title>ContentActionsComponent&#45;&gt;PlayerHelperModule</title>
<path fill="none" stroke="black" d="M2664.6,-85.1C2664.6,-103.07 2664.6,-127.8 2664.6,-127.8 2664.6,-127.8 1533.13,-127.8 1533.13,-127.8"/>
<polygon fill="black" stroke="black" points="1533.13,-124.3 1523.13,-127.8 1533.13,-131.3 1533.13,-124.3"/>
</g>
<!-- ContentChapterlistComponent -->
<g id="node4" class="node">
<title>ContentChapterlistComponent</title>
<polygon fill="#ffffb3" stroke="black" points="2597.6,-84.8 2410.4,-84.8 2410.4,-48.8 2597.6,-48.8 2597.6,-84.8"/>
<text text-anchor="middle" x="2504" y="-62.6" font-family="Times,serif" font-size="14.00">ContentChapterlistComponent</text>
</g>
<!-- ContentChapterlistComponent&#45;&gt;PlayerHelperModule -->
<g id="edge4" class="edge">
<title>ContentChapterlistComponent&#45;&gt;PlayerHelperModule</title>
<path fill="none" stroke="black" d="M2468.4,-84.82C2468.4,-102.17 2468.4,-125.8 2468.4,-125.8 2468.4,-125.8 1532.82,-125.8 1532.82,-125.8"/>
<polygon fill="black" stroke="black" points="1532.82,-122.3 1522.82,-125.8 1532.82,-129.3 1532.82,-122.3"/>
</g>
<!-- ContentCreditsComponent -->
<g id="node5" class="node">
<title>ContentCreditsComponent</title>
<polygon fill="#ffffb3" stroke="black" points="2392.1,-84.8 2225.9,-84.8 2225.9,-48.8 2392.1,-48.8 2392.1,-84.8"/>
<text text-anchor="middle" x="2309" y="-62.6" font-family="Times,serif" font-size="14.00">ContentCreditsComponent</text>
</g>
<!-- ContentCreditsComponent&#45;&gt;PlayerHelperModule -->
<g id="edge5" class="edge">
<title>ContentCreditsComponent&#45;&gt;PlayerHelperModule</title>
<path fill="none" stroke="black" d="M2280.62,-84.83C2280.62,-101.2 2280.62,-122.8 2280.62,-122.8 2280.62,-122.8 1532.78,-122.8 1532.78,-122.8"/>
<polygon fill="black" stroke="black" points="1532.78,-119.3 1522.78,-122.8 1532.78,-126.3 1532.78,-119.3"/>
</g>
<!-- ContentLicenceComponent -->
<g id="node6" class="node">
<title>ContentLicenceComponent</title>
<polygon fill="#ffffb3" stroke="black" points="2207.96,-84.8 2038.04,-84.8 2038.04,-48.8 2207.96,-48.8 2207.96,-84.8"/>
<text text-anchor="middle" x="2123" y="-62.6" font-family="Times,serif" font-size="14.00">ContentLicenceComponent</text>
</g>
<!-- ContentLicenceComponent&#45;&gt;PlayerHelperModule -->
<g id="edge6" class="edge">
<title>ContentLicenceComponent&#45;&gt;PlayerHelperModule</title>
<path fill="none" stroke="black" d="M2082.41,-85.08C2082.41,-100.75 2082.41,-120.8 2082.41,-120.8 2082.41,-120.8 1532.74,-120.8 1532.74,-120.8"/>
<polygon fill="black" stroke="black" points="1532.74,-117.3 1522.74,-120.8 1532.74,-124.3 1532.74,-117.3"/>
</g>
<!-- ContentPlayerComponent -->
<g id="node7" class="node">
<title>ContentPlayerComponent</title>
<polygon fill="#ffffb3" stroke="black" points="2019.93,-84.8 1858.07,-84.8 1858.07,-48.8 2019.93,-48.8 2019.93,-84.8"/>
<text text-anchor="middle" x="1939" y="-62.6" font-family="Times,serif" font-size="14.00">ContentPlayerComponent</text>
</g>
<!-- ContentPlayerComponent&#45;&gt;PlayerHelperModule -->
<g id="edge7" class="edge">
<title>ContentPlayerComponent&#45;&gt;PlayerHelperModule</title>
<path fill="none" stroke="black" d="M1898.51,-84.99C1898.51,-99.98 1898.51,-118.8 1898.51,-118.8 1898.51,-118.8 1532.73,-118.8 1532.73,-118.8"/>
<polygon fill="black" stroke="black" points="1532.73,-115.3 1522.73,-118.8 1532.73,-122.3 1532.73,-115.3"/>
</g>
<!-- ContentPlayerMetadataComponent -->
<g id="node8" class="node">
<title>ContentPlayerMetadataComponent</title>
<polygon fill="#ffffb3" stroke="black" points="1840.51,-84.8 1627.49,-84.8 1627.49,-48.8 1840.51,-48.8 1840.51,-84.8"/>
<text text-anchor="middle" x="1734" y="-62.6" font-family="Times,serif" font-size="14.00">ContentPlayerMetadataComponent</text>
</g>
<!-- ContentPlayerMetadataComponent&#45;&gt;PlayerHelperModule -->
<g id="edge8" class="edge">
<title>ContentPlayerMetadataComponent&#45;&gt;PlayerHelperModule</title>
<path fill="none" stroke="black" d="M1687.35,-84.85C1687.35,-99.17 1687.35,-116.8 1687.35,-116.8 1687.35,-116.8 1532.92,-116.8 1532.92,-116.8"/>
<polygon fill="black" stroke="black" points="1532.92,-113.3 1522.92,-116.8 1532.92,-120.3 1532.92,-113.3"/>
</g>
<!-- ContentPlayerPageComponent -->
<g id="node9" class="node">
<title>ContentPlayerPageComponent</title>
<polygon fill="#ffffb3" stroke="black" points="1609.14,-84.8 1420.86,-84.8 1420.86,-48.8 1609.14,-48.8 1609.14,-84.8"/>
<text text-anchor="middle" x="1515" y="-62.6" font-family="Times,serif" font-size="14.00">ContentPlayerPageComponent</text>
</g>
<!-- ContentPlayerPageComponent&#45;&gt;PlayerHelperModule -->
<g id="edge9" class="edge">
<title>ContentPlayerPageComponent&#45;&gt;PlayerHelperModule</title>
<path fill="none" stroke="black" d="M1471.69,-84.91C1471.69,-84.91 1471.69,-103.79 1471.69,-103.79"/>
<polygon fill="black" stroke="black" points="1468.19,-103.79 1471.69,-113.79 1475.19,-103.79 1468.19,-103.79"/>
</g>
<!-- ContentRatingComponent -->
<g id="node10" class="node">
<title>ContentRatingComponent</title>
<polygon fill="#ffffb3" stroke="black" points="1402.49,-84.8 1239.51,-84.8 1239.51,-48.8 1402.49,-48.8 1402.49,-84.8"/>
<text text-anchor="middle" x="1321" y="-62.6" font-family="Times,serif" font-size="14.00">ContentRatingComponent</text>
</g>
<!-- ContentRatingComponent&#45;&gt;PlayerHelperModule -->
<g id="edge10" class="edge">
<title>ContentRatingComponent&#45;&gt;PlayerHelperModule</title>
<path fill="none" stroke="black" d="M1395.9,-84.91C1395.9,-84.91 1395.9,-103.79 1395.9,-103.79"/>
<polygon fill="black" stroke="black" points="1392.4,-103.79 1395.9,-113.79 1399.4,-103.79 1392.4,-103.79"/>
</g>
<!-- CourseInfoComponent -->
<g id="node11" class="node">
<title>CourseInfoComponent</title>
<polygon fill="#ffffb3" stroke="black" points="1221.32,-84.8 1076.68,-84.8 1076.68,-48.8 1221.32,-48.8 1221.32,-84.8"/>
<text text-anchor="middle" x="1149" y="-62.6" font-family="Times,serif" font-size="14.00">CourseInfoComponent</text>
</g>
<!-- CourseInfoComponent&#45;&gt;PlayerHelperModule -->
<g id="edge11" class="edge">
<title>CourseInfoComponent&#45;&gt;PlayerHelperModule</title>
<path fill="none" stroke="black" d="M1179.04,-84.85C1179.04,-99.17 1179.04,-116.8 1179.04,-116.8 1179.04,-116.8 1378.96,-116.8 1378.96,-116.8"/>
<polygon fill="black" stroke="black" points="1378.96,-120.3 1388.96,-116.8 1378.96,-113.3 1378.96,-120.3"/>
</g>
<!-- CreditsAndLicenceComponent -->
<g id="node12" class="node">
<title>CreditsAndLicenceComponent</title>
<polygon fill="#ffffb3" stroke="black" points="1059.18,-84.8 868.82,-84.8 868.82,-48.8 1059.18,-48.8 1059.18,-84.8"/>
<text text-anchor="middle" x="964" y="-62.6" font-family="Times,serif" font-size="14.00">CreditsAndLicenceComponent</text>
</g>
<!-- CreditsAndLicenceComponent&#45;&gt;PlayerHelperModule -->
<g id="edge12" class="edge">
<title>CreditsAndLicenceComponent&#45;&gt;PlayerHelperModule</title>
<path fill="none" stroke="black" d="M1005.92,-84.99C1005.92,-99.98 1005.92,-118.8 1005.92,-118.8 1005.92,-118.8 1379.1,-118.8 1379.1,-118.8"/>
<polygon fill="black" stroke="black" points="1379.1,-122.3 1389.1,-118.8 1379.1,-115.3 1379.1,-122.3"/>
</g>
<!-- CurriculumInfoComponent -->
<g id="node13" class="node">
<title>CurriculumInfoComponent</title>
<polygon fill="#ffffb3" stroke="black" points="850.7,-84.8 681.3,-84.8 681.3,-48.8 850.7,-48.8 850.7,-84.8"/>
<text text-anchor="middle" x="766" y="-62.6" font-family="Times,serif" font-size="14.00">CurriculumInfoComponent</text>
</g>
<!-- CurriculumInfoComponent&#45;&gt;PlayerHelperModule -->
<g id="edge13" class="edge">
<title>CurriculumInfoComponent&#45;&gt;PlayerHelperModule</title>
<path fill="none" stroke="black" d="M818.85,-85.08C818.85,-100.75 818.85,-120.8 818.85,-120.8 818.85,-120.8 1379.02,-120.8 1379.02,-120.8"/>
<polygon fill="black" stroke="black" points="1379.02,-124.3 1389.02,-120.8 1379.02,-117.3 1379.02,-124.3"/>
</g>
<!-- FancyTreeComponent -->
<g id="node14" class="node">
<title>FancyTreeComponent</title>
<polygon fill="#ffffb3" stroke="black" points="663.69,-84.8 522.31,-84.8 522.31,-48.8 663.69,-48.8 663.69,-84.8"/>
<text text-anchor="middle" x="593" y="-62.6" font-family="Times,serif" font-size="14.00">FancyTreeComponent</text>
</g>
<!-- FancyTreeComponent&#45;&gt;PlayerHelperModule -->
<g id="edge14" class="edge">
<title>FancyTreeComponent&#45;&gt;PlayerHelperModule</title>
<path fill="none" stroke="black" d="M619.38,-84.83C619.38,-101.2 619.38,-122.8 619.38,-122.8 619.38,-122.8 1378.95,-122.8 1378.95,-122.8"/>
<polygon fill="black" stroke="black" points="1378.95,-126.3 1388.95,-122.8 1378.95,-119.3 1378.95,-126.3"/>
</g>
<!-- PlayerComponent -->
<g id="node15" class="node">
<title>PlayerComponent</title>
<polygon fill="#ffffb3" stroke="black" points="504.6,-84.8 387.4,-84.8 387.4,-48.8 504.6,-48.8 504.6,-84.8"/>
<text text-anchor="middle" x="446" y="-62.6" font-family="Times,serif" font-size="14.00">PlayerComponent</text>
</g>
<!-- PlayerComponent&#45;&gt;PlayerHelperModule -->
<g id="edge15" class="edge">
<title>PlayerComponent&#45;&gt;PlayerHelperModule</title>
<path fill="none" stroke="black" d="M446,-84.82C446,-102.17 446,-125.8 446,-125.8 446,-125.8 1378.95,-125.8 1378.95,-125.8"/>
<polygon fill="black" stroke="black" points="1378.95,-129.3 1388.95,-125.8 1378.95,-122.3 1378.95,-129.3"/>
</g>
<!-- CollectionPlayerMetadataComponent  -->
<g id="node20" class="node">
<title>CollectionPlayerMetadataComponent </title>
<polygon fill="#fb8072" stroke="black" points="2962.5,-214.8 2731.5,-214.8 2731.5,-178.8 2962.5,-178.8 2962.5,-214.8"/>
<text text-anchor="middle" x="2847" y="-192.6" font-family="Times,serif" font-size="14.00">CollectionPlayerMetadataComponent </text>
</g>
<!-- PlayerHelperModule&#45;&gt;CollectionPlayerMetadataComponent  -->
<g id="edge19" class="edge">
<title>PlayerHelperModule&#45;&gt;CollectionPlayerMetadataComponent </title>
<path fill="none" stroke="black" stroke-dasharray="5,2" d="M1522.81,-134.8C1788.79,-134.8 2758.05,-134.8 2758.05,-134.8 2758.05,-134.8 2758.05,-168.53 2758.05,-168.53"/>
<polygon fill="black" stroke="black" points="2754.55,-168.53 2758.05,-178.53 2761.55,-168.53 2754.55,-168.53"/>
</g>
<!-- CommingSoonComponent  -->
<g id="node21" class="node">
<title>CommingSoonComponent </title>
<polygon fill="#fb8072" stroke="black" points="2713.62,-214.8 2544.38,-214.8 2544.38,-178.8 2713.62,-178.8 2713.62,-214.8"/>
<text text-anchor="middle" x="2629" y="-192.6" font-family="Times,serif" font-size="14.00">CommingSoonComponent </text>
</g>
<!-- PlayerHelperModule&#45;&gt;CommingSoonComponent  -->
<g id="edge20" class="edge">
<title>PlayerHelperModule&#45;&gt;CommingSoonComponent </title>
<path fill="none" stroke="black" stroke-dasharray="5,2" d="M1522.81,-136.8C1763.34,-136.8 2570.87,-136.8 2570.87,-136.8 2570.87,-136.8 2570.87,-168.8 2570.87,-168.8"/>
<polygon fill="black" stroke="black" points="2567.37,-168.8 2570.87,-178.8 2574.37,-168.8 2567.37,-168.8"/>
</g>
<!-- ContentActionsComponent  -->
<g id="node22" class="node">
<title>ContentActionsComponent </title>
<polygon fill="#fb8072" stroke="black" points="2526.21,-214.8 2353.79,-214.8 2353.79,-178.8 2526.21,-178.8 2526.21,-214.8"/>
<text text-anchor="middle" x="2440" y="-192.6" font-family="Times,serif" font-size="14.00">ContentActionsComponent </text>
</g>
<!-- PlayerHelperModule&#45;&gt;ContentActionsComponent  -->
<g id="edge21" class="edge">
<title>PlayerHelperModule&#45;&gt;ContentActionsComponent </title>
<path fill="none" stroke="black" stroke-dasharray="5,2" d="M1523.05,-138.8C1734.41,-138.8 2372.85,-138.8 2372.85,-138.8 2372.85,-138.8 2372.85,-168.77 2372.85,-168.77"/>
<polygon fill="black" stroke="black" points="2369.35,-168.77 2372.85,-178.77 2376.35,-168.77 2369.35,-168.77"/>
</g>
<!-- ContentChapterlistComponent  -->
<g id="node23" class="node">
<title>ContentChapterlistComponent </title>
<polygon fill="#fb8072" stroke="black" points="2335.1,-214.8 2144.9,-214.8 2144.9,-178.8 2335.1,-178.8 2335.1,-214.8"/>
<text text-anchor="middle" x="2240" y="-192.6" font-family="Times,serif" font-size="14.00">ContentChapterlistComponent </text>
</g>
<!-- PlayerHelperModule&#45;&gt;ContentChapterlistComponent  -->
<g id="edge22" class="edge">
<title>PlayerHelperModule&#45;&gt;ContentChapterlistComponent </title>
<path fill="none" stroke="black" stroke-dasharray="5,2" d="M1522.8,-140.8C1701.37,-140.8 2176.34,-140.8 2176.34,-140.8 2176.34,-140.8 2176.34,-168.77 2176.34,-168.77"/>
<polygon fill="black" stroke="black" points="2172.84,-168.77 2176.34,-178.77 2179.84,-168.77 2172.84,-168.77"/>
</g>
<!-- ContentCreditsComponent  -->
<g id="node24" class="node">
<title>ContentCreditsComponent </title>
<polygon fill="#fb8072" stroke="black" points="2126.6,-214.8 1957.4,-214.8 1957.4,-178.8 2126.6,-178.8 2126.6,-214.8"/>
<text text-anchor="middle" x="2042" y="-192.6" font-family="Times,serif" font-size="14.00">ContentCreditsComponent </text>
</g>
<!-- PlayerHelperModule&#45;&gt;ContentCreditsComponent  -->
<g id="edge23" class="edge">
<title>PlayerHelperModule&#45;&gt;ContentCreditsComponent </title>
<path fill="none" stroke="black" stroke-dasharray="5,2" d="M1522.9,-143.8C1665.9,-143.8 1988.46,-143.8 1988.46,-143.8 1988.46,-143.8 1988.46,-168.56 1988.46,-168.56"/>
<polygon fill="black" stroke="black" points="1984.96,-168.56 1988.46,-178.56 1991.96,-168.56 1984.96,-168.56"/>
</g>
<!-- ContentLicenceComponent  -->
<g id="node25" class="node">
<title>ContentLicenceComponent </title>
<polygon fill="#fb8072" stroke="black" points="1938.96,-214.8 1765.04,-214.8 1765.04,-178.8 1938.96,-178.8 1938.96,-214.8"/>
<text text-anchor="middle" x="1852" y="-192.6" font-family="Times,serif" font-size="14.00">ContentLicenceComponent </text>
</g>
<!-- PlayerHelperModule&#45;&gt;ContentLicenceComponent  -->
<g id="edge24" class="edge">
<title>PlayerHelperModule&#45;&gt;ContentLicenceComponent </title>
<path fill="none" stroke="black" stroke-dasharray="5,2" d="M1522.91,-145.8C1623.75,-145.8 1803.01,-145.8 1803.01,-145.8 1803.01,-145.8 1803.01,-168.68 1803.01,-168.68"/>
<polygon fill="black" stroke="black" points="1799.51,-168.68 1803.01,-178.68 1806.51,-168.68 1799.51,-168.68"/>
</g>
<!-- ContentPlayerComponent  -->
<g id="node26" class="node">
<title>ContentPlayerComponent </title>
<polygon fill="#fb8072" stroke="black" points="1747.43,-214.8 1582.57,-214.8 1582.57,-178.8 1747.43,-178.8 1747.43,-214.8"/>
<text text-anchor="middle" x="1665" y="-192.6" font-family="Times,serif" font-size="14.00">ContentPlayerComponent </text>
</g>
<!-- PlayerHelperModule&#45;&gt;ContentPlayerComponent  -->
<g id="edge25" class="edge">
<title>PlayerHelperModule&#45;&gt;ContentPlayerComponent </title>
<path fill="none" stroke="black" stroke-dasharray="5,2" d="M1523.1,-147.8C1559.01,-147.8 1595.93,-147.8 1595.93,-147.8 1595.93,-147.8 1595.93,-168.55 1595.93,-168.55"/>
<polygon fill="black" stroke="black" points="1592.43,-168.55 1595.93,-178.55 1599.43,-168.55 1592.43,-168.55"/>
</g>
<!-- ContentPlayerMetadataComponent  -->
<g id="node27" class="node">
<title>ContentPlayerMetadataComponent </title>
<polygon fill="#fb8072" stroke="black" points="1564.51,-214.8 1347.49,-214.8 1347.49,-178.8 1564.51,-178.8 1564.51,-214.8"/>
<text text-anchor="middle" x="1456" y="-192.6" font-family="Times,serif" font-size="14.00">ContentPlayerMetadataComponent </text>
</g>
<!-- PlayerHelperModule&#45;&gt;ContentPlayerMetadataComponent  -->
<g id="edge26" class="edge">
<title>PlayerHelperModule&#45;&gt;ContentPlayerMetadataComponent </title>
<path fill="none" stroke="black" stroke-dasharray="5,2" d="M1456,-149.91C1456,-149.91 1456,-168.79 1456,-168.79"/>
<polygon fill="black" stroke="black" points="1452.5,-168.79 1456,-178.79 1459.5,-168.79 1452.5,-168.79"/>
</g>
<!-- ContentPlayerPageComponent  -->
<g id="node28" class="node">
<title>ContentPlayerPageComponent </title>
<polygon fill="#fb8072" stroke="black" points="1329.14,-214.8 1136.86,-214.8 1136.86,-178.8 1329.14,-178.8 1329.14,-214.8"/>
<text text-anchor="middle" x="1233" y="-192.6" font-family="Times,serif" font-size="14.00">ContentPlayerPageComponent </text>
</g>
<!-- PlayerHelperModule&#45;&gt;ContentPlayerPageComponent  -->
<g id="edge27" class="edge">
<title>PlayerHelperModule&#45;&gt;ContentPlayerPageComponent </title>
<path fill="none" stroke="black" stroke-dasharray="5,2" d="M1389.12,-147.8C1340.91,-147.8 1284.29,-147.8 1284.29,-147.8 1284.29,-147.8 1284.29,-168.55 1284.29,-168.55"/>
<polygon fill="black" stroke="black" points="1280.79,-168.55 1284.29,-178.55 1287.79,-168.55 1280.79,-168.55"/>
</g>
<!-- ContentRatingComponent  -->
<g id="node29" class="node">
<title>ContentRatingComponent </title>
<polygon fill="#fb8072" stroke="black" points="1119.49,-214.8 952.51,-214.8 952.51,-178.8 1119.49,-178.8 1119.49,-214.8"/>
<text text-anchor="middle" x="1036" y="-192.6" font-family="Times,serif" font-size="14.00">ContentRatingComponent </text>
</g>
<!-- PlayerHelperModule&#45;&gt;ContentRatingComponent  -->
<g id="edge28" class="edge">
<title>PlayerHelperModule&#45;&gt;ContentRatingComponent </title>
<path fill="none" stroke="black" stroke-dasharray="5,2" d="M1389.09,-145.8C1285.49,-145.8 1098.04,-145.8 1098.04,-145.8 1098.04,-145.8 1098.04,-168.68 1098.04,-168.68"/>
<polygon fill="black" stroke="black" points="1094.54,-168.68 1098.04,-178.68 1101.54,-168.68 1094.54,-168.68"/>
</g>
<!-- CourseInfoComponent  -->
<g id="node30" class="node">
<title>CourseInfoComponent </title>
<polygon fill="#fb8072" stroke="black" points="934.82,-214.8 787.18,-214.8 787.18,-178.8 934.82,-178.8 934.82,-214.8"/>
<text text-anchor="middle" x="861" y="-192.6" font-family="Times,serif" font-size="14.00">CourseInfoComponent </text>
</g>
<!-- PlayerHelperModule&#45;&gt;CourseInfoComponent  -->
<g id="edge29" class="edge">
<title>PlayerHelperModule&#45;&gt;CourseInfoComponent </title>
<path fill="none" stroke="black" stroke-dasharray="5,2" d="M1389.16,-143.8C1241.79,-143.8 901.91,-143.8 901.91,-143.8 901.91,-143.8 901.91,-168.56 901.91,-168.56"/>
<polygon fill="black" stroke="black" points="898.41,-168.56 901.91,-178.56 905.41,-168.56 898.41,-168.56"/>
</g>
<!-- CreditsAndLicenceComponent  -->
<g id="node31" class="node">
<title>CreditsAndLicenceComponent </title>
<polygon fill="#fb8072" stroke="black" points="768.68,-214.8 575.32,-214.8 575.32,-178.8 768.68,-178.8 768.68,-214.8"/>
<text text-anchor="middle" x="672" y="-192.6" font-family="Times,serif" font-size="14.00">CreditsAndLicenceComponent </text>
</g>
<!-- PlayerHelperModule&#45;&gt;CreditsAndLicenceComponent  -->
<g id="edge30" class="edge">
<title>PlayerHelperModule&#45;&gt;CreditsAndLicenceComponent </title>
<path fill="none" stroke="black" stroke-dasharray="5,2" d="M1389.2,-140.8C1208.78,-140.8 725.12,-140.8 725.12,-140.8 725.12,-140.8 725.12,-168.77 725.12,-168.77"/>
<polygon fill="black" stroke="black" points="721.62,-168.77 725.12,-178.77 728.62,-168.77 721.62,-168.77"/>
</g>
<!-- CurriculumInfoComponent  -->
<g id="node32" class="node">
<title>CurriculumInfoComponent </title>
<polygon fill="#fb8072" stroke="black" points="557.2,-214.8 384.8,-214.8 384.8,-178.8 557.2,-178.8 557.2,-214.8"/>
<text text-anchor="middle" x="471" y="-192.6" font-family="Times,serif" font-size="14.00">CurriculumInfoComponent </text>
</g>
<!-- PlayerHelperModule&#45;&gt;CurriculumInfoComponent  -->
<g id="edge31" class="edge">
<title>PlayerHelperModule&#45;&gt;CurriculumInfoComponent </title>
<path fill="none" stroke="black" stroke-dasharray="5,2" d="M1389.01,-138.8C1177.81,-138.8 539.88,-138.8 539.88,-138.8 539.88,-138.8 539.88,-168.77 539.88,-168.77"/>
<polygon fill="black" stroke="black" points="536.38,-168.77 539.88,-178.77 543.38,-168.77 536.38,-168.77"/>
</g>
<!-- FancyTreeComponent  -->
<g id="node33" class="node">
<title>FancyTreeComponent </title>
<polygon fill="#fb8072" stroke="black" points="366.19,-214.8 221.81,-214.8 221.81,-178.8 366.19,-178.8 366.19,-214.8"/>
<text text-anchor="middle" x="294" y="-192.6" font-family="Times,serif" font-size="14.00">FancyTreeComponent </text>
</g>
<!-- PlayerHelperModule&#45;&gt;FancyTreeComponent  -->
<g id="edge32" class="edge">
<title>PlayerHelperModule&#45;&gt;FancyTreeComponent </title>
<path fill="none" stroke="black" stroke-dasharray="5,2" d="M1389.17,-136.8C1143.64,-136.8 305.54,-136.8 305.54,-136.8 305.54,-136.8 305.54,-168.8 305.54,-168.8"/>
<polygon fill="black" stroke="black" points="302.04,-168.8 305.54,-178.8 309.04,-168.8 302.04,-168.8"/>
</g>
<!-- PlayerComponent  -->
<g id="node34" class="node">
<title>PlayerComponent </title>
<polygon fill="#fb8072" stroke="black" points="203.1,-214.8 82.9,-214.8 82.9,-178.8 203.1,-178.8 203.1,-214.8"/>
<text text-anchor="middle" x="143" y="-192.6" font-family="Times,serif" font-size="14.00">PlayerComponent </text>
</g>
<!-- PlayerHelperModule&#45;&gt;PlayerComponent  -->
<g id="edge33" class="edge">
<title>PlayerHelperModule&#45;&gt;PlayerComponent </title>
<path fill="none" stroke="black" stroke-dasharray="5,2" d="M1389.27,-134.8C1127.04,-134.8 181.54,-134.8 181.54,-134.8 181.54,-134.8 181.54,-168.53 181.54,-168.53"/>
<polygon fill="black" stroke="black" points="178.04,-168.53 181.54,-178.53 185.04,-168.53 178.04,-168.53"/>
</g>
<!-- CoreModule -->
<g id="node17" class="node">
<title>CoreModule</title>
<polygon fill="#8dd3c7" stroke="black" points="363.27,-84.8 360.27,-88.8 339.27,-88.8 336.27,-84.8 276.73,-84.8 276.73,-48.8 363.27,-48.8 363.27,-84.8"/>
<text text-anchor="middle" x="320" y="-62.6" font-family="Times,serif" font-size="14.00">CoreModule</text>
</g>
<!-- CoreModule&#45;&gt;PlayerHelperModule -->
<g id="edge16" class="edge">
<title>CoreModule&#45;&gt;PlayerHelperModule</title>
<path fill="none" stroke="black" d="M334.46,-85.1C334.46,-103.07 334.46,-127.8 334.46,-127.8 334.46,-127.8 1379.2,-127.8 1379.2,-127.8"/>
<polygon fill="black" stroke="black" points="1379.2,-131.3 1389.2,-127.8 1379.2,-124.3 1379.2,-131.3"/>
</g>
<!-- SharedModule -->
<g id="node18" class="node">
<title>SharedModule</title>
<polygon fill="#8dd3c7" stroke="black" points="258.43,-84.8 255.43,-88.8 234.43,-88.8 231.43,-84.8 159.57,-84.8 159.57,-48.8 258.43,-48.8 258.43,-84.8"/>
<text text-anchor="middle" x="209" y="-62.6" font-family="Times,serif" font-size="14.00">SharedModule</text>
</g>
<!-- SharedModule&#45;&gt;PlayerHelperModule -->
<g id="edge17" class="edge">
<title>SharedModule&#45;&gt;PlayerHelperModule</title>
<path fill="none" stroke="black" d="M239.94,-85.02C239.94,-103.63 239.94,-129.8 239.94,-129.8 239.94,-129.8 1378.89,-129.8 1378.89,-129.8"/>
<polygon fill="black" stroke="black" points="1378.89,-133.3 1388.89,-129.8 1378.89,-126.3 1378.89,-133.3"/>
</g>
<!-- TelemetryModule -->
<g id="node19" class="node">
<title>TelemetryModule</title>
<polygon fill="#8dd3c7" stroke="black" points="141.58,-84.8 138.58,-88.8 117.58,-88.8 114.58,-84.8 24.42,-84.8 24.42,-48.8 141.58,-48.8 141.58,-84.8"/>
<text text-anchor="middle" x="83" y="-62.6" font-family="Times,serif" font-size="14.00">TelemetryModule</text>
</g>
<!-- TelemetryModule&#45;&gt;PlayerHelperModule -->
<g id="edge18" class="edge">
<title>TelemetryModule&#45;&gt;PlayerHelperModule</title>
<path fill="none" stroke="black" d="M112.12,-84.91C112.12,-104.14 112.12,-131.8 112.12,-131.8 112.12,-131.8 1378.9,-131.8 1378.9,-131.8"/>
<polygon fill="black" stroke="black" points="1378.9,-135.3 1388.9,-131.8 1378.9,-128.3 1378.9,-135.3"/>
</g>
</g>
</svg>
