<?xml version="1.0" encoding="UTF-8" standalone="no"?>
<!DOCTYPE svg PUBLIC "-//W3C//DTD SVG 1.1//EN"
 "http://www.w3.org/Graphics/SVG/1.1/DTD/svg11.dtd">
<!-- Generated by graphviz version 5.0.0 (20220707.1540)
 -->
<!-- Title: dependencies Pages: 1 -->
<svg width="1629pt" height="174pt"
 viewBox="0.00 0.00 1629.00 173.80" xmlns="http://www.w3.org/2000/svg" xmlns:xlink="http://www.w3.org/1999/xlink">
<g id="graph0" class="graph" transform="scale(1 1) rotate(0) translate(4 169.8)">
<title>dependencies</title>
<polygon fill="white" stroke="transparent" points="-4,4 -4,-169.8 1625,-169.8 1625,4 -4,4"/>
<text text-anchor="middle" x="810.5" y="-8.2" font-family="sans-serif" font-size="14.00">dependencies</text>
<g id="clust1" class="cluster">
<title>cluster_RecoverAccountModule</title>
<polygon fill="none" stroke="black" stroke-dasharray="1,5" points="8,-32.8 8,-157.8 1613,-157.8 1613,-32.8 8,-32.8"/>
</g>
<g id="clust2" class="cluster">
<title>cluster_RecoverAccountModule_declarations</title>
<polygon fill="none" stroke="black" points="754,-40.8 754,-92.8 1605,-92.8 1605,-40.8 754,-40.8"/>
</g>
<g id="clust7" class="cluster">
<title>cluster_RecoverAccountModule_imports</title>
<polygon fill="none" stroke="black" points="16,-40.8 16,-92.8 746,-92.8 746,-40.8 16,-40.8"/>
</g>
<!-- IdentifyAccountComponent -->
<g id="node1" class="node">
<title>IdentifyAccountComponent</title>
<polygon fill="#ffffb3" stroke="black" points="1596.58,-84.8 1423.42,-84.8 1423.42,-48.8 1596.58,-48.8 1596.58,-84.8"/>
<text text-anchor="middle" x="1510" y="-62.6" font-family="Times,serif" font-size="14.00">IdentifyAccountComponent</text>
</g>
<!-- RecoverAccountModule -->
<g id="node5" class="node">
<title>RecoverAccountModule</title>
<polygon fill="#8dd3c7" stroke="black" points="771.62,-149.8 768.62,-153.8 747.62,-153.8 744.62,-149.8 618.38,-149.8 618.38,-113.8 771.62,-113.8 771.62,-149.8"/>
<text text-anchor="middle" x="695" y="-127.6" font-family="Times,serif" font-size="14.00">RecoverAccountModule</text>
</g>
<!-- IdentifyAccountComponent&#45;&gt;RecoverAccountModule -->
<g id="edge1" class="edge">
<title>IdentifyAccountComponent&#45;&gt;RecoverAccountModule</title>
<path fill="none" stroke="black" d="M1510,-85.09C1510,-107.01 1510,-140.8 1510,-140.8 1510,-140.8 781.67,-140.8 781.67,-140.8"/>
<polygon fill="black" stroke="black" points="781.67,-137.3 771.67,-140.8 781.67,-144.3 781.67,-137.3"/>
</g>
<!-- RecoverAccountComponent -->
<g id="node2" class="node">
<title>RecoverAccountComponent</title>
<polygon fill="#ffffb3" stroke="black" points="1405.9,-84.8 1230.1,-84.8 1230.1,-48.8 1405.9,-48.8 1405.9,-84.8"/>
<text text-anchor="middle" x="1318" y="-62.6" font-family="Times,serif" font-size="14.00">RecoverAccountComponent</text>
</g>
<!-- RecoverAccountComponent&#45;&gt;RecoverAccountModule -->
<g id="edge2" class="edge">
<title>RecoverAccountComponent&#45;&gt;RecoverAccountModule</title>
<path fill="none" stroke="black" d="M1318,-84.91C1318,-104.14 1318,-131.8 1318,-131.8 1318,-131.8 781.7,-131.8 781.7,-131.8"/>
<polygon fill="black" stroke="black" points="781.7,-128.3 771.7,-131.8 781.7,-135.3 781.7,-128.3"/>
</g>
<!-- SelectAccountIdentifierComponent -->
<g id="node3" class="node">
<title>SelectAccountIdentifierComponent</title>
<polygon fill="#ffffb3" stroke="black" points="1212.55,-84.8 997.45,-84.8 997.45,-48.8 1212.55,-48.8 1212.55,-84.8"/>
<text text-anchor="middle" x="1105" y="-62.6" font-family="Times,serif" font-size="14.00">SelectAccountIdentifierComponent</text>
</g>
<!-- SelectAccountIdentifierComponent&#45;&gt;RecoverAccountModule -->
<g id="edge3" class="edge">
<title>SelectAccountIdentifierComponent&#45;&gt;RecoverAccountModule</title>
<path fill="none" stroke="black" d="M1105,-84.83C1105,-101.2 1105,-122.8 1105,-122.8 1105,-122.8 781.64,-122.8 781.64,-122.8"/>
<polygon fill="black" stroke="black" points="781.64,-119.3 771.64,-122.8 781.64,-126.3 781.64,-119.3"/>
</g>
<!-- VerifyAccountIdentifierComponent -->
<g id="node4" class="node">
<title>VerifyAccountIdentifierComponent</title>
<polygon fill="#ffffb3" stroke="black" points="979.88,-84.8 762.12,-84.8 762.12,-48.8 979.88,-48.8 979.88,-84.8"/>
<text text-anchor="middle" x="871" y="-62.6" font-family="Times,serif" font-size="14.00">VerifyAccountIdentifierComponent</text>
</g>
<!-- VerifyAccountIdentifierComponent&#45;&gt;RecoverAccountModule -->
<g id="edge4" class="edge">
<title>VerifyAccountIdentifierComponent&#45;&gt;RecoverAccountModule</title>
<path fill="none" stroke="black" d="M767.06,-84.91C767.06,-84.91 767.06,-103.79 767.06,-103.79"/>
<polygon fill="black" stroke="black" points="763.56,-103.79 767.06,-113.79 770.56,-103.79 763.56,-103.79"/>
</g>
<!-- CoreModule -->
<g id="node6" class="node">
<title>CoreModule</title>
<polygon fill="#8dd3c7" stroke="black" points="738.27,-84.8 735.27,-88.8 714.27,-88.8 711.27,-84.8 651.73,-84.8 651.73,-48.8 738.27,-48.8 738.27,-84.8"/>
<text text-anchor="middle" x="695" y="-62.6" font-family="Times,serif" font-size="14.00">CoreModule</text>
</g>
<!-- CoreModule&#45;&gt;RecoverAccountModule -->
<g id="edge5" class="edge">
<title>CoreModule&#45;&gt;RecoverAccountModule</title>
<path fill="none" stroke="black" d="M695,-84.91C695,-84.91 695,-103.79 695,-103.79"/>
<polygon fill="black" stroke="black" points="691.5,-103.79 695,-113.79 698.5,-103.79 691.5,-103.79"/>
</g>
<!-- RecoverAccountRoutingModule -->
<g id="node7" class="node">
<title>RecoverAccountRoutingModule</title>
<polygon fill="#8dd3c7" stroke="black" points="633.24,-84.8 630.24,-88.8 609.24,-88.8 606.24,-84.8 434.76,-84.8 434.76,-48.8 633.24,-48.8 633.24,-84.8"/>
<text text-anchor="middle" x="534" y="-62.6" font-family="Times,serif" font-size="14.00">RecoverAccountRoutingModule</text>
</g>
<!-- RecoverAccountRoutingModule&#45;&gt;RecoverAccountModule -->
<g id="edge6" class="edge">
<title>RecoverAccountRoutingModule&#45;&gt;RecoverAccountModule</title>
<path fill="none" stroke="black" d="M625.78,-84.91C625.78,-84.91 625.78,-103.79 625.78,-103.79"/>
<polygon fill="black" stroke="black" points="622.28,-103.79 625.78,-113.79 629.28,-103.79 622.28,-103.79"/>
</g>
<!-- SharedFeatureModule -->
<g id="node8" class="node">
<title>SharedFeatureModule</title>
<polygon fill="#8dd3c7" stroke="black" points="416.41,-84.8 413.41,-88.8 392.41,-88.8 389.41,-84.8 275.59,-84.8 275.59,-48.8 416.41,-48.8 416.41,-84.8"/>
<text text-anchor="middle" x="346" y="-62.6" font-family="Times,serif" font-size="14.00">SharedFeatureModule</text>
</g>
<!-- SharedFeatureModule&#45;&gt;RecoverAccountModule -->
<g id="edge7" class="edge">
<title>SharedFeatureModule&#45;&gt;RecoverAccountModule</title>
<path fill="none" stroke="black" d="M346,-84.83C346,-101.2 346,-122.8 346,-122.8 346,-122.8 607.98,-122.8 607.98,-122.8"/>
<polygon fill="black" stroke="black" points="607.98,-126.3 617.98,-122.8 607.98,-119.3 607.98,-126.3"/>
</g>
<!-- SharedModule -->
<g id="node9" class="node">
<title>SharedModule</title>
<polygon fill="#8dd3c7" stroke="black" points="258.43,-84.8 255.43,-88.8 234.43,-88.8 231.43,-84.8 159.57,-84.8 159.57,-48.8 258.43,-48.8 258.43,-84.8"/>
<text text-anchor="middle" x="209" y="-62.6" font-family="Times,serif" font-size="14.00">SharedModule</text>
</g>
<!-- SharedModule&#45;&gt;RecoverAccountModule -->
<g id="edge8" class="edge">
<title>SharedModule&#45;&gt;RecoverAccountModule</title>
<path fill="none" stroke="black" d="M209,-84.91C209,-104.14 209,-131.8 209,-131.8 209,-131.8 608.26,-131.8 608.26,-131.8"/>
<polygon fill="black" stroke="black" points="608.26,-135.3 618.26,-131.8 608.26,-128.3 608.26,-135.3"/>
</g>
<!-- TelemetryModule -->
<g id="node10" class="node">
<title>TelemetryModule</title>
<polygon fill="#8dd3c7" stroke="black" points="141.58,-84.8 138.58,-88.8 117.58,-88.8 114.58,-84.8 24.42,-84.8 24.42,-48.8 141.58,-48.8 141.58,-84.8"/>
<text text-anchor="middle" x="83" y="-62.6" font-family="Times,serif" font-size="14.00">TelemetryModule</text>
</g>
<!-- TelemetryModule&#45;&gt;RecoverAccountModule -->
<g id="edge9" class="edge">
<title>TelemetryModule&#45;&gt;RecoverAccountModule</title>
<path fill="none" stroke="black" d="M83,-85.09C83,-107.01 83,-140.8 83,-140.8 83,-140.8 608.11,-140.8 608.11,-140.8"/>
<polygon fill="black" stroke="black" points="608.11,-144.3 618.11,-140.8 608.11,-137.3 608.11,-144.3"/>
</g>
</g>
</svg>
