<?xml version="1.0" encoding="UTF-8" standalone="no"?>
<!DOCTYPE svg PUBLIC "-//W3C//DTD SVG 1.1//EN"
 "http://www.w3.org/Graphics/SVG/1.1/DTD/svg11.dtd">
<!-- Generated by graphviz version 5.0.0 (20220707.1540)
 -->
<!-- Title: dependencies Pages: 1 -->
<svg width="2238pt" height="247pt"
 viewBox="0.00 0.00 2238.00 246.80" xmlns="http://www.w3.org/2000/svg" xmlns:xlink="http://www.w3.org/1999/xlink">
<g id="graph0" class="graph" transform="scale(1 1) rotate(0) translate(4 242.8)">
<title>dependencies</title>
<polygon fill="white" stroke="transparent" points="-4,4 -4,-242.8 2234,-242.8 2234,4 -4,4"/>
<text text-anchor="middle" x="1115" y="-8.2" font-family="sans-serif" font-size="14.00">dependencies</text>
<g id="clust1" class="cluster">
<title>cluster_OfflineModule</title>
<polygon fill="none" stroke="black" stroke-dasharray="1,5" points="8,-32.8 8,-230.8 2222,-230.8 2222,-32.8 8,-32.8"/>
</g>
<g id="clust2" class="cluster">
<title>cluster_OfflineModule_declarations</title>
<polygon fill="none" stroke="black" points="800,-40.8 800,-92.8 2214,-92.8 2214,-40.8 800,-40.8"/>
</g>
<g id="clust12" class="cluster">
<title>cluster_OfflineModule_exports</title>
<polygon fill="none" stroke="black" points="996,-170.8 996,-222.8 1148,-222.8 1148,-170.8 996,-170.8"/>
</g>
<g id="clust11" class="cluster">
<title>cluster_OfflineModule_imports</title>
<polygon fill="none" stroke="black" points="250,-40.8 250,-92.8 792,-92.8 792,-40.8 250,-40.8"/>
</g>
<g id="clust14" class="cluster">
<title>cluster_OfflineModule_providers</title>
<polygon fill="none" stroke="black" points="16,-40.8 16,-92.8 242,-92.8 242,-40.8 16,-40.8"/>
</g>
<!-- AboutUsComponent -->
<g id="node1" class="node">
<title>AboutUsComponent</title>
<polygon fill="#ffffb3" stroke="black" points="2205.89,-84.8 2074.11,-84.8 2074.11,-48.8 2205.89,-48.8 2205.89,-84.8"/>
<text text-anchor="middle" x="2140" y="-62.6" font-family="Times,serif" font-size="14.00">AboutUsComponent</text>
</g>
<!-- OfflineModule -->
<g id="node9" class="node">
<title>OfflineModule</title>
<polygon fill="#8dd3c7" stroke="black" points="1121.98,-149.8 1118.98,-153.8 1097.98,-153.8 1094.98,-149.8 1022.02,-149.8 1022.02,-113.8 1121.98,-113.8 1121.98,-149.8"/>
<text text-anchor="middle" x="1072" y="-127.6" font-family="Times,serif" font-size="14.00">OfflineModule</text>
</g>
<!-- AboutUsComponent&#45;&gt;OfflineModule -->
<g id="edge1" class="edge">
<title>AboutUsComponent&#45;&gt;OfflineModule</title>
<path fill="none" stroke="black" d="M2140,-84.89C2140,-107.93 2140,-144.8 2140,-144.8 2140,-144.8 1132.08,-144.8 1132.08,-144.8"/>
<polygon fill="black" stroke="black" points="1132.08,-141.3 1122.08,-144.8 1132.08,-148.3 1132.08,-141.3"/>
</g>
<!-- ContentManagerComponent -->
<g id="node2" class="node">
<title>ContentManagerComponent</title>
<polygon fill="#ffffb3" stroke="black" points="2055.91,-84.8 1880.09,-84.8 1880.09,-48.8 2055.91,-48.8 2055.91,-84.8"/>
<text text-anchor="middle" x="1968" y="-62.6" font-family="Times,serif" font-size="14.00">ContentManagerComponent</text>
</g>
<!-- ContentManagerComponent&#45;&gt;OfflineModule -->
<g id="edge2" class="edge">
<title>ContentManagerComponent&#45;&gt;OfflineModule</title>
<path fill="none" stroke="black" d="M1968,-84.84C1968,-106.46 1968,-139.8 1968,-139.8 1968,-139.8 1132.09,-139.8 1132.09,-139.8"/>
<polygon fill="black" stroke="black" points="1132.09,-136.3 1122.09,-139.8 1132.09,-143.3 1132.09,-136.3"/>
</g>
<!-- ContentManagerInfoPopUpComponent -->
<g id="node3" class="node">
<title>ContentManagerInfoPopUpComponent</title>
<polygon fill="#ffffb3" stroke="black" points="1861.64,-84.8 1624.36,-84.8 1624.36,-48.8 1861.64,-48.8 1861.64,-84.8"/>
<text text-anchor="middle" x="1743" y="-62.6" font-family="Times,serif" font-size="14.00">ContentManagerInfoPopUpComponent</text>
</g>
<!-- ContentManagerInfoPopUpComponent&#45;&gt;OfflineModule -->
<g id="edge3" class="edge">
<title>ContentManagerInfoPopUpComponent&#45;&gt;OfflineModule</title>
<path fill="none" stroke="black" d="M1743,-85.02C1743,-105.17 1743,-134.8 1743,-134.8 1743,-134.8 1132.16,-134.8 1132.16,-134.8"/>
<polygon fill="black" stroke="black" points="1132.16,-131.3 1122.16,-134.8 1132.16,-138.3 1132.16,-131.3"/>
</g>
<!-- InfoCardComponent -->
<g id="node4" class="node">
<title>InfoCardComponent</title>
<polygon fill="#ffffb3" stroke="black" points="1605.87,-84.8 1474.13,-84.8 1474.13,-48.8 1605.87,-48.8 1605.87,-84.8"/>
<text text-anchor="middle" x="1540" y="-62.6" font-family="Times,serif" font-size="14.00">InfoCardComponent</text>
</g>
<!-- InfoCardComponent&#45;&gt;OfflineModule -->
<g id="edge4" class="edge">
<title>InfoCardComponent&#45;&gt;OfflineModule</title>
<path fill="none" stroke="black" d="M1540,-85.02C1540,-103.63 1540,-129.8 1540,-129.8 1540,-129.8 1132.08,-129.8 1132.08,-129.8"/>
<polygon fill="black" stroke="black" points="1132.08,-126.3 1122.08,-129.8 1132.08,-133.3 1132.08,-126.3"/>
</g>
<!-- LibraryComponent -->
<g id="node5" class="node">
<title>LibraryComponent</title>
<polygon fill="#ffffb3" stroke="black" points="1455.81,-84.8 1332.19,-84.8 1332.19,-48.8 1455.81,-48.8 1455.81,-84.8"/>
<text text-anchor="middle" x="1394" y="-62.6" font-family="Times,serif" font-size="14.00">LibraryComponent</text>
</g>
<!-- LibraryComponent&#45;&gt;OfflineModule -->
<g id="edge5" class="edge">
<title>LibraryComponent&#45;&gt;OfflineModule</title>
<path fill="none" stroke="black" d="M1394,-84.83C1394,-101.86 1394,-124.8 1394,-124.8 1394,-124.8 1132.31,-124.8 1132.31,-124.8"/>
<polygon fill="black" stroke="black" points="1132.31,-121.3 1122.31,-124.8 1132.31,-128.3 1132.31,-121.3"/>
</g>
<!-- LoadContentComponent -->
<g id="node6" class="node">
<title>LoadContentComponent</title>
<polygon fill="#ffffb3" stroke="black" points="1314.43,-84.8 1159.57,-84.8 1159.57,-48.8 1314.43,-48.8 1314.43,-84.8"/>
<text text-anchor="middle" x="1237" y="-62.6" font-family="Times,serif" font-size="14.00">LoadContentComponent</text>
</g>
<!-- LoadContentComponent&#45;&gt;OfflineModule -->
<g id="edge6" class="edge">
<title>LoadContentComponent&#45;&gt;OfflineModule</title>
<path fill="none" stroke="black" d="M1237,-85.04C1237,-100.37 1237,-119.8 1237,-119.8 1237,-119.8 1132.4,-119.8 1132.4,-119.8"/>
<polygon fill="black" stroke="black" points="1132.4,-116.3 1122.4,-119.8 1132.4,-123.3 1132.4,-116.3"/>
</g>
<!-- TelemetryComponent -->
<g id="node7" class="node">
<title>TelemetryComponent</title>
<polygon fill="#ffffb3" stroke="black" points="1141.36,-84.8 1002.64,-84.8 1002.64,-48.8 1141.36,-48.8 1141.36,-84.8"/>
<text text-anchor="middle" x="1072" y="-62.6" font-family="Times,serif" font-size="14.00">TelemetryComponent</text>
</g>
<!-- TelemetryComponent&#45;&gt;OfflineModule -->
<g id="edge7" class="edge">
<title>TelemetryComponent&#45;&gt;OfflineModule</title>
<path fill="none" stroke="black" d="M1072,-84.91C1072,-84.91 1072,-103.79 1072,-103.79"/>
<polygon fill="black" stroke="black" points="1068.5,-103.79 1072,-113.79 1075.5,-103.79 1068.5,-103.79"/>
</g>
<!-- TelemetryImportComponent -->
<g id="node8" class="node">
<title>TelemetryImportComponent</title>
<polygon fill="#ffffb3" stroke="black" points="984.46,-84.8 807.54,-84.8 807.54,-48.8 984.46,-48.8 984.46,-84.8"/>
<text text-anchor="middle" x="896" y="-62.6" font-family="Times,serif" font-size="14.00">TelemetryImportComponent</text>
</g>
<!-- TelemetryImportComponent&#45;&gt;OfflineModule -->
<g id="edge8" class="edge">
<title>TelemetryImportComponent&#45;&gt;OfflineModule</title>
<path fill="none" stroke="black" d="M896,-85.04C896,-100.37 896,-119.8 896,-119.8 896,-119.8 1011.57,-119.8 1011.57,-119.8"/>
<polygon fill="black" stroke="black" points="1011.57,-123.3 1021.57,-119.8 1011.57,-116.3 1011.57,-123.3"/>
</g>
<!-- InfoCardComponent  -->
<g id="node14" class="node">
<title>InfoCardComponent </title>
<polygon fill="#fb8072" stroke="black" points="1139.87,-214.8 1004.13,-214.8 1004.13,-178.8 1139.87,-178.8 1139.87,-214.8"/>
<text text-anchor="middle" x="1072" y="-192.6" font-family="Times,serif" font-size="14.00">InfoCardComponent </text>
</g>
<!-- OfflineModule&#45;&gt;InfoCardComponent  -->
<g id="edge13" class="edge">
<title>OfflineModule&#45;&gt;InfoCardComponent </title>
<path fill="none" stroke="black" stroke-dasharray="5,2" d="M1072,-149.91C1072,-149.91 1072,-168.79 1072,-168.79"/>
<polygon fill="black" stroke="black" points="1068.5,-168.79 1072,-178.79 1075.5,-168.79 1068.5,-168.79"/>
</g>
<!-- ContentSearchModule -->
<g id="node10" class="node">
<title>ContentSearchModule</title>
<polygon fill="#8dd3c7" stroke="black" points="783.97,-84.8 780.97,-88.8 759.97,-88.8 756.97,-84.8 642.03,-84.8 642.03,-48.8 783.97,-48.8 783.97,-84.8"/>
<text text-anchor="middle" x="713" y="-62.6" font-family="Times,serif" font-size="14.00">ContentSearchModule</text>
</g>
<!-- ContentSearchModule&#45;&gt;OfflineModule -->
<g id="edge9" class="edge">
<title>ContentSearchModule&#45;&gt;OfflineModule</title>
<path fill="none" stroke="black" d="M713,-84.83C713,-101.86 713,-124.8 713,-124.8 713,-124.8 1011.7,-124.8 1011.7,-124.8"/>
<polygon fill="black" stroke="black" points="1011.7,-128.3 1021.7,-124.8 1011.7,-121.3 1011.7,-128.3"/>
</g>
<!-- CoreModule -->
<g id="node11" class="node">
<title>CoreModule</title>
<polygon fill="#8dd3c7" stroke="black" points="624.27,-84.8 621.27,-88.8 600.27,-88.8 597.27,-84.8 537.73,-84.8 537.73,-48.8 624.27,-48.8 624.27,-84.8"/>
<text text-anchor="middle" x="581" y="-62.6" font-family="Times,serif" font-size="14.00">CoreModule</text>
</g>
<!-- CoreModule&#45;&gt;OfflineModule -->
<g id="edge10" class="edge">
<title>CoreModule&#45;&gt;OfflineModule</title>
<path fill="none" stroke="black" d="M581,-85.02C581,-103.63 581,-129.8 581,-129.8 581,-129.8 1011.76,-129.8 1011.76,-129.8"/>
<polygon fill="black" stroke="black" points="1011.76,-133.3 1021.76,-129.8 1011.76,-126.3 1011.76,-133.3"/>
</g>
<!-- OfflineRoutingModule -->
<g id="node12" class="node">
<title>OfflineRoutingModule</title>
<polygon fill="#8dd3c7" stroke="black" points="519.6,-84.8 516.6,-88.8 495.6,-88.8 492.6,-84.8 374.4,-84.8 374.4,-48.8 519.6,-48.8 519.6,-84.8"/>
<text text-anchor="middle" x="447" y="-62.6" font-family="Times,serif" font-size="14.00">OfflineRoutingModule</text>
</g>
<!-- OfflineRoutingModule&#45;&gt;OfflineModule -->
<g id="edge11" class="edge">
<title>OfflineRoutingModule&#45;&gt;OfflineModule</title>
<path fill="none" stroke="black" d="M447,-85.02C447,-105.17 447,-134.8 447,-134.8 447,-134.8 1011.91,-134.8 1011.91,-134.8"/>
<polygon fill="black" stroke="black" points="1011.91,-138.3 1021.91,-134.8 1011.91,-131.3 1011.91,-138.3"/>
</g>
<!-- SharedModule -->
<g id="node13" class="node">
<title>SharedModule</title>
<polygon fill="#8dd3c7" stroke="black" points="356.43,-84.8 353.43,-88.8 332.43,-88.8 329.43,-84.8 257.57,-84.8 257.57,-48.8 356.43,-48.8 356.43,-84.8"/>
<text text-anchor="middle" x="307" y="-62.6" font-family="Times,serif" font-size="14.00">SharedModule</text>
</g>
<!-- SharedModule&#45;&gt;OfflineModule -->
<g id="edge12" class="edge">
<title>SharedModule&#45;&gt;OfflineModule</title>
<path fill="none" stroke="black" d="M307,-84.84C307,-106.46 307,-139.8 307,-139.8 307,-139.8 1011.81,-139.8 1011.81,-139.8"/>
<polygon fill="black" stroke="black" points="1011.81,-143.3 1021.81,-139.8 1011.81,-136.3 1011.81,-143.3"/>
</g>
<!-- ContentManagerService -->
<g id="node15" class="node">
<title>ContentManagerService</title>
<ellipse fill="#fdb462" stroke="black" cx="129" cy="-66.8" rx="104.78" ry="18"/>
<text text-anchor="middle" x="129" y="-62.6" font-family="Times,serif" font-size="14.00">ContentManagerService</text>
</g>
<!-- ContentManagerService&#45;&gt;OfflineModule -->
<g id="edge14" class="edge">
<title>ContentManagerService&#45;&gt;OfflineModule</title>
<path fill="none" stroke="black" d="M129,-84.89C129,-107.93 129,-144.8 129,-144.8 129,-144.8 1011.97,-144.8 1011.97,-144.8"/>
<polygon fill="black" stroke="black" points="1011.97,-148.3 1021.97,-144.8 1011.97,-141.3 1011.97,-148.3"/>
</g>
</g>
</svg>
