<?xml version="1.0" encoding="UTF-8" standalone="no"?>
<!DOCTYPE svg PUBLIC "-//W3C//DTD SVG 1.1//EN"
 "http://www.w3.org/Graphics/SVG/1.1/DTD/svg11.dtd">
<!-- Generated by graphviz version 5.0.0 (20220707.1540)
 -->
<!-- Title: dependencies Pages: 1 -->
<svg width="2238pt" height="247pt"
 viewBox="0.00 0.00 2238.00 246.80" xmlns="http://www.w3.org/2000/svg" xmlns:xlink="http://www.w3.org/1999/xlink">
<g id="graph0" class="graph" transform="scale(1 1) rotate(0) translate(4 242.8)">
<title>dependencies</title>
<polygon fill="white" stroke="transparent" points="-4,4 -4,-242.8 2234,-242.8 2234,4 -4,4"/>
<text text-anchor="middle" x="1115" y="-8.2" font-family="sans-serif" font-size="14.00">dependencies</text>
<g id="clust1" class="cluster">
<title>cluster_OfflineModule</title>
<polygon fill="none" stroke="black" stroke-dasharray="1,5" points="8,-32.8 8,-230.8 2222,-230.8 2222,-32.8 8,-32.8"/>
</g>
<g id="clust11" class="cluster">
<title>cluster_OfflineModule_imports</title>
<polygon fill="none" stroke="black" points="1672,-40.8 1672,-92.8 2214,-92.8 2214,-40.8 1672,-40.8"/>
</g>
<g id="clust12" class="cluster">
<title>cluster_OfflineModule_exports</title>
<polygon fill="none" stroke="black" points="1117,-170.8 1117,-222.8 1269,-222.8 1269,-170.8 1117,-170.8"/>
</g>
<g id="clust2" class="cluster">
<title>cluster_OfflineModule_declarations</title>
<polygon fill="none" stroke="black" points="250,-40.8 250,-92.8 1664,-92.8 1664,-40.8 250,-40.8"/>
</g>
<g id="clust14" class="cluster">
<title>cluster_OfflineModule_providers</title>
<polygon fill="none" stroke="black" points="16,-40.8 16,-92.8 242,-92.8 242,-40.8 16,-40.8"/>
</g>
<!-- AboutUsComponent -->
<g id="node1" class="node">
<title>AboutUsComponent</title>
<polygon fill="#ffffb3" stroke="black" points="1655.89,-84.8 1524.11,-84.8 1524.11,-48.8 1655.89,-48.8 1655.89,-84.8"/>
<text text-anchor="middle" x="1590" y="-62.6" font-family="Times,serif" font-size="14.00">AboutUsComponent</text>
</g>
<!-- OfflineModule -->
<g id="node9" class="node">
<title>OfflineModule</title>
<polygon fill="#8dd3c7" stroke="black" points="1242.98,-149.8 1239.98,-153.8 1218.98,-153.8 1215.98,-149.8 1143.02,-149.8 1143.02,-113.8 1242.98,-113.8 1242.98,-149.8"/>
<text text-anchor="middle" x="1193" y="-127.6" font-family="Times,serif" font-size="14.00">OfflineModule</text>
</g>
<!-- AboutUsComponent&#45;&gt;OfflineModule -->
<g id="edge1" class="edge">
<title>AboutUsComponent&#45;&gt;OfflineModule</title>
<path fill="none" stroke="black" d="M1590,-84.83C1590,-101.86 1590,-124.8 1590,-124.8 1590,-124.8 1253.28,-124.8 1253.28,-124.8"/>
<polygon fill="black" stroke="black" points="1253.28,-121.3 1243.28,-124.8 1253.28,-128.3 1253.28,-121.3"/>
</g>
<!-- ContentManagerComponent -->
<g id="node2" class="node">
<title>ContentManagerComponent</title>
<polygon fill="#ffffb3" stroke="black" points="1505.91,-84.8 1330.09,-84.8 1330.09,-48.8 1505.91,-48.8 1505.91,-84.8"/>
<text text-anchor="middle" x="1418" y="-62.6" font-family="Times,serif" font-size="14.00">ContentManagerComponent</text>
</g>
<!-- ContentManagerComponent&#45;&gt;OfflineModule -->
<g id="edge2" class="edge">
<title>ContentManagerComponent&#45;&gt;OfflineModule</title>
<path fill="none" stroke="black" d="M1418,-85.04C1418,-100.37 1418,-119.8 1418,-119.8 1418,-119.8 1253.21,-119.8 1253.21,-119.8"/>
<polygon fill="black" stroke="black" points="1253.21,-116.3 1243.21,-119.8 1253.21,-123.3 1253.21,-116.3"/>
</g>
<!-- ContentManagerInfoPopUpComponent -->
<g id="node3" class="node">
<title>ContentManagerInfoPopUpComponent</title>
<polygon fill="#ffffb3" stroke="black" points="1311.64,-84.8 1074.36,-84.8 1074.36,-48.8 1311.64,-48.8 1311.64,-84.8"/>
<text text-anchor="middle" x="1193" y="-62.6" font-family="Times,serif" font-size="14.00">ContentManagerInfoPopUpComponent</text>
</g>
<!-- ContentManagerInfoPopUpComponent&#45;&gt;OfflineModule -->
<g id="edge3" class="edge">
<title>ContentManagerInfoPopUpComponent&#45;&gt;OfflineModule</title>
<path fill="none" stroke="black" d="M1193,-84.91C1193,-84.91 1193,-103.79 1193,-103.79"/>
<polygon fill="black" stroke="black" points="1189.5,-103.79 1193,-113.79 1196.5,-103.79 1189.5,-103.79"/>
</g>
<!-- InfoCardComponent -->
<g id="node4" class="node">
<title>InfoCardComponent</title>
<polygon fill="#ffffb3" stroke="black" points="1055.87,-84.8 924.13,-84.8 924.13,-48.8 1055.87,-48.8 1055.87,-84.8"/>
<text text-anchor="middle" x="990" y="-62.6" font-family="Times,serif" font-size="14.00">InfoCardComponent</text>
</g>
<!-- InfoCardComponent&#45;&gt;OfflineModule -->
<g id="edge4" class="edge">
<title>InfoCardComponent&#45;&gt;OfflineModule</title>
<path fill="none" stroke="black" d="M990,-85.04C990,-100.37 990,-119.8 990,-119.8 990,-119.8 1132.82,-119.8 1132.82,-119.8"/>
<polygon fill="black" stroke="black" points="1132.82,-123.3 1142.82,-119.8 1132.82,-116.3 1132.82,-123.3"/>
</g>
<!-- LibraryComponent -->
<g id="node5" class="node">
<title>LibraryComponent</title>
<polygon fill="#ffffb3" stroke="black" points="905.81,-84.8 782.19,-84.8 782.19,-48.8 905.81,-48.8 905.81,-84.8"/>
<text text-anchor="middle" x="844" y="-62.6" font-family="Times,serif" font-size="14.00">LibraryComponent</text>
</g>
<!-- LibraryComponent&#45;&gt;OfflineModule -->
<g id="edge5" class="edge">
<title>LibraryComponent&#45;&gt;OfflineModule</title>
<path fill="none" stroke="black" d="M844,-84.83C844,-101.86 844,-124.8 844,-124.8 844,-124.8 1133,-124.8 1133,-124.8"/>
<polygon fill="black" stroke="black" points="1133,-128.3 1143,-124.8 1133,-121.3 1133,-128.3"/>
</g>
<!-- LoadContentComponent -->
<g id="node6" class="node">
<title>LoadContentComponent</title>
<polygon fill="#ffffb3" stroke="black" points="764.43,-84.8 609.57,-84.8 609.57,-48.8 764.43,-48.8 764.43,-84.8"/>
<text text-anchor="middle" x="687" y="-62.6" font-family="Times,serif" font-size="14.00">LoadContentComponent</text>
</g>
<!-- LoadContentComponent&#45;&gt;OfflineModule -->
<g id="edge6" class="edge">
<title>LoadContentComponent&#45;&gt;OfflineModule</title>
<path fill="none" stroke="black" d="M687,-85.02C687,-103.63 687,-129.8 687,-129.8 687,-129.8 1132.63,-129.8 1132.63,-129.8"/>
<polygon fill="black" stroke="black" points="1132.63,-133.3 1142.63,-129.8 1132.63,-126.3 1132.63,-133.3"/>
</g>
<!-- TelemetryComponent -->
<g id="node7" class="node">
<title>TelemetryComponent</title>
<polygon fill="#ffffb3" stroke="black" points="591.36,-84.8 452.64,-84.8 452.64,-48.8 591.36,-48.8 591.36,-84.8"/>
<text text-anchor="middle" x="522" y="-62.6" font-family="Times,serif" font-size="14.00">TelemetryComponent</text>
</g>
<!-- TelemetryComponent&#45;&gt;OfflineModule -->
<g id="edge7" class="edge">
<title>TelemetryComponent&#45;&gt;OfflineModule</title>
<path fill="none" stroke="black" d="M522,-85.02C522,-105.17 522,-134.8 522,-134.8 522,-134.8 1132.84,-134.8 1132.84,-134.8"/>
<polygon fill="black" stroke="black" points="1132.84,-138.3 1142.84,-134.8 1132.84,-131.3 1132.84,-138.3"/>
</g>
<!-- TelemetryImportComponent -->
<g id="node8" class="node">
<title>TelemetryImportComponent</title>
<polygon fill="#ffffb3" stroke="black" points="434.46,-84.8 257.54,-84.8 257.54,-48.8 434.46,-48.8 434.46,-84.8"/>
<text text-anchor="middle" x="346" y="-62.6" font-family="Times,serif" font-size="14.00">TelemetryImportComponent</text>
</g>
<!-- TelemetryImportComponent&#45;&gt;OfflineModule -->
<g id="edge8" class="edge">
<title>TelemetryImportComponent&#45;&gt;OfflineModule</title>
<path fill="none" stroke="black" d="M346,-84.84C346,-106.46 346,-139.8 346,-139.8 346,-139.8 1132.87,-139.8 1132.87,-139.8"/>
<polygon fill="black" stroke="black" points="1132.87,-143.3 1142.87,-139.8 1132.87,-136.3 1132.87,-143.3"/>
</g>
<!-- InfoCardComponent  -->
<g id="node14" class="node">
<title>InfoCardComponent </title>
<polygon fill="#fb8072" stroke="black" points="1260.87,-214.8 1125.13,-214.8 1125.13,-178.8 1260.87,-178.8 1260.87,-214.8"/>
<text text-anchor="middle" x="1193" y="-192.6" font-family="Times,serif" font-size="14.00">InfoCardComponent </text>
</g>
<!-- OfflineModule&#45;&gt;InfoCardComponent  -->
<g id="edge13" class="edge">
<title>OfflineModule&#45;&gt;InfoCardComponent </title>
<path fill="none" stroke="black" stroke-dasharray="5,2" d="M1193,-149.91C1193,-149.91 1193,-168.79 1193,-168.79"/>
<polygon fill="black" stroke="black" points="1189.5,-168.79 1193,-178.79 1196.5,-168.79 1189.5,-168.79"/>
</g>
<!-- ContentSearchModule -->
<g id="node10" class="node">
<title>ContentSearchModule</title>
<polygon fill="#8dd3c7" stroke="black" points="2205.97,-84.8 2202.97,-88.8 2181.97,-88.8 2178.97,-84.8 2064.03,-84.8 2064.03,-48.8 2205.97,-48.8 2205.97,-84.8"/>
<text text-anchor="middle" x="2135" y="-62.6" font-family="Times,serif" font-size="14.00">ContentSearchModule</text>
</g>
<!-- ContentSearchModule&#45;&gt;OfflineModule -->
<g id="edge9" class="edge">
<title>ContentSearchModule&#45;&gt;OfflineModule</title>
<path fill="none" stroke="black" d="M2135,-84.89C2135,-107.93 2135,-144.8 2135,-144.8 2135,-144.8 1252.98,-144.8 1252.98,-144.8"/>
<polygon fill="black" stroke="black" points="1252.98,-141.3 1242.98,-144.8 1252.98,-148.3 1252.98,-141.3"/>
</g>
<!-- CoreModule -->
<g id="node11" class="node">
<title>CoreModule</title>
<polygon fill="#8dd3c7" stroke="black" points="2046.27,-84.8 2043.27,-88.8 2022.27,-88.8 2019.27,-84.8 1959.73,-84.8 1959.73,-48.8 2046.27,-48.8 2046.27,-84.8"/>
<text text-anchor="middle" x="2003" y="-62.6" font-family="Times,serif" font-size="14.00">CoreModule</text>
</g>
<!-- CoreModule&#45;&gt;OfflineModule -->
<g id="edge10" class="edge">
<title>CoreModule&#45;&gt;OfflineModule</title>
<path fill="none" stroke="black" d="M2003,-84.84C2003,-106.46 2003,-139.8 2003,-139.8 2003,-139.8 1253.06,-139.8 1253.06,-139.8"/>
<polygon fill="black" stroke="black" points="1253.06,-136.3 1243.06,-139.8 1253.06,-143.3 1253.06,-136.3"/>
</g>
<!-- OfflineRoutingModule -->
<g id="node12" class="node">
<title>OfflineRoutingModule</title>
<polygon fill="#8dd3c7" stroke="black" points="1941.6,-84.8 1938.6,-88.8 1917.6,-88.8 1914.6,-84.8 1796.4,-84.8 1796.4,-48.8 1941.6,-48.8 1941.6,-84.8"/>
<text text-anchor="middle" x="1869" y="-62.6" font-family="Times,serif" font-size="14.00">OfflineRoutingModule</text>
</g>
<!-- OfflineRoutingModule&#45;&gt;OfflineModule -->
<g id="edge11" class="edge">
<title>OfflineRoutingModule&#45;&gt;OfflineModule</title>
<path fill="none" stroke="black" d="M1869,-85.02C1869,-105.17 1869,-134.8 1869,-134.8 1869,-134.8 1252.98,-134.8 1252.98,-134.8"/>
<polygon fill="black" stroke="black" points="1252.98,-131.3 1242.98,-134.8 1252.98,-138.3 1252.98,-131.3"/>
</g>
<!-- SharedModule -->
<g id="node13" class="node">
<title>SharedModule</title>
<polygon fill="#8dd3c7" stroke="black" points="1778.43,-84.8 1775.43,-88.8 1754.43,-88.8 1751.43,-84.8 1679.57,-84.8 1679.57,-48.8 1778.43,-48.8 1778.43,-84.8"/>
<text text-anchor="middle" x="1729" y="-62.6" font-family="Times,serif" font-size="14.00">SharedModule</text>
</g>
<!-- SharedModule&#45;&gt;OfflineModule -->
<g id="edge12" class="edge">
<title>SharedModule&#45;&gt;OfflineModule</title>
<path fill="none" stroke="black" d="M1729,-85.02C1729,-103.63 1729,-129.8 1729,-129.8 1729,-129.8 1253.43,-129.8 1253.43,-129.8"/>
<polygon fill="black" stroke="black" points="1253.43,-126.3 1243.43,-129.8 1253.43,-133.3 1253.43,-126.3"/>
</g>
<!-- ContentManagerService -->
<g id="node15" class="node">
<title>ContentManagerService</title>
<ellipse fill="#fdb462" stroke="black" cx="129" cy="-66.8" rx="104.78" ry="18"/>
<text text-anchor="middle" x="129" y="-62.6" font-family="Times,serif" font-size="14.00">ContentManagerService</text>
</g>
<!-- ContentManagerService&#45;&gt;OfflineModule -->
<g id="edge14" class="edge">
<title>ContentManagerService&#45;&gt;OfflineModule</title>
<path fill="none" stroke="black" d="M129,-84.89C129,-107.93 129,-144.8 129,-144.8 129,-144.8 1132.75,-144.8 1132.75,-144.8"/>
<polygon fill="black" stroke="black" points="1132.75,-148.3 1142.75,-144.8 1132.75,-141.3 1132.75,-148.3"/>
</g>
</g>
</svg>
