<?xml version="1.0" encoding="UTF-8" standalone="no"?>
<!DOCTYPE svg PUBLIC "-//W3C//DTD SVG 1.1//EN"
 "http://www.w3.org/Graphics/SVG/1.1/DTD/svg11.dtd">
<!-- Generated by graphviz version 5.0.0 (20220707.1540)
 -->
<!-- Title: dependencies Pages: 1 -->
<svg width="648pt" height="247pt"
 viewBox="0.00 0.00 648.00 246.80" xmlns="http://www.w3.org/2000/svg" xmlns:xlink="http://www.w3.org/1999/xlink">
<g id="graph0" class="graph" transform="scale(1 1) rotate(0) translate(4 242.8)">
<title>dependencies</title>
<polygon fill="white" stroke="transparent" points="-4,4 -4,-242.8 644,-242.8 644,4 -4,4"/>
<text text-anchor="middle" x="320" y="-8.2" font-family="sans-serif" font-size="14.00">dependencies</text>
<g id="clust1" class="cluster">
<title>cluster_UserOnboardingModule</title>
<polygon fill="none" stroke="black" stroke-dasharray="1,5" points="8,-32.8 8,-230.8 632,-230.8 632,-32.8 8,-32.8"/>
</g>
<g id="clust2" class="cluster">
<title>cluster_UserOnboardingModule_declarations</title>
<polygon fill="none" stroke="black" points="424,-40.8 424,-92.8 624,-92.8 624,-40.8 424,-40.8"/>
</g>
<g id="clust4" class="cluster">
<title>cluster_UserOnboardingModule_imports</title>
<polygon fill="none" stroke="black" points="16,-40.8 16,-92.8 416,-92.8 416,-40.8 16,-40.8"/>
</g>
<g id="clust5" class="cluster">
<title>cluster_UserOnboardingModule_exports</title>
<polygon fill="none" stroke="black" points="179,-170.8 179,-222.8 383,-222.8 383,-170.8 179,-170.8"/>
</g>
<!-- OnboardingPopupComponent -->
<g id="node1" class="node">
<title>OnboardingPopupComponent</title>
<polygon fill="#ffffb3" stroke="black" points="615.99,-84.8 432.01,-84.8 432.01,-48.8 615.99,-48.8 615.99,-84.8"/>
<text text-anchor="middle" x="524" y="-62.6" font-family="Times,serif" font-size="14.00">OnboardingPopupComponent</text>
</g>
<!-- UserOnboardingModule -->
<g id="node2" class="node">
<title>UserOnboardingModule</title>
<polygon fill="#8dd3c7" stroke="black" points="357.36,-149.8 354.36,-153.8 333.36,-153.8 330.36,-149.8 204.64,-149.8 204.64,-113.8 357.36,-113.8 357.36,-149.8"/>
<text text-anchor="middle" x="281" y="-127.6" font-family="Times,serif" font-size="14.00">UserOnboardingModule</text>
</g>
<!-- OnboardingPopupComponent&#45;&gt;UserOnboardingModule -->
<g id="edge1" class="edge">
<title>OnboardingPopupComponent&#45;&gt;UserOnboardingModule</title>
<path fill="none" stroke="black" d="M524,-84.91C524,-104.14 524,-131.8 524,-131.8 524,-131.8 367.55,-131.8 367.55,-131.8"/>
<polygon fill="black" stroke="black" points="367.55,-128.3 357.55,-131.8 367.55,-135.3 367.55,-128.3"/>
</g>
<!-- OnboardingPopupComponent  -->
<g id="node6" class="node">
<title>OnboardingPopupComponent </title>
<polygon fill="#fb8072" stroke="black" points="374.99,-214.8 187.01,-214.8 187.01,-178.8 374.99,-178.8 374.99,-214.8"/>
<text text-anchor="middle" x="281" y="-192.6" font-family="Times,serif" font-size="14.00">OnboardingPopupComponent </text>
</g>
<!-- UserOnboardingModule&#45;&gt;OnboardingPopupComponent  -->
<g id="edge5" class="edge">
<title>UserOnboardingModule&#45;&gt;OnboardingPopupComponent </title>
<path fill="none" stroke="black" stroke-dasharray="5,2" d="M281,-149.91C281,-149.91 281,-168.79 281,-168.79"/>
<polygon fill="black" stroke="black" points="277.5,-168.79 281,-178.79 284.5,-168.79 277.5,-168.79"/>
</g>
<!-- LocationModule -->
<g id="node3" class="node">
<title>LocationModule</title>
<polygon fill="#8dd3c7" stroke="black" points="407.81,-84.8 404.81,-88.8 383.81,-88.8 380.81,-84.8 298.19,-84.8 298.19,-48.8 407.81,-48.8 407.81,-84.8"/>
<text text-anchor="middle" x="353" y="-62.6" font-family="Times,serif" font-size="14.00">LocationModule</text>
</g>
<!-- LocationModule&#45;&gt;UserOnboardingModule -->
<g id="edge2" class="edge">
<title>LocationModule&#45;&gt;UserOnboardingModule</title>
<path fill="none" stroke="black" d="M327.89,-84.91C327.89,-84.91 327.89,-103.79 327.89,-103.79"/>
<polygon fill="black" stroke="black" points="324.39,-103.79 327.89,-113.79 331.39,-103.79 324.39,-103.79"/>
</g>
<!-- SharedFeatureModule -->
<g id="node4" class="node">
<title>SharedFeatureModule</title>
<polygon fill="#8dd3c7" stroke="black" points="280.41,-84.8 277.41,-88.8 256.41,-88.8 253.41,-84.8 139.59,-84.8 139.59,-48.8 280.41,-48.8 280.41,-84.8"/>
<text text-anchor="middle" x="210" y="-62.6" font-family="Times,serif" font-size="14.00">SharedFeatureModule</text>
</g>
<!-- SharedFeatureModule&#45;&gt;UserOnboardingModule -->
<g id="edge3" class="edge">
<title>SharedFeatureModule&#45;&gt;UserOnboardingModule</title>
<path fill="none" stroke="black" d="M242.39,-84.91C242.39,-84.91 242.39,-103.79 242.39,-103.79"/>
<polygon fill="black" stroke="black" points="238.89,-103.79 242.39,-113.79 245.89,-103.79 238.89,-103.79"/>
</g>
<!-- SharedModule -->
<g id="node5" class="node">
<title>SharedModule</title>
<polygon fill="#8dd3c7" stroke="black" points="122.43,-84.8 119.43,-88.8 98.43,-88.8 95.43,-84.8 23.57,-84.8 23.57,-48.8 122.43,-48.8 122.43,-84.8"/>
<text text-anchor="middle" x="73" y="-62.6" font-family="Times,serif" font-size="14.00">SharedModule</text>
</g>
<!-- SharedModule&#45;&gt;UserOnboardingModule -->
<g id="edge4" class="edge">
<title>SharedModule&#45;&gt;UserOnboardingModule</title>
<path fill="none" stroke="black" d="M73,-84.91C73,-104.14 73,-131.8 73,-131.8 73,-131.8 194.43,-131.8 194.43,-131.8"/>
<polygon fill="black" stroke="black" points="194.43,-135.3 204.43,-131.8 194.43,-128.3 194.43,-135.3"/>
</g>
</g>
</svg>
