<?xml version="1.0" encoding="UTF-8" standalone="no"?>
<!DOCTYPE svg PUBLIC "-//W3C//DTD SVG 1.1//EN"
 "http://www.w3.org/Graphics/SVG/1.1/DTD/svg11.dtd">
<!-- Generated by graphviz version 5.0.0 (20220707.1540)
 -->
<!-- Title: dependencies Pages: 1 -->
<svg width="2119pt" height="174pt"
 viewBox="0.00 0.00 2119.00 173.80" xmlns="http://www.w3.org/2000/svg" xmlns:xlink="http://www.w3.org/1999/xlink">
<g id="graph0" class="graph" transform="scale(1 1) rotate(0) translate(4 169.8)">
<title>dependencies</title>
<polygon fill="white" stroke="transparent" points="-4,4 -4,-169.8 2115,-169.8 2115,4 -4,4"/>
<text text-anchor="middle" x="1055.5" y="-8.2" font-family="sans-serif" font-size="14.00">dependencies</text>
<g id="clust1" class="cluster">
<title>cluster_programDashboardModule</title>
<polygon fill="none" stroke="black" stroke-dasharray="1,5" points="8,-32.8 8,-157.8 2103,-157.8 2103,-32.8 8,-32.8"/>
</g>
<g id="clust2" class="cluster">
<title>cluster_programDashboardModule_declarations</title>
<polygon fill="none" stroke="black" points="1132,-40.8 1132,-92.8 2095,-92.8 2095,-40.8 1132,-40.8"/>
</g>
<g id="clust10" class="cluster">
<title>cluster_programDashboardModule_imports</title>
<polygon fill="none" stroke="black" points="348,-40.8 348,-92.8 1124,-92.8 1124,-40.8 348,-40.8"/>
</g>
<g id="clust13" class="cluster">
<title>cluster_programDashboardModule_providers</title>
<polygon fill="none" stroke="black" points="16,-40.8 16,-92.8 340,-92.8 340,-40.8 16,-40.8"/>
</g>
<!-- BigDataPipe -->
<g id="node1" class="node">
<title>BigDataPipe</title>
<polygon fill="#ffffb3" stroke="black" points="2086.55,-84.8 1999.45,-84.8 1999.45,-48.8 2086.55,-48.8 2086.55,-84.8"/>
<text text-anchor="middle" x="2043" y="-62.6" font-family="Times,serif" font-size="14.00">BigDataPipe</text>
</g>
<!-- programDashboardModule -->
<g id="node8" class="node">
<title>programDashboardModule</title>
<polygon fill="#8dd3c7" stroke="black" points="1213.63,-149.8 1210.63,-153.8 1189.63,-153.8 1186.63,-149.8 1046.37,-149.8 1046.37,-113.8 1213.63,-113.8 1213.63,-149.8"/>
<text text-anchor="middle" x="1130" y="-127.6" font-family="Times,serif" font-size="14.00">programDashboardModule</text>
</g>
<!-- BigDataPipe&#45;&gt;programDashboardModule -->
<g id="edge1" class="edge">
<title>BigDataPipe&#45;&gt;programDashboardModule</title>
<path fill="none" stroke="black" d="M2043,-84.89C2043,-107.93 2043,-144.8 2043,-144.8 2043,-144.8 1223.85,-144.8 1223.85,-144.8"/>
<polygon fill="black" stroke="black" points="1223.85,-141.3 1213.85,-144.8 1223.85,-148.3 1223.85,-141.3"/>
</g>
<!-- ChartTypePipe -->
<g id="node2" class="node">
<title>ChartTypePipe</title>
<polygon fill="#ffffb3" stroke="black" points="1981.26,-84.8 1880.74,-84.8 1880.74,-48.8 1981.26,-48.8 1981.26,-84.8"/>
<text text-anchor="middle" x="1931" y="-62.6" font-family="Times,serif" font-size="14.00">ChartTypePipe</text>
</g>
<!-- ChartTypePipe&#45;&gt;programDashboardModule -->
<g id="edge2" class="edge">
<title>ChartTypePipe&#45;&gt;programDashboardModule</title>
<path fill="none" stroke="black" d="M1931,-84.84C1931,-106.46 1931,-139.8 1931,-139.8 1931,-139.8 1223.83,-139.8 1223.83,-139.8"/>
<polygon fill="black" stroke="black" points="1223.83,-136.3 1213.83,-139.8 1223.83,-143.3 1223.83,-136.3"/>
</g>
<!-- DatasetsComponent -->
<g id="node3" class="node">
<title>DatasetsComponent</title>
<polygon fill="#ffffb3" stroke="black" points="1862.26,-84.8 1733.74,-84.8 1733.74,-48.8 1862.26,-48.8 1862.26,-84.8"/>
<text text-anchor="middle" x="1798" y="-62.6" font-family="Times,serif" font-size="14.00">DatasetsComponent</text>
</g>
<!-- DatasetsComponent&#45;&gt;programDashboardModule -->
<g id="edge3" class="edge">
<title>DatasetsComponent&#45;&gt;programDashboardModule</title>
<path fill="none" stroke="black" d="M1798,-85.02C1798,-105.17 1798,-134.8 1798,-134.8 1798,-134.8 1223.93,-134.8 1223.93,-134.8"/>
<polygon fill="black" stroke="black" points="1223.93,-131.3 1213.93,-134.8 1223.93,-138.3 1223.93,-131.3"/>
</g>
<!-- FilterChartPipe -->
<g id="node4" class="node">
<title>FilterChartPipe</title>
<polygon fill="#ffffb3" stroke="black" points="1715.32,-84.8 1612.68,-84.8 1612.68,-48.8 1715.32,-48.8 1715.32,-84.8"/>
<text text-anchor="middle" x="1664" y="-62.6" font-family="Times,serif" font-size="14.00">FilterChartPipe</text>
</g>
<!-- FilterChartPipe&#45;&gt;programDashboardModule -->
<g id="edge4" class="edge">
<title>FilterChartPipe&#45;&gt;programDashboardModule</title>
<path fill="none" stroke="black" d="M1664,-85.02C1664,-103.63 1664,-129.8 1664,-129.8 1664,-129.8 1223.73,-129.8 1223.73,-129.8"/>
<polygon fill="black" stroke="black" points="1223.73,-126.3 1213.73,-129.8 1223.73,-133.3 1223.73,-126.3"/>
</g>
<!-- PdFiltersComponent -->
<g id="node5" class="node">
<title>PdFiltersComponent</title>
<polygon fill="#ffffb3" stroke="black" points="1594.9,-84.8 1463.1,-84.8 1463.1,-48.8 1594.9,-48.8 1594.9,-84.8"/>
<text text-anchor="middle" x="1529" y="-62.6" font-family="Times,serif" font-size="14.00">PdFiltersComponent</text>
</g>
<!-- PdFiltersComponent&#45;&gt;programDashboardModule -->
<g id="edge5" class="edge">
<title>PdFiltersComponent&#45;&gt;programDashboardModule</title>
<path fill="none" stroke="black" d="M1529,-84.83C1529,-101.86 1529,-124.8 1529,-124.8 1529,-124.8 1223.64,-124.8 1223.64,-124.8"/>
<polygon fill="black" stroke="black" points="1223.64,-121.3 1213.64,-124.8 1223.64,-128.3 1223.64,-121.3"/>
</g>
<!-- SbBignumberComponent -->
<g id="node6" class="node">
<title>SbBignumberComponent</title>
<polygon fill="#ffffb3" stroke="black" points="1444.61,-84.8 1285.39,-84.8 1285.39,-48.8 1444.61,-48.8 1444.61,-84.8"/>
<text text-anchor="middle" x="1365" y="-62.6" font-family="Times,serif" font-size="14.00">SbBignumberComponent</text>
</g>
<!-- SbBignumberComponent&#45;&gt;programDashboardModule -->
<g id="edge6" class="edge">
<title>SbBignumberComponent&#45;&gt;programDashboardModule</title>
<path fill="none" stroke="black" d="M1365,-85.04C1365,-100.37 1365,-119.8 1365,-119.8 1365,-119.8 1223.85,-119.8 1223.85,-119.8"/>
<polygon fill="black" stroke="black" points="1223.85,-116.3 1213.85,-119.8 1223.85,-123.3 1223.85,-116.3"/>
</g>
<!-- SbChartComponent -->
<g id="node7" class="node">
<title>SbChartComponent</title>
<polygon fill="#ffffb3" stroke="black" points="1267.72,-84.8 1140.28,-84.8 1140.28,-48.8 1267.72,-48.8 1267.72,-84.8"/>
<text text-anchor="middle" x="1204" y="-62.6" font-family="Times,serif" font-size="14.00">SbChartComponent</text>
</g>
<!-- SbChartComponent&#45;&gt;programDashboardModule -->
<g id="edge7" class="edge">
<title>SbChartComponent&#45;&gt;programDashboardModule</title>
<path fill="none" stroke="black" d="M1177.1,-84.91C1177.1,-84.91 1177.1,-103.79 1177.1,-103.79"/>
<polygon fill="black" stroke="black" points="1173.6,-103.79 1177.1,-113.79 1180.6,-103.79 1173.6,-103.79"/>
</g>
<!-- DashboardModule -->
<g id="node9" class="node">
<title>DashboardModule</title>
<polygon fill="#8dd3c7" stroke="black" points="1116.2,-84.8 1113.2,-88.8 1092.2,-88.8 1089.2,-84.8 995.8,-84.8 995.8,-48.8 1116.2,-48.8 1116.2,-84.8"/>
<text text-anchor="middle" x="1056" y="-62.6" font-family="Times,serif" font-size="14.00">DashboardModule</text>
</g>
<!-- DashboardModule&#45;&gt;programDashboardModule -->
<g id="edge8" class="edge">
<title>DashboardModule&#45;&gt;programDashboardModule</title>
<path fill="none" stroke="black" d="M1081.14,-84.91C1081.14,-84.91 1081.14,-103.79 1081.14,-103.79"/>
<polygon fill="black" stroke="black" points="1077.64,-103.79 1081.14,-113.79 1084.64,-103.79 1077.64,-103.79"/>
</g>
<!-- SharedFeatureModule -->
<g id="node10" class="node">
<title>SharedFeatureModule</title>
<polygon fill="#8dd3c7" stroke="black" points="978.41,-84.8 975.41,-88.8 954.41,-88.8 951.41,-84.8 837.59,-84.8 837.59,-48.8 978.41,-48.8 978.41,-84.8"/>
<text text-anchor="middle" x="908" y="-62.6" font-family="Times,serif" font-size="14.00">SharedFeatureModule</text>
</g>
<!-- SharedFeatureModule&#45;&gt;programDashboardModule -->
<g id="edge9" class="edge">
<title>SharedFeatureModule&#45;&gt;programDashboardModule</title>
<path fill="none" stroke="black" d="M908,-85.04C908,-100.37 908,-119.8 908,-119.8 908,-119.8 1036.07,-119.8 1036.07,-119.8"/>
<polygon fill="black" stroke="black" points="1036.07,-123.3 1046.07,-119.8 1036.07,-116.3 1036.07,-123.3"/>
</g>
<!-- SharedModule -->
<g id="node11" class="node">
<title>SharedModule</title>
<polygon fill="#8dd3c7" stroke="black" points="820.43,-84.8 817.43,-88.8 796.43,-88.8 793.43,-84.8 721.57,-84.8 721.57,-48.8 820.43,-48.8 820.43,-84.8"/>
<text text-anchor="middle" x="771" y="-62.6" font-family="Times,serif" font-size="14.00">SharedModule</text>
</g>
<!-- SharedModule&#45;&gt;programDashboardModule -->
<g id="edge10" class="edge">
<title>SharedModule&#45;&gt;programDashboardModule</title>
<path fill="none" stroke="black" d="M771,-84.83C771,-101.86 771,-124.8 771,-124.8 771,-124.8 1036.28,-124.8 1036.28,-124.8"/>
<polygon fill="black" stroke="black" points="1036.28,-128.3 1046.28,-124.8 1036.28,-121.3 1036.28,-128.3"/>
</g>
<!-- TelemetryModule -->
<g id="node12" class="node">
<title>TelemetryModule</title>
<polygon fill="#8dd3c7" stroke="black" points="703.58,-84.8 700.58,-88.8 679.58,-88.8 676.58,-84.8 586.42,-84.8 586.42,-48.8 703.58,-48.8 703.58,-84.8"/>
<text text-anchor="middle" x="645" y="-62.6" font-family="Times,serif" font-size="14.00">TelemetryModule</text>
</g>
<!-- TelemetryModule&#45;&gt;programDashboardModule -->
<g id="edge11" class="edge">
<title>TelemetryModule&#45;&gt;programDashboardModule</title>
<path fill="none" stroke="black" d="M645,-85.02C645,-103.63 645,-129.8 645,-129.8 645,-129.8 1036.35,-129.8 1036.35,-129.8"/>
<polygon fill="black" stroke="black" points="1036.35,-133.3 1046.35,-129.8 1036.35,-126.3 1036.35,-133.3"/>
</g>
<!-- programDashboardRoutingModule -->
<g id="node13" class="node">
<title>programDashboardRoutingModule</title>
<polygon fill="#8dd3c7" stroke="black" points="568.25,-84.8 565.25,-88.8 544.25,-88.8 541.25,-84.8 355.75,-84.8 355.75,-48.8 568.25,-48.8 568.25,-84.8"/>
<text text-anchor="middle" x="462" y="-62.6" font-family="Times,serif" font-size="14.00">programDashboardRoutingModule</text>
</g>
<!-- programDashboardRoutingModule&#45;&gt;programDashboardModule -->
<g id="edge12" class="edge">
<title>programDashboardRoutingModule&#45;&gt;programDashboardModule</title>
<path fill="none" stroke="black" d="M462,-85.02C462,-105.17 462,-134.8 462,-134.8 462,-134.8 1036.07,-134.8 1036.07,-134.8"/>
<polygon fill="black" stroke="black" points="1036.07,-138.3 1046.07,-134.8 1036.07,-131.3 1036.07,-138.3"/>
</g>
<!-- ResourceService -->
<g id="node14" class="node">
<title>ResourceService</title>
<ellipse fill="#fdb462" stroke="black" cx="256" cy="-66.8" rx="75.85" ry="18"/>
<text text-anchor="middle" x="256" y="-62.6" font-family="Times,serif" font-size="14.00">ResourceService</text>
</g>
<!-- ResourceService&#45;&gt;programDashboardModule -->
<g id="edge13" class="edge">
<title>ResourceService&#45;&gt;programDashboardModule</title>
<path fill="none" stroke="black" d="M256,-84.84C256,-106.46 256,-139.8 256,-139.8 256,-139.8 1036.2,-139.8 1036.2,-139.8"/>
<polygon fill="black" stroke="black" points="1036.2,-143.3 1046.2,-139.8 1036.2,-136.3 1036.2,-143.3"/>
</g>
<!-- ToasterService -->
<g id="node15" class="node">
<title>ToasterService</title>
<ellipse fill="#fdb462" stroke="black" cx="93" cy="-66.8" rx="68.9" ry="18"/>
<text text-anchor="middle" x="93" y="-62.6" font-family="Times,serif" font-size="14.00">ToasterService</text>
</g>
<!-- ToasterService&#45;&gt;programDashboardModule -->
<g id="edge14" class="edge">
<title>ToasterService&#45;&gt;programDashboardModule</title>
<path fill="none" stroke="black" d="M93,-84.89C93,-107.93 93,-144.8 93,-144.8 93,-144.8 1036.02,-144.8 1036.02,-144.8"/>
<polygon fill="black" stroke="black" points="1036.02,-148.3 1046.02,-144.8 1036.02,-141.3 1036.02,-148.3"/>
</g>
</g>
</svg>
