<?xml version="1.0" encoding="UTF-8" standalone="no"?>
<!DOCTYPE svg PUBLIC "-//W3C//DTD SVG 1.1//EN"
 "http://www.w3.org/Graphics/SVG/1.1/DTD/svg11.dtd">
<!-- Generated by graphviz version 5.0.0 (20220707.1540)
 -->
<!-- Title: dependencies Pages: 1 -->
<svg width="1162pt" height="174pt"
 viewBox="0.00 0.00 1162.00 173.80" xmlns="http://www.w3.org/2000/svg" xmlns:xlink="http://www.w3.org/1999/xlink">
<g id="graph0" class="graph" transform="scale(1 1) rotate(0) translate(4 169.8)">
<title>dependencies</title>
<polygon fill="white" stroke="transparent" points="-4,4 -4,-169.8 1158,-169.8 1158,4 -4,4"/>
<text text-anchor="middle" x="577" y="-8.2" font-family="sans-serif" font-size="14.00">dependencies</text>
<g id="clust1" class="cluster">
<title>cluster_programDashboardModule</title>
<polygon fill="none" stroke="black" stroke-dasharray="1,5" points="8,-32.8 8,-157.8 1146,-157.8 1146,-32.8 8,-32.8"/>
</g>
<g id="clust7" class="cluster">
<title>cluster_programDashboardModule_providers</title>
<polygon fill="none" stroke="black" points="814,-40.8 814,-92.8 1138,-92.8 1138,-40.8 814,-40.8"/>
</g>
<g id="clust2" class="cluster">
<title>cluster_programDashboardModule_declarations</title>
<polygon fill="none" stroke="black" points="662,-40.8 662,-92.8 806,-92.8 806,-40.8 662,-40.8"/>
</g>
<g id="clust4" class="cluster">
<title>cluster_programDashboardModule_imports</title>
<polygon fill="none" stroke="black" points="16,-40.8 16,-92.8 654,-92.8 654,-40.8 16,-40.8"/>
</g>
<!-- DatasetsComponent -->
<g id="node1" class="node">
<title>DatasetsComponent</title>
<polygon fill="#ffffb3" stroke="black" points="798.26,-84.8 669.74,-84.8 669.74,-48.8 798.26,-48.8 798.26,-84.8"/>
<text text-anchor="middle" x="734" y="-62.6" font-family="Times,serif" font-size="14.00">DatasetsComponent</text>
</g>
<!-- programDashboardModule -->
<g id="node2" class="node">
<title>programDashboardModule</title>
<polygon fill="#8dd3c7" stroke="black" points="659.63,-149.8 656.63,-153.8 635.63,-153.8 632.63,-149.8 492.37,-149.8 492.37,-113.8 659.63,-113.8 659.63,-149.8"/>
<text text-anchor="middle" x="576" y="-127.6" font-family="Times,serif" font-size="14.00">programDashboardModule</text>
</g>
<!-- DatasetsComponent&#45;&gt;programDashboardModule -->
<g id="edge1" class="edge">
<title>DatasetsComponent&#45;&gt;programDashboardModule</title>
<path fill="none" stroke="black" d="M669.4,-66.8C659.78,-66.8 653.01,-66.8 653.01,-66.8 653.01,-66.8 653.01,-103.69 653.01,-103.69"/>
<polygon fill="black" stroke="black" points="649.51,-103.69 653.01,-113.69 656.51,-103.69 649.51,-103.69"/>
</g>
<!-- SharedFeatureModule -->
<g id="node3" class="node">
<title>SharedFeatureModule</title>
<polygon fill="#8dd3c7" stroke="black" points="646.41,-84.8 643.41,-88.8 622.41,-88.8 619.41,-84.8 505.59,-84.8 505.59,-48.8 646.41,-48.8 646.41,-84.8"/>
<text text-anchor="middle" x="576" y="-62.6" font-family="Times,serif" font-size="14.00">SharedFeatureModule</text>
</g>
<!-- SharedFeatureModule&#45;&gt;programDashboardModule -->
<g id="edge2" class="edge">
<title>SharedFeatureModule&#45;&gt;programDashboardModule</title>
<path fill="none" stroke="black" d="M576,-84.91C576,-84.91 576,-103.79 576,-103.79"/>
<polygon fill="black" stroke="black" points="572.5,-103.79 576,-113.79 579.5,-103.79 572.5,-103.79"/>
</g>
<!-- SharedModule -->
<g id="node4" class="node">
<title>SharedModule</title>
<polygon fill="#8dd3c7" stroke="black" points="488.43,-84.8 485.43,-88.8 464.43,-88.8 461.43,-84.8 389.57,-84.8 389.57,-48.8 488.43,-48.8 488.43,-84.8"/>
<text text-anchor="middle" x="439" y="-62.6" font-family="Times,serif" font-size="14.00">SharedModule</text>
</g>
<!-- SharedModule&#45;&gt;programDashboardModule -->
<g id="edge3" class="edge">
<title>SharedModule&#45;&gt;programDashboardModule</title>
<path fill="none" stroke="black" d="M488.27,-66.8C494.63,-66.8 498.99,-66.8 498.99,-66.8 498.99,-66.8 498.99,-103.69 498.99,-103.69"/>
<polygon fill="black" stroke="black" points="495.49,-103.69 498.99,-113.69 502.49,-103.69 495.49,-103.69"/>
</g>
<!-- TelemetryModule -->
<g id="node5" class="node">
<title>TelemetryModule</title>
<polygon fill="#8dd3c7" stroke="black" points="371.58,-84.8 368.58,-88.8 347.58,-88.8 344.58,-84.8 254.42,-84.8 254.42,-48.8 371.58,-48.8 371.58,-84.8"/>
<text text-anchor="middle" x="313" y="-62.6" font-family="Times,serif" font-size="14.00">TelemetryModule</text>
</g>
<!-- TelemetryModule&#45;&gt;programDashboardModule -->
<g id="edge4" class="edge">
<title>TelemetryModule&#45;&gt;programDashboardModule</title>
<path fill="none" stroke="black" d="M313,-84.82C313,-102.17 313,-125.8 313,-125.8 313,-125.8 482.06,-125.8 482.06,-125.8"/>
<polygon fill="black" stroke="black" points="482.06,-129.3 492.06,-125.8 482.06,-122.3 482.06,-129.3"/>
</g>
<!-- programDashboardRoutingModule -->
<g id="node6" class="node">
<title>programDashboardRoutingModule</title>
<polygon fill="#8dd3c7" stroke="black" points="236.25,-84.8 233.25,-88.8 212.25,-88.8 209.25,-84.8 23.75,-84.8 23.75,-48.8 236.25,-48.8 236.25,-84.8"/>
<text text-anchor="middle" x="130" y="-62.6" font-family="Times,serif" font-size="14.00">programDashboardRoutingModule</text>
</g>
<!-- programDashboardRoutingModule&#45;&gt;programDashboardModule -->
<g id="edge5" class="edge">
<title>programDashboardRoutingModule&#45;&gt;programDashboardModule</title>
<path fill="none" stroke="black" d="M130,-85.08C130,-106.12 130,-137.8 130,-137.8 130,-137.8 482.11,-137.8 482.11,-137.8"/>
<polygon fill="black" stroke="black" points="482.11,-141.3 492.11,-137.8 482.11,-134.3 482.11,-141.3"/>
</g>
<!-- ResourceService -->
<g id="node7" class="node">
<title>ResourceService</title>
<ellipse fill="#fdb462" stroke="black" cx="1054" cy="-66.8" rx="75.85" ry="18"/>
<text text-anchor="middle" x="1054" y="-62.6" font-family="Times,serif" font-size="14.00">ResourceService</text>
</g>
<!-- ResourceService&#45;&gt;programDashboardModule -->
<g id="edge6" class="edge">
<title>ResourceService&#45;&gt;programDashboardModule</title>
<path fill="none" stroke="black" d="M1054,-85.08C1054,-106.12 1054,-137.8 1054,-137.8 1054,-137.8 669.81,-137.8 669.81,-137.8"/>
<polygon fill="black" stroke="black" points="669.81,-134.3 659.81,-137.8 669.81,-141.3 669.81,-134.3"/>
</g>
<!-- ToasterService -->
<g id="node8" class="node">
<title>ToasterService</title>
<ellipse fill="#fdb462" stroke="black" cx="891" cy="-66.8" rx="68.9" ry="18"/>
<text text-anchor="middle" x="891" y="-62.6" font-family="Times,serif" font-size="14.00">ToasterService</text>
</g>
<!-- ToasterService&#45;&gt;programDashboardModule -->
<g id="edge7" class="edge">
<title>ToasterService&#45;&gt;programDashboardModule</title>
<path fill="none" stroke="black" d="M891,-84.82C891,-102.17 891,-125.8 891,-125.8 891,-125.8 670,-125.8 670,-125.8"/>
<polygon fill="black" stroke="black" points="670,-122.3 660,-125.8 670,-129.3 670,-122.3"/>
</g>
</g>
</svg>
