<?xml version="1.0" encoding="UTF-8" standalone="no"?>
<!DOCTYPE svg PUBLIC "-//W3C//DTD SVG 1.1//EN"
 "http://www.w3.org/Graphics/SVG/1.1/DTD/svg11.dtd">
<!-- Generated by graphviz version 5.0.0 (20220707.1540)
 -->
<!-- Title: dependencies Pages: 1 -->
<svg width="1780pt" height="174pt"
 viewBox="0.00 0.00 1780.00 173.80" xmlns="http://www.w3.org/2000/svg" xmlns:xlink="http://www.w3.org/1999/xlink">
<g id="graph0" class="graph" transform="scale(1 1) rotate(0) translate(4 169.8)">
<title>dependencies</title>
<polygon fill="white" stroke="transparent" points="-4,4 -4,-169.8 1776,-169.8 1776,4 -4,4"/>
<text text-anchor="middle" x="886" y="-8.2" font-family="sans-serif" font-size="14.00">dependencies</text>
<g id="clust1" class="cluster">
<title>cluster_CertificateModule</title>
<polygon fill="none" stroke="black" stroke-dasharray="1,5" points="8,-32.8 8,-157.8 1764,-157.8 1764,-32.8 8,-32.8"/>
</g>
<g id="clust2" class="cluster">
<title>cluster_CertificateModule_declarations</title>
<polygon fill="none" stroke="black" points="766,-40.8 766,-92.8 1756,-92.8 1756,-40.8 766,-40.8"/>
</g>
<g id="clust8" class="cluster">
<title>cluster_CertificateModule_imports</title>
<polygon fill="none" stroke="black" points="16,-40.8 16,-92.8 758,-92.8 758,-40.8 16,-40.8"/>
</g>
<!-- BrowseImagePopupComponent -->
<g id="node1" class="node">
<title>BrowseImagePopupComponent</title>
<polygon fill="#ffffb3" stroke="black" points="1748.37,-84.8 1553.63,-84.8 1553.63,-48.8 1748.37,-48.8 1748.37,-84.8"/>
<text text-anchor="middle" x="1651" y="-62.6" font-family="Times,serif" font-size="14.00">BrowseImagePopupComponent</text>
</g>
<!-- CertificateModule -->
<g id="node6" class="node">
<title>CertificateModule</title>
<polygon fill="#8dd3c7" stroke="black" points="814.13,-149.8 811.13,-153.8 790.13,-153.8 787.13,-149.8 695.87,-149.8 695.87,-113.8 814.13,-113.8 814.13,-149.8"/>
<text text-anchor="middle" x="755" y="-127.6" font-family="Times,serif" font-size="14.00">CertificateModule</text>
</g>
<!-- BrowseImagePopupComponent&#45;&gt;CertificateModule -->
<g id="edge1" class="edge">
<title>BrowseImagePopupComponent&#45;&gt;CertificateModule</title>
<path fill="none" stroke="black" d="M1651,-84.81C1651,-107.29 1651,-142.8 1651,-142.8 1651,-142.8 824.14,-142.8 824.14,-142.8"/>
<polygon fill="black" stroke="black" points="824.14,-139.3 814.14,-142.8 824.14,-146.3 824.14,-139.3"/>
</g>
<!-- CertificateConfigurationComponent -->
<g id="node2" class="node">
<title>CertificateConfigurationComponent</title>
<polygon fill="#ffffb3" stroke="black" points="1535.45,-84.8 1316.55,-84.8 1316.55,-48.8 1535.45,-48.8 1535.45,-84.8"/>
<text text-anchor="middle" x="1426" y="-62.6" font-family="Times,serif" font-size="14.00">CertificateConfigurationComponent</text>
</g>
<!-- CertificateConfigurationComponent&#45;&gt;CertificateModule -->
<g id="edge2" class="edge">
<title>CertificateConfigurationComponent&#45;&gt;CertificateModule</title>
<path fill="none" stroke="black" d="M1426,-84.93C1426,-105.37 1426,-135.8 1426,-135.8 1426,-135.8 824.25,-135.8 824.25,-135.8"/>
<polygon fill="black" stroke="black" points="824.25,-132.3 814.25,-135.8 824.25,-139.3 824.25,-132.3"/>
</g>
<!-- CertificateDetailsComponent -->
<g id="node3" class="node">
<title>CertificateDetailsComponent</title>
<polygon fill="#ffffb3" stroke="black" points="1298.06,-84.8 1117.94,-84.8 1117.94,-48.8 1298.06,-48.8 1298.06,-84.8"/>
<text text-anchor="middle" x="1208" y="-62.6" font-family="Times,serif" font-size="14.00">CertificateDetailsComponent</text>
</g>
<!-- CertificateDetailsComponent&#45;&gt;CertificateModule -->
<g id="edge3" class="edge">
<title>CertificateDetailsComponent&#45;&gt;CertificateModule</title>
<path fill="none" stroke="black" d="M1208,-85.07C1208,-103.36 1208,-128.8 1208,-128.8 1208,-128.8 824.22,-128.8 824.22,-128.8"/>
<polygon fill="black" stroke="black" points="824.22,-125.3 814.22,-128.8 824.22,-132.3 824.22,-125.3"/>
</g>
<!-- CreateTemplateComponent -->
<g id="node4" class="node">
<title>CreateTemplateComponent</title>
<polygon fill="#ffffb3" stroke="black" points="1100.22,-84.8 929.78,-84.8 929.78,-48.8 1100.22,-48.8 1100.22,-84.8"/>
<text text-anchor="middle" x="1015" y="-62.6" font-family="Times,serif" font-size="14.00">CreateTemplateComponent</text>
</g>
<!-- CreateTemplateComponent&#45;&gt;CertificateModule -->
<g id="edge4" class="edge">
<title>CreateTemplateComponent&#45;&gt;CertificateModule</title>
<path fill="none" stroke="black" d="M1015,-84.81C1015,-100.85 1015,-121.8 1015,-121.8 1015,-121.8 824.32,-121.8 824.32,-121.8"/>
<polygon fill="black" stroke="black" points="824.32,-118.3 814.32,-121.8 824.32,-125.3 824.32,-118.3"/>
</g>
<!-- SvgEditorComponent -->
<g id="node5" class="node">
<title>SvgEditorComponent</title>
<polygon fill="#ffffb3" stroke="black" points="912.11,-84.8 773.89,-84.8 773.89,-48.8 912.11,-48.8 912.11,-84.8"/>
<text text-anchor="middle" x="843" y="-62.6" font-family="Times,serif" font-size="14.00">SvgEditorComponent</text>
</g>
<!-- SvgEditorComponent&#45;&gt;CertificateModule -->
<g id="edge5" class="edge">
<title>SvgEditorComponent&#45;&gt;CertificateModule</title>
<path fill="none" stroke="black" d="M794.13,-84.91C794.13,-84.91 794.13,-103.79 794.13,-103.79"/>
<polygon fill="black" stroke="black" points="790.63,-103.79 794.13,-113.79 797.63,-103.79 790.63,-103.79"/>
</g>
<!-- CertificateRoutingModule -->
<g id="node7" class="node">
<title>CertificateRoutingModule</title>
<polygon fill="#8dd3c7" stroke="black" points="749.75,-84.8 746.75,-88.8 725.75,-88.8 722.75,-84.8 586.25,-84.8 586.25,-48.8 749.75,-48.8 749.75,-84.8"/>
<text text-anchor="middle" x="668" y="-62.6" font-family="Times,serif" font-size="14.00">CertificateRoutingModule</text>
</g>
<!-- CertificateRoutingModule&#45;&gt;CertificateModule -->
<g id="edge6" class="edge">
<title>CertificateRoutingModule&#45;&gt;CertificateModule</title>
<path fill="none" stroke="black" d="M722.78,-84.91C722.78,-84.91 722.78,-103.79 722.78,-103.79"/>
<polygon fill="black" stroke="black" points="719.28,-103.79 722.78,-113.79 726.28,-103.79 719.28,-103.79"/>
</g>
<!-- PlayerHelperModule -->
<g id="node8" class="node">
<title>PlayerHelperModule</title>
<polygon fill="#8dd3c7" stroke="black" points="567.91,-84.8 564.91,-88.8 543.91,-88.8 540.91,-84.8 434.09,-84.8 434.09,-48.8 567.91,-48.8 567.91,-84.8"/>
<text text-anchor="middle" x="501" y="-62.6" font-family="Times,serif" font-size="14.00">PlayerHelperModule</text>
</g>
<!-- PlayerHelperModule&#45;&gt;CertificateModule -->
<g id="edge7" class="edge">
<title>PlayerHelperModule&#45;&gt;CertificateModule</title>
<path fill="none" stroke="black" d="M501,-84.81C501,-100.85 501,-121.8 501,-121.8 501,-121.8 685.77,-121.8 685.77,-121.8"/>
<polygon fill="black" stroke="black" points="685.77,-125.3 695.77,-121.8 685.77,-118.3 685.77,-125.3"/>
</g>
<!-- SharedFeatureModule -->
<g id="node9" class="node">
<title>SharedFeatureModule</title>
<polygon fill="#8dd3c7" stroke="black" points="416.41,-84.8 413.41,-88.8 392.41,-88.8 389.41,-84.8 275.59,-84.8 275.59,-48.8 416.41,-48.8 416.41,-84.8"/>
<text text-anchor="middle" x="346" y="-62.6" font-family="Times,serif" font-size="14.00">SharedFeatureModule</text>
</g>
<!-- SharedFeatureModule&#45;&gt;CertificateModule -->
<g id="edge8" class="edge">
<title>SharedFeatureModule&#45;&gt;CertificateModule</title>
<path fill="none" stroke="black" d="M346,-85.07C346,-103.36 346,-128.8 346,-128.8 346,-128.8 685.53,-128.8 685.53,-128.8"/>
<polygon fill="black" stroke="black" points="685.53,-132.3 695.53,-128.8 685.53,-125.3 685.53,-132.3"/>
</g>
<!-- SharedModule -->
<g id="node10" class="node">
<title>SharedModule</title>
<polygon fill="#8dd3c7" stroke="black" points="258.43,-84.8 255.43,-88.8 234.43,-88.8 231.43,-84.8 159.57,-84.8 159.57,-48.8 258.43,-48.8 258.43,-84.8"/>
<text text-anchor="middle" x="209" y="-62.6" font-family="Times,serif" font-size="14.00">SharedModule</text>
</g>
<!-- SharedModule&#45;&gt;CertificateModule -->
<g id="edge9" class="edge">
<title>SharedModule&#45;&gt;CertificateModule</title>
<path fill="none" stroke="black" d="M209,-84.93C209,-105.37 209,-135.8 209,-135.8 209,-135.8 685.79,-135.8 685.79,-135.8"/>
<polygon fill="black" stroke="black" points="685.79,-139.3 695.79,-135.8 685.79,-132.3 685.79,-139.3"/>
</g>
<!-- TelemetryModule -->
<g id="node11" class="node">
<title>TelemetryModule</title>
<polygon fill="#8dd3c7" stroke="black" points="141.58,-84.8 138.58,-88.8 117.58,-88.8 114.58,-84.8 24.42,-84.8 24.42,-48.8 141.58,-48.8 141.58,-84.8"/>
<text text-anchor="middle" x="83" y="-62.6" font-family="Times,serif" font-size="14.00">TelemetryModule</text>
</g>
<!-- TelemetryModule&#45;&gt;CertificateModule -->
<g id="edge10" class="edge">
<title>TelemetryModule&#45;&gt;CertificateModule</title>
<path fill="none" stroke="black" d="M83,-84.81C83,-107.29 83,-142.8 83,-142.8 83,-142.8 685.66,-142.8 685.66,-142.8"/>
<polygon fill="black" stroke="black" points="685.66,-146.3 695.66,-142.8 685.66,-139.3 685.66,-146.3"/>
</g>
</g>
</svg>
