<?xml version="1.0" encoding="UTF-8" standalone="no"?>
<!DOCTYPE svg PUBLIC "-//W3C//DTD SVG 1.1//EN"
 "http://www.w3.org/Graphics/SVG/1.1/DTD/svg11.dtd">
<!-- Generated by graphviz version 5.0.0 (20220707.1540)
 -->
<!-- Title: dependencies Pages: 1 -->
<svg width="799pt" height="174pt"
 viewBox="0.00 0.00 799.00 173.80" xmlns="http://www.w3.org/2000/svg" xmlns:xlink="http://www.w3.org/1999/xlink">
<g id="graph0" class="graph" transform="scale(1 1) rotate(0) translate(4 169.8)">
<title>dependencies</title>
<polygon fill="white" stroke="transparent" points="-4,4 -4,-169.8 795,-169.8 795,4 -4,4"/>
<text text-anchor="middle" x="395.5" y="-8.2" font-family="sans-serif" font-size="14.00">dependencies</text>
<g id="clust1" class="cluster">
<title>cluster_PublicModule</title>
<polygon fill="none" stroke="black" stroke-dasharray="1,5" points="8,-32.8 8,-157.8 783,-157.8 783,-32.8 8,-32.8"/>
</g>
<g id="clust7" class="cluster">
<title>cluster_PublicModule_providers</title>
<polygon fill="none" stroke="black" points="581,-40.8 581,-92.8 775,-92.8 775,-40.8 581,-40.8"/>
</g>
<g id="clust4" class="cluster">
<title>cluster_PublicModule_imports</title>
<polygon fill="none" stroke="black" points="196,-40.8 196,-92.8 573,-92.8 573,-40.8 196,-40.8"/>
</g>
<g id="clust2" class="cluster">
<title>cluster_PublicModule_declarations</title>
<polygon fill="none" stroke="black" points="16,-40.8 16,-92.8 188,-92.8 188,-40.8 16,-40.8"/>
</g>
<!-- LandingPageComponent -->
<g id="node1" class="node">
<title>LandingPageComponent</title>
<polygon fill="#ffffb3" stroke="black" points="179.7,-84.8 24.3,-84.8 24.3,-48.8 179.7,-48.8 179.7,-84.8"/>
<text text-anchor="middle" x="102" y="-62.6" font-family="Times,serif" font-size="14.00">LandingPageComponent</text>
</g>
<!-- PublicModule -->
<g id="node2" class="node">
<title>PublicModule</title>
<polygon fill="#8dd3c7" stroke="black" points="437.83,-149.8 434.83,-153.8 413.83,-153.8 410.83,-149.8 342.17,-149.8 342.17,-113.8 437.83,-113.8 437.83,-149.8"/>
<text text-anchor="middle" x="390" y="-127.6" font-family="Times,serif" font-size="14.00">PublicModule</text>
</g>
<!-- LandingPageComponent&#45;&gt;PublicModule -->
<g id="edge1" class="edge">
<title>LandingPageComponent&#45;&gt;PublicModule</title>
<path fill="none" stroke="black" d="M102,-85.08C102,-106.12 102,-137.8 102,-137.8 102,-137.8 332.12,-137.8 332.12,-137.8"/>
<polygon fill="black" stroke="black" points="332.12,-141.3 342.12,-137.8 332.12,-134.3 332.12,-141.3"/>
</g>
<!-- CoreModule -->
<g id="node3" class="node">
<title>CoreModule</title>
<polygon fill="#8dd3c7" stroke="black" points="565.27,-84.8 562.27,-88.8 541.27,-88.8 538.27,-84.8 478.73,-84.8 478.73,-48.8 565.27,-48.8 565.27,-84.8"/>
<text text-anchor="middle" x="522" y="-62.6" font-family="Times,serif" font-size="14.00">CoreModule</text>
</g>
<!-- CoreModule&#45;&gt;PublicModule -->
<g id="edge2" class="edge">
<title>CoreModule&#45;&gt;PublicModule</title>
<path fill="none" stroke="black" d="M522,-84.82C522,-102.17 522,-125.8 522,-125.8 522,-125.8 448.03,-125.8 448.03,-125.8"/>
<polygon fill="black" stroke="black" points="448.03,-122.3 438.03,-125.8 448.03,-129.3 448.03,-122.3"/>
</g>
<!-- PublicRoutingModule -->
<g id="node4" class="node">
<title>PublicRoutingModule</title>
<polygon fill="#8dd3c7" stroke="black" points="460.45,-84.8 457.45,-88.8 436.45,-88.8 433.45,-84.8 319.55,-84.8 319.55,-48.8 460.45,-48.8 460.45,-84.8"/>
<text text-anchor="middle" x="390" y="-62.6" font-family="Times,serif" font-size="14.00">PublicRoutingModule</text>
</g>
<!-- PublicRoutingModule&#45;&gt;PublicModule -->
<g id="edge3" class="edge">
<title>PublicRoutingModule&#45;&gt;PublicModule</title>
<path fill="none" stroke="black" d="M390,-84.91C390,-84.91 390,-103.79 390,-103.79"/>
<polygon fill="black" stroke="black" points="386.5,-103.79 390,-113.79 393.5,-103.79 386.5,-103.79"/>
</g>
<!-- SharedModule -->
<g id="node5" class="node">
<title>SharedModule</title>
<polygon fill="#8dd3c7" stroke="black" points="302.43,-84.8 299.43,-88.8 278.43,-88.8 275.43,-84.8 203.57,-84.8 203.57,-48.8 302.43,-48.8 302.43,-84.8"/>
<text text-anchor="middle" x="253" y="-62.6" font-family="Times,serif" font-size="14.00">SharedModule</text>
</g>
<!-- SharedModule&#45;&gt;PublicModule -->
<g id="edge4" class="edge">
<title>SharedModule&#45;&gt;PublicModule</title>
<path fill="none" stroke="black" d="M253,-84.82C253,-102.17 253,-125.8 253,-125.8 253,-125.8 332.08,-125.8 332.08,-125.8"/>
<polygon fill="black" stroke="black" points="332.08,-129.3 342.08,-125.8 332.08,-122.3 332.08,-129.3"/>
</g>
<!-- PublicPlayerService -->
<g id="node6" class="node">
<title>PublicPlayerService</title>
<ellipse fill="#fdb462" stroke="black" cx="678" cy="-66.8" rx="89.19" ry="18"/>
<text text-anchor="middle" x="678" y="-62.6" font-family="Times,serif" font-size="14.00">PublicPlayerService</text>
</g>
<!-- PublicPlayerService&#45;&gt;PublicModule -->
<g id="edge5" class="edge">
<title>PublicPlayerService&#45;&gt;PublicModule</title>
<path fill="none" stroke="black" d="M678,-85.08C678,-106.12 678,-137.8 678,-137.8 678,-137.8 447.88,-137.8 447.88,-137.8"/>
<polygon fill="black" stroke="black" points="447.88,-134.3 437.88,-137.8 447.88,-141.3 447.88,-134.3"/>
</g>
</g>
</svg>
