<?xml version="1.0" encoding="UTF-8" standalone="no"?>
<!DOCTYPE svg PUBLIC "-//W3C//DTD SVG 1.1//EN"
 "http://www.w3.org/Graphics/SVG/1.1/DTD/svg11.dtd">
<!-- Generated by graphviz version 5.0.0 (20220707.1540)
 -->
<!-- Title: dependencies Pages: 1 -->
<svg width="799pt" height="174pt"
 viewBox="0.00 0.00 799.00 173.80" xmlns="http://www.w3.org/2000/svg" xmlns:xlink="http://www.w3.org/1999/xlink">
<g id="graph0" class="graph" transform="scale(1 1) rotate(0) translate(4 169.8)">
<title>dependencies</title>
<polygon fill="white" stroke="transparent" points="-4,4 -4,-169.8 795,-169.8 795,4 -4,4"/>
<text text-anchor="middle" x="395.5" y="-8.2" font-family="sans-serif" font-size="14.00">dependencies</text>
<g id="clust1" class="cluster">
<title>cluster_PublicModule</title>
<polygon fill="none" stroke="black" stroke-dasharray="1,5" points="8,-32.8 8,-157.8 783,-157.8 783,-32.8 8,-32.8"/>
</g>
<g id="clust2" class="cluster">
<title>cluster_PublicModule_declarations</title>
<polygon fill="none" stroke="black" points="603,-40.8 603,-92.8 775,-92.8 775,-40.8 603,-40.8"/>
</g>
<g id="clust4" class="cluster">
<title>cluster_PublicModule_imports</title>
<polygon fill="none" stroke="black" points="218,-40.8 218,-92.8 595,-92.8 595,-40.8 218,-40.8"/>
</g>
<g id="clust7" class="cluster">
<title>cluster_PublicModule_providers</title>
<polygon fill="none" stroke="black" points="16,-40.8 16,-92.8 210,-92.8 210,-40.8 16,-40.8"/>
</g>
<!-- LandingPageComponent -->
<g id="node1" class="node">
<title>LandingPageComponent</title>
<polygon fill="#ffffb3" stroke="black" points="766.7,-84.8 611.3,-84.8 611.3,-48.8 766.7,-48.8 766.7,-84.8"/>
<text text-anchor="middle" x="689" y="-62.6" font-family="Times,serif" font-size="14.00">LandingPageComponent</text>
</g>
<!-- PublicModule -->
<g id="node2" class="node">
<title>PublicModule</title>
<polygon fill="#8dd3c7" stroke="black" points="459.83,-149.8 456.83,-153.8 435.83,-153.8 432.83,-149.8 364.17,-149.8 364.17,-113.8 459.83,-113.8 459.83,-149.8"/>
<text text-anchor="middle" x="412" y="-127.6" font-family="Times,serif" font-size="14.00">PublicModule</text>
</g>
<!-- LandingPageComponent&#45;&gt;PublicModule -->
<g id="edge1" class="edge">
<title>LandingPageComponent&#45;&gt;PublicModule</title>
<path fill="none" stroke="black" d="M689,-85.08C689,-106.12 689,-137.8 689,-137.8 689,-137.8 469.93,-137.8 469.93,-137.8"/>
<polygon fill="black" stroke="black" points="469.93,-134.3 459.93,-137.8 469.93,-141.3 469.93,-134.3"/>
</g>
<!-- CoreModule -->
<g id="node3" class="node">
<title>CoreModule</title>
<polygon fill="#8dd3c7" stroke="black" points="587.27,-84.8 584.27,-88.8 563.27,-88.8 560.27,-84.8 500.73,-84.8 500.73,-48.8 587.27,-48.8 587.27,-84.8"/>
<text text-anchor="middle" x="544" y="-62.6" font-family="Times,serif" font-size="14.00">CoreModule</text>
</g>
<!-- CoreModule&#45;&gt;PublicModule -->
<g id="edge2" class="edge">
<title>CoreModule&#45;&gt;PublicModule</title>
<path fill="none" stroke="black" d="M544,-84.82C544,-102.17 544,-125.8 544,-125.8 544,-125.8 470.03,-125.8 470.03,-125.8"/>
<polygon fill="black" stroke="black" points="470.03,-122.3 460.03,-125.8 470.03,-129.3 470.03,-122.3"/>
</g>
<!-- PublicRoutingModule -->
<g id="node4" class="node">
<title>PublicRoutingModule</title>
<polygon fill="#8dd3c7" stroke="black" points="482.45,-84.8 479.45,-88.8 458.45,-88.8 455.45,-84.8 341.55,-84.8 341.55,-48.8 482.45,-48.8 482.45,-84.8"/>
<text text-anchor="middle" x="412" y="-62.6" font-family="Times,serif" font-size="14.00">PublicRoutingModule</text>
</g>
<!-- PublicRoutingModule&#45;&gt;PublicModule -->
<g id="edge3" class="edge">
<title>PublicRoutingModule&#45;&gt;PublicModule</title>
<path fill="none" stroke="black" d="M412,-84.91C412,-84.91 412,-103.79 412,-103.79"/>
<polygon fill="black" stroke="black" points="408.5,-103.79 412,-113.79 415.5,-103.79 408.5,-103.79"/>
</g>
<!-- SharedModule -->
<g id="node5" class="node">
<title>SharedModule</title>
<polygon fill="#8dd3c7" stroke="black" points="324.43,-84.8 321.43,-88.8 300.43,-88.8 297.43,-84.8 225.57,-84.8 225.57,-48.8 324.43,-48.8 324.43,-84.8"/>
<text text-anchor="middle" x="275" y="-62.6" font-family="Times,serif" font-size="14.00">SharedModule</text>
</g>
<!-- SharedModule&#45;&gt;PublicModule -->
<g id="edge4" class="edge">
<title>SharedModule&#45;&gt;PublicModule</title>
<path fill="none" stroke="black" d="M275,-84.82C275,-102.17 275,-125.8 275,-125.8 275,-125.8 354.08,-125.8 354.08,-125.8"/>
<polygon fill="black" stroke="black" points="354.08,-129.3 364.08,-125.8 354.08,-122.3 354.08,-129.3"/>
</g>
<!-- PublicPlayerService -->
<g id="node6" class="node">
<title>PublicPlayerService</title>
<ellipse fill="#fdb462" stroke="black" cx="113" cy="-66.8" rx="89.19" ry="18"/>
<text text-anchor="middle" x="113" y="-62.6" font-family="Times,serif" font-size="14.00">PublicPlayerService</text>
</g>
<!-- PublicPlayerService&#45;&gt;PublicModule -->
<g id="edge5" class="edge">
<title>PublicPlayerService&#45;&gt;PublicModule</title>
<path fill="none" stroke="black" d="M113,-85.08C113,-106.12 113,-137.8 113,-137.8 113,-137.8 354.29,-137.8 354.29,-137.8"/>
<polygon fill="black" stroke="black" points="354.29,-141.3 364.29,-137.8 354.29,-134.3 354.29,-141.3"/>
</g>
</g>
</svg>
