<?xml version="1.0" encoding="UTF-8" standalone="no"?>
<!DOCTYPE svg PUBLIC "-//W3C//DTD SVG 1.1//EN"
 "http://www.w3.org/Graphics/SVG/1.1/DTD/svg11.dtd">
<!-- Generated by graphviz version 5.0.0 (20220707.1540)
 -->
<!-- Title: dependencies Pages: 1 -->
<svg width="1102pt" height="174pt"
 viewBox="0.00 0.00 1102.00 173.80" xmlns="http://www.w3.org/2000/svg" xmlns:xlink="http://www.w3.org/1999/xlink">
<g id="graph0" class="graph" transform="scale(1 1) rotate(0) translate(4 169.8)">
<title>dependencies</title>
<polygon fill="white" stroke="transparent" points="-4,4 -4,-169.8 1098,-169.8 1098,4 -4,4"/>
<text text-anchor="middle" x="547" y="-8.2" font-family="sans-serif" font-size="14.00">dependencies</text>
<g id="clust1" class="cluster">
<title>cluster_ResourceModule</title>
<polygon fill="none" stroke="black" stroke-dasharray="1,5" points="8,-32.8 8,-157.8 1086,-157.8 1086,-32.8 8,-32.8"/>
</g>
<g id="clust2" class="cluster">
<title>cluster_ResourceModule_declarations</title>
<polygon fill="none" stroke="black" points="872,-40.8 872,-92.8 1078,-92.8 1078,-40.8 872,-40.8"/>
</g>
<g id="clust4" class="cluster">
<title>cluster_ResourceModule_imports</title>
<polygon fill="none" stroke="black" points="16,-40.8 16,-92.8 864,-92.8 864,-40.8 16,-40.8"/>
</g>
<!-- CurriculumCoursesComponent -->
<g id="node1" class="node">
<title>CurriculumCoursesComponent</title>
<polygon fill="#ffffb3" stroke="black" points="1070.49,-84.8 879.51,-84.8 879.51,-48.8 1070.49,-48.8 1070.49,-84.8"/>
<text text-anchor="middle" x="975" y="-62.6" font-family="Times,serif" font-size="14.00">CurriculumCoursesComponent</text>
</g>
<!-- ResourceModule -->
<g id="node2" class="node">
<title>ResourceModule</title>
<polygon fill="#8dd3c7" stroke="black" points="568.64,-149.8 565.64,-153.8 544.64,-153.8 541.64,-149.8 457.36,-149.8 457.36,-113.8 568.64,-113.8 568.64,-149.8"/>
<text text-anchor="middle" x="513" y="-127.6" font-family="Times,serif" font-size="14.00">ResourceModule</text>
</g>
<!-- CurriculumCoursesComponent&#45;&gt;ResourceModule -->
<g id="edge1" class="edge">
<title>CurriculumCoursesComponent&#45;&gt;ResourceModule</title>
<path fill="none" stroke="black" d="M975,-85.09C975,-107.01 975,-140.8 975,-140.8 975,-140.8 578.73,-140.8 578.73,-140.8"/>
<polygon fill="black" stroke="black" points="578.73,-137.3 568.73,-140.8 578.73,-144.3 578.73,-137.3"/>
</g>
<!-- ContentSearchModule -->
<g id="node3" class="node">
<title>ContentSearchModule</title>
<polygon fill="#8dd3c7" stroke="black" points="855.97,-84.8 852.97,-88.8 831.97,-88.8 828.97,-84.8 714.03,-84.8 714.03,-48.8 855.97,-48.8 855.97,-84.8"/>
<text text-anchor="middle" x="785" y="-62.6" font-family="Times,serif" font-size="14.00">ContentSearchModule</text>
</g>
<!-- ContentSearchModule&#45;&gt;ResourceModule -->
<g id="edge2" class="edge">
<title>ContentSearchModule&#45;&gt;ResourceModule</title>
<path fill="none" stroke="black" d="M785,-84.91C785,-104.14 785,-131.8 785,-131.8 785,-131.8 578.7,-131.8 578.7,-131.8"/>
<polygon fill="black" stroke="black" points="578.7,-128.3 568.7,-131.8 578.7,-135.3 578.7,-128.3"/>
</g>
<!-- CoreModule -->
<g id="node4" class="node">
<title>CoreModule</title>
<polygon fill="#8dd3c7" stroke="black" points="696.27,-84.8 693.27,-88.8 672.27,-88.8 669.27,-84.8 609.73,-84.8 609.73,-48.8 696.27,-48.8 696.27,-84.8"/>
<text text-anchor="middle" x="653" y="-62.6" font-family="Times,serif" font-size="14.00">CoreModule</text>
</g>
<!-- CoreModule&#45;&gt;ResourceModule -->
<g id="edge3" class="edge">
<title>CoreModule&#45;&gt;ResourceModule</title>
<path fill="none" stroke="black" d="M653,-84.83C653,-101.2 653,-122.8 653,-122.8 653,-122.8 578.73,-122.8 578.73,-122.8"/>
<polygon fill="black" stroke="black" points="578.73,-119.3 568.73,-122.8 578.73,-126.3 578.73,-119.3"/>
</g>
<!-- ResourceRoutingModule -->
<g id="node5" class="node">
<title>ResourceRoutingModule</title>
<polygon fill="#8dd3c7" stroke="black" points="591.26,-84.8 588.26,-88.8 567.26,-88.8 564.26,-84.8 434.74,-84.8 434.74,-48.8 591.26,-48.8 591.26,-84.8"/>
<text text-anchor="middle" x="513" y="-62.6" font-family="Times,serif" font-size="14.00">ResourceRoutingModule</text>
</g>
<!-- ResourceRoutingModule&#45;&gt;ResourceModule -->
<g id="edge4" class="edge">
<title>ResourceRoutingModule&#45;&gt;ResourceModule</title>
<path fill="none" stroke="black" d="M513,-84.91C513,-84.91 513,-103.79 513,-103.79"/>
<polygon fill="black" stroke="black" points="509.5,-103.79 513,-113.79 516.5,-103.79 509.5,-103.79"/>
</g>
<!-- SharedFeatureModule -->
<g id="node6" class="node">
<title>SharedFeatureModule</title>
<polygon fill="#8dd3c7" stroke="black" points="416.41,-84.8 413.41,-88.8 392.41,-88.8 389.41,-84.8 275.59,-84.8 275.59,-48.8 416.41,-48.8 416.41,-84.8"/>
<text text-anchor="middle" x="346" y="-62.6" font-family="Times,serif" font-size="14.00">SharedFeatureModule</text>
</g>
<!-- SharedFeatureModule&#45;&gt;ResourceModule -->
<g id="edge5" class="edge">
<title>SharedFeatureModule&#45;&gt;ResourceModule</title>
<path fill="none" stroke="black" d="M346,-84.83C346,-101.2 346,-122.8 346,-122.8 346,-122.8 446.93,-122.8 446.93,-122.8"/>
<polygon fill="black" stroke="black" points="446.93,-126.3 456.93,-122.8 446.93,-119.3 446.93,-126.3"/>
</g>
<!-- SharedModule -->
<g id="node7" class="node">
<title>SharedModule</title>
<polygon fill="#8dd3c7" stroke="black" points="258.43,-84.8 255.43,-88.8 234.43,-88.8 231.43,-84.8 159.57,-84.8 159.57,-48.8 258.43,-48.8 258.43,-84.8"/>
<text text-anchor="middle" x="209" y="-62.6" font-family="Times,serif" font-size="14.00">SharedModule</text>
</g>
<!-- SharedModule&#45;&gt;ResourceModule -->
<g id="edge6" class="edge">
<title>SharedModule&#45;&gt;ResourceModule</title>
<path fill="none" stroke="black" d="M209,-84.91C209,-104.14 209,-131.8 209,-131.8 209,-131.8 447.24,-131.8 447.24,-131.8"/>
<polygon fill="black" stroke="black" points="447.24,-135.3 457.24,-131.8 447.24,-128.3 447.24,-135.3"/>
</g>
<!-- TelemetryModule -->
<g id="node8" class="node">
<title>TelemetryModule</title>
<polygon fill="#8dd3c7" stroke="black" points="141.58,-84.8 138.58,-88.8 117.58,-88.8 114.58,-84.8 24.42,-84.8 24.42,-48.8 141.58,-48.8 141.58,-84.8"/>
<text text-anchor="middle" x="83" y="-62.6" font-family="Times,serif" font-size="14.00">TelemetryModule</text>
</g>
<!-- TelemetryModule&#45;&gt;ResourceModule -->
<g id="edge7" class="edge">
<title>TelemetryModule&#45;&gt;ResourceModule</title>
<path fill="none" stroke="black" d="M83,-85.09C83,-107.01 83,-140.8 83,-140.8 83,-140.8 447.23,-140.8 447.23,-140.8"/>
<polygon fill="black" stroke="black" points="447.23,-144.3 457.23,-140.8 447.23,-137.3 447.23,-144.3"/>
</g>
</g>
</svg>
