<?xml version="1.0" encoding="UTF-8" standalone="no"?>
<!DOCTYPE svg PUBLIC "-//W3C//DTD SVG 1.1//EN"
 "http://www.w3.org/Graphics/SVG/1.1/DTD/svg11.dtd">
<!-- Generated by graphviz version 5.0.0 (20220707.1540)
 -->
<!-- Title: dependencies Pages: 1 -->
<svg width="1102pt" height="174pt"
 viewBox="0.00 0.00 1102.00 173.80" xmlns="http://www.w3.org/2000/svg" xmlns:xlink="http://www.w3.org/1999/xlink">
<g id="graph0" class="graph" transform="scale(1 1) rotate(0) translate(4 169.8)">
<title>dependencies</title>
<polygon fill="white" stroke="transparent" points="-4,4 -4,-169.8 1098,-169.8 1098,4 -4,4"/>
<text text-anchor="middle" x="547" y="-8.2" font-family="sans-serif" font-size="14.00">dependencies</text>
<g id="clust1" class="cluster">
<title>cluster_ResourceModule</title>
<polygon fill="none" stroke="black" stroke-dasharray="1,5" points="8,-32.8 8,-157.8 1086,-157.8 1086,-32.8 8,-32.8"/>
</g>
<g id="clust4" class="cluster">
<title>cluster_ResourceModule_imports</title>
<polygon fill="none" stroke="black" points="230,-40.8 230,-92.8 1078,-92.8 1078,-40.8 230,-40.8"/>
</g>
<g id="clust2" class="cluster">
<title>cluster_ResourceModule_declarations</title>
<polygon fill="none" stroke="black" points="16,-40.8 16,-92.8 222,-92.8 222,-40.8 16,-40.8"/>
</g>
<!-- CurriculumCoursesComponent -->
<g id="node1" class="node">
<title>CurriculumCoursesComponent</title>
<polygon fill="#ffffb3" stroke="black" points="214.49,-84.8 23.51,-84.8 23.51,-48.8 214.49,-48.8 214.49,-84.8"/>
<text text-anchor="middle" x="119" y="-62.6" font-family="Times,serif" font-size="14.00">CurriculumCoursesComponent</text>
</g>
<!-- ResourceModule -->
<g id="node2" class="node">
<title>ResourceModule</title>
<polygon fill="#8dd3c7" stroke="black" points="615.64,-149.8 612.64,-153.8 591.64,-153.8 588.64,-149.8 504.36,-149.8 504.36,-113.8 615.64,-113.8 615.64,-149.8"/>
<text text-anchor="middle" x="560" y="-127.6" font-family="Times,serif" font-size="14.00">ResourceModule</text>
</g>
<!-- CurriculumCoursesComponent&#45;&gt;ResourceModule -->
<g id="edge1" class="edge">
<title>CurriculumCoursesComponent&#45;&gt;ResourceModule</title>
<path fill="none" stroke="black" d="M119,-85.09C119,-107.01 119,-140.8 119,-140.8 119,-140.8 494.15,-140.8 494.15,-140.8"/>
<polygon fill="black" stroke="black" points="494.15,-144.3 504.15,-140.8 494.15,-137.3 494.15,-144.3"/>
</g>
<!-- ContentSearchModule -->
<g id="node3" class="node">
<title>ContentSearchModule</title>
<polygon fill="#8dd3c7" stroke="black" points="1069.97,-84.8 1066.97,-88.8 1045.97,-88.8 1042.97,-84.8 928.03,-84.8 928.03,-48.8 1069.97,-48.8 1069.97,-84.8"/>
<text text-anchor="middle" x="999" y="-62.6" font-family="Times,serif" font-size="14.00">ContentSearchModule</text>
</g>
<!-- ContentSearchModule&#45;&gt;ResourceModule -->
<g id="edge2" class="edge">
<title>ContentSearchModule&#45;&gt;ResourceModule</title>
<path fill="none" stroke="black" d="M999,-85.09C999,-107.01 999,-140.8 999,-140.8 999,-140.8 626.05,-140.8 626.05,-140.8"/>
<polygon fill="black" stroke="black" points="626.05,-137.3 616.05,-140.8 626.05,-144.3 626.05,-137.3"/>
</g>
<!-- CoreModule -->
<g id="node4" class="node">
<title>CoreModule</title>
<polygon fill="#8dd3c7" stroke="black" points="910.27,-84.8 907.27,-88.8 886.27,-88.8 883.27,-84.8 823.73,-84.8 823.73,-48.8 910.27,-48.8 910.27,-84.8"/>
<text text-anchor="middle" x="867" y="-62.6" font-family="Times,serif" font-size="14.00">CoreModule</text>
</g>
<!-- CoreModule&#45;&gt;ResourceModule -->
<g id="edge3" class="edge">
<title>CoreModule&#45;&gt;ResourceModule</title>
<path fill="none" stroke="black" d="M867,-84.91C867,-104.14 867,-131.8 867,-131.8 867,-131.8 625.95,-131.8 625.95,-131.8"/>
<polygon fill="black" stroke="black" points="625.95,-128.3 615.95,-131.8 625.95,-135.3 625.95,-128.3"/>
</g>
<!-- ResourceRoutingModule -->
<g id="node5" class="node">
<title>ResourceRoutingModule</title>
<polygon fill="#8dd3c7" stroke="black" points="805.26,-84.8 802.26,-88.8 781.26,-88.8 778.26,-84.8 648.74,-84.8 648.74,-48.8 805.26,-48.8 805.26,-84.8"/>
<text text-anchor="middle" x="727" y="-62.6" font-family="Times,serif" font-size="14.00">ResourceRoutingModule</text>
</g>
<!-- ResourceRoutingModule&#45;&gt;ResourceModule -->
<g id="edge4" class="edge">
<title>ResourceRoutingModule&#45;&gt;ResourceModule</title>
<path fill="none" stroke="black" d="M727,-84.83C727,-101.2 727,-122.8 727,-122.8 727,-122.8 626.07,-122.8 626.07,-122.8"/>
<polygon fill="black" stroke="black" points="626.07,-119.3 616.07,-122.8 626.07,-126.3 626.07,-119.3"/>
</g>
<!-- SharedFeatureModule -->
<g id="node6" class="node">
<title>SharedFeatureModule</title>
<polygon fill="#8dd3c7" stroke="black" points="630.41,-84.8 627.41,-88.8 606.41,-88.8 603.41,-84.8 489.59,-84.8 489.59,-48.8 630.41,-48.8 630.41,-84.8"/>
<text text-anchor="middle" x="560" y="-62.6" font-family="Times,serif" font-size="14.00">SharedFeatureModule</text>
</g>
<!-- SharedFeatureModule&#45;&gt;ResourceModule -->
<g id="edge5" class="edge">
<title>SharedFeatureModule&#45;&gt;ResourceModule</title>
<path fill="none" stroke="black" d="M560,-84.91C560,-84.91 560,-103.79 560,-103.79"/>
<polygon fill="black" stroke="black" points="556.5,-103.79 560,-113.79 563.5,-103.79 556.5,-103.79"/>
</g>
<!-- SharedModule -->
<g id="node7" class="node">
<title>SharedModule</title>
<polygon fill="#8dd3c7" stroke="black" points="472.43,-84.8 469.43,-88.8 448.43,-88.8 445.43,-84.8 373.57,-84.8 373.57,-48.8 472.43,-48.8 472.43,-84.8"/>
<text text-anchor="middle" x="423" y="-62.6" font-family="Times,serif" font-size="14.00">SharedModule</text>
</g>
<!-- SharedModule&#45;&gt;ResourceModule -->
<g id="edge6" class="edge">
<title>SharedModule&#45;&gt;ResourceModule</title>
<path fill="none" stroke="black" d="M423,-84.83C423,-101.2 423,-122.8 423,-122.8 423,-122.8 494.28,-122.8 494.28,-122.8"/>
<polygon fill="black" stroke="black" points="494.28,-126.3 504.28,-122.8 494.28,-119.3 494.28,-126.3"/>
</g>
<!-- TelemetryModule -->
<g id="node8" class="node">
<title>TelemetryModule</title>
<polygon fill="#8dd3c7" stroke="black" points="355.58,-84.8 352.58,-88.8 331.58,-88.8 328.58,-84.8 238.42,-84.8 238.42,-48.8 355.58,-48.8 355.58,-84.8"/>
<text text-anchor="middle" x="297" y="-62.6" font-family="Times,serif" font-size="14.00">TelemetryModule</text>
</g>
<!-- TelemetryModule&#45;&gt;ResourceModule -->
<g id="edge7" class="edge">
<title>TelemetryModule&#45;&gt;ResourceModule</title>
<path fill="none" stroke="black" d="M297,-84.91C297,-104.14 297,-131.8 297,-131.8 297,-131.8 494.22,-131.8 494.22,-131.8"/>
<polygon fill="black" stroke="black" points="494.22,-135.3 504.22,-131.8 494.22,-128.3 494.22,-135.3"/>
</g>
</g>
</svg>
