<?xml version="1.0" encoding="UTF-8" standalone="no"?>
<!DOCTYPE svg PUBLIC "-//W3C//DTD SVG 1.1//EN"
 "http://www.w3.org/Graphics/SVG/1.1/DTD/svg11.dtd">
<!-- Generated by graphviz version 5.0.0 (20220707.1540)
 -->
<!-- Title: dependencies Pages: 1 -->
<svg width="2578pt" height="247pt"
 viewBox="0.00 0.00 2578.00 246.80" xmlns="http://www.w3.org/2000/svg" xmlns:xlink="http://www.w3.org/1999/xlink">
<g id="graph0" class="graph" transform="scale(1 1) rotate(0) translate(4 242.8)">
<title>dependencies</title>
<polygon fill="white" stroke="transparent" points="-4,4 -4,-242.8 2574,-242.8 2574,4 -4,4"/>
<text text-anchor="middle" x="1285" y="-8.2" font-family="sans-serif" font-size="14.00">dependencies</text>
<g id="clust1" class="cluster">
<title>cluster_CoreModule</title>
<polygon fill="none" stroke="black" stroke-dasharray="1,5" points="8,-32.8 8,-230.8 2562,-230.8 2562,-32.8 8,-32.8"/>
</g>
<g id="clust15" class="cluster">
<title>cluster_CoreModule_imports</title>
<polygon fill="none" stroke="black" points="2031,-40.8 2031,-92.8 2554,-92.8 2554,-40.8 2031,-40.8"/>
</g>
<g id="clust2" class="cluster">
<title>cluster_CoreModule_declarations</title>
<polygon fill="none" stroke="black" points="16,-40.8 16,-92.8 2023,-92.8 2023,-40.8 16,-40.8"/>
</g>
<g id="clust16" class="cluster">
<title>cluster_CoreModule_exports</title>
<polygon fill="none" stroke="black" points="612,-170.8 612,-222.8 2160,-222.8 2160,-170.8 612,-170.8"/>
</g>
<!-- BodyScrollDirective -->
<g id="node1" class="node">
<title>BodyScrollDirective</title>
<polygon fill="#ffffb3" stroke="black" points="2014.86,-84.8 1883.14,-84.8 1883.14,-48.8 2014.86,-48.8 2014.86,-84.8"/>
<text text-anchor="middle" x="1949" y="-62.6" font-family="Times,serif" font-size="14.00">BodyScrollDirective</text>
</g>
<!-- CoreModule -->
<g id="node13" class="node">
<title>CoreModule</title>
<polygon fill="#8dd3c7" stroke="black" points="1413.27,-149.8 1410.27,-153.8 1389.27,-153.8 1386.27,-149.8 1326.73,-149.8 1326.73,-113.8 1413.27,-113.8 1413.27,-149.8"/>
<text text-anchor="middle" x="1370" y="-127.6" font-family="Times,serif" font-size="14.00">CoreModule</text>
</g>
<!-- BodyScrollDirective&#45;&gt;CoreModule -->
<g id="edge1" class="edge">
<title>BodyScrollDirective&#45;&gt;CoreModule</title>
<path fill="none" stroke="black" d="M1940.6,-84.83C1940.6,-101.2 1940.6,-122.8 1940.6,-122.8 1940.6,-122.8 1423.36,-122.8 1423.36,-122.8"/>
<polygon fill="black" stroke="black" points="1423.36,-119.3 1413.36,-122.8 1423.36,-126.3 1423.36,-119.3"/>
</g>
<!-- ContentTypeComponent -->
<g id="node2" class="node">
<title>ContentTypeComponent</title>
<polygon fill="#ffffb3" stroke="black" points="1865.43,-84.8 1710.57,-84.8 1710.57,-48.8 1865.43,-48.8 1865.43,-84.8"/>
<text text-anchor="middle" x="1788" y="-62.6" font-family="Times,serif" font-size="14.00">ContentTypeComponent</text>
</g>
<!-- ContentTypeComponent&#45;&gt;CoreModule -->
<g id="edge2" class="edge">
<title>ContentTypeComponent&#45;&gt;CoreModule</title>
<path fill="none" stroke="black" d="M1772.37,-85.04C1772.37,-100.37 1772.37,-119.8 1772.37,-119.8 1772.37,-119.8 1423.44,-119.8 1423.44,-119.8"/>
<polygon fill="black" stroke="black" points="1423.44,-116.3 1413.44,-119.8 1423.44,-123.3 1423.44,-116.3"/>
</g>
<!-- DesktopOnlyDirective -->
<g id="node3" class="node">
<title>DesktopOnlyDirective</title>
<polygon fill="#ffffb3" stroke="black" points="1692.25,-84.8 1549.75,-84.8 1549.75,-48.8 1692.25,-48.8 1692.25,-84.8"/>
<text text-anchor="middle" x="1621" y="-62.6" font-family="Times,serif" font-size="14.00">DesktopOnlyDirective</text>
</g>
<!-- DesktopOnlyDirective&#45;&gt;CoreModule -->
<g id="edge3" class="edge">
<title>DesktopOnlyDirective&#45;&gt;CoreModule</title>
<path fill="none" stroke="black" d="M1583.05,-84.85C1583.05,-99.17 1583.05,-116.8 1583.05,-116.8 1583.05,-116.8 1423.37,-116.8 1423.37,-116.8"/>
<polygon fill="black" stroke="black" points="1423.37,-113.3 1413.37,-116.8 1423.37,-120.3 1423.37,-113.3"/>
</g>
<!-- ErrorPageComponent -->
<g id="node4" class="node">
<title>ErrorPageComponent</title>
<polygon fill="#ffffb3" stroke="black" points="1532.08,-84.8 1393.92,-84.8 1393.92,-48.8 1532.08,-48.8 1532.08,-84.8"/>
<text text-anchor="middle" x="1463" y="-62.6" font-family="Times,serif" font-size="14.00">ErrorPageComponent</text>
</g>
<!-- ErrorPageComponent&#45;&gt;CoreModule -->
<g id="edge4" class="edge">
<title>ErrorPageComponent&#45;&gt;CoreModule</title>
<path fill="none" stroke="black" d="M1403.67,-84.91C1403.67,-84.91 1403.67,-103.79 1403.67,-103.79"/>
<polygon fill="black" stroke="black" points="1400.17,-103.79 1403.67,-113.79 1407.17,-103.79 1400.17,-103.79"/>
</g>
<!-- LanguageDropdownComponent -->
<g id="node5" class="node">
<title>LanguageDropdownComponent</title>
<polygon fill="#ffffb3" stroke="black" points="1376.41,-84.8 1179.59,-84.8 1179.59,-48.8 1376.41,-48.8 1376.41,-84.8"/>
<text text-anchor="middle" x="1278" y="-62.6" font-family="Times,serif" font-size="14.00">LanguageDropdownComponent</text>
</g>
<!-- LanguageDropdownComponent&#45;&gt;CoreModule -->
<g id="edge5" class="edge">
<title>LanguageDropdownComponent&#45;&gt;CoreModule</title>
<path fill="none" stroke="black" d="M1351.41,-84.91C1351.41,-84.91 1351.41,-103.79 1351.41,-103.79"/>
<polygon fill="black" stroke="black" points="1347.91,-103.79 1351.41,-113.79 1354.91,-103.79 1347.91,-103.79"/>
</g>
<!-- MainFooterComponent -->
<g id="node6" class="node">
<title>MainFooterComponent</title>
<polygon fill="#ffffb3" stroke="black" points="1161.94,-84.8 1014.06,-84.8 1014.06,-48.8 1161.94,-48.8 1161.94,-84.8"/>
<text text-anchor="middle" x="1088" y="-62.6" font-family="Times,serif" font-size="14.00">MainFooterComponent</text>
</g>
<!-- MainFooterComponent&#45;&gt;CoreModule -->
<g id="edge6" class="edge">
<title>MainFooterComponent&#45;&gt;CoreModule</title>
<path fill="none" stroke="black" d="M1149.44,-84.85C1149.44,-99.17 1149.44,-116.8 1149.44,-116.8 1149.44,-116.8 1316.69,-116.8 1316.69,-116.8"/>
<polygon fill="black" stroke="black" points="1316.69,-120.3 1326.69,-116.8 1316.69,-113.3 1316.69,-120.3"/>
</g>
<!-- MainHeaderComponent -->
<g id="node7" class="node">
<title>MainHeaderComponent</title>
<polygon fill="#ffffb3" stroke="black" points="996.8,-84.8 845.2,-84.8 845.2,-48.8 996.8,-48.8 996.8,-84.8"/>
<text text-anchor="middle" x="921" y="-62.6" font-family="Times,serif" font-size="14.00">MainHeaderComponent</text>
</g>
<!-- MainHeaderComponent&#45;&gt;CoreModule -->
<g id="edge7" class="edge">
<title>MainHeaderComponent&#45;&gt;CoreModule</title>
<path fill="none" stroke="black" d="M990.87,-85.04C990.87,-100.37 990.87,-119.8 990.87,-119.8 990.87,-119.8 1316.51,-119.8 1316.51,-119.8"/>
<polygon fill="black" stroke="black" points="1316.51,-123.3 1326.51,-119.8 1316.51,-116.3 1316.51,-123.3"/>
</g>
<!-- MainMenuComponent -->
<g id="node8" class="node">
<title>MainMenuComponent</title>
<polygon fill="#ffffb3" stroke="black" points="827.55,-84.8 684.45,-84.8 684.45,-48.8 827.55,-48.8 827.55,-84.8"/>
<text text-anchor="middle" x="756" y="-62.6" font-family="Times,serif" font-size="14.00">MainMenuComponent</text>
</g>
<!-- MainMenuComponent&#45;&gt;CoreModule -->
<g id="edge8" class="edge">
<title>MainMenuComponent&#45;&gt;CoreModule</title>
<path fill="none" stroke="black" d="M793.27,-84.83C793.27,-101.2 793.27,-122.8 793.27,-122.8 793.27,-122.8 1316.65,-122.8 1316.65,-122.8"/>
<polygon fill="black" stroke="black" points="1316.65,-126.3 1326.65,-122.8 1316.65,-119.3 1316.65,-126.3"/>
</g>
<!-- OnlineOnlyDirective -->
<g id="node9" class="node">
<title>OnlineOnlyDirective</title>
<polygon fill="#ffffb3" stroke="black" points="666.19,-84.8 531.81,-84.8 531.81,-48.8 666.19,-48.8 666.19,-84.8"/>
<text text-anchor="middle" x="599" y="-62.6" font-family="Times,serif" font-size="14.00">OnlineOnlyDirective</text>
</g>
<!-- OnlineOnlyDirective&#45;&gt;CoreModule -->
<g id="edge9" class="edge">
<title>OnlineOnlyDirective&#45;&gt;CoreModule</title>
<path fill="none" stroke="black" d="M642.9,-84.82C642.9,-102.17 642.9,-125.8 642.9,-125.8 642.9,-125.8 1316.69,-125.8 1316.69,-125.8"/>
<polygon fill="black" stroke="black" points="1316.69,-129.3 1326.69,-125.8 1316.69,-122.3 1316.69,-129.3"/>
</g>
<!-- PermissionDirective -->
<g id="node10" class="node">
<title>PermissionDirective</title>
<polygon fill="#ffffb3" stroke="black" points="514.31,-84.8 383.69,-84.8 383.69,-48.8 514.31,-48.8 514.31,-84.8"/>
<text text-anchor="middle" x="449" y="-62.6" font-family="Times,serif" font-size="14.00">PermissionDirective</text>
</g>
<!-- PermissionDirective&#45;&gt;CoreModule -->
<g id="edge10" class="edge">
<title>PermissionDirective&#45;&gt;CoreModule</title>
<path fill="none" stroke="black" d="M449,-85.07C449,-103.36 449,-128.8 449,-128.8 449,-128.8 1316.51,-128.8 1316.51,-128.8"/>
<polygon fill="black" stroke="black" points="1316.51,-132.3 1326.51,-128.8 1316.51,-125.3 1316.51,-132.3"/>
</g>
<!-- SearchComponent -->
<g id="node11" class="node">
<title>SearchComponent</title>
<polygon fill="#ffffb3" stroke="black" points="365.92,-84.8 246.08,-84.8 246.08,-48.8 365.92,-48.8 365.92,-84.8"/>
<text text-anchor="middle" x="306" y="-62.6" font-family="Times,serif" font-size="14.00">SearchComponent</text>
</g>
<!-- SearchComponent&#45;&gt;CoreModule -->
<g id="edge11" class="edge">
<title>SearchComponent&#45;&gt;CoreModule</title>
<path fill="none" stroke="black" d="M306,-84.91C306,-104.14 306,-131.8 306,-131.8 306,-131.8 1316.64,-131.8 1316.64,-131.8"/>
<polygon fill="black" stroke="black" points="1316.64,-135.3 1326.64,-131.8 1316.64,-128.3 1316.64,-135.3"/>
</g>
<!-- TelemetryErrorModalComponent -->
<g id="node12" class="node">
<title>TelemetryErrorModalComponent</title>
<polygon fill="#ffffb3" stroke="black" points="228.45,-84.8 23.55,-84.8 23.55,-48.8 228.45,-48.8 228.45,-84.8"/>
<text text-anchor="middle" x="126" y="-62.6" font-family="Times,serif" font-size="14.00">TelemetryErrorModalComponent</text>
</g>
<!-- TelemetryErrorModalComponent&#45;&gt;CoreModule -->
<g id="edge12" class="edge">
<title>TelemetryErrorModalComponent&#45;&gt;CoreModule</title>
<path fill="none" stroke="black" d="M126,-85.02C126,-105.17 126,-134.8 126,-134.8 126,-134.8 1316.45,-134.8 1316.45,-134.8"/>
<polygon fill="black" stroke="black" points="1316.45,-138.3 1326.45,-134.8 1316.45,-131.3 1316.45,-138.3"/>
</g>
<!-- BodyScrollDirective  -->
<g id="node18" class="node">
<title>BodyScrollDirective </title>
<polygon fill="#fb8072" stroke="black" points="2151.86,-214.8 2016.14,-214.8 2016.14,-178.8 2151.86,-178.8 2151.86,-214.8"/>
<text text-anchor="middle" x="2084" y="-192.6" font-family="Times,serif" font-size="14.00">BodyScrollDirective </text>
</g>
<!-- CoreModule&#45;&gt;BodyScrollDirective  -->
<g id="edge17" class="edge">
<title>CoreModule&#45;&gt;BodyScrollDirective </title>
<path fill="none" stroke="black" stroke-dasharray="5,2" d="M1413.42,-137.8C1560.07,-137.8 2027.89,-137.8 2027.89,-137.8 2027.89,-137.8 2027.89,-168.78 2027.89,-168.78"/>
<polygon fill="black" stroke="black" points="2024.39,-168.78 2027.89,-178.78 2031.39,-168.78 2024.39,-168.78"/>
</g>
<!-- DesktopOnlyDirective  -->
<g id="node19" class="node">
<title>DesktopOnlyDirective </title>
<polygon fill="#fb8072" stroke="black" points="1998.25,-214.8 1851.75,-214.8 1851.75,-178.8 1998.25,-178.8 1998.25,-214.8"/>
<text text-anchor="middle" x="1925" y="-192.6" font-family="Times,serif" font-size="14.00">DesktopOnlyDirective </text>
</g>
<!-- CoreModule&#45;&gt;DesktopOnlyDirective  -->
<g id="edge18" class="edge">
<title>CoreModule&#45;&gt;DesktopOnlyDirective </title>
<path fill="none" stroke="black" stroke-dasharray="5,2" d="M1413.36,-140.8C1532.92,-140.8 1858.55,-140.8 1858.55,-140.8 1858.55,-140.8 1858.55,-168.77 1858.55,-168.77"/>
<polygon fill="black" stroke="black" points="1855.05,-168.77 1858.55,-178.77 1862.05,-168.77 1855.05,-168.77"/>
</g>
<!-- LanguageDropdownComponent  -->
<g id="node20" class="node">
<title>LanguageDropdownComponent </title>
<polygon fill="#fb8072" stroke="black" points="1833.91,-214.8 1634.09,-214.8 1634.09,-178.8 1833.91,-178.8 1833.91,-214.8"/>
<text text-anchor="middle" x="1734" y="-192.6" font-family="Times,serif" font-size="14.00">LanguageDropdownComponent </text>
</g>
<!-- CoreModule&#45;&gt;LanguageDropdownComponent  -->
<g id="edge19" class="edge">
<title>CoreModule&#45;&gt;LanguageDropdownComponent </title>
<path fill="none" stroke="black" stroke-dasharray="5,2" d="M1413.58,-143.8C1495.26,-143.8 1663.21,-143.8 1663.21,-143.8 1663.21,-143.8 1663.21,-168.56 1663.21,-168.56"/>
<polygon fill="black" stroke="black" points="1659.71,-168.56 1663.21,-178.56 1666.71,-168.56 1659.71,-168.56"/>
</g>
<!-- MainFooterComponent  -->
<g id="node21" class="node">
<title>MainFooterComponent </title>
<polygon fill="#fb8072" stroke="black" points="1616.43,-214.8 1465.57,-214.8 1465.57,-178.8 1616.43,-178.8 1616.43,-214.8"/>
<text text-anchor="middle" x="1541" y="-192.6" font-family="Times,serif" font-size="14.00">MainFooterComponent </text>
</g>
<!-- CoreModule&#45;&gt;MainFooterComponent  -->
<g id="edge20" class="edge">
<title>CoreModule&#45;&gt;MainFooterComponent </title>
<path fill="none" stroke="black" stroke-dasharray="5,2" d="M1413.6,-146.8C1450.96,-146.8 1498.79,-146.8 1498.79,-146.8 1498.79,-146.8 1498.79,-168.75 1498.79,-168.75"/>
<polygon fill="black" stroke="black" points="1495.29,-168.75 1498.79,-178.75 1502.29,-168.75 1495.29,-168.75"/>
</g>
<!-- MainHeaderComponent  -->
<g id="node22" class="node">
<title>MainHeaderComponent </title>
<polygon fill="#fb8072" stroke="black" points="1447.3,-214.8 1292.7,-214.8 1292.7,-178.8 1447.3,-178.8 1447.3,-214.8"/>
<text text-anchor="middle" x="1370" y="-192.6" font-family="Times,serif" font-size="14.00">MainHeaderComponent </text>
</g>
<!-- CoreModule&#45;&gt;MainHeaderComponent  -->
<g id="edge21" class="edge">
<title>CoreModule&#45;&gt;MainHeaderComponent </title>
<path fill="none" stroke="black" stroke-dasharray="5,2" d="M1370,-149.91C1370,-149.91 1370,-168.79 1370,-168.79"/>
<polygon fill="black" stroke="black" points="1366.5,-168.79 1370,-178.79 1373.5,-168.79 1366.5,-168.79"/>
</g>
<!-- OnlineOnlyDirective  -->
<g id="node23" class="node">
<title>OnlineOnlyDirective </title>
<polygon fill="#fb8072" stroke="black" points="1274.69,-214.8 1137.31,-214.8 1137.31,-178.8 1274.69,-178.8 1274.69,-214.8"/>
<text text-anchor="middle" x="1206" y="-192.6" font-family="Times,serif" font-size="14.00">OnlineOnlyDirective </text>
</g>
<!-- CoreModule&#45;&gt;OnlineOnlyDirective  -->
<g id="edge22" class="edge">
<title>CoreModule&#45;&gt;OnlineOnlyDirective </title>
<path fill="none" stroke="black" stroke-dasharray="5,2" d="M1326.42,-146.8C1284.46,-146.8 1227.32,-146.8 1227.32,-146.8 1227.32,-146.8 1227.32,-168.75 1227.32,-168.75"/>
<polygon fill="black" stroke="black" points="1223.82,-168.75 1227.32,-178.75 1230.82,-168.75 1223.82,-168.75"/>
</g>
<!-- PermissionDirective  -->
<g id="node24" class="node">
<title>PermissionDirective </title>
<polygon fill="#fb8072" stroke="black" points="1118.81,-214.8 985.19,-214.8 985.19,-178.8 1118.81,-178.8 1118.81,-214.8"/>
<text text-anchor="middle" x="1052" y="-192.6" font-family="Times,serif" font-size="14.00">PermissionDirective </text>
</g>
<!-- CoreModule&#45;&gt;PermissionDirective  -->
<g id="edge23" class="edge">
<title>CoreModule&#45;&gt;PermissionDirective </title>
<path fill="none" stroke="black" stroke-dasharray="5,2" d="M1326.53,-143.8C1242.63,-143.8 1066.59,-143.8 1066.59,-143.8 1066.59,-143.8 1066.59,-168.56 1066.59,-168.56"/>
<polygon fill="black" stroke="black" points="1063.09,-168.56 1066.59,-178.56 1070.09,-168.56 1063.09,-168.56"/>
</g>
<!-- TelemetryErrorModalComponent  -->
<g id="node25" class="node">
<title>TelemetryErrorModalComponent </title>
<polygon fill="#fb8072" stroke="black" points="967.45,-214.8 758.55,-214.8 758.55,-178.8 967.45,-178.8 967.45,-214.8"/>
<text text-anchor="middle" x="863" y="-192.6" font-family="Times,serif" font-size="14.00">TelemetryErrorModalComponent </text>
</g>
<!-- CoreModule&#45;&gt;TelemetryErrorModalComponent  -->
<g id="edge24" class="edge">
<title>CoreModule&#45;&gt;TelemetryErrorModalComponent </title>
<path fill="none" stroke="black" stroke-dasharray="5,2" d="M1326.38,-140.8C1210.94,-140.8 906.29,-140.8 906.29,-140.8 906.29,-140.8 906.29,-168.77 906.29,-168.77"/>
<polygon fill="black" stroke="black" points="902.79,-168.77 906.29,-178.77 909.79,-168.77 902.79,-168.77"/>
</g>
<!-- TelemetryModule  -->
<g id="node26" class="node">
<title>TelemetryModule </title>
<polygon fill="#fb8072" stroke="black" points="740.08,-214.8 619.92,-214.8 619.92,-178.8 740.08,-178.8 740.08,-214.8"/>
<text text-anchor="middle" x="680" y="-192.6" font-family="Times,serif" font-size="14.00">TelemetryModule </text>
</g>
<!-- CoreModule&#45;&gt;TelemetryModule  -->
<g id="edge25" class="edge">
<title>CoreModule&#45;&gt;TelemetryModule </title>
<path fill="none" stroke="black" stroke-dasharray="5,2" d="M1326.59,-137.8C1179.97,-137.8 712.26,-137.8 712.26,-137.8 712.26,-137.8 712.26,-168.78 712.26,-168.78"/>
<polygon fill="black" stroke="black" points="708.76,-168.78 712.26,-178.78 715.76,-168.78 708.76,-168.78"/>
</g>
<!-- LocationModule -->
<g id="node14" class="node">
<title>LocationModule</title>
<polygon fill="#8dd3c7" stroke="black" points="2545.81,-84.8 2542.81,-88.8 2521.81,-88.8 2518.81,-84.8 2436.19,-84.8 2436.19,-48.8 2545.81,-48.8 2545.81,-84.8"/>
<text text-anchor="middle" x="2491" y="-62.6" font-family="Times,serif" font-size="14.00">LocationModule</text>
</g>
<!-- LocationModule&#45;&gt;CoreModule -->
<g id="edge13" class="edge">
<title>LocationModule&#45;&gt;CoreModule</title>
<path fill="none" stroke="black" d="M2491,-85.02C2491,-105.17 2491,-134.8 2491,-134.8 2491,-134.8 1423.6,-134.8 1423.6,-134.8"/>
<polygon fill="black" stroke="black" points="1423.6,-131.3 1413.6,-134.8 1423.6,-138.3 1423.6,-131.3"/>
</g>
<!-- NotificationModule -->
<g id="node15" class="node">
<title>NotificationModule</title>
<polygon fill="#8dd3c7" stroke="black" points="2418.7,-84.8 2415.7,-88.8 2394.7,-88.8 2391.7,-84.8 2291.3,-84.8 2291.3,-48.8 2418.7,-48.8 2418.7,-84.8"/>
<text text-anchor="middle" x="2355" y="-62.6" font-family="Times,serif" font-size="14.00">NotificationModule</text>
</g>
<!-- NotificationModule&#45;&gt;CoreModule -->
<g id="edge14" class="edge">
<title>NotificationModule&#45;&gt;CoreModule</title>
<path fill="none" stroke="black" d="M2355,-84.91C2355,-104.14 2355,-131.8 2355,-131.8 2355,-131.8 1423.28,-131.8 1423.28,-131.8"/>
<polygon fill="black" stroke="black" points="1423.28,-128.3 1413.28,-131.8 1423.28,-135.3 1423.28,-128.3"/>
</g>
<!-- SharedModule -->
<g id="node16" class="node">
<title>SharedModule</title>
<polygon fill="#8dd3c7" stroke="black" points="2273.43,-84.8 2270.43,-88.8 2249.43,-88.8 2246.43,-84.8 2174.57,-84.8 2174.57,-48.8 2273.43,-48.8 2273.43,-84.8"/>
<text text-anchor="middle" x="2224" y="-62.6" font-family="Times,serif" font-size="14.00">SharedModule</text>
</g>
<!-- SharedModule&#45;&gt;CoreModule -->
<g id="edge15" class="edge">
<title>SharedModule&#45;&gt;CoreModule</title>
<path fill="none" stroke="black" d="M2224,-85.07C2224,-103.36 2224,-128.8 2224,-128.8 2224,-128.8 1423.52,-128.8 1423.52,-128.8"/>
<polygon fill="black" stroke="black" points="1423.52,-125.3 1413.52,-128.8 1423.52,-132.3 1423.52,-125.3"/>
</g>
<!-- TelemetryModule -->
<g id="node17" class="node">
<title>TelemetryModule</title>
<polygon fill="#8dd3c7" stroke="black" points="2156.58,-84.8 2153.58,-88.8 2132.58,-88.8 2129.58,-84.8 2039.42,-84.8 2039.42,-48.8 2156.58,-48.8 2156.58,-84.8"/>
<text text-anchor="middle" x="2098" y="-62.6" font-family="Times,serif" font-size="14.00">TelemetryModule</text>
</g>
<!-- TelemetryModule&#45;&gt;CoreModule -->
<g id="edge16" class="edge">
<title>TelemetryModule&#45;&gt;CoreModule</title>
<path fill="none" stroke="black" d="M2095.57,-84.82C2095.57,-102.17 2095.57,-125.8 2095.57,-125.8 2095.57,-125.8 1423.48,-125.8 1423.48,-125.8"/>
<polygon fill="black" stroke="black" points="1423.48,-122.3 1413.48,-125.8 1423.48,-129.3 1423.48,-122.3"/>
</g>
</g>
</svg>
