<?xml version="1.0" encoding="UTF-8" standalone="no"?>
<!DOCTYPE svg PUBLIC "-//W3C//DTD SVG 1.1//EN"
 "http://www.w3.org/Graphics/SVG/1.1/DTD/svg11.dtd">
<!-- Generated by graphviz version 5.0.0 (20220707.1540)
 -->
<!-- Title: dependencies Pages: 1 -->
<svg width="2578pt" height="247pt"
 viewBox="0.00 0.00 2578.00 246.80" xmlns="http://www.w3.org/2000/svg" xmlns:xlink="http://www.w3.org/1999/xlink">
<g id="graph0" class="graph" transform="scale(1 1) rotate(0) translate(4 242.8)">
<title>dependencies</title>
<polygon fill="white" stroke="transparent" points="-4,4 -4,-242.8 2574,-242.8 2574,4 -4,4"/>
<text text-anchor="middle" x="1285" y="-8.2" font-family="sans-serif" font-size="14.00">dependencies</text>
<g id="clust1" class="cluster">
<title>cluster_CoreModule</title>
<polygon fill="none" stroke="black" stroke-dasharray="1,5" points="8,-32.8 8,-230.8 2562,-230.8 2562,-32.8 8,-32.8"/>
</g>
<g id="clust2" class="cluster">
<title>cluster_CoreModule_declarations</title>
<polygon fill="none" stroke="black" points="547,-40.8 547,-92.8 2554,-92.8 2554,-40.8 547,-40.8"/>
</g>
<g id="clust16" class="cluster">
<title>cluster_CoreModule_exports</title>
<polygon fill="none" stroke="black" points="450,-170.8 450,-222.8 1998,-222.8 1998,-170.8 450,-170.8"/>
</g>
<g id="clust15" class="cluster">
<title>cluster_CoreModule_imports</title>
<polygon fill="none" stroke="black" points="16,-40.8 16,-92.8 539,-92.8 539,-40.8 16,-40.8"/>
</g>
<!-- BodyScrollDirective -->
<g id="node1" class="node">
<title>BodyScrollDirective</title>
<polygon fill="#ffffb3" stroke="black" points="2545.86,-84.8 2414.14,-84.8 2414.14,-48.8 2545.86,-48.8 2545.86,-84.8"/>
<text text-anchor="middle" x="2480" y="-62.6" font-family="Times,serif" font-size="14.00">BodyScrollDirective</text>
</g>
<!-- CoreModule -->
<g id="node13" class="node">
<title>CoreModule</title>
<polygon fill="#8dd3c7" stroke="black" points="1251.27,-149.8 1248.27,-153.8 1227.27,-153.8 1224.27,-149.8 1164.73,-149.8 1164.73,-113.8 1251.27,-113.8 1251.27,-149.8"/>
<text text-anchor="middle" x="1208" y="-127.6" font-family="Times,serif" font-size="14.00">CoreModule</text>
</g>
<!-- BodyScrollDirective&#45;&gt;CoreModule -->
<g id="edge1" class="edge">
<title>BodyScrollDirective&#45;&gt;CoreModule</title>
<path fill="none" stroke="black" d="M2480,-85.02C2480,-105.17 2480,-134.8 2480,-134.8 2480,-134.8 1261.42,-134.8 1261.42,-134.8"/>
<polygon fill="black" stroke="black" points="1261.42,-131.3 1251.42,-134.8 1261.42,-138.3 1261.42,-131.3"/>
</g>
<!-- ContentTypeComponent -->
<g id="node2" class="node">
<title>ContentTypeComponent</title>
<polygon fill="#ffffb3" stroke="black" points="2396.43,-84.8 2241.57,-84.8 2241.57,-48.8 2396.43,-48.8 2396.43,-84.8"/>
<text text-anchor="middle" x="2319" y="-62.6" font-family="Times,serif" font-size="14.00">ContentTypeComponent</text>
</g>
<!-- ContentTypeComponent&#45;&gt;CoreModule -->
<g id="edge2" class="edge">
<title>ContentTypeComponent&#45;&gt;CoreModule</title>
<path fill="none" stroke="black" d="M2319,-84.91C2319,-104.14 2319,-131.8 2319,-131.8 2319,-131.8 1261.55,-131.8 1261.55,-131.8"/>
<polygon fill="black" stroke="black" points="1261.55,-128.3 1251.55,-131.8 1261.55,-135.3 1261.55,-128.3"/>
</g>
<!-- DesktopOnlyDirective -->
<g id="node3" class="node">
<title>DesktopOnlyDirective</title>
<polygon fill="#ffffb3" stroke="black" points="2223.25,-84.8 2080.75,-84.8 2080.75,-48.8 2223.25,-48.8 2223.25,-84.8"/>
<text text-anchor="middle" x="2152" y="-62.6" font-family="Times,serif" font-size="14.00">DesktopOnlyDirective</text>
</g>
<!-- DesktopOnlyDirective&#45;&gt;CoreModule -->
<g id="edge3" class="edge">
<title>DesktopOnlyDirective&#45;&gt;CoreModule</title>
<path fill="none" stroke="black" d="M2152,-85.07C2152,-103.36 2152,-128.8 2152,-128.8 2152,-128.8 1261.33,-128.8 1261.33,-128.8"/>
<polygon fill="black" stroke="black" points="1261.33,-125.3 1251.33,-128.8 1261.33,-132.3 1261.33,-125.3"/>
</g>
<!-- ErrorPageComponent -->
<g id="node4" class="node">
<title>ErrorPageComponent</title>
<polygon fill="#ffffb3" stroke="black" points="2063.08,-84.8 1924.92,-84.8 1924.92,-48.8 2063.08,-48.8 2063.08,-84.8"/>
<text text-anchor="middle" x="1994" y="-62.6" font-family="Times,serif" font-size="14.00">ErrorPageComponent</text>
</g>
<!-- ErrorPageComponent&#45;&gt;CoreModule -->
<g id="edge4" class="edge">
<title>ErrorPageComponent&#45;&gt;CoreModule</title>
<path fill="none" stroke="black" d="M1957.32,-84.82C1957.32,-102.17 1957.32,-125.8 1957.32,-125.8 1957.32,-125.8 1261.53,-125.8 1261.53,-125.8"/>
<polygon fill="black" stroke="black" points="1261.53,-122.3 1251.53,-125.8 1261.53,-129.3 1261.53,-122.3"/>
</g>
<!-- LanguageDropdownComponent -->
<g id="node5" class="node">
<title>LanguageDropdownComponent</title>
<polygon fill="#ffffb3" stroke="black" points="1907.41,-84.8 1710.59,-84.8 1710.59,-48.8 1907.41,-48.8 1907.41,-84.8"/>
<text text-anchor="middle" x="1809" y="-62.6" font-family="Times,serif" font-size="14.00">LanguageDropdownComponent</text>
</g>
<!-- LanguageDropdownComponent&#45;&gt;CoreModule -->
<g id="edge5" class="edge">
<title>LanguageDropdownComponent&#45;&gt;CoreModule</title>
<path fill="none" stroke="black" d="M1773.46,-84.83C1773.46,-101.2 1773.46,-122.8 1773.46,-122.8 1773.46,-122.8 1261.43,-122.8 1261.43,-122.8"/>
<polygon fill="black" stroke="black" points="1261.43,-119.3 1251.43,-122.8 1261.43,-126.3 1261.43,-119.3"/>
</g>
<!-- MainFooterComponent -->
<g id="node6" class="node">
<title>MainFooterComponent</title>
<polygon fill="#ffffb3" stroke="black" points="1692.94,-84.8 1545.06,-84.8 1545.06,-48.8 1692.94,-48.8 1692.94,-84.8"/>
<text text-anchor="middle" x="1619" y="-62.6" font-family="Times,serif" font-size="14.00">MainFooterComponent</text>
</g>
<!-- MainFooterComponent&#45;&gt;CoreModule -->
<g id="edge6" class="edge">
<title>MainFooterComponent&#45;&gt;CoreModule</title>
<path fill="none" stroke="black" d="M1608.62,-85.04C1608.62,-100.37 1608.62,-119.8 1608.62,-119.8 1608.62,-119.8 1261.64,-119.8 1261.64,-119.8"/>
<polygon fill="black" stroke="black" points="1261.64,-116.3 1251.64,-119.8 1261.64,-123.3 1261.64,-116.3"/>
</g>
<!-- MainHeaderComponent -->
<g id="node7" class="node">
<title>MainHeaderComponent</title>
<polygon fill="#ffffb3" stroke="black" points="1527.8,-84.8 1376.2,-84.8 1376.2,-48.8 1527.8,-48.8 1527.8,-84.8"/>
<text text-anchor="middle" x="1452" y="-62.6" font-family="Times,serif" font-size="14.00">MainHeaderComponent</text>
</g>
<!-- MainHeaderComponent&#45;&gt;CoreModule -->
<g id="edge7" class="edge">
<title>MainHeaderComponent&#45;&gt;CoreModule</title>
<path fill="none" stroke="black" d="M1415.41,-84.85C1415.41,-99.17 1415.41,-116.8 1415.41,-116.8 1415.41,-116.8 1261.48,-116.8 1261.48,-116.8"/>
<polygon fill="black" stroke="black" points="1261.48,-113.3 1251.48,-116.8 1261.48,-120.3 1261.48,-113.3"/>
</g>
<!-- MainMenuComponent -->
<g id="node8" class="node">
<title>MainMenuComponent</title>
<polygon fill="#ffffb3" stroke="black" points="1358.55,-84.8 1215.45,-84.8 1215.45,-48.8 1358.55,-48.8 1358.55,-84.8"/>
<text text-anchor="middle" x="1287" y="-62.6" font-family="Times,serif" font-size="14.00">MainMenuComponent</text>
</g>
<!-- MainMenuComponent&#45;&gt;CoreModule -->
<g id="edge8" class="edge">
<title>MainMenuComponent&#45;&gt;CoreModule</title>
<path fill="none" stroke="black" d="M1233.31,-84.91C1233.31,-84.91 1233.31,-103.79 1233.31,-103.79"/>
<polygon fill="black" stroke="black" points="1229.81,-103.79 1233.31,-113.79 1236.81,-103.79 1229.81,-103.79"/>
</g>
<!-- OnlineOnlyDirective -->
<g id="node9" class="node">
<title>OnlineOnlyDirective</title>
<polygon fill="#ffffb3" stroke="black" points="1197.19,-84.8 1062.81,-84.8 1062.81,-48.8 1197.19,-48.8 1197.19,-84.8"/>
<text text-anchor="middle" x="1130" y="-62.6" font-family="Times,serif" font-size="14.00">OnlineOnlyDirective</text>
</g>
<!-- OnlineOnlyDirective&#45;&gt;CoreModule -->
<g id="edge9" class="edge">
<title>OnlineOnlyDirective&#45;&gt;CoreModule</title>
<path fill="none" stroke="black" d="M1180.86,-84.91C1180.86,-84.91 1180.86,-103.79 1180.86,-103.79"/>
<polygon fill="black" stroke="black" points="1177.36,-103.79 1180.86,-113.79 1184.36,-103.79 1177.36,-103.79"/>
</g>
<!-- PermissionDirective -->
<g id="node10" class="node">
<title>PermissionDirective</title>
<polygon fill="#ffffb3" stroke="black" points="1045.31,-84.8 914.69,-84.8 914.69,-48.8 1045.31,-48.8 1045.31,-84.8"/>
<text text-anchor="middle" x="980" y="-62.6" font-family="Times,serif" font-size="14.00">PermissionDirective</text>
</g>
<!-- PermissionDirective&#45;&gt;CoreModule -->
<g id="edge10" class="edge">
<title>PermissionDirective&#45;&gt;CoreModule</title>
<path fill="none" stroke="black" d="M1010.16,-84.85C1010.16,-99.17 1010.16,-116.8 1010.16,-116.8 1010.16,-116.8 1154.58,-116.8 1154.58,-116.8"/>
<polygon fill="black" stroke="black" points="1154.58,-120.3 1164.58,-116.8 1154.58,-113.3 1154.58,-120.3"/>
</g>
<!-- SearchComponent -->
<g id="node11" class="node">
<title>SearchComponent</title>
<polygon fill="#ffffb3" stroke="black" points="896.92,-84.8 777.08,-84.8 777.08,-48.8 896.92,-48.8 896.92,-84.8"/>
<text text-anchor="middle" x="837" y="-62.6" font-family="Times,serif" font-size="14.00">SearchComponent</text>
</g>
<!-- SearchComponent&#45;&gt;CoreModule -->
<g id="edge11" class="edge">
<title>SearchComponent&#45;&gt;CoreModule</title>
<path fill="none" stroke="black" d="M859.9,-85.04C859.9,-100.37 859.9,-119.8 859.9,-119.8 859.9,-119.8 1154.62,-119.8 1154.62,-119.8"/>
<polygon fill="black" stroke="black" points="1154.62,-123.3 1164.62,-119.8 1154.62,-116.3 1154.62,-123.3"/>
</g>
<!-- TelemetryErrorModalComponent -->
<g id="node12" class="node">
<title>TelemetryErrorModalComponent</title>
<polygon fill="#ffffb3" stroke="black" points="759.45,-84.8 554.55,-84.8 554.55,-48.8 759.45,-48.8 759.45,-84.8"/>
<text text-anchor="middle" x="657" y="-62.6" font-family="Times,serif" font-size="14.00">TelemetryErrorModalComponent</text>
</g>
<!-- TelemetryErrorModalComponent&#45;&gt;CoreModule -->
<g id="edge12" class="edge">
<title>TelemetryErrorModalComponent&#45;&gt;CoreModule</title>
<path fill="none" stroke="black" d="M678.12,-84.83C678.12,-101.2 678.12,-122.8 678.12,-122.8 678.12,-122.8 1154.64,-122.8 1154.64,-122.8"/>
<polygon fill="black" stroke="black" points="1154.64,-126.3 1164.64,-122.8 1154.64,-119.3 1154.64,-126.3"/>
</g>
<!-- BodyScrollDirective  -->
<g id="node18" class="node">
<title>BodyScrollDirective </title>
<polygon fill="#fb8072" stroke="black" points="1989.86,-214.8 1854.14,-214.8 1854.14,-178.8 1989.86,-178.8 1989.86,-214.8"/>
<text text-anchor="middle" x="1922" y="-192.6" font-family="Times,serif" font-size="14.00">BodyScrollDirective </text>
</g>
<!-- CoreModule&#45;&gt;BodyScrollDirective  -->
<g id="edge17" class="edge">
<title>CoreModule&#45;&gt;BodyScrollDirective </title>
<path fill="none" stroke="black" stroke-dasharray="5,2" d="M1251.37,-137.8C1400.15,-137.8 1880.76,-137.8 1880.76,-137.8 1880.76,-137.8 1880.76,-168.78 1880.76,-168.78"/>
<polygon fill="black" stroke="black" points="1877.26,-168.78 1880.76,-178.78 1884.26,-168.78 1877.26,-168.78"/>
</g>
<!-- DesktopOnlyDirective  -->
<g id="node19" class="node">
<title>DesktopOnlyDirective </title>
<polygon fill="#fb8072" stroke="black" points="1836.25,-214.8 1689.75,-214.8 1689.75,-178.8 1836.25,-178.8 1836.25,-214.8"/>
<text text-anchor="middle" x="1763" y="-192.6" font-family="Times,serif" font-size="14.00">DesktopOnlyDirective </text>
</g>
<!-- CoreModule&#45;&gt;DesktopOnlyDirective  -->
<g id="edge18" class="edge">
<title>CoreModule&#45;&gt;DesktopOnlyDirective </title>
<path fill="none" stroke="black" stroke-dasharray="5,2" d="M1251.38,-140.8C1371.87,-140.8 1701.76,-140.8 1701.76,-140.8 1701.76,-140.8 1701.76,-168.77 1701.76,-168.77"/>
<polygon fill="black" stroke="black" points="1698.26,-168.77 1701.76,-178.77 1705.26,-168.77 1698.26,-168.77"/>
</g>
<!-- LanguageDropdownComponent  -->
<g id="node20" class="node">
<title>LanguageDropdownComponent </title>
<polygon fill="#fb8072" stroke="black" points="1671.91,-214.8 1472.09,-214.8 1472.09,-178.8 1671.91,-178.8 1671.91,-214.8"/>
<text text-anchor="middle" x="1572" y="-192.6" font-family="Times,serif" font-size="14.00">LanguageDropdownComponent </text>
</g>
<!-- CoreModule&#45;&gt;LanguageDropdownComponent  -->
<g id="edge19" class="edge">
<title>CoreModule&#45;&gt;LanguageDropdownComponent </title>
<path fill="none" stroke="black" stroke-dasharray="5,2" d="M1251.38,-143.8C1332.68,-143.8 1499.85,-143.8 1499.85,-143.8 1499.85,-143.8 1499.85,-168.56 1499.85,-168.56"/>
<polygon fill="black" stroke="black" points="1496.35,-168.56 1499.85,-178.56 1503.35,-168.56 1496.35,-168.56"/>
</g>
<!-- MainFooterComponent  -->
<g id="node21" class="node">
<title>MainFooterComponent </title>
<polygon fill="#fb8072" stroke="black" points="1454.43,-214.8 1303.57,-214.8 1303.57,-178.8 1454.43,-178.8 1454.43,-214.8"/>
<text text-anchor="middle" x="1379" y="-192.6" font-family="Times,serif" font-size="14.00">MainFooterComponent </text>
</g>
<!-- CoreModule&#45;&gt;MainFooterComponent  -->
<g id="edge20" class="edge">
<title>CoreModule&#45;&gt;MainFooterComponent </title>
<path fill="none" stroke="black" stroke-dasharray="5,2" d="M1251.42,-146.8C1286.88,-146.8 1331.15,-146.8 1331.15,-146.8 1331.15,-146.8 1331.15,-168.75 1331.15,-168.75"/>
<polygon fill="black" stroke="black" points="1327.65,-168.75 1331.15,-178.75 1334.65,-168.75 1327.65,-168.75"/>
</g>
<!-- MainHeaderComponent  -->
<g id="node22" class="node">
<title>MainHeaderComponent </title>
<polygon fill="#fb8072" stroke="black" points="1285.3,-214.8 1130.7,-214.8 1130.7,-178.8 1285.3,-178.8 1285.3,-214.8"/>
<text text-anchor="middle" x="1208" y="-192.6" font-family="Times,serif" font-size="14.00">MainHeaderComponent </text>
</g>
<!-- CoreModule&#45;&gt;MainHeaderComponent  -->
<g id="edge21" class="edge">
<title>CoreModule&#45;&gt;MainHeaderComponent </title>
<path fill="none" stroke="black" stroke-dasharray="5,2" d="M1208,-149.91C1208,-149.91 1208,-168.79 1208,-168.79"/>
<polygon fill="black" stroke="black" points="1204.5,-168.79 1208,-178.79 1211.5,-168.79 1204.5,-168.79"/>
</g>
<!-- OnlineOnlyDirective  -->
<g id="node23" class="node">
<title>OnlineOnlyDirective </title>
<polygon fill="#fb8072" stroke="black" points="1112.69,-214.8 975.31,-214.8 975.31,-178.8 1112.69,-178.8 1112.69,-214.8"/>
<text text-anchor="middle" x="1044" y="-192.6" font-family="Times,serif" font-size="14.00">OnlineOnlyDirective </text>
</g>
<!-- CoreModule&#45;&gt;OnlineOnlyDirective  -->
<g id="edge22" class="edge">
<title>CoreModule&#45;&gt;OnlineOnlyDirective </title>
<path fill="none" stroke="black" stroke-dasharray="5,2" d="M1164.63,-146.8C1130.22,-146.8 1087.88,-146.8 1087.88,-146.8 1087.88,-146.8 1087.88,-168.75 1087.88,-168.75"/>
<polygon fill="black" stroke="black" points="1084.38,-168.75 1087.88,-178.75 1091.38,-168.75 1084.38,-168.75"/>
</g>
<!-- PermissionDirective  -->
<g id="node24" class="node">
<title>PermissionDirective </title>
<polygon fill="#fb8072" stroke="black" points="956.81,-214.8 823.19,-214.8 823.19,-178.8 956.81,-178.8 956.81,-214.8"/>
<text text-anchor="middle" x="890" y="-192.6" font-family="Times,serif" font-size="14.00">PermissionDirective </text>
</g>
<!-- CoreModule&#45;&gt;PermissionDirective  -->
<g id="edge23" class="edge">
<title>CoreModule&#45;&gt;PermissionDirective </title>
<path fill="none" stroke="black" stroke-dasharray="5,2" d="M1164.58,-143.8C1087.75,-143.8 935.88,-143.8 935.88,-143.8 935.88,-143.8 935.88,-168.56 935.88,-168.56"/>
<polygon fill="black" stroke="black" points="932.38,-168.56 935.88,-178.56 939.38,-168.56 932.38,-168.56"/>
</g>
<!-- TelemetryErrorModalComponent  -->
<g id="node25" class="node">
<title>TelemetryErrorModalComponent </title>
<polygon fill="#fb8072" stroke="black" points="805.45,-214.8 596.55,-214.8 596.55,-178.8 805.45,-178.8 805.45,-214.8"/>
<text text-anchor="middle" x="701" y="-192.6" font-family="Times,serif" font-size="14.00">TelemetryErrorModalComponent </text>
</g>
<!-- CoreModule&#45;&gt;TelemetryErrorModalComponent  -->
<g id="edge24" class="edge">
<title>CoreModule&#45;&gt;TelemetryErrorModalComponent </title>
<path fill="none" stroke="black" stroke-dasharray="5,2" d="M1164.58,-140.8C1057.84,-140.8 791.26,-140.8 791.26,-140.8 791.26,-140.8 791.26,-168.77 791.26,-168.77"/>
<polygon fill="black" stroke="black" points="787.76,-168.77 791.26,-178.77 794.76,-168.77 787.76,-168.77"/>
</g>
<!-- TelemetryModule  -->
<g id="node26" class="node">
<title>TelemetryModule </title>
<polygon fill="#fb8072" stroke="black" points="578.08,-214.8 457.92,-214.8 457.92,-178.8 578.08,-178.8 578.08,-214.8"/>
<text text-anchor="middle" x="518" y="-192.6" font-family="Times,serif" font-size="14.00">TelemetryModule </text>
</g>
<!-- CoreModule&#45;&gt;TelemetryModule  -->
<g id="edge25" class="edge">
<title>CoreModule&#45;&gt;TelemetryModule </title>
<path fill="none" stroke="black" stroke-dasharray="5,2" d="M1164.66,-137.8C1020.53,-137.8 566.41,-137.8 566.41,-137.8 566.41,-137.8 566.41,-168.78 566.41,-168.78"/>
<polygon fill="black" stroke="black" points="562.91,-168.78 566.41,-178.78 569.91,-168.78 562.91,-168.78"/>
</g>
<!-- LocationModule -->
<g id="node14" class="node">
<title>LocationModule</title>
<polygon fill="#8dd3c7" stroke="black" points="530.81,-84.8 527.81,-88.8 506.81,-88.8 503.81,-84.8 421.19,-84.8 421.19,-48.8 530.81,-48.8 530.81,-84.8"/>
<text text-anchor="middle" x="476" y="-62.6" font-family="Times,serif" font-size="14.00">LocationModule</text>
</g>
<!-- LocationModule&#45;&gt;CoreModule -->
<g id="edge13" class="edge">
<title>LocationModule&#45;&gt;CoreModule</title>
<path fill="none" stroke="black" d="M494.18,-84.82C494.18,-102.17 494.18,-125.8 494.18,-125.8 494.18,-125.8 1154.69,-125.8 1154.69,-125.8"/>
<polygon fill="black" stroke="black" points="1154.69,-129.3 1164.69,-125.8 1154.69,-122.3 1154.69,-129.3"/>
</g>
<!-- NotificationModule -->
<g id="node15" class="node">
<title>NotificationModule</title>
<polygon fill="#8dd3c7" stroke="black" points="403.7,-84.8 400.7,-88.8 379.7,-88.8 376.7,-84.8 276.3,-84.8 276.3,-48.8 403.7,-48.8 403.7,-84.8"/>
<text text-anchor="middle" x="340" y="-62.6" font-family="Times,serif" font-size="14.00">NotificationModule</text>
</g>
<!-- NotificationModule&#45;&gt;CoreModule -->
<g id="edge14" class="edge">
<title>NotificationModule&#45;&gt;CoreModule</title>
<path fill="none" stroke="black" d="M340,-85.07C340,-103.36 340,-128.8 340,-128.8 340,-128.8 1154.66,-128.8 1154.66,-128.8"/>
<polygon fill="black" stroke="black" points="1154.66,-132.3 1164.66,-128.8 1154.66,-125.3 1154.66,-132.3"/>
</g>
<!-- SharedModule -->
<g id="node16" class="node">
<title>SharedModule</title>
<polygon fill="#8dd3c7" stroke="black" points="258.43,-84.8 255.43,-88.8 234.43,-88.8 231.43,-84.8 159.57,-84.8 159.57,-48.8 258.43,-48.8 258.43,-84.8"/>
<text text-anchor="middle" x="209" y="-62.6" font-family="Times,serif" font-size="14.00">SharedModule</text>
</g>
<!-- SharedModule&#45;&gt;CoreModule -->
<g id="edge15" class="edge">
<title>SharedModule&#45;&gt;CoreModule</title>
<path fill="none" stroke="black" d="M209,-84.91C209,-104.14 209,-131.8 209,-131.8 209,-131.8 1154.43,-131.8 1154.43,-131.8"/>
<polygon fill="black" stroke="black" points="1154.43,-135.3 1164.43,-131.8 1154.43,-128.3 1154.43,-135.3"/>
</g>
<!-- TelemetryModule -->
<g id="node17" class="node">
<title>TelemetryModule</title>
<polygon fill="#8dd3c7" stroke="black" points="141.58,-84.8 138.58,-88.8 117.58,-88.8 114.58,-84.8 24.42,-84.8 24.42,-48.8 141.58,-48.8 141.58,-84.8"/>
<text text-anchor="middle" x="83" y="-62.6" font-family="Times,serif" font-size="14.00">TelemetryModule</text>
</g>
<!-- TelemetryModule&#45;&gt;CoreModule -->
<g id="edge16" class="edge">
<title>TelemetryModule&#45;&gt;CoreModule</title>
<path fill="none" stroke="black" d="M83,-85.02C83,-105.17 83,-134.8 83,-134.8 83,-134.8 1154.59,-134.8 1154.59,-134.8"/>
<polygon fill="black" stroke="black" points="1154.59,-138.3 1164.59,-134.8 1154.59,-131.3 1154.59,-138.3"/>
</g>
</g>
</svg>
