<?xml version="1.0" encoding="UTF-8" standalone="no"?>
<!DOCTYPE svg PUBLIC "-//W3C//DTD SVG 1.1//EN"
 "http://www.w3.org/Graphics/SVG/1.1/DTD/svg11.dtd">
<!-- Generated by graphviz version 5.0.0 (20220707.1540)
 -->
<!-- Title: dependencies Pages: 1 -->
<svg width="2347pt" height="174pt"
 viewBox="0.00 0.00 2347.00 173.80" xmlns="http://www.w3.org/2000/svg" xmlns:xlink="http://www.w3.org/1999/xlink">
<g id="graph0" class="graph" transform="scale(1 1) rotate(0) translate(4 169.8)">
<title>dependencies</title>
<polygon fill="white" stroke="transparent" points="-4,4 -4,-169.8 2343,-169.8 2343,4 -4,4"/>
<text text-anchor="middle" x="1169.5" y="-8.2" font-family="sans-serif" font-size="14.00">dependencies</text>
<g id="clust1" class="cluster">
<title>cluster_ProfileModule</title>
<polygon fill="none" stroke="black" stroke-dasharray="1,5" points="8,-32.8 8,-157.8 2331,-157.8 2331,-32.8 8,-32.8"/>
</g>
<g id="clust10" class="cluster">
<title>cluster_ProfileModule_imports</title>
<polygon fill="none" stroke="black" points="1362,-40.8 1362,-92.8 2323,-92.8 2323,-40.8 1362,-40.8"/>
</g>
<g id="clust2" class="cluster">
<title>cluster_ProfileModule_declarations</title>
<polygon fill="none" stroke="black" points="16,-40.8 16,-92.8 1354,-92.8 1354,-40.8 16,-40.8"/>
</g>
<!-- AccountRecoveryInfoComponent -->
<g id="node1" class="node">
<title>AccountRecoveryInfoComponent</title>
<polygon fill="#ffffb3" stroke="black" points="1345.72,-84.8 1140.28,-84.8 1140.28,-48.8 1345.72,-48.8 1345.72,-84.8"/>
<text text-anchor="middle" x="1243" y="-62.6" font-family="Times,serif" font-size="14.00">AccountRecoveryInfoComponent</text>
</g>
<!-- ProfileModule -->
<g id="node8" class="node">
<title>ProfileModule</title>
<polygon fill="#8dd3c7" stroke="black" points="1384.66,-149.8 1381.66,-153.8 1360.66,-153.8 1357.66,-149.8 1287.34,-149.8 1287.34,-113.8 1384.66,-113.8 1384.66,-149.8"/>
<text text-anchor="middle" x="1336" y="-127.6" font-family="Times,serif" font-size="14.00">ProfileModule</text>
</g>
<!-- AccountRecoveryInfoComponent&#45;&gt;ProfileModule -->
<g id="edge1" class="edge">
<title>AccountRecoveryInfoComponent&#45;&gt;ProfileModule</title>
<path fill="none" stroke="black" d="M1316.52,-84.91C1316.52,-84.91 1316.52,-103.79 1316.52,-103.79"/>
<polygon fill="black" stroke="black" points="1313.02,-103.79 1316.52,-113.79 1320.02,-103.79 1313.02,-103.79"/>
</g>
<!-- ChooseUserComponent -->
<g id="node2" class="node">
<title>ChooseUserComponent</title>
<polygon fill="#ffffb3" stroke="black" points="1121.77,-84.8 972.23,-84.8 972.23,-48.8 1121.77,-48.8 1121.77,-84.8"/>
<text text-anchor="middle" x="1047" y="-62.6" font-family="Times,serif" font-size="14.00">ChooseUserComponent</text>
</g>
<!-- ChooseUserComponent&#45;&gt;ProfileModule -->
<g id="edge2" class="edge">
<title>ChooseUserComponent&#45;&gt;ProfileModule</title>
<path fill="none" stroke="black" d="M1047,-85.04C1047,-100.37 1047,-119.8 1047,-119.8 1047,-119.8 1277.3,-119.8 1277.3,-119.8"/>
<polygon fill="black" stroke="black" points="1277.3,-123.3 1287.3,-119.8 1277.3,-116.3 1277.3,-123.3"/>
</g>
<!-- CreateUserComponent -->
<g id="node3" class="node">
<title>CreateUserComponent</title>
<polygon fill="#ffffb3" stroke="black" points="954.3,-84.8 809.7,-84.8 809.7,-48.8 954.3,-48.8 954.3,-84.8"/>
<text text-anchor="middle" x="882" y="-62.6" font-family="Times,serif" font-size="14.00">CreateUserComponent</text>
</g>
<!-- CreateUserComponent&#45;&gt;ProfileModule -->
<g id="edge3" class="edge">
<title>CreateUserComponent&#45;&gt;ProfileModule</title>
<path fill="none" stroke="black" d="M882,-84.83C882,-101.86 882,-124.8 882,-124.8 882,-124.8 1276.98,-124.8 1276.98,-124.8"/>
<polygon fill="black" stroke="black" points="1276.98,-128.3 1286.98,-124.8 1276.98,-121.3 1276.98,-128.3"/>
</g>
<!-- ProfileBadgeComponent -->
<g id="node4" class="node">
<title>ProfileBadgeComponent</title>
<polygon fill="#ffffb3" stroke="black" points="791.7,-84.8 636.3,-84.8 636.3,-48.8 791.7,-48.8 791.7,-84.8"/>
<text text-anchor="middle" x="714" y="-62.6" font-family="Times,serif" font-size="14.00">ProfileBadgeComponent</text>
</g>
<!-- ProfileBadgeComponent&#45;&gt;ProfileModule -->
<g id="edge4" class="edge">
<title>ProfileBadgeComponent&#45;&gt;ProfileModule</title>
<path fill="none" stroke="black" d="M714,-85.02C714,-103.63 714,-129.8 714,-129.8 714,-129.8 1277.19,-129.8 1277.19,-129.8"/>
<polygon fill="black" stroke="black" points="1277.19,-133.3 1287.19,-129.8 1277.19,-126.3 1277.19,-133.3"/>
</g>
<!-- ProfilePageComponent -->
<g id="node5" class="node">
<title>ProfilePageComponent</title>
<polygon fill="#ffffb3" stroke="black" points="618.15,-84.8 471.85,-84.8 471.85,-48.8 618.15,-48.8 618.15,-84.8"/>
<text text-anchor="middle" x="545" y="-62.6" font-family="Times,serif" font-size="14.00">ProfilePageComponent</text>
</g>
<!-- ProfilePageComponent&#45;&gt;ProfileModule -->
<g id="edge5" class="edge">
<title>ProfilePageComponent&#45;&gt;ProfileModule</title>
<path fill="none" stroke="black" d="M545,-85.02C545,-105.17 545,-134.8 545,-134.8 545,-134.8 1277.12,-134.8 1277.12,-134.8"/>
<polygon fill="black" stroke="black" points="1277.12,-138.3 1287.12,-134.8 1277.12,-131.3 1277.12,-138.3"/>
</g>
<!-- SubmitTeacherDetailsComponent -->
<g id="node6" class="node">
<title>SubmitTeacherDetailsComponent</title>
<polygon fill="#ffffb3" stroke="black" points="453.01,-84.8 246.99,-84.8 246.99,-48.8 453.01,-48.8 453.01,-84.8"/>
<text text-anchor="middle" x="350" y="-62.6" font-family="Times,serif" font-size="14.00">SubmitTeacherDetailsComponent</text>
</g>
<!-- SubmitTeacherDetailsComponent&#45;&gt;ProfileModule -->
<g id="edge6" class="edge">
<title>SubmitTeacherDetailsComponent&#45;&gt;ProfileModule</title>
<path fill="none" stroke="black" d="M350,-84.84C350,-106.46 350,-139.8 350,-139.8 350,-139.8 1277.1,-139.8 1277.1,-139.8"/>
<polygon fill="black" stroke="black" points="1277.1,-143.3 1287.1,-139.8 1277.1,-136.3 1277.1,-143.3"/>
</g>
<!-- UpdateContactDetailsComponent -->
<g id="node7" class="node">
<title>UpdateContactDetailsComponent</title>
<polygon fill="#ffffb3" stroke="black" points="228.46,-84.8 23.54,-84.8 23.54,-48.8 228.46,-48.8 228.46,-84.8"/>
<text text-anchor="middle" x="126" y="-62.6" font-family="Times,serif" font-size="14.00">UpdateContactDetailsComponent</text>
</g>
<!-- UpdateContactDetailsComponent&#45;&gt;ProfileModule -->
<g id="edge7" class="edge">
<title>UpdateContactDetailsComponent&#45;&gt;ProfileModule</title>
<path fill="none" stroke="black" d="M126,-84.89C126,-107.93 126,-144.8 126,-144.8 126,-144.8 1277.07,-144.8 1277.07,-144.8"/>
<polygon fill="black" stroke="black" points="1277.07,-148.3 1287.07,-144.8 1277.07,-141.3 1277.07,-148.3"/>
</g>
<!-- ContentSearchModule -->
<g id="node9" class="node">
<title>ContentSearchModule</title>
<polygon fill="#8dd3c7" stroke="black" points="2314.97,-84.8 2311.97,-88.8 2290.97,-88.8 2287.97,-84.8 2173.03,-84.8 2173.03,-48.8 2314.97,-48.8 2314.97,-84.8"/>
<text text-anchor="middle" x="2244" y="-62.6" font-family="Times,serif" font-size="14.00">ContentSearchModule</text>
</g>
<!-- ContentSearchModule&#45;&gt;ProfileModule -->
<g id="edge8" class="edge">
<title>ContentSearchModule&#45;&gt;ProfileModule</title>
<path fill="none" stroke="black" d="M2244,-84.89C2244,-107.93 2244,-144.8 2244,-144.8 2244,-144.8 1394.82,-144.8 1394.82,-144.8"/>
<polygon fill="black" stroke="black" points="1394.82,-141.3 1384.82,-144.8 1394.82,-148.3 1394.82,-141.3"/>
</g>
<!-- CoreModule -->
<g id="node10" class="node">
<title>CoreModule</title>
<polygon fill="#8dd3c7" stroke="black" points="2155.27,-84.8 2152.27,-88.8 2131.27,-88.8 2128.27,-84.8 2068.73,-84.8 2068.73,-48.8 2155.27,-48.8 2155.27,-84.8"/>
<text text-anchor="middle" x="2112" y="-62.6" font-family="Times,serif" font-size="14.00">CoreModule</text>
</g>
<!-- CoreModule&#45;&gt;ProfileModule -->
<g id="edge9" class="edge">
<title>CoreModule&#45;&gt;ProfileModule</title>
<path fill="none" stroke="black" d="M2112,-84.84C2112,-106.46 2112,-139.8 2112,-139.8 2112,-139.8 1394.84,-139.8 1394.84,-139.8"/>
<polygon fill="black" stroke="black" points="1394.84,-136.3 1384.84,-139.8 1394.84,-143.3 1394.84,-136.3"/>
</g>
<!-- LocationModule -->
<g id="node11" class="node">
<title>LocationModule</title>
<polygon fill="#8dd3c7" stroke="black" points="2050.81,-84.8 2047.81,-88.8 2026.81,-88.8 2023.81,-84.8 1941.19,-84.8 1941.19,-48.8 2050.81,-48.8 2050.81,-84.8"/>
<text text-anchor="middle" x="1996" y="-62.6" font-family="Times,serif" font-size="14.00">LocationModule</text>
</g>
<!-- LocationModule&#45;&gt;ProfileModule -->
<g id="edge10" class="edge">
<title>LocationModule&#45;&gt;ProfileModule</title>
<path fill="none" stroke="black" d="M1996,-85.02C1996,-105.17 1996,-134.8 1996,-134.8 1996,-134.8 1394.8,-134.8 1394.8,-134.8"/>
<polygon fill="black" stroke="black" points="1394.8,-131.3 1384.8,-134.8 1394.8,-138.3 1394.8,-131.3"/>
</g>
<!-- ProfileRoutingModule -->
<g id="node12" class="node">
<title>ProfileRoutingModule</title>
<polygon fill="#8dd3c7" stroke="black" points="1923.27,-84.8 1920.27,-88.8 1899.27,-88.8 1896.27,-84.8 1780.73,-84.8 1780.73,-48.8 1923.27,-48.8 1923.27,-84.8"/>
<text text-anchor="middle" x="1852" y="-62.6" font-family="Times,serif" font-size="14.00">ProfileRoutingModule</text>
</g>
<!-- ProfileRoutingModule&#45;&gt;ProfileModule -->
<g id="edge11" class="edge">
<title>ProfileRoutingModule&#45;&gt;ProfileModule</title>
<path fill="none" stroke="black" d="M1852,-85.02C1852,-103.63 1852,-129.8 1852,-129.8 1852,-129.8 1395.01,-129.8 1395.01,-129.8"/>
<polygon fill="black" stroke="black" points="1395.01,-126.3 1385.01,-129.8 1395.01,-133.3 1395.01,-126.3"/>
</g>
<!-- SharedFeatureModule -->
<g id="node13" class="node">
<title>SharedFeatureModule</title>
<polygon fill="#8dd3c7" stroke="black" points="1762.41,-84.8 1759.41,-88.8 1738.41,-88.8 1735.41,-84.8 1621.59,-84.8 1621.59,-48.8 1762.41,-48.8 1762.41,-84.8"/>
<text text-anchor="middle" x="1692" y="-62.6" font-family="Times,serif" font-size="14.00">SharedFeatureModule</text>
</g>
<!-- SharedFeatureModule&#45;&gt;ProfileModule -->
<g id="edge12" class="edge">
<title>SharedFeatureModule&#45;&gt;ProfileModule</title>
<path fill="none" stroke="black" d="M1692,-84.83C1692,-101.86 1692,-124.8 1692,-124.8 1692,-124.8 1394.75,-124.8 1394.75,-124.8"/>
<polygon fill="black" stroke="black" points="1394.75,-121.3 1384.75,-124.8 1394.75,-128.3 1394.75,-121.3"/>
</g>
<!-- SharedModule -->
<g id="node14" class="node">
<title>SharedModule</title>
<polygon fill="#8dd3c7" stroke="black" points="1604.43,-84.8 1601.43,-88.8 1580.43,-88.8 1577.43,-84.8 1505.57,-84.8 1505.57,-48.8 1604.43,-48.8 1604.43,-84.8"/>
<text text-anchor="middle" x="1555" y="-62.6" font-family="Times,serif" font-size="14.00">SharedModule</text>
</g>
<!-- SharedModule&#45;&gt;ProfileModule -->
<g id="edge13" class="edge">
<title>SharedModule&#45;&gt;ProfileModule</title>
<path fill="none" stroke="black" d="M1555,-85.04C1555,-100.37 1555,-119.8 1555,-119.8 1555,-119.8 1394.88,-119.8 1394.88,-119.8"/>
<polygon fill="black" stroke="black" points="1394.88,-116.3 1384.88,-119.8 1394.88,-123.3 1394.88,-116.3"/>
</g>
<!-- TelemetryModule -->
<g id="node15" class="node">
<title>TelemetryModule</title>
<polygon fill="#8dd3c7" stroke="black" points="1487.58,-84.8 1484.58,-88.8 1463.58,-88.8 1460.58,-84.8 1370.42,-84.8 1370.42,-48.8 1487.58,-48.8 1487.58,-84.8"/>
<text text-anchor="middle" x="1429" y="-62.6" font-family="Times,serif" font-size="14.00">TelemetryModule</text>
</g>
<!-- TelemetryModule&#45;&gt;ProfileModule -->
<g id="edge14" class="edge">
<title>TelemetryModule&#45;&gt;ProfileModule</title>
<path fill="none" stroke="black" d="M1377.64,-84.91C1377.64,-84.91 1377.64,-103.79 1377.64,-103.79"/>
<polygon fill="black" stroke="black" points="1374.14,-103.79 1377.64,-113.79 1381.14,-103.79 1374.14,-103.79"/>
</g>
</g>
</svg>
