<?xml version="1.0" encoding="UTF-8" standalone="no"?>
<!DOCTYPE svg PUBLIC "-//W3C//DTD SVG 1.1//EN"
 "http://www.w3.org/Graphics/SVG/1.1/DTD/svg11.dtd">
<!-- Generated by graphviz version 5.0.0 (20220707.1540)
 -->
<!-- Title: dependencies Pages: 1 -->
<svg width="2347pt" height="174pt"
 viewBox="0.00 0.00 2347.00 173.80" xmlns="http://www.w3.org/2000/svg" xmlns:xlink="http://www.w3.org/1999/xlink">
<g id="graph0" class="graph" transform="scale(1 1) rotate(0) translate(4 169.8)">
<title>dependencies</title>
<polygon fill="white" stroke="transparent" points="-4,4 -4,-169.8 2343,-169.8 2343,4 -4,4"/>
<text text-anchor="middle" x="1169.5" y="-8.2" font-family="sans-serif" font-size="14.00">dependencies</text>
<g id="clust1" class="cluster">
<title>cluster_ProfileModule</title>
<polygon fill="none" stroke="black" stroke-dasharray="1,5" points="8,-32.8 8,-157.8 2331,-157.8 2331,-32.8 8,-32.8"/>
</g>
<g id="clust2" class="cluster">
<title>cluster_ProfileModule_declarations</title>
<polygon fill="none" stroke="black" points="985,-40.8 985,-92.8 2323,-92.8 2323,-40.8 985,-40.8"/>
</g>
<g id="clust10" class="cluster">
<title>cluster_ProfileModule_imports</title>
<polygon fill="none" stroke="black" points="16,-40.8 16,-92.8 977,-92.8 977,-40.8 16,-40.8"/>
</g>
<!-- AccountRecoveryInfoComponent -->
<g id="node1" class="node">
<title>AccountRecoveryInfoComponent</title>
<polygon fill="#ffffb3" stroke="black" points="2314.72,-84.8 2109.28,-84.8 2109.28,-48.8 2314.72,-48.8 2314.72,-84.8"/>
<text text-anchor="middle" x="2212" y="-62.6" font-family="Times,serif" font-size="14.00">AccountRecoveryInfoComponent</text>
</g>
<!-- ProfileModule -->
<g id="node8" class="node">
<title>ProfileModule</title>
<polygon fill="#8dd3c7" stroke="black" points="1044.66,-149.8 1041.66,-153.8 1020.66,-153.8 1017.66,-149.8 947.34,-149.8 947.34,-113.8 1044.66,-113.8 1044.66,-149.8"/>
<text text-anchor="middle" x="996" y="-127.6" font-family="Times,serif" font-size="14.00">ProfileModule</text>
</g>
<!-- AccountRecoveryInfoComponent&#45;&gt;ProfileModule -->
<g id="edge1" class="edge">
<title>AccountRecoveryInfoComponent&#45;&gt;ProfileModule</title>
<path fill="none" stroke="black" d="M2212,-84.89C2212,-107.93 2212,-144.8 2212,-144.8 2212,-144.8 1054.8,-144.8 1054.8,-144.8"/>
<polygon fill="black" stroke="black" points="1054.8,-141.3 1044.8,-144.8 1054.8,-148.3 1054.8,-141.3"/>
</g>
<!-- ChooseUserComponent -->
<g id="node2" class="node">
<title>ChooseUserComponent</title>
<polygon fill="#ffffb3" stroke="black" points="2090.77,-84.8 1941.23,-84.8 1941.23,-48.8 2090.77,-48.8 2090.77,-84.8"/>
<text text-anchor="middle" x="2016" y="-62.6" font-family="Times,serif" font-size="14.00">ChooseUserComponent</text>
</g>
<!-- ChooseUserComponent&#45;&gt;ProfileModule -->
<g id="edge2" class="edge">
<title>ChooseUserComponent&#45;&gt;ProfileModule</title>
<path fill="none" stroke="black" d="M2016,-84.84C2016,-106.46 2016,-139.8 2016,-139.8 2016,-139.8 1054.85,-139.8 1054.85,-139.8"/>
<polygon fill="black" stroke="black" points="1054.85,-136.3 1044.85,-139.8 1054.85,-143.3 1054.85,-136.3"/>
</g>
<!-- CreateUserComponent -->
<g id="node3" class="node">
<title>CreateUserComponent</title>
<polygon fill="#ffffb3" stroke="black" points="1923.3,-84.8 1778.7,-84.8 1778.7,-48.8 1923.3,-48.8 1923.3,-84.8"/>
<text text-anchor="middle" x="1851" y="-62.6" font-family="Times,serif" font-size="14.00">CreateUserComponent</text>
</g>
<!-- CreateUserComponent&#45;&gt;ProfileModule -->
<g id="edge3" class="edge">
<title>CreateUserComponent&#45;&gt;ProfileModule</title>
<path fill="none" stroke="black" d="M1851,-85.02C1851,-105.17 1851,-134.8 1851,-134.8 1851,-134.8 1054.73,-134.8 1054.73,-134.8"/>
<polygon fill="black" stroke="black" points="1054.73,-131.3 1044.73,-134.8 1054.73,-138.3 1054.73,-131.3"/>
</g>
<!-- ProfileBadgeComponent -->
<g id="node4" class="node">
<title>ProfileBadgeComponent</title>
<polygon fill="#ffffb3" stroke="black" points="1760.7,-84.8 1605.3,-84.8 1605.3,-48.8 1760.7,-48.8 1760.7,-84.8"/>
<text text-anchor="middle" x="1683" y="-62.6" font-family="Times,serif" font-size="14.00">ProfileBadgeComponent</text>
</g>
<!-- ProfileBadgeComponent&#45;&gt;ProfileModule -->
<g id="edge4" class="edge">
<title>ProfileBadgeComponent&#45;&gt;ProfileModule</title>
<path fill="none" stroke="black" d="M1683,-85.02C1683,-103.63 1683,-129.8 1683,-129.8 1683,-129.8 1054.86,-129.8 1054.86,-129.8"/>
<polygon fill="black" stroke="black" points="1054.86,-126.3 1044.86,-129.8 1054.86,-133.3 1054.86,-126.3"/>
</g>
<!-- ProfilePageComponent -->
<g id="node5" class="node">
<title>ProfilePageComponent</title>
<polygon fill="#ffffb3" stroke="black" points="1587.15,-84.8 1440.85,-84.8 1440.85,-48.8 1587.15,-48.8 1587.15,-84.8"/>
<text text-anchor="middle" x="1514" y="-62.6" font-family="Times,serif" font-size="14.00">ProfilePageComponent</text>
</g>
<!-- ProfilePageComponent&#45;&gt;ProfileModule -->
<g id="edge5" class="edge">
<title>ProfilePageComponent&#45;&gt;ProfileModule</title>
<path fill="none" stroke="black" d="M1514,-84.83C1514,-101.86 1514,-124.8 1514,-124.8 1514,-124.8 1054.73,-124.8 1054.73,-124.8"/>
<polygon fill="black" stroke="black" points="1054.73,-121.3 1044.73,-124.8 1054.73,-128.3 1054.73,-121.3"/>
</g>
<!-- SubmitTeacherDetailsComponent -->
<g id="node6" class="node">
<title>SubmitTeacherDetailsComponent</title>
<polygon fill="#ffffb3" stroke="black" points="1422.01,-84.8 1215.99,-84.8 1215.99,-48.8 1422.01,-48.8 1422.01,-84.8"/>
<text text-anchor="middle" x="1319" y="-62.6" font-family="Times,serif" font-size="14.00">SubmitTeacherDetailsComponent</text>
</g>
<!-- SubmitTeacherDetailsComponent&#45;&gt;ProfileModule -->
<g id="edge6" class="edge">
<title>SubmitTeacherDetailsComponent&#45;&gt;ProfileModule</title>
<path fill="none" stroke="black" d="M1319,-85.04C1319,-100.37 1319,-119.8 1319,-119.8 1319,-119.8 1054.71,-119.8 1054.71,-119.8"/>
<polygon fill="black" stroke="black" points="1054.71,-116.3 1044.71,-119.8 1054.71,-123.3 1054.71,-116.3"/>
</g>
<!-- UpdateContactDetailsComponent -->
<g id="node7" class="node">
<title>UpdateContactDetailsComponent</title>
<polygon fill="#ffffb3" stroke="black" points="1197.46,-84.8 992.54,-84.8 992.54,-48.8 1197.46,-48.8 1197.46,-84.8"/>
<text text-anchor="middle" x="1095" y="-62.6" font-family="Times,serif" font-size="14.00">UpdateContactDetailsComponent</text>
</g>
<!-- UpdateContactDetailsComponent&#45;&gt;ProfileModule -->
<g id="edge7" class="edge">
<title>UpdateContactDetailsComponent&#45;&gt;ProfileModule</title>
<path fill="none" stroke="black" d="M1018.67,-84.91C1018.67,-84.91 1018.67,-103.79 1018.67,-103.79"/>
<polygon fill="black" stroke="black" points="1015.17,-103.79 1018.67,-113.79 1022.17,-103.79 1015.17,-103.79"/>
</g>
<!-- ContentSearchModule -->
<g id="node9" class="node">
<title>ContentSearchModule</title>
<polygon fill="#8dd3c7" stroke="black" points="968.97,-84.8 965.97,-88.8 944.97,-88.8 941.97,-84.8 827.03,-84.8 827.03,-48.8 968.97,-48.8 968.97,-84.8"/>
<text text-anchor="middle" x="898" y="-62.6" font-family="Times,serif" font-size="14.00">ContentSearchModule</text>
</g>
<!-- ContentSearchModule&#45;&gt;ProfileModule -->
<g id="edge8" class="edge">
<title>ContentSearchModule&#45;&gt;ProfileModule</title>
<path fill="none" stroke="black" d="M958.08,-84.91C958.08,-84.91 958.08,-103.79 958.08,-103.79"/>
<polygon fill="black" stroke="black" points="954.58,-103.79 958.08,-113.79 961.58,-103.79 954.58,-103.79"/>
</g>
<!-- CoreModule -->
<g id="node10" class="node">
<title>CoreModule</title>
<polygon fill="#8dd3c7" stroke="black" points="809.27,-84.8 806.27,-88.8 785.27,-88.8 782.27,-84.8 722.73,-84.8 722.73,-48.8 809.27,-48.8 809.27,-84.8"/>
<text text-anchor="middle" x="766" y="-62.6" font-family="Times,serif" font-size="14.00">CoreModule</text>
</g>
<!-- CoreModule&#45;&gt;ProfileModule -->
<g id="edge9" class="edge">
<title>CoreModule&#45;&gt;ProfileModule</title>
<path fill="none" stroke="black" d="M766,-85.04C766,-100.37 766,-119.8 766,-119.8 766,-119.8 937.22,-119.8 937.22,-119.8"/>
<polygon fill="black" stroke="black" points="937.22,-123.3 947.22,-119.8 937.22,-116.3 937.22,-123.3"/>
</g>
<!-- LocationModule -->
<g id="node11" class="node">
<title>LocationModule</title>
<polygon fill="#8dd3c7" stroke="black" points="704.81,-84.8 701.81,-88.8 680.81,-88.8 677.81,-84.8 595.19,-84.8 595.19,-48.8 704.81,-48.8 704.81,-84.8"/>
<text text-anchor="middle" x="650" y="-62.6" font-family="Times,serif" font-size="14.00">LocationModule</text>
</g>
<!-- LocationModule&#45;&gt;ProfileModule -->
<g id="edge10" class="edge">
<title>LocationModule&#45;&gt;ProfileModule</title>
<path fill="none" stroke="black" d="M650,-84.83C650,-101.86 650,-124.8 650,-124.8 650,-124.8 937.16,-124.8 937.16,-124.8"/>
<polygon fill="black" stroke="black" points="937.16,-128.3 947.16,-124.8 937.16,-121.3 937.16,-128.3"/>
</g>
<!-- ProfileRoutingModule -->
<g id="node12" class="node">
<title>ProfileRoutingModule</title>
<polygon fill="#8dd3c7" stroke="black" points="577.27,-84.8 574.27,-88.8 553.27,-88.8 550.27,-84.8 434.73,-84.8 434.73,-48.8 577.27,-48.8 577.27,-84.8"/>
<text text-anchor="middle" x="506" y="-62.6" font-family="Times,serif" font-size="14.00">ProfileRoutingModule</text>
</g>
<!-- ProfileRoutingModule&#45;&gt;ProfileModule -->
<g id="edge11" class="edge">
<title>ProfileRoutingModule&#45;&gt;ProfileModule</title>
<path fill="none" stroke="black" d="M506,-85.02C506,-103.63 506,-129.8 506,-129.8 506,-129.8 937.23,-129.8 937.23,-129.8"/>
<polygon fill="black" stroke="black" points="937.23,-133.3 947.23,-129.8 937.23,-126.3 937.23,-133.3"/>
</g>
<!-- SharedFeatureModule -->
<g id="node13" class="node">
<title>SharedFeatureModule</title>
<polygon fill="#8dd3c7" stroke="black" points="416.41,-84.8 413.41,-88.8 392.41,-88.8 389.41,-84.8 275.59,-84.8 275.59,-48.8 416.41,-48.8 416.41,-84.8"/>
<text text-anchor="middle" x="346" y="-62.6" font-family="Times,serif" font-size="14.00">SharedFeatureModule</text>
</g>
<!-- SharedFeatureModule&#45;&gt;ProfileModule -->
<g id="edge12" class="edge">
<title>SharedFeatureModule&#45;&gt;ProfileModule</title>
<path fill="none" stroke="black" d="M346,-85.02C346,-105.17 346,-134.8 346,-134.8 346,-134.8 937.14,-134.8 937.14,-134.8"/>
<polygon fill="black" stroke="black" points="937.14,-138.3 947.14,-134.8 937.14,-131.3 937.14,-138.3"/>
</g>
<!-- SharedModule -->
<g id="node14" class="node">
<title>SharedModule</title>
<polygon fill="#8dd3c7" stroke="black" points="258.43,-84.8 255.43,-88.8 234.43,-88.8 231.43,-84.8 159.57,-84.8 159.57,-48.8 258.43,-48.8 258.43,-84.8"/>
<text text-anchor="middle" x="209" y="-62.6" font-family="Times,serif" font-size="14.00">SharedModule</text>
</g>
<!-- SharedModule&#45;&gt;ProfileModule -->
<g id="edge13" class="edge">
<title>SharedModule&#45;&gt;ProfileModule</title>
<path fill="none" stroke="black" d="M209,-84.84C209,-106.46 209,-139.8 209,-139.8 209,-139.8 937.07,-139.8 937.07,-139.8"/>
<polygon fill="black" stroke="black" points="937.07,-143.3 947.07,-139.8 937.07,-136.3 937.07,-143.3"/>
</g>
<!-- TelemetryModule -->
<g id="node15" class="node">
<title>TelemetryModule</title>
<polygon fill="#8dd3c7" stroke="black" points="141.58,-84.8 138.58,-88.8 117.58,-88.8 114.58,-84.8 24.42,-84.8 24.42,-48.8 141.58,-48.8 141.58,-84.8"/>
<text text-anchor="middle" x="83" y="-62.6" font-family="Times,serif" font-size="14.00">TelemetryModule</text>
</g>
<!-- TelemetryModule&#45;&gt;ProfileModule -->
<g id="edge14" class="edge">
<title>TelemetryModule&#45;&gt;ProfileModule</title>
<path fill="none" stroke="black" d="M83,-84.89C83,-107.93 83,-144.8 83,-144.8 83,-144.8 937.24,-144.8 937.24,-144.8"/>
<polygon fill="black" stroke="black" points="937.24,-148.3 947.24,-144.8 937.24,-141.3 937.24,-148.3"/>
</g>
</g>
</svg>
