<?xml version="1.0" encoding="UTF-8" standalone="no"?>
<!DOCTYPE svg PUBLIC "-//W3C//DTD SVG 1.1//EN"
 "http://www.w3.org/Graphics/SVG/1.1/DTD/svg11.dtd">
<!-- Generated by graphviz version 5.0.0 (20220707.1540)
 -->
<!-- Title: dependencies Pages: 1 -->
<svg width="2591pt" height="174pt"
 viewBox="0.00 0.00 2591.00 173.80" xmlns="http://www.w3.org/2000/svg" xmlns:xlink="http://www.w3.org/1999/xlink">
<g id="graph0" class="graph" transform="scale(1 1) rotate(0) translate(4 169.8)">
<title>dependencies</title>
<polygon fill="white" stroke="transparent" points="-4,4 -4,-169.8 2587,-169.8 2587,4 -4,4"/>
<text text-anchor="middle" x="1291.5" y="-8.2" font-family="sans-serif" font-size="14.00">dependencies</text>
<g id="clust1" class="cluster">
<title>cluster_CourseModule</title>
<polygon fill="none" stroke="black" stroke-dasharray="1,5" points="8,-32.8 8,-157.8 2575,-157.8 2575,-32.8 8,-32.8"/>
</g>
<g id="clust2" class="cluster">
<title>cluster_CourseModule_declarations</title>
<polygon fill="none" stroke="black" points="1691,-40.8 1691,-92.8 2567,-92.8 2567,-40.8 1691,-40.8"/>
</g>
<g id="clust7" class="cluster">
<title>cluster_CourseModule_imports</title>
<polygon fill="none" stroke="black" points="696,-40.8 696,-92.8 1683,-92.8 1683,-40.8 696,-40.8"/>
</g>
<g id="clust10" class="cluster">
<title>cluster_CourseModule_providers</title>
<polygon fill="none" stroke="black" points="16,-40.8 16,-92.8 688,-92.8 688,-40.8 16,-40.8"/>
</g>
<!-- ExploreCourseComponent -->
<g id="node1" class="node">
<title>ExploreCourseComponent</title>
<polygon fill="#ffffb3" stroke="black" points="2558.81,-84.8 2393.19,-84.8 2393.19,-48.8 2558.81,-48.8 2558.81,-84.8"/>
<text text-anchor="middle" x="2476" y="-62.6" font-family="Times,serif" font-size="14.00">ExploreCourseComponent</text>
</g>
<!-- CourseModule -->
<g id="node5" class="node">
<title>CourseModule</title>
<polygon fill="#8dd3c7" stroke="black" points="1308.71,-149.8 1305.71,-153.8 1284.71,-153.8 1281.71,-149.8 1209.29,-149.8 1209.29,-113.8 1308.71,-113.8 1308.71,-149.8"/>
<text text-anchor="middle" x="1259" y="-127.6" font-family="Times,serif" font-size="14.00">CourseModule</text>
</g>
<!-- ExploreCourseComponent&#45;&gt;CourseModule -->
<g id="edge1" class="edge">
<title>ExploreCourseComponent&#45;&gt;CourseModule</title>
<path fill="none" stroke="black" d="M2476,-84.89C2476,-107.93 2476,-144.8 2476,-144.8 2476,-144.8 1318.98,-144.8 1318.98,-144.8"/>
<polygon fill="black" stroke="black" points="1318.98,-141.3 1308.98,-144.8 1318.98,-148.3 1318.98,-141.3"/>
</g>
<!-- PublicBatchDetailsComponent -->
<g id="node2" class="node">
<title>PublicBatchDetailsComponent</title>
<polygon fill="#ffffb3" stroke="black" points="2375.92,-84.8 2186.08,-84.8 2186.08,-48.8 2375.92,-48.8 2375.92,-84.8"/>
<text text-anchor="middle" x="2281" y="-62.6" font-family="Times,serif" font-size="14.00">PublicBatchDetailsComponent</text>
</g>
<!-- PublicBatchDetailsComponent&#45;&gt;CourseModule -->
<g id="edge2" class="edge">
<title>PublicBatchDetailsComponent&#45;&gt;CourseModule</title>
<path fill="none" stroke="black" d="M2281,-84.84C2281,-106.46 2281,-139.8 2281,-139.8 2281,-139.8 1318.64,-139.8 1318.64,-139.8"/>
<polygon fill="black" stroke="black" points="1318.64,-136.3 1308.64,-139.8 1318.64,-143.3 1318.64,-136.3"/>
</g>
<!-- PublicCourseConsumptionPageComponent -->
<g id="node3" class="node">
<title>PublicCourseConsumptionPageComponent</title>
<polygon fill="#ffffb3" stroke="black" points="2168.94,-84.8 1909.06,-84.8 1909.06,-48.8 2168.94,-48.8 2168.94,-84.8"/>
<text text-anchor="middle" x="2039" y="-62.6" font-family="Times,serif" font-size="14.00">PublicCourseConsumptionPageComponent</text>
</g>
<!-- PublicCourseConsumptionPageComponent&#45;&gt;CourseModule -->
<g id="edge3" class="edge">
<title>PublicCourseConsumptionPageComponent&#45;&gt;CourseModule</title>
<path fill="none" stroke="black" d="M2039,-85.02C2039,-105.17 2039,-134.8 2039,-134.8 2039,-134.8 1318.68,-134.8 1318.68,-134.8"/>
<polygon fill="black" stroke="black" points="1318.68,-131.3 1308.68,-134.8 1318.68,-138.3 1318.68,-131.3"/>
</g>
<!-- PublicCoursePlayerComponent -->
<g id="node4" class="node">
<title>PublicCoursePlayerComponent</title>
<polygon fill="#ffffb3" stroke="black" points="1891.04,-84.8 1698.96,-84.8 1698.96,-48.8 1891.04,-48.8 1891.04,-84.8"/>
<text text-anchor="middle" x="1795" y="-62.6" font-family="Times,serif" font-size="14.00">PublicCoursePlayerComponent</text>
</g>
<!-- PublicCoursePlayerComponent&#45;&gt;CourseModule -->
<g id="edge4" class="edge">
<title>PublicCoursePlayerComponent&#45;&gt;CourseModule</title>
<path fill="none" stroke="black" d="M1795,-85.02C1795,-103.63 1795,-129.8 1795,-129.8 1795,-129.8 1318.94,-129.8 1318.94,-129.8"/>
<polygon fill="black" stroke="black" points="1318.94,-126.3 1308.94,-129.8 1318.94,-133.3 1318.94,-126.3"/>
</g>
<!-- ContentSearchModule -->
<g id="node6" class="node">
<title>ContentSearchModule</title>
<polygon fill="#8dd3c7" stroke="black" points="1674.97,-84.8 1671.97,-88.8 1650.97,-88.8 1647.97,-84.8 1533.03,-84.8 1533.03,-48.8 1674.97,-48.8 1674.97,-84.8"/>
<text text-anchor="middle" x="1604" y="-62.6" font-family="Times,serif" font-size="14.00">ContentSearchModule</text>
</g>
<!-- ContentSearchModule&#45;&gt;CourseModule -->
<g id="edge5" class="edge">
<title>ContentSearchModule&#45;&gt;CourseModule</title>
<path fill="none" stroke="black" d="M1604,-84.83C1604,-101.86 1604,-124.8 1604,-124.8 1604,-124.8 1318.8,-124.8 1318.8,-124.8"/>
<polygon fill="black" stroke="black" points="1318.8,-121.3 1308.8,-124.8 1318.8,-128.3 1318.8,-121.3"/>
</g>
<!-- CoreModule -->
<g id="node7" class="node">
<title>CoreModule</title>
<polygon fill="#8dd3c7" stroke="black" points="1515.27,-84.8 1512.27,-88.8 1491.27,-88.8 1488.27,-84.8 1428.73,-84.8 1428.73,-48.8 1515.27,-48.8 1515.27,-84.8"/>
<text text-anchor="middle" x="1472" y="-62.6" font-family="Times,serif" font-size="14.00">CoreModule</text>
</g>
<!-- CoreModule&#45;&gt;CourseModule -->
<g id="edge6" class="edge">
<title>CoreModule&#45;&gt;CourseModule</title>
<path fill="none" stroke="black" d="M1472,-85.04C1472,-100.37 1472,-119.8 1472,-119.8 1472,-119.8 1318.67,-119.8 1318.67,-119.8"/>
<polygon fill="black" stroke="black" points="1318.67,-116.3 1308.67,-119.8 1318.67,-123.3 1318.67,-116.3"/>
</g>
<!-- CourseRoutingModule -->
<g id="node8" class="node">
<title>CourseRoutingModule</title>
<polygon fill="#8dd3c7" stroke="black" points="1410.33,-84.8 1407.33,-88.8 1386.33,-88.8 1383.33,-84.8 1265.67,-84.8 1265.67,-48.8 1410.33,-48.8 1410.33,-84.8"/>
<text text-anchor="middle" x="1338" y="-62.6" font-family="Times,serif" font-size="14.00">CourseRoutingModule</text>
</g>
<!-- CourseRoutingModule&#45;&gt;CourseModule -->
<g id="edge7" class="edge">
<title>CourseRoutingModule&#45;&gt;CourseModule</title>
<path fill="none" stroke="black" d="M1287.22,-84.91C1287.22,-84.91 1287.22,-103.79 1287.22,-103.79"/>
<polygon fill="black" stroke="black" points="1283.72,-103.79 1287.22,-113.79 1290.72,-103.79 1283.72,-103.79"/>
</g>
<!-- PlayerHelperModule -->
<g id="node9" class="node">
<title>PlayerHelperModule</title>
<polygon fill="#8dd3c7" stroke="black" points="1247.91,-84.8 1244.91,-88.8 1223.91,-88.8 1220.91,-84.8 1114.09,-84.8 1114.09,-48.8 1247.91,-48.8 1247.91,-84.8"/>
<text text-anchor="middle" x="1181" y="-62.6" font-family="Times,serif" font-size="14.00">PlayerHelperModule</text>
</g>
<!-- PlayerHelperModule&#45;&gt;CourseModule -->
<g id="edge8" class="edge">
<title>PlayerHelperModule&#45;&gt;CourseModule</title>
<path fill="none" stroke="black" d="M1228.55,-84.91C1228.55,-84.91 1228.55,-103.79 1228.55,-103.79"/>
<polygon fill="black" stroke="black" points="1225.05,-103.79 1228.55,-113.79 1232.05,-103.79 1225.05,-103.79"/>
</g>
<!-- SharedFeatureModule -->
<g id="node10" class="node">
<title>SharedFeatureModule</title>
<polygon fill="#8dd3c7" stroke="black" points="1096.41,-84.8 1093.41,-88.8 1072.41,-88.8 1069.41,-84.8 955.59,-84.8 955.59,-48.8 1096.41,-48.8 1096.41,-84.8"/>
<text text-anchor="middle" x="1026" y="-62.6" font-family="Times,serif" font-size="14.00">SharedFeatureModule</text>
</g>
<!-- SharedFeatureModule&#45;&gt;CourseModule -->
<g id="edge9" class="edge">
<title>SharedFeatureModule&#45;&gt;CourseModule</title>
<path fill="none" stroke="black" d="M1026,-85.04C1026,-100.37 1026,-119.8 1026,-119.8 1026,-119.8 1199.3,-119.8 1199.3,-119.8"/>
<polygon fill="black" stroke="black" points="1199.3,-123.3 1209.3,-119.8 1199.3,-116.3 1199.3,-123.3"/>
</g>
<!-- SharedModule -->
<g id="node11" class="node">
<title>SharedModule</title>
<polygon fill="#8dd3c7" stroke="black" points="938.43,-84.8 935.43,-88.8 914.43,-88.8 911.43,-84.8 839.57,-84.8 839.57,-48.8 938.43,-48.8 938.43,-84.8"/>
<text text-anchor="middle" x="889" y="-62.6" font-family="Times,serif" font-size="14.00">SharedModule</text>
</g>
<!-- SharedModule&#45;&gt;CourseModule -->
<g id="edge10" class="edge">
<title>SharedModule&#45;&gt;CourseModule</title>
<path fill="none" stroke="black" d="M889,-84.83C889,-101.86 889,-124.8 889,-124.8 889,-124.8 1199.1,-124.8 1199.1,-124.8"/>
<polygon fill="black" stroke="black" points="1199.1,-128.3 1209.1,-124.8 1199.1,-121.3 1199.1,-128.3"/>
</g>
<!-- TelemetryModule -->
<g id="node12" class="node">
<title>TelemetryModule</title>
<polygon fill="#8dd3c7" stroke="black" points="821.58,-84.8 818.58,-88.8 797.58,-88.8 794.58,-84.8 704.42,-84.8 704.42,-48.8 821.58,-48.8 821.58,-84.8"/>
<text text-anchor="middle" x="763" y="-62.6" font-family="Times,serif" font-size="14.00">TelemetryModule</text>
</g>
<!-- TelemetryModule&#45;&gt;CourseModule -->
<g id="edge11" class="edge">
<title>TelemetryModule&#45;&gt;CourseModule</title>
<path fill="none" stroke="black" d="M763,-85.02C763,-103.63 763,-129.8 763,-129.8 763,-129.8 1199.17,-129.8 1199.17,-129.8"/>
<polygon fill="black" stroke="black" points="1199.17,-133.3 1209.17,-129.8 1199.17,-126.3 1199.17,-133.3"/>
</g>
<!-- CourseBatchService -->
<g id="node13" class="node">
<title>CourseBatchService</title>
<ellipse fill="#fdb462" stroke="black" cx="590" cy="-66.8" rx="89.75" ry="18"/>
<text text-anchor="middle" x="590" y="-62.6" font-family="Times,serif" font-size="14.00">CourseBatchService</text>
</g>
<!-- CourseBatchService&#45;&gt;CourseModule -->
<g id="edge12" class="edge">
<title>CourseBatchService&#45;&gt;CourseModule</title>
<path fill="none" stroke="black" d="M590,-85.02C590,-105.17 590,-134.8 590,-134.8 590,-134.8 1199.26,-134.8 1199.26,-134.8"/>
<polygon fill="black" stroke="black" points="1199.26,-138.3 1209.26,-134.8 1199.26,-131.3 1199.26,-138.3"/>
</g>
<!-- CourseConsumptionService -->
<g id="node14" class="node">
<title>CourseConsumptionService</title>
<ellipse fill="#fdb462" stroke="black" cx="363" cy="-66.8" rx="119.3" ry="18"/>
<text text-anchor="middle" x="363" y="-62.6" font-family="Times,serif" font-size="14.00">CourseConsumptionService</text>
</g>
<!-- CourseConsumptionService&#45;&gt;CourseModule -->
<g id="edge13" class="edge">
<title>CourseConsumptionService&#45;&gt;CourseModule</title>
<path fill="none" stroke="black" d="M363,-84.84C363,-106.46 363,-139.8 363,-139.8 363,-139.8 1199.23,-139.8 1199.23,-139.8"/>
<polygon fill="black" stroke="black" points="1199.23,-143.3 1209.23,-139.8 1199.23,-136.3 1199.23,-143.3"/>
</g>
<!-- CourseProgressService -->
<g id="node15" class="node">
<title>CourseProgressService</title>
<ellipse fill="#fdb462" stroke="black" cx="125" cy="-66.8" rx="100.73" ry="18"/>
<text text-anchor="middle" x="125" y="-62.6" font-family="Times,serif" font-size="14.00">CourseProgressService</text>
</g>
<!-- CourseProgressService&#45;&gt;CourseModule -->
<g id="edge14" class="edge">
<title>CourseProgressService&#45;&gt;CourseModule</title>
<path fill="none" stroke="black" d="M125,-84.89C125,-107.93 125,-144.8 125,-144.8 125,-144.8 1199.18,-144.8 1199.18,-144.8"/>
<polygon fill="black" stroke="black" points="1199.18,-148.3 1209.18,-144.8 1199.18,-141.3 1199.18,-148.3"/>
</g>
</g>
</svg>
