<?xml version="1.0" encoding="UTF-8" standalone="no"?>
<!DOCTYPE svg PUBLIC "-//W3C//DTD SVG 1.1//EN"
 "http://www.w3.org/Graphics/SVG/1.1/DTD/svg11.dtd">
<!-- Generated by graphviz version 5.0.0 (20220707.1540)
 -->
<!-- Title: dependencies Pages: 1 -->
<svg width="2591pt" height="174pt"
 viewBox="0.00 0.00 2591.00 173.80" xmlns="http://www.w3.org/2000/svg" xmlns:xlink="http://www.w3.org/1999/xlink">
<g id="graph0" class="graph" transform="scale(1 1) rotate(0) translate(4 169.8)">
<title>dependencies</title>
<polygon fill="white" stroke="transparent" points="-4,4 -4,-169.8 2587,-169.8 2587,4 -4,4"/>
<text text-anchor="middle" x="1291.5" y="-8.2" font-family="sans-serif" font-size="14.00">dependencies</text>
<g id="clust1" class="cluster">
<title>cluster_CourseModule</title>
<polygon fill="none" stroke="black" stroke-dasharray="1,5" points="8,-32.8 8,-157.8 2575,-157.8 2575,-32.8 8,-32.8"/>
</g>
<g id="clust7" class="cluster">
<title>cluster_CourseModule_imports</title>
<polygon fill="none" stroke="black" points="1580,-40.8 1580,-92.8 2567,-92.8 2567,-40.8 1580,-40.8"/>
</g>
<g id="clust2" class="cluster">
<title>cluster_CourseModule_declarations</title>
<polygon fill="none" stroke="black" points="696,-40.8 696,-92.8 1572,-92.8 1572,-40.8 696,-40.8"/>
</g>
<g id="clust10" class="cluster">
<title>cluster_CourseModule_providers</title>
<polygon fill="none" stroke="black" points="16,-40.8 16,-92.8 688,-92.8 688,-40.8 16,-40.8"/>
</g>
<!-- ExploreCourseComponent -->
<g id="node1" class="node">
<title>ExploreCourseComponent</title>
<polygon fill="#ffffb3" stroke="black" points="1563.81,-84.8 1398.19,-84.8 1398.19,-48.8 1563.81,-48.8 1563.81,-84.8"/>
<text text-anchor="middle" x="1481" y="-62.6" font-family="Times,serif" font-size="14.00">ExploreCourseComponent</text>
</g>
<!-- CourseModule -->
<g id="node5" class="node">
<title>CourseModule</title>
<polygon fill="#8dd3c7" stroke="black" points="1613.71,-149.8 1610.71,-153.8 1589.71,-153.8 1586.71,-149.8 1514.29,-149.8 1514.29,-113.8 1613.71,-113.8 1613.71,-149.8"/>
<text text-anchor="middle" x="1564" y="-127.6" font-family="Times,serif" font-size="14.00">CourseModule</text>
</g>
<!-- ExploreCourseComponent&#45;&gt;CourseModule -->
<g id="edge1" class="edge">
<title>ExploreCourseComponent&#45;&gt;CourseModule</title>
<path fill="none" stroke="black" d="M1539.02,-84.91C1539.02,-84.91 1539.02,-103.79 1539.02,-103.79"/>
<polygon fill="black" stroke="black" points="1535.52,-103.79 1539.02,-113.79 1542.52,-103.79 1535.52,-103.79"/>
</g>
<!-- PublicBatchDetailsComponent -->
<g id="node2" class="node">
<title>PublicBatchDetailsComponent</title>
<polygon fill="#ffffb3" stroke="black" points="1380.92,-84.8 1191.08,-84.8 1191.08,-48.8 1380.92,-48.8 1380.92,-84.8"/>
<text text-anchor="middle" x="1286" y="-62.6" font-family="Times,serif" font-size="14.00">PublicBatchDetailsComponent</text>
</g>
<!-- PublicBatchDetailsComponent&#45;&gt;CourseModule -->
<g id="edge2" class="edge">
<title>PublicBatchDetailsComponent&#45;&gt;CourseModule</title>
<path fill="none" stroke="black" d="M1286,-85.04C1286,-100.37 1286,-119.8 1286,-119.8 1286,-119.8 1504.3,-119.8 1504.3,-119.8"/>
<polygon fill="black" stroke="black" points="1504.3,-123.3 1514.3,-119.8 1504.3,-116.3 1504.3,-123.3"/>
</g>
<!-- PublicCourseConsumptionPageComponent -->
<g id="node3" class="node">
<title>PublicCourseConsumptionPageComponent</title>
<polygon fill="#ffffb3" stroke="black" points="1173.94,-84.8 914.06,-84.8 914.06,-48.8 1173.94,-48.8 1173.94,-84.8"/>
<text text-anchor="middle" x="1044" y="-62.6" font-family="Times,serif" font-size="14.00">PublicCourseConsumptionPageComponent</text>
</g>
<!-- PublicCourseConsumptionPageComponent&#45;&gt;CourseModule -->
<g id="edge3" class="edge">
<title>PublicCourseConsumptionPageComponent&#45;&gt;CourseModule</title>
<path fill="none" stroke="black" d="M1044,-84.83C1044,-101.86 1044,-124.8 1044,-124.8 1044,-124.8 1504.14,-124.8 1504.14,-124.8"/>
<polygon fill="black" stroke="black" points="1504.14,-128.3 1514.14,-124.8 1504.14,-121.3 1504.14,-128.3"/>
</g>
<!-- PublicCoursePlayerComponent -->
<g id="node4" class="node">
<title>PublicCoursePlayerComponent</title>
<polygon fill="#ffffb3" stroke="black" points="896.04,-84.8 703.96,-84.8 703.96,-48.8 896.04,-48.8 896.04,-84.8"/>
<text text-anchor="middle" x="800" y="-62.6" font-family="Times,serif" font-size="14.00">PublicCoursePlayerComponent</text>
</g>
<!-- PublicCoursePlayerComponent&#45;&gt;CourseModule -->
<g id="edge4" class="edge">
<title>PublicCoursePlayerComponent&#45;&gt;CourseModule</title>
<path fill="none" stroke="black" d="M800,-85.02C800,-103.63 800,-129.8 800,-129.8 800,-129.8 1504.17,-129.8 1504.17,-129.8"/>
<polygon fill="black" stroke="black" points="1504.17,-133.3 1514.17,-129.8 1504.17,-126.3 1504.17,-133.3"/>
</g>
<!-- ContentSearchModule -->
<g id="node6" class="node">
<title>ContentSearchModule</title>
<polygon fill="#8dd3c7" stroke="black" points="2558.97,-84.8 2555.97,-88.8 2534.97,-88.8 2531.97,-84.8 2417.03,-84.8 2417.03,-48.8 2558.97,-48.8 2558.97,-84.8"/>
<text text-anchor="middle" x="2488" y="-62.6" font-family="Times,serif" font-size="14.00">ContentSearchModule</text>
</g>
<!-- ContentSearchModule&#45;&gt;CourseModule -->
<g id="edge5" class="edge">
<title>ContentSearchModule&#45;&gt;CourseModule</title>
<path fill="none" stroke="black" d="M2488,-84.89C2488,-107.93 2488,-144.8 2488,-144.8 2488,-144.8 1623.68,-144.8 1623.68,-144.8"/>
<polygon fill="black" stroke="black" points="1623.68,-141.3 1613.68,-144.8 1623.68,-148.3 1623.68,-141.3"/>
</g>
<!-- CoreModule -->
<g id="node7" class="node">
<title>CoreModule</title>
<polygon fill="#8dd3c7" stroke="black" points="2399.27,-84.8 2396.27,-88.8 2375.27,-88.8 2372.27,-84.8 2312.73,-84.8 2312.73,-48.8 2399.27,-48.8 2399.27,-84.8"/>
<text text-anchor="middle" x="2356" y="-62.6" font-family="Times,serif" font-size="14.00">CoreModule</text>
</g>
<!-- CoreModule&#45;&gt;CourseModule -->
<g id="edge6" class="edge">
<title>CoreModule&#45;&gt;CourseModule</title>
<path fill="none" stroke="black" d="M2356,-84.84C2356,-106.46 2356,-139.8 2356,-139.8 2356,-139.8 1623.84,-139.8 1623.84,-139.8"/>
<polygon fill="black" stroke="black" points="1623.84,-136.3 1613.84,-139.8 1623.84,-143.3 1623.84,-136.3"/>
</g>
<!-- CourseRoutingModule -->
<g id="node8" class="node">
<title>CourseRoutingModule</title>
<polygon fill="#8dd3c7" stroke="black" points="2294.33,-84.8 2291.33,-88.8 2270.33,-88.8 2267.33,-84.8 2149.67,-84.8 2149.67,-48.8 2294.33,-48.8 2294.33,-84.8"/>
<text text-anchor="middle" x="2222" y="-62.6" font-family="Times,serif" font-size="14.00">CourseRoutingModule</text>
</g>
<!-- CourseRoutingModule&#45;&gt;CourseModule -->
<g id="edge7" class="edge">
<title>CourseRoutingModule&#45;&gt;CourseModule</title>
<path fill="none" stroke="black" d="M2222,-85.02C2222,-105.17 2222,-134.8 2222,-134.8 2222,-134.8 1623.73,-134.8 1623.73,-134.8"/>
<polygon fill="black" stroke="black" points="1623.73,-131.3 1613.73,-134.8 1623.73,-138.3 1623.73,-131.3"/>
</g>
<!-- PlayerHelperModule -->
<g id="node9" class="node">
<title>PlayerHelperModule</title>
<polygon fill="#8dd3c7" stroke="black" points="2131.91,-84.8 2128.91,-88.8 2107.91,-88.8 2104.91,-84.8 1998.09,-84.8 1998.09,-48.8 2131.91,-48.8 2131.91,-84.8"/>
<text text-anchor="middle" x="2065" y="-62.6" font-family="Times,serif" font-size="14.00">PlayerHelperModule</text>
</g>
<!-- PlayerHelperModule&#45;&gt;CourseModule -->
<g id="edge8" class="edge">
<title>PlayerHelperModule&#45;&gt;CourseModule</title>
<path fill="none" stroke="black" d="M2065,-85.02C2065,-103.63 2065,-129.8 2065,-129.8 2065,-129.8 1623.87,-129.8 1623.87,-129.8"/>
<polygon fill="black" stroke="black" points="1623.87,-126.3 1613.87,-129.8 1623.87,-133.3 1623.87,-126.3"/>
</g>
<!-- SharedFeatureModule -->
<g id="node10" class="node">
<title>SharedFeatureModule</title>
<polygon fill="#8dd3c7" stroke="black" points="1980.41,-84.8 1977.41,-88.8 1956.41,-88.8 1953.41,-84.8 1839.59,-84.8 1839.59,-48.8 1980.41,-48.8 1980.41,-84.8"/>
<text text-anchor="middle" x="1910" y="-62.6" font-family="Times,serif" font-size="14.00">SharedFeatureModule</text>
</g>
<!-- SharedFeatureModule&#45;&gt;CourseModule -->
<g id="edge9" class="edge">
<title>SharedFeatureModule&#45;&gt;CourseModule</title>
<path fill="none" stroke="black" d="M1910,-84.83C1910,-101.86 1910,-124.8 1910,-124.8 1910,-124.8 1623.94,-124.8 1623.94,-124.8"/>
<polygon fill="black" stroke="black" points="1623.94,-121.3 1613.94,-124.8 1623.94,-128.3 1623.94,-121.3"/>
</g>
<!-- SharedModule -->
<g id="node11" class="node">
<title>SharedModule</title>
<polygon fill="#8dd3c7" stroke="black" points="1822.43,-84.8 1819.43,-88.8 1798.43,-88.8 1795.43,-84.8 1723.57,-84.8 1723.57,-48.8 1822.43,-48.8 1822.43,-84.8"/>
<text text-anchor="middle" x="1773" y="-62.6" font-family="Times,serif" font-size="14.00">SharedModule</text>
</g>
<!-- SharedModule&#45;&gt;CourseModule -->
<g id="edge10" class="edge">
<title>SharedModule&#45;&gt;CourseModule</title>
<path fill="none" stroke="black" d="M1773,-85.04C1773,-100.37 1773,-119.8 1773,-119.8 1773,-119.8 1623.8,-119.8 1623.8,-119.8"/>
<polygon fill="black" stroke="black" points="1623.8,-116.3 1613.8,-119.8 1623.8,-123.3 1623.8,-116.3"/>
</g>
<!-- TelemetryModule -->
<g id="node12" class="node">
<title>TelemetryModule</title>
<polygon fill="#8dd3c7" stroke="black" points="1705.58,-84.8 1702.58,-88.8 1681.58,-88.8 1678.58,-84.8 1588.42,-84.8 1588.42,-48.8 1705.58,-48.8 1705.58,-84.8"/>
<text text-anchor="middle" x="1647" y="-62.6" font-family="Times,serif" font-size="14.00">TelemetryModule</text>
</g>
<!-- TelemetryModule&#45;&gt;CourseModule -->
<g id="edge11" class="edge">
<title>TelemetryModule&#45;&gt;CourseModule</title>
<path fill="none" stroke="black" d="M1601.03,-84.91C1601.03,-84.91 1601.03,-103.79 1601.03,-103.79"/>
<polygon fill="black" stroke="black" points="1597.53,-103.79 1601.03,-113.79 1604.53,-103.79 1597.53,-103.79"/>
</g>
<!-- CourseBatchService -->
<g id="node13" class="node">
<title>CourseBatchService</title>
<ellipse fill="#fdb462" stroke="black" cx="590" cy="-66.8" rx="89.75" ry="18"/>
<text text-anchor="middle" x="590" y="-62.6" font-family="Times,serif" font-size="14.00">CourseBatchService</text>
</g>
<!-- CourseBatchService&#45;&gt;CourseModule -->
<g id="edge12" class="edge">
<title>CourseBatchService&#45;&gt;CourseModule</title>
<path fill="none" stroke="black" d="M590,-85.02C590,-105.17 590,-134.8 590,-134.8 590,-134.8 1504.36,-134.8 1504.36,-134.8"/>
<polygon fill="black" stroke="black" points="1504.36,-138.3 1514.36,-134.8 1504.36,-131.3 1504.36,-138.3"/>
</g>
<!-- CourseConsumptionService -->
<g id="node14" class="node">
<title>CourseConsumptionService</title>
<ellipse fill="#fdb462" stroke="black" cx="363" cy="-66.8" rx="119.3" ry="18"/>
<text text-anchor="middle" x="363" y="-62.6" font-family="Times,serif" font-size="14.00">CourseConsumptionService</text>
</g>
<!-- CourseConsumptionService&#45;&gt;CourseModule -->
<g id="edge13" class="edge">
<title>CourseConsumptionService&#45;&gt;CourseModule</title>
<path fill="none" stroke="black" d="M363,-84.84C363,-106.46 363,-139.8 363,-139.8 363,-139.8 1504.3,-139.8 1504.3,-139.8"/>
<polygon fill="black" stroke="black" points="1504.3,-143.3 1514.3,-139.8 1504.3,-136.3 1504.3,-143.3"/>
</g>
<!-- CourseProgressService -->
<g id="node15" class="node">
<title>CourseProgressService</title>
<ellipse fill="#fdb462" stroke="black" cx="125" cy="-66.8" rx="100.73" ry="18"/>
<text text-anchor="middle" x="125" y="-62.6" font-family="Times,serif" font-size="14.00">CourseProgressService</text>
</g>
<!-- CourseProgressService&#45;&gt;CourseModule -->
<g id="edge14" class="edge">
<title>CourseProgressService&#45;&gt;CourseModule</title>
<path fill="none" stroke="black" d="M125,-84.89C125,-107.93 125,-144.8 125,-144.8 125,-144.8 1504.05,-144.8 1504.05,-144.8"/>
<polygon fill="black" stroke="black" points="1504.05,-148.3 1514.05,-144.8 1504.05,-141.3 1504.05,-148.3"/>
</g>
</g>
</svg>
