<?xml version="1.0" encoding="UTF-8" standalone="no"?>
<!DOCTYPE svg PUBLIC "-//W3C//DTD SVG 1.1//EN"
 "http://www.w3.org/Graphics/SVG/1.1/DTD/svg11.dtd">
<!-- Generated by graphviz version 5.0.0 (20220707.1540)
 -->
<!-- Title: dependencies Pages: 1 -->
<svg width="2296pt" height="174pt"
 viewBox="0.00 0.00 2296.00 173.80" xmlns="http://www.w3.org/2000/svg" xmlns:xlink="http://www.w3.org/1999/xlink">
<g id="graph0" class="graph" transform="scale(1 1) rotate(0) translate(4 169.8)">
<title>dependencies</title>
<polygon fill="white" stroke="transparent" points="-4,4 -4,-169.8 2292,-169.8 2292,4 -4,4"/>
<text text-anchor="middle" x="1144" y="-8.2" font-family="sans-serif" font-size="14.00">dependencies</text>
<g id="clust1" class="cluster">
<title>cluster_OrgManagementModule</title>
<polygon fill="none" stroke="black" stroke-dasharray="1,5" points="8,-32.8 8,-157.8 2280,-157.8 2280,-32.8 8,-32.8"/>
</g>
<g id="clust7" class="cluster">
<title>cluster_OrgManagementModule_imports</title>
<polygon fill="none" stroke="black" points="1700,-40.8 1700,-92.8 2272,-92.8 2272,-40.8 1700,-40.8"/>
</g>
<g id="clust2" class="cluster">
<title>cluster_OrgManagementModule_declarations</title>
<polygon fill="none" stroke="black" points="980,-40.8 980,-92.8 1692,-92.8 1692,-40.8 980,-40.8"/>
</g>
<g id="clust10" class="cluster">
<title>cluster_OrgManagementModule_providers</title>
<polygon fill="none" stroke="black" points="16,-40.8 16,-92.8 972,-92.8 972,-40.8 16,-40.8"/>
</g>
<!-- CreateOrgTypeComponent -->
<g id="node1" class="node">
<title>CreateOrgTypeComponent</title>
<polygon fill="#ffffb3" stroke="black" points="1684.4,-84.8 1515.6,-84.8 1515.6,-48.8 1684.4,-48.8 1684.4,-84.8"/>
<text text-anchor="middle" x="1600" y="-62.6" font-family="Times,serif" font-size="14.00">CreateOrgTypeComponent</text>
</g>
<!-- OrgManagementModule -->
<g id="node5" class="node">
<title>OrgManagementModule</title>
<polygon fill="#8dd3c7" stroke="black" points="1303.41,-149.8 1300.41,-153.8 1279.41,-153.8 1276.41,-149.8 1148.59,-149.8 1148.59,-113.8 1303.41,-113.8 1303.41,-149.8"/>
<text text-anchor="middle" x="1226" y="-127.6" font-family="Times,serif" font-size="14.00">OrgManagementModule</text>
</g>
<!-- CreateOrgTypeComponent&#45;&gt;OrgManagementModule -->
<g id="edge1" class="edge">
<title>CreateOrgTypeComponent&#45;&gt;OrgManagementModule</title>
<path fill="none" stroke="black" d="M1600,-85.04C1600,-100.37 1600,-119.8 1600,-119.8 1600,-119.8 1313.49,-119.8 1313.49,-119.8"/>
<polygon fill="black" stroke="black" points="1313.49,-116.3 1303.49,-119.8 1313.49,-123.3 1313.49,-116.3"/>
</g>
<!-- OrganizationUploadComponent -->
<g id="node2" class="node">
<title>OrganizationUploadComponent</title>
<polygon fill="#ffffb3" stroke="black" points="1497.63,-84.8 1302.37,-84.8 1302.37,-48.8 1497.63,-48.8 1497.63,-84.8"/>
<text text-anchor="middle" x="1400" y="-62.6" font-family="Times,serif" font-size="14.00">OrganizationUploadComponent</text>
</g>
<!-- OrganizationUploadComponent&#45;&gt;OrgManagementModule -->
<g id="edge2" class="edge">
<title>OrganizationUploadComponent&#45;&gt;OrgManagementModule</title>
<path fill="none" stroke="black" d="M1302.11,-66.8C1296.44,-66.8 1292.98,-66.8 1292.98,-66.8 1292.98,-66.8 1292.98,-103.69 1292.98,-103.69"/>
<polygon fill="black" stroke="black" points="1289.48,-103.69 1292.98,-113.69 1296.48,-103.69 1289.48,-103.69"/>
</g>
<!-- StatusComponent -->
<g id="node3" class="node">
<title>StatusComponent</title>
<polygon fill="#ffffb3" stroke="black" points="1283.56,-84.8 1168.44,-84.8 1168.44,-48.8 1283.56,-48.8 1283.56,-84.8"/>
<text text-anchor="middle" x="1226" y="-62.6" font-family="Times,serif" font-size="14.00">StatusComponent</text>
</g>
<!-- StatusComponent&#45;&gt;OrgManagementModule -->
<g id="edge3" class="edge">
<title>StatusComponent&#45;&gt;OrgManagementModule</title>
<path fill="none" stroke="black" d="M1226,-84.91C1226,-84.91 1226,-103.79 1226,-103.79"/>
<polygon fill="black" stroke="black" points="1222.5,-103.79 1226,-113.79 1229.5,-103.79 1222.5,-103.79"/>
</g>
<!-- ViewOrgTypeComponent -->
<g id="node4" class="node">
<title>ViewOrgTypeComponent</title>
<polygon fill="#ffffb3" stroke="black" points="1150.19,-84.8 987.81,-84.8 987.81,-48.8 1150.19,-48.8 1150.19,-84.8"/>
<text text-anchor="middle" x="1069" y="-62.6" font-family="Times,serif" font-size="14.00">ViewOrgTypeComponent</text>
</g>
<!-- ViewOrgTypeComponent&#45;&gt;OrgManagementModule -->
<g id="edge4" class="edge">
<title>ViewOrgTypeComponent&#45;&gt;OrgManagementModule</title>
<path fill="none" stroke="black" d="M1150.18,-66.8C1155.72,-66.8 1159.16,-66.8 1159.16,-66.8 1159.16,-66.8 1159.16,-103.69 1159.16,-103.69"/>
<polygon fill="black" stroke="black" points="1155.66,-103.69 1159.16,-113.69 1162.66,-103.69 1155.66,-103.69"/>
</g>
<!-- CoreModule -->
<g id="node6" class="node">
<title>CoreModule</title>
<polygon fill="#8dd3c7" stroke="black" points="2264.27,-84.8 2261.27,-88.8 2240.27,-88.8 2237.27,-84.8 2177.73,-84.8 2177.73,-48.8 2264.27,-48.8 2264.27,-84.8"/>
<text text-anchor="middle" x="2221" y="-62.6" font-family="Times,serif" font-size="14.00">CoreModule</text>
</g>
<!-- CoreModule&#45;&gt;OrgManagementModule -->
<g id="edge5" class="edge">
<title>CoreModule&#45;&gt;OrgManagementModule</title>
<path fill="none" stroke="black" d="M2221,-84.89C2221,-107.93 2221,-144.8 2221,-144.8 2221,-144.8 1313.25,-144.8 1313.25,-144.8"/>
<polygon fill="black" stroke="black" points="1313.25,-141.3 1303.25,-144.8 1313.25,-148.3 1313.25,-141.3"/>
</g>
<!-- OrgManagementRoutingModule -->
<g id="node7" class="node">
<title>OrgManagementRoutingModule</title>
<polygon fill="#8dd3c7" stroke="black" points="2159.52,-84.8 2156.52,-88.8 2135.52,-88.8 2132.52,-84.8 1960.48,-84.8 1960.48,-48.8 2159.52,-48.8 2159.52,-84.8"/>
<text text-anchor="middle" x="2060" y="-62.6" font-family="Times,serif" font-size="14.00">OrgManagementRoutingModule</text>
</g>
<!-- OrgManagementRoutingModule&#45;&gt;OrgManagementModule -->
<g id="edge6" class="edge">
<title>OrgManagementRoutingModule&#45;&gt;OrgManagementModule</title>
<path fill="none" stroke="black" d="M2060,-85.08C2060,-106.12 2060,-137.8 2060,-137.8 2060,-137.8 1313.34,-137.8 1313.34,-137.8"/>
<polygon fill="black" stroke="black" points="1313.34,-134.3 1303.34,-137.8 1313.34,-141.3 1313.34,-134.3"/>
</g>
<!-- SharedModule -->
<g id="node8" class="node">
<title>SharedModule</title>
<polygon fill="#8dd3c7" stroke="black" points="1942.43,-84.8 1939.43,-88.8 1918.43,-88.8 1915.43,-84.8 1843.57,-84.8 1843.57,-48.8 1942.43,-48.8 1942.43,-84.8"/>
<text text-anchor="middle" x="1893" y="-62.6" font-family="Times,serif" font-size="14.00">SharedModule</text>
</g>
<!-- SharedModule&#45;&gt;OrgManagementModule -->
<g id="edge7" class="edge">
<title>SharedModule&#45;&gt;OrgManagementModule</title>
<path fill="none" stroke="black" d="M1893,-84.91C1893,-104.14 1893,-131.8 1893,-131.8 1893,-131.8 1313.49,-131.8 1313.49,-131.8"/>
<polygon fill="black" stroke="black" points="1313.49,-128.3 1303.49,-131.8 1313.49,-135.3 1313.49,-128.3"/>
</g>
<!-- TelemetryModule -->
<g id="node9" class="node">
<title>TelemetryModule</title>
<polygon fill="#8dd3c7" stroke="black" points="1825.58,-84.8 1822.58,-88.8 1801.58,-88.8 1798.58,-84.8 1708.42,-84.8 1708.42,-48.8 1825.58,-48.8 1825.58,-84.8"/>
<text text-anchor="middle" x="1767" y="-62.6" font-family="Times,serif" font-size="14.00">TelemetryModule</text>
</g>
<!-- TelemetryModule&#45;&gt;OrgManagementModule -->
<g id="edge8" class="edge">
<title>TelemetryModule&#45;&gt;OrgManagementModule</title>
<path fill="none" stroke="black" d="M1767,-84.82C1767,-102.17 1767,-125.8 1767,-125.8 1767,-125.8 1313.22,-125.8 1313.22,-125.8"/>
<polygon fill="black" stroke="black" points="1313.22,-122.3 1303.22,-125.8 1313.22,-129.3 1313.22,-122.3"/>
</g>
<!-- OrgManagementService -->
<g id="node10" class="node">
<title>OrgManagementService</title>
<ellipse fill="#fdb462" stroke="black" cx="859" cy="-66.8" rx="105.35" ry="18"/>
<text text-anchor="middle" x="859" y="-62.6" font-family="Times,serif" font-size="14.00">OrgManagementService</text>
</g>
<!-- OrgManagementService&#45;&gt;OrgManagementModule -->
<g id="edge9" class="edge">
<title>OrgManagementService&#45;&gt;OrgManagementModule</title>
<path fill="none" stroke="black" d="M859,-85.04C859,-100.37 859,-119.8 859,-119.8 859,-119.8 1138.62,-119.8 1138.62,-119.8"/>
<polygon fill="black" stroke="black" points="1138.62,-123.3 1148.62,-119.8 1138.62,-116.3 1138.62,-123.3"/>
</g>
<!-- OrgTypeService -->
<g id="node11" class="node">
<title>OrgTypeService</title>
<ellipse fill="#fdb462" stroke="black" cx="661" cy="-66.8" rx="74.71" ry="18"/>
<text text-anchor="middle" x="661" y="-62.6" font-family="Times,serif" font-size="14.00">OrgTypeService</text>
</g>
<!-- OrgTypeService&#45;&gt;OrgManagementModule -->
<g id="edge10" class="edge">
<title>OrgTypeService&#45;&gt;OrgManagementModule</title>
<path fill="none" stroke="black" d="M661,-84.82C661,-102.17 661,-125.8 661,-125.8 661,-125.8 1138.62,-125.8 1138.62,-125.8"/>
<polygon fill="black" stroke="black" points="1138.62,-129.3 1148.62,-125.8 1138.62,-122.3 1138.62,-129.3"/>
</g>
<!-- ResourceService -->
<g id="node12" class="node">
<title>ResourceService</title>
<ellipse fill="#fdb462" stroke="black" cx="492" cy="-66.8" rx="75.85" ry="18"/>
<text text-anchor="middle" x="492" y="-62.6" font-family="Times,serif" font-size="14.00">ResourceService</text>
</g>
<!-- ResourceService&#45;&gt;OrgManagementModule -->
<g id="edge11" class="edge">
<title>ResourceService&#45;&gt;OrgManagementModule</title>
<path fill="none" stroke="black" d="M492,-84.91C492,-104.14 492,-131.8 492,-131.8 492,-131.8 1138.49,-131.8 1138.49,-131.8"/>
<polygon fill="black" stroke="black" points="1138.49,-135.3 1148.49,-131.8 1138.49,-128.3 1138.49,-135.3"/>
</g>
<!-- RouterNavigationService -->
<g id="node13" class="node">
<title>RouterNavigationService</title>
<ellipse fill="#fdb462" stroke="black" cx="289" cy="-66.8" rx="109.37" ry="18"/>
<text text-anchor="middle" x="289" y="-62.6" font-family="Times,serif" font-size="14.00">RouterNavigationService</text>
</g>
<!-- RouterNavigationService&#45;&gt;OrgManagementModule -->
<g id="edge12" class="edge">
<title>RouterNavigationService&#45;&gt;OrgManagementModule</title>
<path fill="none" stroke="black" d="M289,-85.08C289,-106.12 289,-137.8 289,-137.8 289,-137.8 1138.52,-137.8 1138.52,-137.8"/>
<polygon fill="black" stroke="black" points="1138.52,-141.3 1148.52,-137.8 1138.52,-134.3 1138.52,-141.3"/>
</g>
<!-- ToasterService -->
<g id="node14" class="node">
<title>ToasterService</title>
<ellipse fill="#fdb462" stroke="black" cx="93" cy="-66.8" rx="68.9" ry="18"/>
<text text-anchor="middle" x="93" y="-62.6" font-family="Times,serif" font-size="14.00">ToasterService</text>
</g>
<!-- ToasterService&#45;&gt;OrgManagementModule -->
<g id="edge13" class="edge">
<title>ToasterService&#45;&gt;OrgManagementModule</title>
<path fill="none" stroke="black" d="M93,-84.89C93,-107.93 93,-144.8 93,-144.8 93,-144.8 1138.57,-144.8 1138.57,-144.8"/>
<polygon fill="black" stroke="black" points="1138.57,-148.3 1148.57,-144.8 1138.57,-141.3 1138.57,-148.3"/>
</g>
</g>
</svg>
