<?xml version="1.0" encoding="UTF-8" standalone="no"?>
<!DOCTYPE svg PUBLIC "-//W3C//DTD SVG 1.1//EN"
 "http://www.w3.org/Graphics/SVG/1.1/DTD/svg11.dtd">
<!-- Generated by graphviz version 5.0.0 (20220707.1540)
 -->
<!-- Title: dependencies Pages: 1 -->
<svg width="2296pt" height="174pt"
 viewBox="0.00 0.00 2296.00 173.80" xmlns="http://www.w3.org/2000/svg" xmlns:xlink="http://www.w3.org/1999/xlink">
<g id="graph0" class="graph" transform="scale(1 1) rotate(0) translate(4 169.8)">
<title>dependencies</title>
<polygon fill="white" stroke="transparent" points="-4,4 -4,-169.8 2292,-169.8 2292,4 -4,4"/>
<text text-anchor="middle" x="1144" y="-8.2" font-family="sans-serif" font-size="14.00">dependencies</text>
<g id="clust1" class="cluster">
<title>cluster_OrgManagementModule</title>
<polygon fill="none" stroke="black" stroke-dasharray="1,5" points="8,-32.8 8,-157.8 2280,-157.8 2280,-32.8 8,-32.8"/>
</g>
<g id="clust2" class="cluster">
<title>cluster_OrgManagementModule_declarations</title>
<polygon fill="none" stroke="black" points="1560,-40.8 1560,-92.8 2272,-92.8 2272,-40.8 1560,-40.8"/>
</g>
<g id="clust7" class="cluster">
<title>cluster_OrgManagementModule_imports</title>
<polygon fill="none" stroke="black" points="980,-40.8 980,-92.8 1552,-92.8 1552,-40.8 980,-40.8"/>
</g>
<g id="clust10" class="cluster">
<title>cluster_OrgManagementModule_providers</title>
<polygon fill="none" stroke="black" points="16,-40.8 16,-92.8 972,-92.8 972,-40.8 16,-40.8"/>
</g>
<!-- CreateOrgTypeComponent -->
<g id="node1" class="node">
<title>CreateOrgTypeComponent</title>
<polygon fill="#ffffb3" stroke="black" points="2264.4,-84.8 2095.6,-84.8 2095.6,-48.8 2264.4,-48.8 2264.4,-84.8"/>
<text text-anchor="middle" x="2180" y="-62.6" font-family="Times,serif" font-size="14.00">CreateOrgTypeComponent</text>
</g>
<!-- OrgManagementModule -->
<g id="node5" class="node">
<title>OrgManagementModule</title>
<polygon fill="#8dd3c7" stroke="black" points="1250.41,-149.8 1247.41,-153.8 1226.41,-153.8 1223.41,-149.8 1095.59,-149.8 1095.59,-113.8 1250.41,-113.8 1250.41,-149.8"/>
<text text-anchor="middle" x="1173" y="-127.6" font-family="Times,serif" font-size="14.00">OrgManagementModule</text>
</g>
<!-- CreateOrgTypeComponent&#45;&gt;OrgManagementModule -->
<g id="edge1" class="edge">
<title>CreateOrgTypeComponent&#45;&gt;OrgManagementModule</title>
<path fill="none" stroke="black" d="M2180,-84.89C2180,-107.93 2180,-144.8 2180,-144.8 2180,-144.8 1260.35,-144.8 1260.35,-144.8"/>
<polygon fill="black" stroke="black" points="1260.35,-141.3 1250.35,-144.8 1260.35,-148.3 1260.35,-141.3"/>
</g>
<!-- OrganizationUploadComponent -->
<g id="node2" class="node">
<title>OrganizationUploadComponent</title>
<polygon fill="#ffffb3" stroke="black" points="2077.63,-84.8 1882.37,-84.8 1882.37,-48.8 2077.63,-48.8 2077.63,-84.8"/>
<text text-anchor="middle" x="1980" y="-62.6" font-family="Times,serif" font-size="14.00">OrganizationUploadComponent</text>
</g>
<!-- OrganizationUploadComponent&#45;&gt;OrgManagementModule -->
<g id="edge2" class="edge">
<title>OrganizationUploadComponent&#45;&gt;OrgManagementModule</title>
<path fill="none" stroke="black" d="M1980,-85.08C1980,-106.12 1980,-137.8 1980,-137.8 1980,-137.8 1260.38,-137.8 1260.38,-137.8"/>
<polygon fill="black" stroke="black" points="1260.38,-134.3 1250.38,-137.8 1260.38,-141.3 1260.38,-134.3"/>
</g>
<!-- StatusComponent -->
<g id="node3" class="node">
<title>StatusComponent</title>
<polygon fill="#ffffb3" stroke="black" points="1863.56,-84.8 1748.44,-84.8 1748.44,-48.8 1863.56,-48.8 1863.56,-84.8"/>
<text text-anchor="middle" x="1806" y="-62.6" font-family="Times,serif" font-size="14.00">StatusComponent</text>
</g>
<!-- StatusComponent&#45;&gt;OrgManagementModule -->
<g id="edge3" class="edge">
<title>StatusComponent&#45;&gt;OrgManagementModule</title>
<path fill="none" stroke="black" d="M1806,-84.91C1806,-104.14 1806,-131.8 1806,-131.8 1806,-131.8 1260.3,-131.8 1260.3,-131.8"/>
<polygon fill="black" stroke="black" points="1260.3,-128.3 1250.3,-131.8 1260.3,-135.3 1260.3,-128.3"/>
</g>
<!-- ViewOrgTypeComponent -->
<g id="node4" class="node">
<title>ViewOrgTypeComponent</title>
<polygon fill="#ffffb3" stroke="black" points="1730.19,-84.8 1567.81,-84.8 1567.81,-48.8 1730.19,-48.8 1730.19,-84.8"/>
<text text-anchor="middle" x="1649" y="-62.6" font-family="Times,serif" font-size="14.00">ViewOrgTypeComponent</text>
</g>
<!-- ViewOrgTypeComponent&#45;&gt;OrgManagementModule -->
<g id="edge4" class="edge">
<title>ViewOrgTypeComponent&#45;&gt;OrgManagementModule</title>
<path fill="none" stroke="black" d="M1649,-84.82C1649,-102.17 1649,-125.8 1649,-125.8 1649,-125.8 1260.27,-125.8 1260.27,-125.8"/>
<polygon fill="black" stroke="black" points="1260.27,-122.3 1250.27,-125.8 1260.27,-129.3 1260.27,-122.3"/>
</g>
<!-- CoreModule -->
<g id="node6" class="node">
<title>CoreModule</title>
<polygon fill="#8dd3c7" stroke="black" points="1544.27,-84.8 1541.27,-88.8 1520.27,-88.8 1517.27,-84.8 1457.73,-84.8 1457.73,-48.8 1544.27,-48.8 1544.27,-84.8"/>
<text text-anchor="middle" x="1501" y="-62.6" font-family="Times,serif" font-size="14.00">CoreModule</text>
</g>
<!-- CoreModule&#45;&gt;OrgManagementModule -->
<g id="edge5" class="edge">
<title>CoreModule&#45;&gt;OrgManagementModule</title>
<path fill="none" stroke="black" d="M1501,-85.04C1501,-100.37 1501,-119.8 1501,-119.8 1501,-119.8 1260.32,-119.8 1260.32,-119.8"/>
<polygon fill="black" stroke="black" points="1260.32,-116.3 1250.32,-119.8 1260.32,-123.3 1260.32,-116.3"/>
</g>
<!-- OrgManagementRoutingModule -->
<g id="node7" class="node">
<title>OrgManagementRoutingModule</title>
<polygon fill="#8dd3c7" stroke="black" points="1439.52,-84.8 1436.52,-88.8 1415.52,-88.8 1412.52,-84.8 1240.48,-84.8 1240.48,-48.8 1439.52,-48.8 1439.52,-84.8"/>
<text text-anchor="middle" x="1340" y="-62.6" font-family="Times,serif" font-size="14.00">OrgManagementRoutingModule</text>
</g>
<!-- OrgManagementRoutingModule&#45;&gt;OrgManagementModule -->
<g id="edge6" class="edge">
<title>OrgManagementRoutingModule&#45;&gt;OrgManagementModule</title>
<path fill="none" stroke="black" d="M1245.22,-84.91C1245.22,-84.91 1245.22,-103.79 1245.22,-103.79"/>
<polygon fill="black" stroke="black" points="1241.72,-103.79 1245.22,-113.79 1248.72,-103.79 1241.72,-103.79"/>
</g>
<!-- SharedModule -->
<g id="node8" class="node">
<title>SharedModule</title>
<polygon fill="#8dd3c7" stroke="black" points="1222.43,-84.8 1219.43,-88.8 1198.43,-88.8 1195.43,-84.8 1123.57,-84.8 1123.57,-48.8 1222.43,-48.8 1222.43,-84.8"/>
<text text-anchor="middle" x="1173" y="-62.6" font-family="Times,serif" font-size="14.00">SharedModule</text>
</g>
<!-- SharedModule&#45;&gt;OrgManagementModule -->
<g id="edge7" class="edge">
<title>SharedModule&#45;&gt;OrgManagementModule</title>
<path fill="none" stroke="black" d="M1173,-84.91C1173,-84.91 1173,-103.79 1173,-103.79"/>
<polygon fill="black" stroke="black" points="1169.5,-103.79 1173,-113.79 1176.5,-103.79 1169.5,-103.79"/>
</g>
<!-- TelemetryModule -->
<g id="node9" class="node">
<title>TelemetryModule</title>
<polygon fill="#8dd3c7" stroke="black" points="1105.58,-84.8 1102.58,-88.8 1081.58,-88.8 1078.58,-84.8 988.42,-84.8 988.42,-48.8 1105.58,-48.8 1105.58,-84.8"/>
<text text-anchor="middle" x="1047" y="-62.6" font-family="Times,serif" font-size="14.00">TelemetryModule</text>
</g>
<!-- TelemetryModule&#45;&gt;OrgManagementModule -->
<g id="edge8" class="edge">
<title>TelemetryModule&#45;&gt;OrgManagementModule</title>
<path fill="none" stroke="black" d="M1100.67,-84.91C1100.67,-84.91 1100.67,-103.79 1100.67,-103.79"/>
<polygon fill="black" stroke="black" points="1097.17,-103.79 1100.67,-113.79 1104.17,-103.79 1097.17,-103.79"/>
</g>
<!-- OrgManagementService -->
<g id="node10" class="node">
<title>OrgManagementService</title>
<ellipse fill="#fdb462" stroke="black" cx="859" cy="-66.8" rx="105.35" ry="18"/>
<text text-anchor="middle" x="859" y="-62.6" font-family="Times,serif" font-size="14.00">OrgManagementService</text>
</g>
<!-- OrgManagementService&#45;&gt;OrgManagementModule -->
<g id="edge9" class="edge">
<title>OrgManagementService&#45;&gt;OrgManagementModule</title>
<path fill="none" stroke="black" d="M859,-85.04C859,-100.37 859,-119.8 859,-119.8 859,-119.8 1085.78,-119.8 1085.78,-119.8"/>
<polygon fill="black" stroke="black" points="1085.78,-123.3 1095.78,-119.8 1085.78,-116.3 1085.78,-123.3"/>
</g>
<!-- OrgTypeService -->
<g id="node11" class="node">
<title>OrgTypeService</title>
<ellipse fill="#fdb462" stroke="black" cx="661" cy="-66.8" rx="74.71" ry="18"/>
<text text-anchor="middle" x="661" y="-62.6" font-family="Times,serif" font-size="14.00">OrgTypeService</text>
</g>
<!-- OrgTypeService&#45;&gt;OrgManagementModule -->
<g id="edge10" class="edge">
<title>OrgTypeService&#45;&gt;OrgManagementModule</title>
<path fill="none" stroke="black" d="M661,-84.82C661,-102.17 661,-125.8 661,-125.8 661,-125.8 1085.79,-125.8 1085.79,-125.8"/>
<polygon fill="black" stroke="black" points="1085.79,-129.3 1095.79,-125.8 1085.79,-122.3 1085.79,-129.3"/>
</g>
<!-- ResourceService -->
<g id="node12" class="node">
<title>ResourceService</title>
<ellipse fill="#fdb462" stroke="black" cx="492" cy="-66.8" rx="75.85" ry="18"/>
<text text-anchor="middle" x="492" y="-62.6" font-family="Times,serif" font-size="14.00">ResourceService</text>
</g>
<!-- ResourceService&#45;&gt;OrgManagementModule -->
<g id="edge11" class="edge">
<title>ResourceService&#45;&gt;OrgManagementModule</title>
<path fill="none" stroke="black" d="M492,-84.91C492,-104.14 492,-131.8 492,-131.8 492,-131.8 1085.54,-131.8 1085.54,-131.8"/>
<polygon fill="black" stroke="black" points="1085.54,-135.3 1095.54,-131.8 1085.54,-128.3 1085.54,-135.3"/>
</g>
<!-- RouterNavigationService -->
<g id="node13" class="node">
<title>RouterNavigationService</title>
<ellipse fill="#fdb462" stroke="black" cx="289" cy="-66.8" rx="109.37" ry="18"/>
<text text-anchor="middle" x="289" y="-62.6" font-family="Times,serif" font-size="14.00">RouterNavigationService</text>
</g>
<!-- RouterNavigationService&#45;&gt;OrgManagementModule -->
<g id="edge12" class="edge">
<title>RouterNavigationService&#45;&gt;OrgManagementModule</title>
<path fill="none" stroke="black" d="M289,-85.08C289,-106.12 289,-137.8 289,-137.8 289,-137.8 1085.71,-137.8 1085.71,-137.8"/>
<polygon fill="black" stroke="black" points="1085.71,-141.3 1095.71,-137.8 1085.71,-134.3 1085.71,-141.3"/>
</g>
<!-- ToasterService -->
<g id="node14" class="node">
<title>ToasterService</title>
<ellipse fill="#fdb462" stroke="black" cx="93" cy="-66.8" rx="68.9" ry="18"/>
<text text-anchor="middle" x="93" y="-62.6" font-family="Times,serif" font-size="14.00">ToasterService</text>
</g>
<!-- ToasterService&#45;&gt;OrgManagementModule -->
<g id="edge13" class="edge">
<title>ToasterService&#45;&gt;OrgManagementModule</title>
<path fill="none" stroke="black" d="M93,-84.89C93,-107.93 93,-144.8 93,-144.8 93,-144.8 1085.76,-144.8 1085.76,-144.8"/>
<polygon fill="black" stroke="black" points="1085.76,-148.3 1095.76,-144.8 1085.76,-141.3 1085.76,-148.3"/>
</g>
</g>
</svg>
