<?xml version="1.0" encoding="UTF-8" standalone="no"?>
<!DOCTYPE svg PUBLIC "-//W3C//DTD SVG 1.1//EN"
 "http://www.w3.org/Graphics/SVG/1.1/DTD/svg11.dtd">
<!-- Generated by graphviz version 5.0.0 (20220707.1540)
 -->
<!-- Title: dependencies Pages: 1 -->
<svg width="685pt" height="247pt"
 viewBox="0.00 0.00 685.00 246.80" xmlns="http://www.w3.org/2000/svg" xmlns:xlink="http://www.w3.org/1999/xlink">
<g id="graph0" class="graph" transform="scale(1 1) rotate(0) translate(4 242.8)">
<title>dependencies</title>
<polygon fill="white" stroke="transparent" points="-4,4 -4,-242.8 681,-242.8 681,4 -4,4"/>
<text text-anchor="middle" x="338.5" y="-8.2" font-family="sans-serif" font-size="14.00">dependencies</text>
<g id="clust1" class="cluster">
<title>cluster_DiscussionModule</title>
<polygon fill="none" stroke="black" stroke-dasharray="1,5" points="8,-32.8 8,-230.8 669,-230.8 669,-32.8 8,-32.8"/>
</g>
<g id="clust6" class="cluster">
<title>cluster_DiscussionModule_exports</title>
<polygon fill="none" stroke="black" points="254,-170.8 254,-222.8 456,-222.8 456,-170.8 254,-170.8"/>
</g>
<g id="clust5" class="cluster">
<title>cluster_DiscussionModule_imports</title>
<polygon fill="none" stroke="black" points="547,-40.8 547,-92.8 661,-92.8 661,-40.8 547,-40.8"/>
</g>
<g id="clust2" class="cluster">
<title>cluster_DiscussionModule_declarations</title>
<polygon fill="none" stroke="black" points="204,-40.8 204,-92.8 539,-92.8 539,-40.8 204,-40.8"/>
</g>
<g id="clust8" class="cluster">
<title>cluster_DiscussionModule_providers</title>
<polygon fill="none" stroke="black" points="16,-40.8 16,-92.8 196,-92.8 196,-40.8 16,-40.8"/>
</g>
<!-- AccessDiscussionComponent -->
<g id="node1" class="node">
<title>AccessDiscussionComponent</title>
<polygon fill="#ffffb3" stroke="black" points="531.43,-84.8 348.57,-84.8 348.57,-48.8 531.43,-48.8 531.43,-84.8"/>
<text text-anchor="middle" x="440" y="-62.6" font-family="Times,serif" font-size="14.00">AccessDiscussionComponent</text>
</g>
<!-- DiscussionModule -->
<g id="node3" class="node">
<title>DiscussionModule</title>
<polygon fill="#8dd3c7" stroke="black" points="415.5,-149.8 412.5,-153.8 391.5,-153.8 388.5,-149.8 294.5,-149.8 294.5,-113.8 415.5,-113.8 415.5,-149.8"/>
<text text-anchor="middle" x="355" y="-127.6" font-family="Times,serif" font-size="14.00">DiscussionModule</text>
</g>
<!-- AccessDiscussionComponent&#45;&gt;DiscussionModule -->
<g id="edge1" class="edge">
<title>AccessDiscussionComponent&#45;&gt;DiscussionModule</title>
<path fill="none" stroke="black" d="M382.14,-84.91C382.14,-84.91 382.14,-103.79 382.14,-103.79"/>
<polygon fill="black" stroke="black" points="378.64,-103.79 382.14,-113.79 385.64,-103.79 378.64,-103.79"/>
</g>
<!-- ForumComponent -->
<g id="node2" class="node">
<title>ForumComponent</title>
<polygon fill="#ffffb3" stroke="black" points="330.17,-84.8 211.83,-84.8 211.83,-48.8 330.17,-48.8 330.17,-84.8"/>
<text text-anchor="middle" x="271" y="-62.6" font-family="Times,serif" font-size="14.00">ForumComponent</text>
</g>
<!-- ForumComponent&#45;&gt;DiscussionModule -->
<g id="edge2" class="edge">
<title>ForumComponent&#45;&gt;DiscussionModule</title>
<path fill="none" stroke="black" d="M312.42,-84.91C312.42,-84.91 312.42,-103.79 312.42,-103.79"/>
<polygon fill="black" stroke="black" points="308.92,-103.79 312.42,-113.79 315.92,-103.79 308.92,-103.79"/>
</g>
<!-- AccessDiscussionComponent  -->
<g id="node5" class="node">
<title>AccessDiscussionComponent </title>
<polygon fill="#fb8072" stroke="black" points="447.93,-214.8 262.07,-214.8 262.07,-178.8 447.93,-178.8 447.93,-214.8"/>
<text text-anchor="middle" x="355" y="-192.6" font-family="Times,serif" font-size="14.00">AccessDiscussionComponent </text>
</g>
<!-- DiscussionModule&#45;&gt;AccessDiscussionComponent  -->
<g id="edge4" class="edge">
<title>DiscussionModule&#45;&gt;AccessDiscussionComponent </title>
<path fill="none" stroke="black" stroke-dasharray="5,2" d="M355,-149.91C355,-149.91 355,-168.79 355,-168.79"/>
<polygon fill="black" stroke="black" points="351.5,-168.79 355,-178.79 358.5,-168.79 351.5,-168.79"/>
</g>
<!-- SharedModule -->
<g id="node4" class="node">
<title>SharedModule</title>
<polygon fill="#8dd3c7" stroke="black" points="653.43,-84.8 650.43,-88.8 629.43,-88.8 626.43,-84.8 554.57,-84.8 554.57,-48.8 653.43,-48.8 653.43,-84.8"/>
<text text-anchor="middle" x="604" y="-62.6" font-family="Times,serif" font-size="14.00">SharedModule</text>
</g>
<!-- SharedModule&#45;&gt;DiscussionModule -->
<g id="edge3" class="edge">
<title>SharedModule&#45;&gt;DiscussionModule</title>
<path fill="none" stroke="black" d="M604,-84.91C604,-104.14 604,-131.8 604,-131.8 604,-131.8 425.59,-131.8 425.59,-131.8"/>
<polygon fill="black" stroke="black" points="425.59,-128.3 415.59,-131.8 425.59,-135.3 425.59,-128.3"/>
</g>
<!-- DiscussionService -->
<g id="node6" class="node">
<title>DiscussionService</title>
<ellipse fill="#fdb462" stroke="black" cx="106" cy="-66.8" rx="82.26" ry="18"/>
<text text-anchor="middle" x="106" y="-62.6" font-family="Times,serif" font-size="14.00">DiscussionService</text>
</g>
<!-- DiscussionService&#45;&gt;DiscussionModule -->
<g id="edge5" class="edge">
<title>DiscussionService&#45;&gt;DiscussionModule</title>
<path fill="none" stroke="black" d="M106,-84.91C106,-104.14 106,-131.8 106,-131.8 106,-131.8 284.41,-131.8 284.41,-131.8"/>
<polygon fill="black" stroke="black" points="284.41,-135.3 294.41,-131.8 284.41,-128.3 284.41,-135.3"/>
</g>
</g>
</svg>
