<?xml version="1.0" encoding="UTF-8" standalone="no"?>
<!DOCTYPE svg PUBLIC "-//W3C//DTD SVG 1.1//EN"
 "http://www.w3.org/Graphics/SVG/1.1/DTD/svg11.dtd">
<!-- Generated by graphviz version 5.0.0 (20220707.1540)
 -->
<!-- Title: dependencies Pages: 1 -->
<svg width="685pt" height="247pt"
 viewBox="0.00 0.00 685.00 246.80" xmlns="http://www.w3.org/2000/svg" xmlns:xlink="http://www.w3.org/1999/xlink">
<g id="graph0" class="graph" transform="scale(1 1) rotate(0) translate(4 242.8)">
<title>dependencies</title>
<polygon fill="white" stroke="transparent" points="-4,4 -4,-242.8 681,-242.8 681,4 -4,4"/>
<text text-anchor="middle" x="338.5" y="-8.2" font-family="sans-serif" font-size="14.00">dependencies</text>
<g id="clust1" class="cluster">
<title>cluster_DiscussionModule</title>
<polygon fill="none" stroke="black" stroke-dasharray="1,5" points="8,-32.8 8,-230.8 669,-230.8 669,-32.8 8,-32.8"/>
</g>
<g id="clust2" class="cluster">
<title>cluster_DiscussionModule_declarations</title>
<polygon fill="none" stroke="black" points="326,-40.8 326,-92.8 661,-92.8 661,-40.8 326,-40.8"/>
</g>
<g id="clust6" class="cluster">
<title>cluster_DiscussionModule_exports</title>
<polygon fill="none" stroke="black" points="226,-170.8 226,-222.8 428,-222.8 428,-170.8 226,-170.8"/>
</g>
<g id="clust5" class="cluster">
<title>cluster_DiscussionModule_imports</title>
<polygon fill="none" stroke="black" points="204,-40.8 204,-92.8 318,-92.8 318,-40.8 204,-40.8"/>
</g>
<g id="clust8" class="cluster">
<title>cluster_DiscussionModule_providers</title>
<polygon fill="none" stroke="black" points="16,-40.8 16,-92.8 196,-92.8 196,-40.8 16,-40.8"/>
</g>
<!-- AccessDiscussionComponent -->
<g id="node1" class="node">
<title>AccessDiscussionComponent</title>
<polygon fill="#ffffb3" stroke="black" points="653.43,-84.8 470.57,-84.8 470.57,-48.8 653.43,-48.8 653.43,-84.8"/>
<text text-anchor="middle" x="562" y="-62.6" font-family="Times,serif" font-size="14.00">AccessDiscussionComponent</text>
</g>
<!-- DiscussionModule -->
<g id="node3" class="node">
<title>DiscussionModule</title>
<polygon fill="#8dd3c7" stroke="black" points="387.5,-149.8 384.5,-153.8 363.5,-153.8 360.5,-149.8 266.5,-149.8 266.5,-113.8 387.5,-113.8 387.5,-149.8"/>
<text text-anchor="middle" x="327" y="-127.6" font-family="Times,serif" font-size="14.00">DiscussionModule</text>
</g>
<!-- AccessDiscussionComponent&#45;&gt;DiscussionModule -->
<g id="edge1" class="edge">
<title>AccessDiscussionComponent&#45;&gt;DiscussionModule</title>
<path fill="none" stroke="black" d="M562,-84.91C562,-104.14 562,-131.8 562,-131.8 562,-131.8 397.52,-131.8 397.52,-131.8"/>
<polygon fill="black" stroke="black" points="397.52,-128.3 387.52,-131.8 397.52,-135.3 397.52,-128.3"/>
</g>
<!-- ForumComponent -->
<g id="node2" class="node">
<title>ForumComponent</title>
<polygon fill="#ffffb3" stroke="black" points="452.17,-84.8 333.83,-84.8 333.83,-48.8 452.17,-48.8 452.17,-84.8"/>
<text text-anchor="middle" x="393" y="-62.6" font-family="Times,serif" font-size="14.00">ForumComponent</text>
</g>
<!-- ForumComponent&#45;&gt;DiscussionModule -->
<g id="edge2" class="edge">
<title>ForumComponent&#45;&gt;DiscussionModule</title>
<path fill="none" stroke="black" d="M360.58,-84.91C360.58,-84.91 360.58,-103.79 360.58,-103.79"/>
<polygon fill="black" stroke="black" points="357.08,-103.79 360.58,-113.79 364.08,-103.79 357.08,-103.79"/>
</g>
<!-- AccessDiscussionComponent  -->
<g id="node5" class="node">
<title>AccessDiscussionComponent </title>
<polygon fill="#fb8072" stroke="black" points="419.93,-214.8 234.07,-214.8 234.07,-178.8 419.93,-178.8 419.93,-214.8"/>
<text text-anchor="middle" x="327" y="-192.6" font-family="Times,serif" font-size="14.00">AccessDiscussionComponent </text>
</g>
<!-- DiscussionModule&#45;&gt;AccessDiscussionComponent  -->
<g id="edge4" class="edge">
<title>DiscussionModule&#45;&gt;AccessDiscussionComponent </title>
<path fill="none" stroke="black" stroke-dasharray="5,2" d="M327,-149.91C327,-149.91 327,-168.79 327,-168.79"/>
<polygon fill="black" stroke="black" points="323.5,-168.79 327,-178.79 330.5,-168.79 323.5,-168.79"/>
</g>
<!-- SharedModule -->
<g id="node4" class="node">
<title>SharedModule</title>
<polygon fill="#8dd3c7" stroke="black" points="310.43,-84.8 307.43,-88.8 286.43,-88.8 283.43,-84.8 211.57,-84.8 211.57,-48.8 310.43,-48.8 310.43,-84.8"/>
<text text-anchor="middle" x="261" y="-62.6" font-family="Times,serif" font-size="14.00">SharedModule</text>
</g>
<!-- SharedModule&#45;&gt;DiscussionModule -->
<g id="edge3" class="edge">
<title>SharedModule&#45;&gt;DiscussionModule</title>
<path fill="none" stroke="black" d="M288.36,-84.91C288.36,-84.91 288.36,-103.79 288.36,-103.79"/>
<polygon fill="black" stroke="black" points="284.86,-103.79 288.36,-113.79 291.86,-103.79 284.86,-103.79"/>
</g>
<!-- DiscussionService -->
<g id="node6" class="node">
<title>DiscussionService</title>
<ellipse fill="#fdb462" stroke="black" cx="106" cy="-66.8" rx="82.26" ry="18"/>
<text text-anchor="middle" x="106" y="-62.6" font-family="Times,serif" font-size="14.00">DiscussionService</text>
</g>
<!-- DiscussionService&#45;&gt;DiscussionModule -->
<g id="edge5" class="edge">
<title>DiscussionService&#45;&gt;DiscussionModule</title>
<path fill="none" stroke="black" d="M106,-84.91C106,-104.14 106,-131.8 106,-131.8 106,-131.8 256.32,-131.8 256.32,-131.8"/>
<polygon fill="black" stroke="black" points="256.32,-135.3 266.32,-131.8 256.32,-128.3 256.32,-135.3"/>
</g>
</g>
</svg>
